<?xml version="1.0" encoding="utf-8"?>
<!-- Generator: Adobe Illustrator 22.1.0, SVG Export Plug-In . SVG Version: 6.00 Build 0)  -->
<svg version="1.1" id="Layer_1" xmlns="http://www.w3.org/2000/svg" xmlns:xlink="http://www.w3.org/1999/xlink" x="0px" y="0px"
	 viewBox="0 0 275 768" style="enable-background:new 0 0 275 768;" xml:space="preserve">
<style type="text/css">
	.st0{fill:#FFFFFF;}
	.st1{fill:#00A79C;}
	.st2{fill:none;stroke:#00A79C;stroke-width:7;stroke-linecap:round;stroke-linejoin:round;}
	.st3{fill:#FFFFFF;stroke:#231F20;stroke-miterlimit:10;}
	.st4{fill:#AAAAAA;}
	.st5{font-family:'Helvetica-Bold';}
	.st6{font-size:12px;}
	.st7{font-size:9px;}
	.st8{font-size:10px;}
	.st9{fill:#FFFDFD;}
	.st10{font-size:17px;}
	.st11{font-size:11px;}
	.st12{font-size:13px;}
	.st13{font-size:15px;}
</style>
<path class="st0" d="M10.5,500.9c0-1.2,0.3-2.2,1-2.9c0.7-0.8,1.6-1.1,2.7-1.1c1.7,0,2.9,0.8,3.5,2.3c0.4,0.9,0.5,2,0.5,3.4
	c0,1.4-0.2,2.5-0.5,3.4c-0.7,1.7-1.9,2.6-3.7,2.6c-0.8,0-1.6-0.2-2.3-0.8c-0.7-0.5-1.1-1.2-1.2-2.2h2.2c0.1,0.3,0.2,0.6,0.4,0.8
	c0.2,0.2,0.5,0.3,0.9,0.3c0.7,0,1.2-0.4,1.5-1.2c0.2-0.4,0.3-1.1,0.3-2c-0.2,0.3-0.4,0.5-0.6,0.6c-0.4,0.2-0.9,0.4-1.5,0.4
	c-0.9,0-1.7-0.3-2.4-0.9C10.8,503,10.5,502.1,10.5,500.9z M14.4,502.7c0.3,0,0.6-0.1,0.9-0.3c0.5-0.3,0.8-0.9,0.8-1.7
	c0-0.6-0.2-1.1-0.5-1.5c-0.3-0.4-0.7-0.6-1.2-0.6c-0.4,0-0.7,0.1-1,0.3c-0.4,0.3-0.6,0.9-0.6,1.7c0,0.7,0.1,1.2,0.4,1.5
	C13.4,502.6,13.8,502.7,14.4,502.7z M20.7,500.1h2.4v2.3h-2.4V500.1z M20.7,505.9h2.4v2.3h-2.4V505.9z M27,502.7
	c0,1.3,0.1,2.3,0.3,3c0.2,0.7,0.7,1,1.3,1c0.7,0,1.1-0.3,1.3-1c0.2-0.7,0.3-1.7,0.3-3c0-1.4-0.1-2.4-0.3-3c-0.2-0.7-0.6-1-1.3-1
	c-0.7,0-1.1,0.3-1.3,1C27.1,500.3,27,501.3,27,502.7z M28.6,496.9c1.4,0,2.5,0.5,3,1.5c0.6,1,0.9,2.5,0.9,4.3c0,1.9-0.3,3.3-0.9,4.3
	c-0.6,1-1.6,1.5-3,1.5c-1.4,0-2.5-0.5-3-1.5c-0.6-1-0.9-2.5-0.9-4.3c0-1.9,0.3-3.3,0.9-4.3C26.2,497.4,27.2,496.9,28.6,496.9z
	 M35.9,502.7c0,1.3,0.1,2.3,0.3,3c0.2,0.7,0.7,1,1.3,1c0.7,0,1.1-0.3,1.3-1c0.2-0.7,0.3-1.7,0.3-3c0-1.4-0.1-2.4-0.3-3
	c-0.2-0.7-0.6-1-1.3-1c-0.7,0-1.1,0.3-1.3,1C36,500.3,35.9,501.3,35.9,502.7z M37.5,496.9c1.4,0,2.5,0.5,3,1.5
	c0.6,1,0.9,2.5,0.9,4.3c0,1.9-0.3,3.3-0.9,4.3c-0.6,1-1.6,1.5-3,1.5c-1.4,0-2.5-0.5-3-1.5c-0.6-1-0.9-2.5-0.9-4.3
	c0-1.9,0.3-3.3,0.9-4.3C35.1,497.4,36.1,496.9,37.5,496.9z M54.2,500.4c0-0.6-0.2-1-0.5-1.3c-0.3-0.3-0.8-0.4-1.3-0.4h-2.2v3.4h2.2
	c0.6,0,1-0.1,1.3-0.4C54,501.5,54.2,501,54.2,500.4z M56.6,500.4c0,1.4-0.3,2.3-1,2.9c-0.7,0.6-1.7,0.8-2.9,0.8h-2.4v4.1h-2.4v-11.5
	h5c1.2,0,2.1,0.3,2.8,0.9S56.6,499.2,56.6,500.4z M66,496.8h3.5v11.5h-2.2v-7.8c0-0.2,0-0.5,0-0.9c0-0.4,0-0.7,0-0.9l-2.2,9.7h-2.3
	l-2.2-9.7c0,0.2,0,0.5,0,0.9c0,0.4,0,0.7,0,0.9v7.8h-2.2v-11.5h3.5l2.1,9.1L66,496.8z"/>
<path class="st0" d="M12.7,336c0,0.6,0.1,1,0.4,1.3c0.3,0.3,0.7,0.5,1.2,0.5c0.5,0,0.9-0.2,1.2-0.5c0.3-0.3,0.4-0.7,0.4-1.3
	c0-0.6-0.1-1-0.4-1.3c-0.3-0.3-0.7-0.5-1.2-0.5s-0.9,0.2-1.2,0.5C12.9,335,12.7,335.4,12.7,336z M10.4,336.1c0-0.6,0.1-1.2,0.4-1.7
	c0.3-0.5,0.7-0.9,1.3-1.2c-0.5-0.4-0.9-0.8-1.1-1.2c-0.2-0.4-0.2-0.8-0.2-1.2c0-0.8,0.3-1.5,0.9-2.1c0.6-0.6,1.5-0.9,2.6-0.9
	c1.1,0,2,0.3,2.6,0.9c0.6,0.6,0.9,1.3,0.9,2.1c0,0.4-0.1,0.8-0.2,1.2c-0.2,0.4-0.5,0.8-1.1,1.1c0.6,0.3,1,0.7,1.3,1.2
	c0.3,0.5,0.4,1.1,0.4,1.7c0,1-0.4,1.8-1.1,2.4c-0.7,0.7-1.7,1-3,1c-1.3,0-2.2-0.3-2.9-1C10.7,337.9,10.4,337.1,10.4,336.1z
	 M12.9,331.1c0,0.4,0.1,0.7,0.4,1c0.3,0.3,0.6,0.4,1.1,0.4c0.5,0,0.8-0.1,1-0.4c0.2-0.3,0.4-0.6,0.4-1c0-0.4-0.1-0.8-0.4-1
	c-0.2-0.3-0.6-0.4-1-0.4c-0.4,0-0.8,0.1-1.1,0.4C13.1,330.3,12.9,330.7,12.9,331.1z M20.7,331.1h2.4v2.3h-2.4V331.1z M20.7,336.9
	h2.4v2.3h-2.4V336.9z M27,333.7c0,1.3,0.1,2.3,0.3,3c0.2,0.7,0.7,1,1.3,1c0.7,0,1.1-0.3,1.3-1c0.2-0.7,0.3-1.7,0.3-3
	c0-1.4-0.1-2.4-0.3-3c-0.2-0.7-0.6-1-1.3-1c-0.7,0-1.1,0.3-1.3,1C27.1,331.3,27,332.3,27,333.7z M28.6,327.9c1.4,0,2.5,0.5,3,1.5
	c0.6,1,0.9,2.5,0.9,4.3c0,1.9-0.3,3.3-0.9,4.3c-0.6,1-1.6,1.5-3,1.5c-1.4,0-2.5-0.5-3-1.5c-0.6-1-0.9-2.5-0.9-4.3
	c0-1.9,0.3-3.3,0.9-4.3C26.2,328.4,27.2,327.9,28.6,327.9z M35.9,333.7c0,1.3,0.1,2.3,0.3,3c0.2,0.7,0.7,1,1.3,1
	c0.7,0,1.1-0.3,1.3-1c0.2-0.7,0.3-1.7,0.3-3c0-1.4-0.1-2.4-0.3-3c-0.2-0.7-0.6-1-1.3-1c-0.7,0-1.1,0.3-1.3,1
	C36,331.3,35.9,332.3,35.9,333.7z M37.5,327.9c1.4,0,2.5,0.5,3,1.5c0.6,1,0.9,2.5,0.9,4.3c0,1.9-0.3,3.3-0.9,4.3
	c-0.6,1-1.6,1.5-3,1.5c-1.4,0-2.5-0.5-3-1.5c-0.6-1-0.9-2.5-0.9-4.3c0-1.9,0.3-3.3,0.9-4.3C35.1,328.4,36.1,327.9,37.5,327.9z
	 M54.2,331.4c0-0.6-0.2-1-0.5-1.3c-0.3-0.3-0.8-0.4-1.3-0.4h-2.2v3.4h2.2c0.6,0,1-0.1,1.3-0.4C54,332.5,54.2,332,54.2,331.4z
	 M56.6,331.4c0,1.4-0.3,2.3-1,2.9c-0.7,0.6-1.7,0.8-2.9,0.8h-2.4v4.1h-2.4v-11.5h5c1.2,0,2.1,0.3,2.8,0.9S56.6,330.2,56.6,331.4z
	 M66,327.8h3.5v11.5h-2.2v-7.8c0-0.2,0-0.5,0-0.9c0-0.4,0-0.7,0-0.9l-2.2,9.7h-2.3l-2.2-9.7c0,0.2,0,0.5,0,0.9c0,0.4,0,0.7,0,0.9
	v7.8h-2.2v-11.5h3.5l2.1,9.1L66,327.8z"/>
<path class="st0" d="M16.9,136.6c-0.3,0.3-0.8,0.9-1.4,1.8c-0.6,0.8-1.1,1.7-1.5,2.6c-0.3,0.7-0.6,1.6-0.9,2.6
	c-0.3,1-0.4,1.8-0.4,2.5h-2.3c0.1-2,0.7-4.1,2-6.3c0.8-1.4,1.5-2.3,2.1-2.8H8.9l0-2h8V136.6z M19.2,137.8h2.4v2.3h-2.4V137.8z
	 M19.2,143.7h2.4v2.3h-2.4V143.7z M25.5,140.4c0,1.3,0.1,2.3,0.3,3c0.2,0.7,0.7,1,1.3,1c0.7,0,1.1-0.3,1.3-1c0.2-0.7,0.3-1.7,0.3-3
	c0-1.4-0.1-2.4-0.3-3c-0.2-0.7-0.6-1-1.3-1c-0.7,0-1.1,0.3-1.3,1C25.6,138.1,25.5,139.1,25.5,140.4z M27.1,134.6
	c1.4,0,2.5,0.5,3,1.5c0.6,1,0.9,2.5,0.9,4.3c0,1.9-0.3,3.3-0.9,4.3c-0.6,1-1.6,1.5-3,1.5c-1.4,0-2.5-0.5-3-1.5
	c-0.6-1-0.9-2.5-0.9-4.3c0-1.9,0.3-3.3,0.9-4.3C24.7,135.1,25.7,134.6,27.1,134.6z M34.4,140.4c0,1.3,0.1,2.3,0.3,3
	c0.2,0.7,0.7,1,1.3,1c0.7,0,1.1-0.3,1.3-1c0.2-0.7,0.3-1.7,0.3-3c0-1.4-0.1-2.4-0.3-3c-0.2-0.7-0.6-1-1.3-1c-0.7,0-1.1,0.3-1.3,1
	C34.5,138.1,34.4,139.1,34.4,140.4z M36,134.6c1.4,0,2.5,0.5,3,1.5c0.6,1,0.9,2.5,0.9,4.3c0,1.9-0.3,3.3-0.9,4.3
	c-0.6,1-1.6,1.5-3,1.5c-1.4,0-2.5-0.5-3-1.5c-0.6-1-0.9-2.5-0.9-4.3c0-1.9,0.3-3.3,0.9-4.3C33.6,135.1,34.6,134.6,36,134.6z
	 M52.7,138.1c0-0.6-0.2-1-0.5-1.3c-0.3-0.3-0.8-0.4-1.3-0.4h-2.2v3.4h2.2c0.6,0,1-0.1,1.3-0.4C52.5,139.2,52.7,138.7,52.7,138.1z
	 M55.1,138.1c0,1.4-0.3,2.3-1,2.9c-0.7,0.6-1.7,0.8-2.9,0.8h-2.4v4.1h-2.4v-11.5h5c1.2,0,2.1,0.3,2.8,0.9S55.1,136.9,55.1,138.1z
	 M64.5,134.5H68V146h-2.2v-7.8c0-0.2,0-0.5,0-0.9c0-0.4,0-0.7,0-0.9l-2.2,9.7h-2.3l-2.2-9.7c0,0.2,0,0.5,0,0.9c0,0.4,0,0.7,0,0.9
	v7.8h-2.2v-11.5h3.5l2.1,9.1L64.5,134.5z"/>
<path class="st1" d="M92.3,124.8c-0.7-1.8-2.7-2.7-4.5-2c-1.8,0.7-2.7,2.7-2,4.5L92.3,124.8z M180,146.5c1.9,0,3.5-1.6,3.5-3.5
	s-1.6-3.5-3.5-3.5V146.5z M93.7,136l-3,1.8c0,0.1,0.1,0.1,0.1,0.2L93.7,136z M91.1,131.5L88,133L91.1,131.5z M95.6,138.7l-2.9,2
	L95.6,138.7z M103.6,146.5H180v-7h-76.4V146.5z M90.8,138l1.8,2.7l5.8-3.9l-1.8-2.7L90.8,138z M85.7,127.2l1.5,4l6.5-2.5l-1.5-4
	L85.7,127.2z M88.9,134.7l1.8,3.1l6-3.5l-1.8-3.1L88.9,134.7z M87.2,131.2c0.3,0.7,0.5,1.3,0.7,1.8l6.3-3c-0.1-0.2-0.2-0.4-0.5-1.3
	L87.2,131.2z M95,131.2c-0.4-0.8-0.6-1-0.7-1.2l-6.3,3c0.3,0.5,0.5,1,0.9,1.7L95,131.2z M92.7,140.7c0.5,0.7,1,1.4,1.6,2l4.9-5
	c-0.3-0.3-0.5-0.6-0.8-0.9L92.7,140.7z M103.6,139.5c-1.6,0-3.2-0.6-4.4-1.8l-4.9,5c2.5,2.5,5.8,3.8,9.3,3.8V139.5z"/>
<path class="st1" d="M92,484.2c-1-1.6-3.2-2.2-4.8-1.2c-1.7,1-2.2,3.2-1.2,4.8L92,484.2z M230,506c1.9,0,3.5-1.6,3.5-3.5
	s-1.6-3.5-3.5-3.5V506z M96.3,495.7l-2.6,2.4c0,0,0,0,0,0L96.3,495.7z M93.6,492.8l-2.6,2.4L93.6,492.8z M92.3,491.3l2.8-2.1
	L92.3,491.3z M99,498.5l-2.5,2.4L99,498.5z M99.5,499l-2.4,2.5L99.5,499z M100.6,499.9l-2,2.8L100.6,499.9z M106.6,502.5l0.3-3.5
	L106.6,502.5z M102.8,501.3l-1.7,3.1L102.8,501.3z M108.5,506H230v-7H108.5V506z M93.8,498.1l2.7,2.8l5-4.9l-2.7-2.8L93.8,498.1z
	 M86,487.8l2.2,3.6l6-3.6l-2.2-3.6L86,487.8z M91.1,495.2l2.7,2.9l5.1-4.8l-2.7-2.9L91.1,495.2z M88.2,491.4c0.5,0.8,0.9,1.4,1.3,2
	l5.6-4.2c-0.2-0.2-0.3-0.5-0.9-1.4L88.2,491.4z M96.2,490.4c-0.7-0.8-0.9-1-1.1-1.2l-5.6,4.2c0.4,0.6,0.9,1.1,1.6,1.8L96.2,490.4z
	 M96.5,500.9c0.2,0.2,0.4,0.4,0.6,0.6l4.9-5c-0.1-0.1-0.1-0.1-0.4-0.4L96.5,500.9z M103.1,497.4c-0.3-0.2-0.4-0.3-0.5-0.3l-4.1,5.7
	c0.2,0.1,0.4,0.3,0.7,0.5L103.1,497.4z M97.1,501.5c0.5,0.5,1,0.9,1.5,1.3l4.1-5.7c-0.3-0.2-0.5-0.4-0.7-0.6L97.1,501.5z M108.5,499
	c-1,0-1.3,0-1.6,0l-0.7,7c0.7,0.1,1.3,0.1,2.2,0.1V499z M99.2,503.2c0.7,0.5,1.3,0.9,1.9,1.2l3.3-6.2c-0.2-0.1-0.5-0.3-1.3-0.8
	L99.2,503.2z M106.9,499c-0.9-0.1-1.7-0.3-2.5-0.7l-3.3,6.2c1.6,0.9,3.3,1.4,5.1,1.6L106.9,499z"/>
<path class="st2" d="M89,95v650.5"/>
<path class="st2" d="M132,594.9h8h7.5h7.2c0.9,0,1.3,0,1.7,0c0.4,0,0.9-0.1,1.7-0.3l2.6-0.5c2.1-0.4,3.1-0.5,4-0.9
	c1-0.4,1.8-1,3.6-2.1l2.1-1.4c1-0.7,1.5-1,1.9-1.4c0.4-0.4,0.8-0.8,1.6-1.7l4.9-5.3"/>
<path class="st2" d="M227.8,594.9h-8h-7.5h-7.2c-0.9,0-1.3,0-1.7,0c-0.4,0-0.9-0.1-1.7-0.3l-2.6-0.5c-2.1-0.4-3.1-0.5-4-0.9
	c-1-0.4-1.8-1-3.6-2.1l-2.1-1.4c-1-0.7-1.5-1-1.9-1.4c-0.4-0.4-0.8-0.8-1.6-1.7l-4.9-5.3"/>
<path class="st1" d="M170.5,500.7c-1.3-1.5-3.5-1.6-4.9-0.2c-1.4,1.4-1.5,3.8-0.1,5.3L170.5,500.7z M176.5,694.4
	c0,2.1,1.6,3.7,3.5,3.7s3.5-1.7,3.5-3.7H176.5z M178.9,517.5l-3.3,1.3L178.9,517.5z M178.7,516.9l3.2-1.5L178.7,516.9z M174.9,511.1
	l-2.5,2.6L174.9,511.1z M175.9,512.2l2.7-2.4L175.9,512.2z M176,512.4l2.8-2.3L176,512.4z M180,523.1l3.5-0.3L180,523.1z
	 M179.9,522.9l-3.5,0.4L179.9,522.9z M183.5,694.4V548.8h-7v145.7H183.5z M183.5,548.8v-24h-7v24H183.5z M177.5,508.5l-6.9-7.9
	l-5.1,5.1l6.9,7.9L177.5,508.5z M183.1,520.5c-0.3-1.8-0.5-3.1-0.9-4.3l-6.6,2.6c0.2,0.5,0.3,1.1,0.6,3.1L183.1,520.5z M174,515.8
	c1,1.7,1.3,2.2,1.5,2.7l6.4-3c-0.5-1.2-1.2-2.3-2.1-3.8L174,515.8z M182.2,516.2c-0.1-0.3-0.2-0.5-0.3-0.8l-6.4,3
	c0,0.1,0.1,0.2,0.1,0.4L182.2,516.2z M172.4,513.7c0.5,0.6,0.7,0.8,0.8,0.9l5.4-4.7c-0.3-0.4-0.7-0.8-1.1-1.3L172.4,513.7z
	 M179.8,511.6c-0.4-0.6-0.7-1-1-1.5l-5.5,4.6c0.1,0.2,0.2,0.4,0.7,1L179.8,511.6z M173.2,514.6c0,0,0.1,0.1,0.1,0.1l5.5-4.6
	c-0.1-0.1-0.1-0.2-0.2-0.3L173.2,514.6z M183.5,524.8c0-0.8,0-1.4,0-2l-7,0.6c0,0.2,0,0.5,0,1.4H183.5z M176.3,521.9
	c0.2,0.9,0.2,1.2,0.2,1.4l7-0.8c-0.1-0.6-0.2-1.2-0.3-2L176.3,521.9z M183.5,522.8c0-0.1,0-0.2,0-0.3l-7,0.8c0,0,0,0.1,0,0.1
	L183.5,522.8z"/>
<path class="st3" d="M179.8,149.6c3.8,0,6.8-3,6.8-6.8s-3-6.8-6.8-6.8s-6.8,3-6.8,6.8S176,149.6,179.8,149.6z"/>
<path class="st3" d="M131.8,509.6c3.8,0,6.8-3,6.8-6.8c0-3.8-3-6.8-6.8-6.8s-6.8,3-6.8,6.8C125,506.6,128,509.6,131.8,509.6z"/>
<path class="st3" d="M131.8,601.6c3.8,0,6.8-3,6.8-6.8c0-3.8-3-6.8-6.8-6.8s-6.8,3-6.8,6.8C125,598.6,128,601.6,131.8,601.6z"/>
<path class="st3" d="M227.8,509.6c3.8,0,6.8-3,6.8-6.8c0-3.8-3-6.8-6.8-6.8s-6.8,3-6.8,6.8C221,506.6,224,509.6,227.8,509.6z"/>
<path class="st3" d="M227.8,601.6c3.8,0,6.8-3,6.8-6.8c0-3.8-3-6.8-6.8-6.8s-6.8,3-6.8,6.8C221,598.6,224,601.6,227.8,601.6z"/>
<path class="st3" d="M179.8,579.6c3.8,0,6.8-3,6.8-6.8c0-3.8-3-6.8-6.8-6.8s-6.8,3-6.8,6.8C173,576.6,176,579.6,179.8,579.6z"/>
<path class="st3" d="M179.8,706.9c3.8,0,6.8-3,6.8-6.8c0-3.8-3-6.8-6.8-6.8s-6.8,3-6.8,6.8C173,703.8,176,706.9,179.8,706.9z"/>
<path class="st0" d="M154.1,157.5h2.4v4.7l4.4-4.7h3.1l-4.7,4.7l5,6.8h-3.1l-3.6-5l-1.1,1.2v3.9h-2.4V157.5z M167.8,159.5h-2.3v-2.1
	h2.3V159.5z M165.5,160.5h2.3v8.5h-2.3V160.5z M175,163.5c0-0.3-0.1-0.6-0.3-0.9c-0.2-0.3-0.6-0.5-1.2-0.5c-0.8,0-1.3,0.4-1.5,1.1
	c-0.1,0.4-0.2,0.9-0.2,1.6c0,0.6,0.1,1.1,0.2,1.5c0.3,0.7,0.8,1.1,1.5,1.1c0.5,0,0.9-0.1,1.1-0.4c0.2-0.3,0.4-0.6,0.4-1.1h2.3
	c-0.1,0.7-0.3,1.3-0.7,1.9c-0.7,1-1.7,1.5-3.1,1.5c-1.4,0-2.4-0.4-3-1.2c-0.6-0.8-1-1.9-1-3.2c0-1.5,0.4-2.6,1.1-3.4
	c0.7-0.8,1.7-1.2,3-1.2c1.1,0,1.9,0.2,2.6,0.7c0.7,0.5,1.1,1.3,1.2,2.5H175z M178.8,157.5h2.2v6.2l2.8-3.2h2.8l-3,3.3l3.1,5.2H184
	l-2-3.6l-0.9,1v2.7h-2.2V157.5z M191.6,167.4c0.7,0,1.2-0.2,1.5-0.7c0.3-0.5,0.5-1.1,0.5-2c0-0.9-0.2-1.5-0.5-2
	c-0.3-0.5-0.8-0.7-1.5-0.7c-0.7,0-1.2,0.2-1.5,0.7c-0.3,0.5-0.5,1.1-0.5,2c0,0.9,0.2,1.5,0.5,2C190.4,167.2,190.9,167.4,191.6,167.4
	z M195.9,164.8c0,1.2-0.4,2.3-1.1,3.2c-0.7,0.9-1.8,1.3-3.3,1.3c-1.5,0-2.6-0.4-3.3-1.3c-0.7-0.9-1.1-2-1.1-3.2
	c0-1.2,0.4-2.3,1.1-3.2c0.7-0.9,1.8-1.4,3.3-1.4c1.5,0,2.6,0.4,3.3,1.4C195.6,162.5,195.9,163.5,195.9,164.8z M200.7,157.4
	c0.1,0,0.3,0,0.4,0c0.1,0,0.3,0,0.5,0v1.8c-0.1,0-0.3,0-0.6,0c-0.3,0-0.5,0.1-0.6,0.2c-0.1,0.1-0.2,0.3-0.2,0.5c0,0.2,0,0.4,0,0.7
	h1.5v1.6h-1.5v6.9h-2.2v-6.9h-1.2v-1.6h1.2V160c0-0.9,0.2-1.5,0.5-1.9C198.6,157.6,199.4,157.4,200.7,157.4z M206,157.4
	c0.1,0,0.3,0,0.4,0c0.1,0,0.3,0,0.5,0v1.8c-0.1,0-0.3,0-0.6,0c-0.3,0-0.5,0.1-0.6,0.2c-0.1,0.1-0.2,0.3-0.2,0.5c0,0.2,0,0.4,0,0.7
	h1.5v1.6h-1.5v6.9h-2.2v-6.9H202v-1.6h1.2V160c0-0.9,0.2-1.5,0.5-1.9C204,157.6,204.8,157.4,206,157.4z"/>
<path class="st1" d="M179.8,95.6c22.5,0,40.8-18.3,40.8-40.8S202.3,14,179.8,14S139,32.3,139,54.8S157.3,95.6,179.8,95.6z"/>
<path class="st0" d="M167.7,36.3L180,66.9l12.3-30.6h6.4v37.5h-4.9V59.2l0.5-15.8l-12.3,30.4h-3.8l-12.3-30.3l0.5,15.7v14.6h-4.9
	V36.3H167.7z"/>
<path class="st0" d="M164.5,104.1c0,1.1,0.1,2,0.3,2.6c0.2,0.6,0.6,0.9,1.1,0.9c0.6,0,1-0.3,1.1-0.9c0.2-0.6,0.3-1.5,0.3-2.6
	c0-1.2-0.1-2.1-0.3-2.7c-0.2-0.6-0.6-0.9-1.1-0.9c-0.6,0-1,0.3-1.1,0.9C164.6,102.1,164.5,102.9,164.5,104.1z M165.9,99
	c1.3,0,2.1,0.4,2.7,1.3c0.5,0.9,0.8,2.2,0.8,3.8s-0.3,2.9-0.8,3.8c-0.5,0.9-1.4,1.3-2.7,1.3c-1.3,0-2.1-0.4-2.7-1.3
	c-0.5-0.9-0.8-2.1-0.8-3.8s0.3-2.9,0.8-3.8C163.8,99.5,164.7,99,165.9,99z M170.8,102.2v-1.3c0.6,0,1-0.1,1.3-0.1
	c0.4-0.1,0.7-0.3,1-0.5c0.2-0.2,0.3-0.4,0.4-0.7c0.1-0.2,0.1-0.3,0.1-0.4h1.6v9.9h-2v-6.8H170.8z M178,104.2h3.9v1.8H178V104.2z
	 M182.8,109c0-0.7,0.2-1.4,0.5-1.9c0.3-0.7,0.9-1.4,2-2.1c0.9-0.6,1.5-1.1,1.7-1.4c0.4-0.4,0.6-0.9,0.6-1.4c0-0.4-0.1-0.8-0.3-1
	c-0.2-0.3-0.6-0.4-1-0.4c-0.6,0-1,0.2-1.2,0.7c-0.1,0.3-0.2,0.7-0.2,1.2h-1.9c0-0.8,0.2-1.5,0.5-2c0.5-1,1.4-1.5,2.8-1.5
	c1,0,1.9,0.3,2.5,0.9c0.6,0.6,0.9,1.3,0.9,2.3c0,0.7-0.2,1.4-0.7,2c-0.3,0.4-0.8,0.8-1.4,1.3l-0.8,0.6c-0.5,0.3-0.8,0.6-1,0.8
	c-0.2,0.2-0.3,0.3-0.5,0.5h4.3v1.7H182.8z M192.5,106.1c0,0.5,0.1,0.9,0.4,1.1c0.3,0.3,0.6,0.4,1.1,0.4c0.4,0,0.8-0.1,1-0.4
	c0.3-0.3,0.4-0.6,0.4-1.1c0-0.5-0.1-0.9-0.4-1.1c-0.3-0.3-0.6-0.4-1-0.4c-0.4,0-0.8,0.1-1,0.4C192.6,105.2,192.5,105.6,192.5,106.1z
	 M190.5,106.3c0-0.6,0.1-1.1,0.4-1.5c0.3-0.5,0.6-0.8,1.1-1c-0.5-0.3-0.8-0.7-0.9-1c-0.1-0.4-0.2-0.7-0.2-1c0-0.7,0.3-1.3,0.8-1.8
	c0.5-0.5,1.3-0.8,2.3-0.8c1,0,1.8,0.3,2.3,0.8c0.5,0.5,0.8,1.1,0.8,1.8c0,0.3-0.1,0.7-0.2,1c-0.1,0.4-0.5,0.7-0.9,1
	c0.5,0.3,0.9,0.6,1.1,1.1s0.4,1,0.4,1.5c0,0.8-0.3,1.5-0.9,2.1c-0.6,0.6-1.5,0.9-2.6,0.9c-1.1,0-1.9-0.3-2.5-0.9
	C190.8,107.8,190.5,107.1,190.5,106.3z M192.7,101.9c0,0.4,0.1,0.7,0.3,0.9c0.2,0.2,0.5,0.3,0.9,0.3c0.4,0,0.7-0.1,0.9-0.3
	c0.2-0.2,0.3-0.5,0.3-0.9c0-0.4-0.1-0.7-0.3-0.9c-0.2-0.2-0.5-0.3-0.9-0.3c-0.4,0-0.7,0.1-0.9,0.3
	C192.8,101.2,192.7,101.5,192.7,101.9z"/>
<text transform="matrix(1 0 0 1 134.217 191.4551)" class="st4 st5 st6">Davis Auditorium</text>
<text transform="matrix(1 0 0 1 151.1128 201.9998)" class="st4 st5 st7">7:00 - 8:00 PM</text>
<text transform="matrix(1 0 0 1 121.3665 227.6057)"><tspan x="0" y="0" class="st0 st5 st6">We&apos;ll be hearing from </tspan><tspan x="22.4" y="14.4" class="st0 st5 st6">Kate Chanba, </tspan><tspan x="1.8" y="28.8" class="st0 st5 st6">co-founder of Route, </tspan><tspan x="3.4" y="43.2" class="st0 st5 st6">and Claudia Perlich, </tspan><tspan x="17.1" y="57.6" class="st0 st5 st6">data scientist at </tspan><tspan x="27.4" y="72" class="st0 st5 st6">Two Sigma. </tspan></text>
<path class="st1" d="M92.5,308.8c-0.7-1.8-2.7-2.7-4.5-2c-1.8,0.7-2.7,2.7-2,4.5L92.5,308.8z M180.2,330.6c1.9,0,3.5-1.6,3.5-3.5
	c0-1.9-1.6-3.5-3.5-3.5V330.6z M94,320.1l-3,1.8c0,0.1,0.1,0.1,0.1,0.2L94,320.1z M91.4,315.5l-3.2,1.5L91.4,315.5z M95.8,322.8
	l-2.9,2L95.8,322.8z M103.9,330.6h76.4v-7h-76.4V330.6z M91.1,322l1.8,2.7l5.8-3.9l-1.8-2.7L91.1,322z M86,311.3l1.5,4l6.5-2.5
	l-1.5-4L86,311.3z M89.1,318.7l1.8,3.1l6-3.5l-1.8-3.1L89.1,318.7z M87.5,315.3c0.3,0.7,0.5,1.3,0.7,1.8l6.3-3
	c-0.1-0.2-0.2-0.4-0.5-1.3L87.5,315.3z M95.2,315.2c-0.4-0.8-0.6-1-0.7-1.2l-6.3,3c0.3,0.5,0.5,1,0.9,1.7L95.2,315.2z M92.9,324.7
	c0.5,0.7,1,1.4,1.6,2l4.9-5c-0.3-0.3-0.5-0.6-0.8-0.9L92.9,324.7z M103.9,323.6c-1.6,0-3.2-0.6-4.4-1.8l-4.9,5
	c2.5,2.5,5.8,3.8,9.3,3.8V323.6z"/>
<path class="st3" d="M180,333.7c3.8,0,6.8-3,6.8-6.8c0-3.8-3-6.8-6.8-6.8s-6.8,3-6.8,6.8C173.2,330.6,176.3,333.7,180,333.7z"/>
<text transform="matrix(1 0 0 1 121.1874 405.269)"><tspan x="0" y="0" class="st0 st5 st8">Join us for Chapati House</tspan><tspan x="0.6" y="12" class="st0 st5 st8">in the CS lounge! Priority </tspan><tspan x="-1.4" y="24" class="st0 st5 st8">will be given to those who </tspan><tspan x="17.8" y="36" class="st0 st5 st8">attend the kickoff. </tspan><tspan x="16.9" y="48" class="st0 st5 st8">Vegetarian options</tspan><tspan x="20" y="60" class="st0 st5 st8">will be available.  </tspan></text>
<text transform="matrix(1 0 0 1 153.3123 353.3867)" class="st9 st5 st10">Dinner</text>
<text transform="matrix(1 0 0 1 129.1482 374.5136)" class="st4 st5 st6">CS Lounge (Mudd)</text>
<text transform="matrix(1 0 0 1 150.7211 386.7142)" class="st4 st5 st7">8:00 - 9:00 PM</text>
<text transform="matrix(1 0 0 1 112.936 550.5243)" class="st4 st5 st7">Mudd 834</text>
<text transform="matrix(1 0 0 1 110.9362 560.413)" class="st4 st5 st7">9:00 - 9:30</text>
<text transform="matrix(1 0 0 1 108.963 525.7228)"><tspan x="0" y="0" class="st9 st5 st11">Beginner</tspan><tspan x="-9.2" y="13.2" class="st9 st5 st11">microlecture</tspan></text>
<text transform="matrix(1 0 0 1 203.1047 551.1331)" class="st4 st5 st7">Mudd 825</text>
<text transform="matrix(1 0 0 1 202.7777 561.0217)" class="st4 st5 st7">9:00 - 9:30</text>
<text transform="matrix(1 0 0 1 188.2708 526.3315)"><tspan x="0" y="0" class="st9 st5 st11">Deep learning</tspan><tspan x="3.4" y="13.2" class="st9 st5 st11">microlecture</tspan></text>
<text transform="matrix(1 0 0 1 134.2835 725.158)" class="st9 st5 st12">Intro to Python</text>
<text transform="matrix(1 0 0 1 111.3661 642.1394)" class="st4 st5 st7">Mudd 834</text>
<text transform="matrix(1 0 0 1 108.4021 652.5998)" class="st4 st5 st7">9:30 - 10:00</text>
<text transform="matrix(1 0 0 1 108.0029 617.3379)"><tspan x="0" y="0" class="st9 st5 st11">Web Dev</tspan><tspan x="-9.8" y="13.2" class="st9 st5 st11">microlecture</tspan></text>
<text transform="matrix(1 0 0 1 205.96 640.8848)" class="st4 st5 st7">Mudd 825</text>
<text transform="matrix(1 0 0 1 202.6331 650.7734)" class="st4 st5 st7">9:30 - 10:00</text>
<text transform="matrix(1 0 0 1 191.7277 616.0832)"><tspan x="0" y="0" class="st9 st5 st11">Data Science </tspan><tspan x="2.8" y="13.2" class="st9 st5 st11">microlecture</tspan></text>
<text transform="matrix(1 0 0 1 158.4189 739)" class="st4 st5 st7">Mudd 633</text>
<text transform="matrix(1 0 0 1 152.092 748.8887)" class="st4 st5 st7">10:00 - 11:00</text>
<text transform="matrix(1 0 0 1 5.0191 730.0328)" class="st9 st5 st13">10:00 PM</text>
</svg>
