<?xml version="1.0" encoding="utf-8"?>
<!-- Generator: Adobe Illustrator 22.1.0, SVG Export Plug-In . SVG Version: 6.00 Build 0)  -->
<svg version="1.1" id="Layer_1" xmlns="http://www.w3.org/2000/svg" xmlns:xlink="http://www.w3.org/1999/xlink" x="0px" y="0px"
	 viewBox="0 0 304.1 920" style="enable-background:new 0 0 304.1 920;" xml:space="preserve">
<style type="text/css">
	.st0{fill:#FFFDFD;}
	.st1{font-family:'Helvetica-Bold';}
	.st2{font-size:15px;}
	.st3{fill:#540E9E;}
	.st4{fill:none;stroke:#540E9E;stroke-width:7;stroke-linecap:round;stroke-linejoin:round;}
	.st5{fill:#FFFFFF;stroke:#231F20;stroke-miterlimit:10;}
	.st6{font-size:14px;}
	.st7{fill:#AAAAAA;}
	.st8{font-size:12px;}
	.st9{font-size:9px;}
	.st10{fill:#FFFFFF;}
	.st11{font-size:8px;}
	.st12{font-family:'HelveticaNeue';}
	.st13{font-size:53px;}
	.st14{font-size:12.7532px;}
	.st15{font-size:16px;}
</style>
<text transform="matrix(1 0 0 1 -1.220703e-04 682.1659)" class="st0 st1 st2">5:30 PM</text>
<path class="st3" d="M69.8,122.9c-0.7-1.8-2.7-2.7-4.5-2s-2.7,2.7-2,4.5L69.8,122.9z M157.6,144.6c1.9,0,3.5-1.6,3.5-3.5
	s-1.6-3.5-3.5-3.5V144.6z M71.3,134.1l-3,1.8c0,0.1,0.1,0.1,0.1,0.2L71.3,134.1z M68.7,129.6l-3.2,1.5L68.7,129.6z M73.1,136.8
	l-2.9,2L73.1,136.8z M81.2,144.6h76.4v-7H81.2V144.6z M68.4,136.1l1.8,2.7l5.8-3.9l-1.8-2.7L68.4,136.1z M63.3,125.4l1.5,4l6.5-2.5
	l-1.5-4L63.3,125.4z M66.5,132.8l1.8,3.1l6-3.5l-1.8-3.1L66.5,132.8z M64.8,129.3c0.3,0.7,0.5,1.3,0.7,1.8l6.3-3
	c-0.1-0.2-0.2-0.4-0.5-1.3L64.8,129.3z M72.5,129.3c-0.4-0.8-0.6-1-0.7-1.2l-6.3,3c0.3,0.5,0.5,1,0.9,1.7L72.5,129.3z M70.2,138.8
	c0.5,0.7,1,1.4,1.6,2l4.9-5c-0.3-0.3-0.5-0.6-0.8-0.9L70.2,138.8z M81.2,137.6c-1.6,0-3.2-0.6-4.4-1.8l-4.9,5
	c2.5,2.5,5.8,3.8,9.3,3.8V137.6z"/>
<path class="st4" d="M66.6,93.1v791.6"/>
<path class="st5" d="M157.4,146.7c3.8,0,6.8-3,6.8-6.8s-3-6.8-6.8-6.8s-6.8,3-6.8,6.8S153.6,146.7,157.4,146.7z"/>
<path class="st3" d="M156.4,93.7c22.5,0,40.8-18.3,40.8-40.8s-18.3-40.8-40.8-40.8s-40.8,18.3-40.8,40.8S133.8,93.7,156.4,93.7z"/>
<text transform="matrix(1 0 0 1 91.5675 169.7639)" class="st0 st1 st6">Hackathon Kickoff!</text>
<text transform="matrix(1 0 0 1 109.8159 188.8441)" class="st7 st1 st8">Diana Event Oval</text>
<text transform="matrix(1 0 0 1 124.05 199.3886)" class="st7 st1 st9">1:00 - 1:30 PM</text>
<text transform="matrix(1 0 0 1 92.4374 215.7029)" class="st10 st1 st11">We’ll be hosting Onyi Nwosu, the</text>
<text transform="matrix(1 0 0 1 82.8374 225.3029)" class="st10 st1 st11">director of QA engineering at Sesame </text>
<text transform="matrix(1 0 0 1 93.5374 234.9029)" class="st10 st1 st11">Workshop and a Columbia alum.</text>
<path class="st3" d="M70,258.2c-0.7-1.8-2.7-2.7-4.5-2c-1.8,0.7-2.7,2.7-2,4.5L70,258.2z M157.7,280c1.9,0,3.5-1.6,3.5-3.5
	s-1.6-3.5-3.5-3.5V280z M71.5,269.5l-3,1.8c0,0.1,0.1,0.1,0.1,0.2L71.5,269.5z M68.9,264.9l-3.2,1.5L68.9,264.9z M73.3,272.2l-2.9,2
	L73.3,272.2z M81.3,280h76.4v-7H81.3V280z M68.6,271.4l1.8,2.7l5.8-3.9l-1.8-2.7L68.6,271.4z M63.5,260.7l1.5,4l6.5-2.5l-1.5-4
	L63.5,260.7z M66.6,268.1l1.8,3.1l6-3.5l-1.8-3.1L66.6,268.1z M65,264.7c0.3,0.7,0.5,1.3,0.7,1.8l6.3-3c-0.1-0.2-0.2-0.4-0.5-1.3
	L65,264.7z M72.7,264.6c-0.4-0.8-0.6-1-0.7-1.2l-6.3,3c0.3,0.5,0.5,1,0.9,1.7L72.7,264.6z M70.4,274.1c0.5,0.7,1,1.4,1.6,2l4.9-5
	c-0.3-0.3-0.5-0.6-0.8-0.9L70.4,274.1z M81.3,273c-1.6,0-3.2-0.6-4.4-1.8l-4.9,5c2.5,2.5,5.8,3.8,9.3,3.8V273z"/>
<path class="st5" d="M157.5,282.1c3.8,0,6.8-3,6.8-6.8s-3-6.8-6.8-6.8s-6.8,3-6.8,6.8C150.7,279,153.8,282.1,157.5,282.1z"/>
<text transform="matrix(1 0 0 1 139.9504 70)" class="st10 st12 st13">S</text>
<text transform="matrix(1 0 0 1 -1 141.1)" class="st0 st1 st6">1:00 PM</text>
<text transform="matrix(1 0 0 1 -1 276.4735)" class="st0 st1 st6">1:30 PM</text>
<text transform="matrix(1 0 0 1 121.9157 306.8245)" class="st0 st1 st6">API Demos</text>
<text transform="matrix(1 0 0 1 112.1641 325.9047)" class="st7 st1 st8">Diana Event Oval</text>
<text transform="matrix(1 0 0 1 126.3981 336.4492)" class="st7 st1 st9">1:30 - 2:00 PM</text>
<text transform="matrix(1 0 0 1 102.6542 351.7029)" class="st10 st1 st11">Some of our sponsors will be </text>
<text transform="matrix(1 0 0 1 98.4542 361.3029)" class="st10 st1 st11">presenting their APIs and prizes</text>
<text transform="matrix(1 0 0 1 96.6542 370.9029)" class="st10 st1 st11">to be used during the hackathon.</text>
<path class="st3" d="M69.3,390.1c-0.7-1.8-2.7-2.7-4.5-2s-2.7,2.7-2,4.5L69.3,390.1z M157,411.9c1.9,0,3.5-1.6,3.5-3.5
	s-1.6-3.5-3.5-3.5V411.9z M70.8,401.4l-3,1.8c0,0.1,0.1,0.1,0.1,0.2L70.8,401.4z M68.2,396.8l-3.2,1.5L68.2,396.8z M72.6,404.1
	l-2.9,2L72.6,404.1z M80.6,411.9H157v-7H80.6V411.9z M67.9,403.3l1.8,2.7l5.8-3.9l-1.8-2.7L67.9,403.3z M62.8,392.6l1.5,4l6.5-2.5
	l-1.5-4L62.8,392.6z M65.9,400l1.8,3.1l6-3.5l-1.8-3.1L65.9,400z M64.3,396.6c0.3,0.7,0.5,1.3,0.7,1.8l6.3-3
	c-0.1-0.2-0.2-0.4-0.5-1.3L64.3,396.6z M72,396.5c-0.4-0.8-0.6-1-0.7-1.2l-6.3,3c0.3,0.5,0.5,1,0.9,1.7L72,396.5z M69.7,406
	c0.5,0.7,1,1.4,1.6,2l4.9-5c-0.3-0.3-0.5-0.6-0.8-0.9L69.7,406z M80.6,404.9c-1.6,0-3.2-0.6-4.4-1.8l-4.9,5c2.5,2.5,5.8,3.8,9.3,3.8
	V404.9z"/>
<path class="st5" d="M156.8,414c3.8,0,6.8-3,6.8-6.8s-3-6.8-6.8-6.8s-6.8,3-6.8,6.8C150,410.9,153.1,414,156.8,414z"/>
<text transform="matrix(1 0 0 1 78.1532 438.7932)" class="st0 st1 st6">Team Formation Session</text>
<text transform="matrix(1 0 0 1 96.4016 457.8734)" class="st7 st1 st8">Diana Event Oval Stage</text>
<text transform="matrix(1 0 0 1 125.6357 468.4179)" class="st7 st1 st9">2:00 - 2:30 PM</text>
<text transform="matrix(1 0 0 1 90.7765 483.6716)" class="st10 st1 st11">Need a team to compete with? We’ll</text>
<text transform="matrix(1 0 0 1 88.5765 493.2716)" class="st10 st1 st11">help you find one! Note that the max </text>
<text transform="matrix(1 0 0 1 131.8765 502.8716)" class="st10 st1 st11">team size is 4.</text>
<path class="st3" d="M71,516.2c-0.7-1.8-2.7-2.7-4.5-2s-2.7,2.7-2,4.5L71,516.2z M158.7,538c1.9,0,3.5-1.6,3.5-3.5s-1.6-3.5-3.5-3.5
	V538z M72.5,527.5l-3,1.8c0,0.1,0.1,0.1,0.1,0.2L72.5,527.5z M69.9,522.9l-3.2,1.5L69.9,522.9z M74.3,530.2l-2.9,2L74.3,530.2z
	 M82.3,538h76.4v-7H82.3V538z M69.6,529.4l1.8,2.7l5.8-3.9l-1.8-2.7L69.6,529.4z M64.5,518.7l1.5,4l6.5-2.5l-1.5-4L64.5,518.7z
	 M67.6,526.1l1.8,3.1l6-3.5l-1.8-3.1L67.6,526.1z M66,522.7c0.3,0.7,0.5,1.3,0.7,1.8l6.3-3c-0.1-0.2-0.2-0.4-0.5-1.3L66,522.7z
	 M73.7,522.6c-0.4-0.8-0.6-1-0.7-1.2l-6.3,3c0.3,0.5,0.5,1,0.9,1.7L73.7,522.6z M71.4,532.1c0.5,0.7,1,1.4,1.6,2l4.9-5
	c-0.3-0.3-0.5-0.6-0.8-0.9L71.4,532.1z M82.3,531c-1.6,0-3.2-0.6-4.4-1.8l-4.9,5c2.5,2.5,5.8,3.8,9.3,3.8V531z"/>
<path class="st5" d="M158.5,540.1c3.8,0,6.8-3,6.8-6.8s-3-6.8-6.8-6.8s-6.8,3-6.8,6.8C151.7,537,154.8,540.1,158.5,540.1z"/>
<text transform="matrix(1 0 0 1 98.8908 564.817)" class="st0 st1 st6">Google Workshop</text>
<text transform="matrix(1 0 0 1 120.1392 583.8972)" class="st7 st1 st8">Diana LL103</text>
<text transform="matrix(1 0 0 1 117.3733 594.4417)" class="st7 st1 st9">2:30 PM - 3:30 PM</text>
<text transform="matrix(1 0 0 1 97.6332 609.6954)" class="st10 st1 st11">One of our sponsors, Google will</text>
<text transform="matrix(1 0 0 1 96.7332 619.2954)" class="st10 st1 st11">be hosting a workshop about the </text>
<text transform="matrix(1 0 0 1 115.8332 628.8954)" class="st10 st1 st11">Google Cloud Platform.</text>
<text transform="matrix(1 0 0 1 173.7816 411.9424)" class="st0 st1 st9">Hacking begins!</text>
<text transform="matrix(1 0 0 1 0 408.9421)" class="st0 st1 st6">2:00 PM</text>
<text transform="matrix(1 0 0 1 -0.4449 536.0657)" class="st0 st1 st6">2:30 PM</text>
<text transform="matrix(1 0 0 1 134.2741 699.9141)" class="st0 st1 st6">Dinner</text>
<text transform="matrix(1 0 0 1 112.5225 712.9943)" class="st7 st1 st8">Diana LL2 Lobby</text>
<text transform="matrix(1 0 0 1 122.7565 722.5388)" class="st7 st1 st9">5:30 PM - 6:30 PM</text>
<path class="st3" d="M71,658.3c-0.7-1.8-2.7-2.7-4.5-2s-2.7,2.7-2,4.5L71,658.3z M158.7,680.1c1.9,0,3.5-1.6,3.5-3.5
	s-1.6-3.5-3.5-3.5V680.1z M72.5,669.6l-3,1.8c0,0.1,0.1,0.1,0.1,0.2L72.5,669.6z M69.9,665l-3.2,1.5L69.9,665z M74.3,672.3l-2.9,2
	L74.3,672.3z M82.3,680.1h76.4v-7H82.3V680.1z M69.6,671.5l1.8,2.7l5.8-3.9l-1.8-2.7L69.6,671.5z M64.5,660.8l1.5,4l6.5-2.5l-1.5-4
	L64.5,660.8z M67.6,668.2l1.8,3.1l6-3.5l-1.8-3.1L67.6,668.2z M66,664.8c0.3,0.7,0.5,1.3,0.7,1.8l6.3-3c-0.1-0.2-0.2-0.4-0.5-1.3
	L66,664.8z M73.7,664.7c-0.4-0.8-0.6-1-0.7-1.2l-6.3,3c0.3,0.5,0.5,1,0.9,1.7L73.7,664.7z M71.4,674.2c0.5,0.7,1,1.4,1.6,2l4.9-5
	c-0.3-0.3-0.5-0.6-0.8-0.9L71.4,674.2z M82.3,673.1c-1.6,0-3.2-0.6-4.4-1.8l-4.9,5c2.5,2.5,5.8,3.8,9.3,3.8V673.1z"/>
<path class="st5" d="M158.5,682.2c3.8,0,6.8-3,6.8-6.8s-3-6.8-6.8-6.8s-6.8,3-6.8,6.8C151.7,679.1,154.8,682.2,158.5,682.2z"/>
<text transform="matrix(1 0 0 1 97.9929 770.5305)" class="st0 st1 st6">T-shirt Distribution</text>
<text transform="matrix(1 0 0 1 113.2413 783.6107)" class="st7 st1 st8">Diana LL2 Lobby</text>
<text transform="matrix(1 0 0 1 121.4754 793.1552)" class="st7 st1 st9">9:30 PM - 10:00 PM</text>
<path class="st3" d="M71.7,728.9c-0.7-1.8-2.7-2.7-4.5-2s-2.7,2.7-2,4.5L71.7,728.9z M159.4,750.7c1.9,0,3.5-1.6,3.5-3.5
	s-1.6-3.5-3.5-3.5V750.7z M73.2,740.2l-3,1.8c0,0.1,0.1,0.1,0.1,0.2L73.2,740.2z M70.6,735.6l-3.2,1.5L70.6,735.6z M75,742.9l-2.9,2
	L75,742.9z M83,750.7h76.4v-7H83C83,743.7,83,750.7,83,750.7z M70.3,742.1l1.8,2.7l5.8-3.9l-1.8-2.7L70.3,742.1z M65.2,731.4l1.5,4
	l6.5-2.5l-1.5-4L65.2,731.4z M68.3,738.8l1.8,3.1l6-3.5l-1.8-3.1L68.3,738.8z M66.7,735.4c0.3,0.7,0.5,1.3,0.7,1.8l6.3-3
	c-0.1-0.2-0.2-0.4-0.5-1.3L66.7,735.4z M74.4,735.3c-0.4-0.8-0.6-1-0.7-1.2l-6.3,3c0.3,0.5,0.5,1,0.9,1.7L74.4,735.3z M72.1,744.8
	c0.5,0.7,1,1.4,1.6,2l4.9-5c-0.3-0.3-0.5-0.6-0.8-0.9L72.1,744.8z M83,743.7c-1.6,0-3.2-0.6-4.4-1.8l-4.9,5c2.5,2.5,5.8,3.8,9.3,3.8
	V743.7z"/>
<path class="st5" d="M159.2,752.8c3.8,0,6.8-3,6.8-6.8s-3-6.8-6.8-6.8s-6.8,3-6.8,6.8C152.4,749.7,155.5,752.8,159.2,752.8z"/>
<text transform="matrix(1 0 0 1 2.6503 750.1658)" class="st0 st1 st2">9:30 PM</text>
<path class="st3" d="M71.1,799.5c-0.7-1.8-2.7-2.7-4.5-2s-2.7,2.7-2,4.5L71.1,799.5z M158.8,821.3c1.9,0,3.5-1.6,3.5-3.5
	s-1.6-3.5-3.5-3.5V821.3z M72.6,810.8l-3,1.8c0,0.1,0.1,0.1,0.1,0.2L72.6,810.8z M70,806.2l-3.2,1.5L70,806.2z M74.4,813.5l-2.9,2
	L74.4,813.5z M82.4,821.3h76.4v-7H82.4C82.4,814.3,82.4,821.3,82.4,821.3z M69.7,812.7l1.8,2.7l5.8-3.9l-1.8-2.7L69.7,812.7z
	 M64.6,802l1.5,4l6.5-2.5l-1.5-4L64.6,802z M67.7,809.4l1.8,3.1l6-3.5l-1.8-3.1L67.7,809.4z M66.1,806c0.3,0.7,0.5,1.3,0.7,1.8
	l6.3-3c-0.1-0.2-0.2-0.4-0.5-1.3L66.1,806z M73.8,805.9c-0.4-0.8-0.6-1-0.7-1.2l-6.3,3c0.3,0.5,0.5,1,0.9,1.7L73.8,805.9z
	 M71.5,815.4c0.5,0.7,1,1.4,1.6,2l4.9-5c-0.3-0.3-0.5-0.6-0.8-0.9L71.5,815.4z M82.4,814.3c-1.6,0-3.2-0.6-4.4-1.8l-4.9,5
	c2.5,2.5,5.8,3.8,9.3,3.8V814.3z"/>
<text transform="matrix(1 0 0 1 90.9377 848.1494)" class="st0 st1 st6">Midnight Surprise :)</text>
<text transform="matrix(1 0 0 1 112.1861 863.2296)" class="st7 st1 st8">Diana Event Oval</text>
<text transform="matrix(1 0 0 1 127.4202 877.7741)" class="st7 st1 st9">12:00 - 12:30 AM</text>
<path class="st5" d="M160.5,825.5c3.8,0,6.8-3,6.8-6.8s-3-6.8-6.8-6.8s-6.8,3-6.8,6.8C153.7,822.4,156.8,825.5,160.5,825.5z"/>
<text transform="matrix(1 0 0 1 0.6504 819.3662)" class="st0 st1 st14">12:00 AM</text>
<text transform="matrix(1 0 0 1 144.4202 111.2549)" class="st0 st1 st15">2-2</text>
<text transform="matrix(1 0 0 1 179.3056 142.6)" class="st0 st1 st9">Check in starting at 12:30</text>
</svg>
