<?xml version="1.0" encoding="utf-8"?>
<!-- Generator: Adobe Illustrator 22.1.0, SVG Export Plug-In . SVG Version: 6.00 Build 0)  -->
<svg version="1.1" id="Layer_1" xmlns="http://www.w3.org/2000/svg" xmlns:xlink="http://www.w3.org/1999/xlink" x="0px" y="0px"
	 viewBox="0 0 304.1 610.5" style="enable-background:new 0 0 304.1 610.5;" xml:space="preserve">
<style type="text/css">
	.st0{fill:#91064C;}
	.st1{fill:none;stroke:#91064C;stroke-width:7;stroke-linecap:round;stroke-linejoin:round;}
	.st2{fill:#FFFFFF;stroke:#231F20;stroke-miterlimit:10;}
	.st3{fill:#FFFDFD;}
	.st4{font-family:'Helvetica-Bold';}
	.st5{font-size:14px;}
	.st6{fill:#AAAAAA;}
	.st7{font-size:12px;}
	.st8{font-size:9px;}
	.st9{fill:#FFFFFF;}
	.st10{font-size:8px;}
	.st11{font-family:'HelveticaNeue';}
	.st12{font-size:53px;}
	.st13{font-size:11.7874px;}
	.st14{enable-background:new    ;}
	.st15{font-size:16px;}
</style>
<path class="st0" d="M69.8,122.9c-0.7-1.8-2.7-2.7-4.5-2s-2.7,2.7-2,4.5L69.8,122.9z M157.6,144.6c1.9,0,3.5-1.6,3.5-3.5
	s-1.6-3.5-3.5-3.5V144.6z M71.3,134.1l-3,1.8c0,0.1,0.1,0.1,0.1,0.2L71.3,134.1z M68.7,129.6l-3.2,1.5L68.7,129.6z M73.1,136.8
	l-2.9,2L73.1,136.8z M81.2,144.6h76.4v-7H81.2V144.6z M68.4,136.1l1.8,2.7l5.8-3.9l-1.8-2.7L68.4,136.1z M63.3,125.4l1.5,4l6.5-2.5
	l-1.5-4L63.3,125.4z M66.5,132.8l1.8,3.1l6-3.5l-1.8-3.1L66.5,132.8z M64.8,129.3c0.3,0.7,0.5,1.3,0.7,1.8l6.3-3
	c-0.1-0.2-0.2-0.4-0.5-1.3L64.8,129.3z M72.5,129.3c-0.4-0.8-0.6-1-0.7-1.2l-6.3,3c0.3,0.5,0.5,1,0.9,1.7L72.5,129.3z M70.2,138.8
	c0.5,0.7,1,1.4,1.6,2l4.9-5c-0.3-0.3-0.5-0.6-0.8-0.9L70.2,138.8z M81.2,137.6c-1.6,0-3.2-0.6-4.4-1.8l-4.9,5
	c2.5,2.5,5.8,3.8,9.3,3.8V137.6z"/>
<path class="st1" d="M66.6,93.1v493"/>
<path class="st2" d="M157.4,146.7c3.8,0,6.8-3,6.8-6.8s-3-6.8-6.8-6.8s-6.8,3-6.8,6.8S153.6,146.7,157.4,146.7z"/>
<path class="st0" d="M156.4,93.7c22.5,0,40.8-18.3,40.8-40.8s-18.3-40.8-40.8-40.8s-40.8,18.3-40.8,40.8S133.8,93.7,156.4,93.7z"/>
<text transform="matrix(1 0 0 1 123.5675 171.7639)" class="st3 st4 st5">Breakfast</text>
<text transform="matrix(1 0 0 1 109.8159 188.8441)" class="st6 st4 st7">Diana Event Oval</text>
<text transform="matrix(1 0 0 1 115.05 199.3886)" class="st6 st4 st8">9:00 AM - 10:00 AM</text>
<text transform="matrix(1 0 0 1 122.8374 219.3029)" class="st9 st4 st10">Absolute Bagels! </text>
<path class="st0" d="M70,223c-0.7-1.8-2.7-2.7-4.5-2c-1.8,0.7-2.7,2.7-2,4.5L70,223z M157.7,244.8c1.9,0,3.5-1.6,3.5-3.5
	s-1.6-3.5-3.5-3.5V244.8z M71.5,234.3l-3,1.8c0,0.1,0.1,0.1,0.1,0.2L71.5,234.3z M68.9,229.7l-3.2,1.5L68.9,229.7z M73.3,237l-2.9,2
	L73.3,237z M81.3,244.8h76.4v-7H81.3V244.8z M68.6,236.2l1.8,2.7l5.8-3.9l-1.8-2.7L68.6,236.2z M63.5,225.5l1.5,4l6.5-2.5l-1.5-4
	L63.5,225.5z M66.6,232.9l1.8,3.1l6-3.5l-1.8-3.1L66.6,232.9z M65,229.5c0.3,0.7,0.5,1.3,0.7,1.8l6.3-3c-0.1-0.2-0.2-0.4-0.5-1.3
	L65,229.5z M72.7,229.4c-0.4-0.8-0.6-1-0.7-1.2l-6.3,3c0.3,0.5,0.5,1,0.9,1.7L72.7,229.4z M70.4,238.9c0.5,0.7,1,1.4,1.6,2l4.9-5
	c-0.3-0.3-0.5-0.6-0.8-0.9L70.4,238.9z M81.3,237.8c-1.6,0-3.2-0.6-4.4-1.8l-4.9,5c2.5,2.5,5.8,3.8,9.3,3.8V237.8z"/>
<path class="st2" d="M157.5,246.9c3.8,0,6.8-3,6.8-6.8s-3-6.8-6.8-6.8s-6.8,3-6.8,6.8C150.7,243.8,153.8,246.9,157.5,246.9z"/>
<text transform="matrix(1 0 0 1 139.9504 70)" class="st9 st11 st12">S</text>
<text transform="matrix(1 0 0 1 1 141.1)" class="st3 st4 st5">9:00 AM</text>
<text transform="matrix(1 0 0 1 4 243.3545)" class="st3 st4 st13">10:00 AM</text>
<text transform="matrix(1 0 0 1 113.8363 270.8364)" class="st14"><tspan x="0" y="0" class="st3 st4 st5">Hacking ends</tspan><tspan x="-13.6" y="16.8" class="st3 st4 st5">&amp; judging begins!</tspan></text>
<text transform="matrix(1 0 0 1 112.1641 305.6883)" class="st6 st4 st7">Diana Event Oval</text>
<text transform="matrix(1 0 0 1 117.3981 317.2328)" class="st6 st4 st8">10:00 AM - 11:00 AM</text>
<text transform="matrix(1 0 0 1 96.8331 339.7943)" class="st14"><tspan x="0" y="0" class="st9 st4 st10">Judges will be walking table to </tspan><tspan x="-8.2" y="9.6" class="st9 st4 st10">table to see your finished products!</tspan></text>
<path class="st0" d="M69.3,354.9c-0.7-1.8-2.7-2.7-4.5-2s-2.7,2.7-2,4.5L69.3,354.9z M157,376.7c1.9,0,3.5-1.6,3.5-3.5
	s-1.6-3.5-3.5-3.5V376.7z M70.8,366.2l-3,1.8c0,0.1,0.1,0.1,0.1,0.2L70.8,366.2z M68.2,361.6l-3.2,1.5L68.2,361.6z M72.6,368.9
	l-2.9,2L72.6,368.9z M80.6,376.7H157v-7H80.6V376.7z M67.9,368.1l1.8,2.7l5.8-3.9l-1.8-2.7L67.9,368.1z M62.8,357.4l1.5,4l6.5-2.5
	l-1.5-4L62.8,357.4z M65.9,364.8l1.8,3.1l6-3.5l-1.8-3.1L65.9,364.8z M64.3,361.4c0.3,0.7,0.5,1.3,0.7,1.8l6.3-3
	c-0.1-0.2-0.2-0.4-0.5-1.3L64.3,361.4z M72,361.3c-0.4-0.8-0.6-1-0.7-1.2l-6.3,3c0.3,0.5,0.5,1,0.9,1.7L72,361.3z M69.7,370.8
	c0.5,0.7,1,1.4,1.6,2l4.9-5c-0.3-0.3-0.5-0.6-0.8-0.9L69.7,370.8z M80.6,369.7c-1.6,0-3.2-0.6-4.4-1.8l-4.9,5
	c2.5,2.5,5.8,3.8,9.3,3.8V369.7z"/>
<path class="st2" d="M156.8,378.8c3.8,0,6.8-3,6.8-6.8s-3-6.8-6.8-6.8s-6.8,3-6.8,6.8C150,375.7,153.1,378.8,156.8,378.8z"/>
<text transform="matrix(1 0 0 1 118.1532 403.5768)" class="st3 st4 st5">Top 5 Demos</text>
<text transform="matrix(1 0 0 1 96.4016 422.657)" class="st6 st4 st7">Diana Event Oval Stage</text>
<text transform="matrix(1 0 0 1 125.6357 433.2015)" class="st6 st4 st8">11:00 - 11:30 AM</text>
<text transform="matrix(1 0 0 1 90.7765 448.4552)" class="st9 st4 st10">Need a team to compete with? We’ll</text>
<text transform="matrix(1 0 0 1 88.5765 458.0552)" class="st9 st4 st10">help you find one! Note that the max </text>
<text transform="matrix(1 0 0 1 131.8765 467.6552)" class="st9 st4 st10">team size is 4.</text>
<path class="st0" d="M71,481c-0.7-1.8-2.7-2.7-4.5-2s-2.7,2.7-2,4.5L71,481z M158.7,502.8c1.9,0,3.5-1.6,3.5-3.5s-1.6-3.5-3.5-3.5
	V502.8z M72.5,492.3l-3,1.8c0,0.1,0.1,0.1,0.1,0.2L72.5,492.3z M69.9,487.7l-3.2,1.5L69.9,487.7z M74.3,495l-2.9,2L74.3,495z
	 M82.3,502.8h76.4v-7H82.3V502.8z M69.6,494.2l1.8,2.7l5.8-3.9l-1.8-2.7L69.6,494.2z M64.5,483.5l1.5,4l6.5-2.5l-1.5-4L64.5,483.5z
	 M67.6,490.9l1.8,3.1l6-3.5l-1.8-3.1L67.6,490.9z M66,487.5c0.3,0.7,0.5,1.3,0.7,1.8l6.3-3c-0.1-0.2-0.2-0.4-0.5-1.3L66,487.5z
	 M73.7,487.4c-0.4-0.8-0.6-1-0.7-1.2l-6.3,3c0.3,0.5,0.5,1,0.9,1.7L73.7,487.4z M71.4,496.9c0.5,0.7,1,1.4,1.6,2l4.9-5
	c-0.3-0.3-0.5-0.6-0.8-0.9L71.4,496.9z M82.3,495.8c-1.6,0-3.2-0.6-4.4-1.8l-4.9,5c2.5,2.5,5.8,3.8,9.3,3.8V495.8z"/>
<path class="st2" d="M158.5,504.9c3.8,0,6.8-3,6.8-6.8s-3-6.8-6.8-6.8s-6.8,3-6.8,6.8C151.7,501.8,154.8,504.9,158.5,504.9z"/>
<text transform="matrix(1 0 0 1 93.9943 529.6006)" class="st14"><tspan x="0" y="0" class="st3 st4 st5">Awards &amp; Closing</tspan><tspan x="19.8" y="16.8" class="st3 st4 st5">Ceremonies</tspan></text>
<text transform="matrix(1 0 0 1 108.1392 563.6808)" class="st6 st4 st7">Diana Event Oval</text>
<text transform="matrix(1 0 0 1 114.3733 575.2253)" class="st6 st4 st8">11:30 AM - 12:00 PM</text>
<text transform="matrix(1 0 0 1 -1 377.7257)" class="st3 st4 st5">11:00 AM</text>
<text transform="matrix(1 0 0 1 -0.4449 500.8493)" class="st3 st4 st5">11:30 AM</text>
<text transform="matrix(1 0 0 1 144.4202 111.2549)" class="st3 st4 st15">2-3</text>
<text transform="matrix(1 0 0 1 174.3056 142.6)" class="st3 st4 st8">Hack space open all night</text>
</svg>
