<?xml version="1.0" encoding="utf-8"?>
<!-- Generator: Adobe Illustrator 23.0.1, SVG Export Plug-In . SVG Version: 6.00 Build 0)  -->
<svg version="1.1" id="Layer_1" xmlns="http://www.w3.org/2000/svg" xmlns:xlink="http://www.w3.org/1999/xlink" x="0px" y="0px"
	 viewBox="0 0 275 772" style="enable-background:new 0 0 275 772;" xml:space="preserve">
<style type="text/css">
	.st0{fill:#FFFFFF;}
	.st1{fill:#FFFDFD;}
	.st2{font-family:'Helvetica-Bold';}
	.st3{font-size:15px;}
	.st4{fill:#F69320;}
	.st5{fill:none;stroke:#F69320;stroke-width:7;stroke-linecap:round;stroke-linejoin:round;}
	.st6{fill:#FFFFFF;stroke:#231F20;stroke-miterlimit:10;}
	.st7{font-size:14px;}
	.st8{fill:#AAAAAA;}
	.st9{font-size:12px;}
	.st10{font-size:9px;}
	.st11{font-size:8px;}
	.st12{font-size:11px;}
</style>
<path class="st0" d="M11.9,483.2c0-1.2,0.3-2.2,1-2.9c0.7-0.8,1.6-1.1,2.7-1.1c1.7,0,2.9,0.8,3.5,2.3c0.4,0.9,0.5,2,0.5,3.4
	s-0.2,2.5-0.5,3.4c-0.7,1.7-1.9,2.6-3.7,2.6c-0.8,0-1.6-0.2-2.3-0.8c-0.7-0.5-1.1-1.2-1.2-2.2h2.2c0.1,0.3,0.2,0.6,0.4,0.8
	c0.2,0.2,0.5,0.3,0.9,0.3c0.7,0,1.2-0.4,1.5-1.2c0.2-0.4,0.3-1.1,0.3-2c-0.2,0.3-0.4,0.5-0.6,0.6c-0.4,0.2-0.9,0.4-1.5,0.4
	c-0.9,0-1.7-0.3-2.4-0.9C12.2,485.3,11.9,484.4,11.9,483.2z M15.8,485c0.3,0,0.6-0.1,0.9-0.3c0.5-0.3,0.8-0.9,0.8-1.7
	c0-0.6-0.2-1.1-0.5-1.5s-0.7-0.6-1.2-0.6c-0.4,0-0.7,0.1-1,0.3c-0.4,0.3-0.6,0.9-0.6,1.7c0,0.7,0.1,1.2,0.4,1.5
	C14.8,484.9,15.2,485,15.8,485z M22.1,482.4h2.4v2.3h-2.4V482.4z M22.1,488.2h2.4v2.3h-2.4V488.2z M28.4,485c0,1.3,0.1,2.3,0.3,3
	c0.2,0.7,0.7,1,1.3,1c0.7,0,1.1-0.3,1.3-1c0.2-0.7,0.3-1.7,0.3-3c0-1.4-0.1-2.4-0.3-3c-0.2-0.7-0.6-1-1.3-1c-0.7,0-1.1,0.3-1.3,1
	C28.5,482.6,28.4,483.6,28.4,485z M30,479.2c1.4,0,2.5,0.5,3,1.5c0.6,1,0.9,2.5,0.9,4.3c0,1.9-0.3,3.3-0.9,4.3c-0.6,1-1.6,1.5-3,1.5
	s-2.5-0.5-3-1.5c-0.6-1-0.9-2.5-0.9-4.3c0-1.9,0.3-3.3,0.9-4.3S28.6,479.2,30,479.2z M37.3,485c0,1.3,0.1,2.3,0.3,3s0.7,1,1.3,1
	c0.7,0,1.1-0.3,1.3-1s0.3-1.7,0.3-3c0-1.4-0.1-2.4-0.3-3c-0.2-0.7-0.6-1-1.3-1s-1.1,0.3-1.3,1C37.4,482.6,37.3,483.6,37.3,485z
	 M38.9,479.2c1.4,0,2.5,0.5,3,1.5c0.6,1,0.9,2.5,0.9,4.3c0,1.9-0.3,3.3-0.9,4.3c-0.6,1-1.6,1.5-3,1.5s-2.5-0.5-3-1.5
	c-0.6-1-0.9-2.5-0.9-4.3c0-1.9,0.3-3.3,0.9-4.3C36.5,479.7,37.5,479.2,38.9,479.2z M55.6,482.7c0-0.6-0.2-1-0.5-1.3
	s-0.8-0.4-1.3-0.4h-2.2v3.4h2.2c0.6,0,1-0.1,1.3-0.4C55.4,483.8,55.6,483.3,55.6,482.7z M58,482.7c0,1.4-0.3,2.3-1,2.9
	s-1.7,0.8-2.9,0.8h-2.4v4.1h-2.4V479h5c1.2,0,2.1,0.3,2.8,0.9S58,481.5,58,482.7z M67.4,479.1h3.5v11.5h-2.2v-7.8c0-0.2,0-0.5,0-0.9
	s0-0.7,0-0.9l-2.2,9.7h-2.3L62,481c0,0.2,0,0.5,0,0.9s0,0.7,0,0.9v7.8h-2.2v-11.5h3.5l2.1,9.1L67.4,479.1z"/>
<path class="st0" d="M12.7,346.9c0,0.6,0.1,1,0.4,1.3c0.3,0.3,0.7,0.5,1.2,0.5s0.9-0.2,1.2-0.5s0.4-0.7,0.4-1.3c0-0.6-0.1-1-0.4-1.3
	c-0.3-0.3-0.7-0.5-1.2-0.5s-0.9,0.2-1.2,0.5C12.9,345.9,12.7,346.3,12.7,346.9z M10.4,347c0-0.6,0.1-1.2,0.4-1.7
	c0.3-0.5,0.7-0.9,1.3-1.2c-0.5-0.4-0.9-0.8-1.1-1.2c-0.2-0.4-0.2-0.8-0.2-1.2c0-0.8,0.3-1.5,0.9-2.1c0.6-0.6,1.5-0.9,2.6-0.9
	s2,0.3,2.6,0.9s0.9,1.3,0.9,2.1c0,0.4-0.1,0.8-0.2,1.2c-0.2,0.4-0.5,0.8-1.1,1.1c0.6,0.3,1,0.7,1.3,1.2s0.4,1.1,0.4,1.7
	c0,1-0.4,1.8-1.1,2.4c-0.7,0.7-1.7,1-3,1s-2.2-0.3-2.9-1C10.7,348.8,10.4,348,10.4,347z M12.9,342c0,0.4,0.1,0.7,0.4,1
	c0.3,0.3,0.6,0.4,1.1,0.4s0.8-0.1,1-0.4s0.4-0.6,0.4-1s-0.1-0.8-0.4-1c-0.2-0.3-0.6-0.4-1-0.4s-0.8,0.1-1.1,0.4
	C13.1,341.2,12.9,341.6,12.9,342z M20.7,342h2.4v2.3h-2.4V342z M20.7,347.8h2.4v2.3h-2.4V347.8z M27,344.6c0,1.3,0.1,2.3,0.3,3
	c0.2,0.7,0.7,1,1.3,1c0.7,0,1.1-0.3,1.3-1c0.2-0.7,0.3-1.7,0.3-3c0-1.4-0.1-2.4-0.3-3c-0.2-0.7-0.6-1-1.3-1s-1.1,0.3-1.3,1
	C27.1,342.2,27,343.2,27,344.6z M28.6,338.8c1.4,0,2.5,0.5,3,1.5c0.6,1,0.9,2.5,0.9,4.3c0,1.9-0.3,3.3-0.9,4.3s-1.6,1.5-3,1.5
	s-2.5-0.5-3-1.5c-0.6-1-0.9-2.5-0.9-4.3c0-1.9,0.3-3.3,0.9-4.3S27.2,338.8,28.6,338.8z M35.9,344.6c0,1.3,0.1,2.3,0.3,3s0.7,1,1.3,1
	c0.7,0,1.1-0.3,1.3-1s0.3-1.7,0.3-3c0-1.4-0.1-2.4-0.3-3c-0.2-0.7-0.6-1-1.3-1s-1.1,0.3-1.3,1C36,342.2,35.9,343.2,35.9,344.6z
	 M37.5,338.8c1.4,0,2.5,0.5,3,1.5c0.6,1,0.9,2.5,0.9,4.3c0,1.9-0.3,3.3-0.9,4.3c-0.6,1-1.6,1.5-3,1.5s-2.5-0.5-3-1.5
	c-0.6-1-0.9-2.5-0.9-4.3c0-1.9,0.3-3.3,0.9-4.3C35,339.3,36,338.8,37.5,338.8z M54.2,342.3c0-0.6-0.2-1-0.5-1.3s-0.8-0.4-1.3-0.4
	h-2.2v3.4h2.2c0.6,0,1-0.1,1.3-0.4C54,343.4,54.2,342.9,54.2,342.3z M56.5,342.3c0,1.4-0.3,2.3-1,2.9s-1.7,0.8-2.9,0.8h-2.4v4.1
	h-2.4v-11.5h5c1.2,0,2.1,0.3,2.8,0.9S56.5,341.1,56.5,342.3z M66,338.7h3.5v11.5h-2.2v-7.8c0-0.2,0-0.5,0-0.9s0-0.7,0-0.9l-2.2,9.7
	h-2.3l-2.2-9.7c0,0.2,0,0.5,0,0.9s0,0.7,0,0.9v7.8h-2.2v-11.5h3.5l2.1,9.1L66,338.7z"/>
<path class="st0" d="M16.9,136.6c-0.3,0.3-0.8,0.9-1.4,1.8c-0.6,0.8-1.1,1.7-1.5,2.6c-0.3,0.7-0.6,1.6-0.9,2.6
	c-0.3,1-0.4,1.8-0.4,2.5h-2.3c0.1-2,0.7-4.1,2-6.3c0.8-1.4,1.5-2.3,2.1-2.8H8.9v-2h8V136.6z M19.2,137.8h2.4v2.3h-2.4V137.8z
	 M19.2,143.7h2.4v2.3h-2.4V143.7z M25.5,140.4c0,1.3,0.1,2.3,0.3,3c0.2,0.7,0.7,1,1.3,1c0.7,0,1.1-0.3,1.3-1c0.2-0.7,0.3-1.7,0.3-3
	c0-1.4-0.1-2.4-0.3-3c-0.2-0.7-0.6-1-1.3-1c-0.7,0-1.1,0.3-1.3,1C25.6,138.1,25.5,139.1,25.5,140.4z M27.1,134.6
	c1.4,0,2.5,0.5,3,1.5c0.6,1,0.9,2.5,0.9,4.3c0,1.9-0.3,3.3-0.9,4.3s-1.6,1.5-3,1.5s-2.5-0.5-3-1.5c-0.6-1-0.9-2.5-0.9-4.3
	c0-1.9,0.3-3.3,0.9-4.3S25.7,134.6,27.1,134.6z M34.4,140.4c0,1.3,0.1,2.3,0.3,3s0.7,1,1.3,1c0.7,0,1.1-0.3,1.3-1s0.3-1.7,0.3-3
	c0-1.4-0.1-2.4-0.3-3c-0.2-0.7-0.6-1-1.3-1s-1.1,0.3-1.3,1C34.5,138.1,34.4,139.1,34.4,140.4z M36,134.6c1.4,0,2.5,0.5,3,1.5
	c0.6,1,0.9,2.5,0.9,4.3c0,1.9-0.3,3.3-0.9,4.3c-0.6,1-1.6,1.5-3,1.5s-2.5-0.5-3-1.5c-0.6-1-0.9-2.5-0.9-4.3c0-1.9,0.3-3.3,0.9-4.3
	C33.6,135.1,34.6,134.6,36,134.6z M52.7,138.1c0-0.6-0.2-1-0.5-1.3s-0.8-0.4-1.3-0.4h-2.2v3.4h2.2c0.6,0,1-0.1,1.3-0.4
	C52.5,139.2,52.7,138.7,52.7,138.1z M55.1,138.1c0,1.4-0.3,2.3-1,2.9c-0.7,0.6-1.7,0.8-2.9,0.8h-2.4v4.1h-2.4v-11.5h5
	c1.2,0,2.1,0.3,2.8,0.9S55.1,136.9,55.1,138.1z M64.5,134.5H68V146h-2.2v-7.8c0-0.2,0-0.5,0-0.9s0-0.7,0-0.9l-2.2,9.7h-2.3l-2.2-9.7
	c0,0.2,0,0.5,0,0.9s0,0.7,0,0.9v7.8h-2.2v-11.5h3.5l2.1,9.1L64.5,134.5z"/>
<text transform="matrix(1 0 0 1 10.3498 667.0969)" class="st1 st2 st3">10:00 PM</text>
<path class="st4" d="M88.1,122.9c-0.7-1.8-2.7-2.7-4.5-2s-2.7,2.7-2,4.5L88.1,122.9z M175.9,144.6c1.9,0,3.5-1.6,3.5-3.5
	s-1.6-3.5-3.5-3.5V144.6z M89.6,134.1l-3,1.8c0,0.1,0.1,0.1,0.1,0.2L89.6,134.1z M87,129.6l-3.2,1.5L87,129.6z M91.4,136.8l-2.9,2
	L91.4,136.8z M99.5,144.6h76.4v-7H99.5V144.6z M86.7,136.1l1.8,2.7l5.8-3.9l-1.8-2.7L86.7,136.1z M81.6,125.4l1.5,4l6.5-2.5l-1.5-4
	L81.6,125.4z M84.8,132.8l1.8,3.1l6-3.5l-1.8-3.1L84.8,132.8z M83.1,129.3c0.3,0.7,0.5,1.3,0.7,1.8l6.3-3c-0.1-0.2-0.2-0.4-0.5-1.3
	L83.1,129.3z M90.8,129.3c-0.4-0.8-0.6-1-0.7-1.2l-6.3,3c0.3,0.5,0.5,1,0.9,1.7L90.8,129.3z M88.5,138.8c0.5,0.7,1,1.4,1.6,2l4.9-5
	c-0.3-0.3-0.5-0.6-0.8-0.9L88.5,138.8z M99.5,137.6c-1.6,0-3.2-0.6-4.4-1.8l-4.9,5c2.5,2.5,5.8,3.8,9.3,3.8V137.6z"/>
<path class="st4" d="M89.3,646.7c-1-1.7-3.1-2.2-4.8-1.3c-1.7,1-2.2,3.1-1.3,4.8L89.3,646.7z M224.3,668.9c1.9,0,3.5-1.6,3.5-3.5
	s-1.6-3.5-3.5-3.5V668.9z M93.5,658.5l-2.6,2.3l0,0L93.5,658.5z M89.5,653.9l-2.8,2L89.5,653.9z M96.1,661.3l2.6-2.4L96.1,661.3z
	 M96.5,661.8l2.5-2.4L96.5,661.8z M97.7,662.8l2.1-2.8L97.7,662.8z M103.8,665.4l0.3-3.5L103.8,665.4z M99.6,664.1l-1.8,3l0,0
	L99.6,664.1z M105.5,668.9h118.8v-7H105.5V668.9z M90.9,660.8l2.7,2.9l5.2-4.7l-2.7-2.9L90.9,660.8z M83.3,650.2l2.2,3.8l6.1-3.5
	l-2.2-3.8L83.3,650.2z M88.2,657.8l2.7,3l5.2-4.6l-2.7-3L88.2,657.8z M85.5,654c0.5,0.8,0.8,1.4,1.2,2l5.7-4.1
	c-0.2-0.2-0.3-0.5-0.9-1.4L85.5,654z M93.4,653.1c-0.7-0.8-0.9-1-1.1-1.3l-5.7,4.1c0.4,0.6,0.9,1.1,1.5,1.8L93.4,653.1z M93.6,663.7
	c0.2,0.2,0.3,0.3,0.5,0.5l5-4.9c-0.1-0.1-0.1-0.1-0.3-0.4L93.6,663.7z M100.2,660.3c-0.3-0.2-0.3-0.2-0.4-0.3l-4.2,5.6
	c0.2,0.1,0.3,0.2,0.6,0.4L100.2,660.3z M94,664.2c0.5,0.5,1,1,1.6,1.4l4.2-5.6c-0.3-0.2-0.5-0.4-0.8-0.7L94,664.2z M105.5,661.9
	c-0.9,0-1.2,0-1.4,0l-0.6,7c0.6,0,1.2,0,2,0V661.9z M96.2,666c0.6,0.5,1.1,0.8,1.6,1.1l3.5-6c-0.2-0.1-0.4-0.3-1.1-0.8L96.2,666z
	 M104.1,661.9c-1-0.1-1.9-0.4-2.7-0.9l-3.5,6c1.7,1,3.7,1.6,5.7,1.8L104.1,661.9z"/>
<path class="st5" d="M84.9,93.1v666.8"/>
<path class="st6" d="M175.7,146.7c3.8,0,6.8-3,6.8-6.8s-3-6.8-6.8-6.8s-6.8,3-6.8,6.8S171.9,146.7,175.7,146.7z"/>
<path class="st6" d="M130.1,671c3.8,0,6.8-3,6.8-6.8s-3-6.8-6.8-6.8s-6.8,3-6.8,6.8S126.3,671,130.1,671z"/>
<path class="st6" d="M224.1,671c3.8,0,6.8-3,6.8-6.8s-3-6.8-6.8-6.8s-6.8,3-6.8,6.8S220.3,671,224.1,671z"/>
<path class="st4" d="M174.7,93.7c22.5,0,40.8-18.3,40.8-40.8s-18.3-40.8-40.8-40.8s-40.8,18.3-40.8,40.8S152.1,93.7,174.7,93.7z"/>
<path class="st0" d="M190.6,38.5h-12.1V72h-4.9V38.5h-12v-4.1h29V38.5z"/>
<path class="st0" d="M160.4,101.3c0,1.1,0.1,2,0.3,2.6s0.6,0.9,1.1,0.9c0.6,0,1-0.3,1.1-0.9c0.2-0.6,0.3-1.5,0.3-2.6
	c0-1.2-0.1-2.1-0.3-2.7s-0.6-0.9-1.1-0.9c-0.6,0-1,0.3-1.1,0.9C160.5,99.2,160.4,100.1,160.4,101.3z M161.8,96.1
	c1.3,0,2.1,0.4,2.7,1.3c0.5,0.9,0.8,2.2,0.8,3.8s-0.3,2.9-0.8,3.8s-1.4,1.3-2.7,1.3s-2.1-0.4-2.7-1.3c-0.5-0.9-0.8-2.1-0.8-3.8
	s0.3-2.9,0.8-3.8C159.7,96.6,160.5,96.1,161.8,96.1z M166.7,99.3V98c0.6,0,1-0.1,1.3-0.1c0.4-0.1,0.7-0.3,1-0.5
	c0.2-0.2,0.3-0.4,0.4-0.7c0-0.2,0.1-0.3,0.1-0.4h1.6v9.9h-2v-6.8h-2.4V99.3z M173.9,101.3h3.9v1.8h-3.9V101.3z M180.5,103.1
	c0,0.4,0.1,0.7,0.2,1c0.2,0.5,0.7,0.7,1.3,0.7c0.4,0,0.7-0.1,1-0.4s0.4-0.6,0.4-1.1c0-0.7-0.3-1.1-0.8-1.3c-0.3-0.1-0.8-0.2-1.4-0.2
	v-1.4c0.6,0,1.1-0.1,1.3-0.2c0.4-0.2,0.6-0.6,0.6-1.2c0-0.4-0.1-0.7-0.3-0.9c-0.2-0.2-0.5-0.4-0.9-0.4c-0.5,0-0.8,0.1-1,0.4
	s-0.3,0.7-0.3,1.2h-1.8c0-0.5,0.1-1,0.3-1.4s0.4-0.7,0.8-1.1c0.3-0.2,0.6-0.4,0.9-0.5s0.8-0.2,1.3-0.2c0.9,0,1.7,0.2,2.3,0.7
	s0.9,1.1,0.9,2c0,0.6-0.2,1.1-0.5,1.5c-0.2,0.2-0.4,0.4-0.7,0.5c0.2,0,0.4,0.2,0.8,0.5c0.5,0.5,0.7,1.1,0.7,1.9s-0.3,1.6-0.9,2.2
	c-0.6,0.6-1.4,0.9-2.6,0.9c-1.4,0-2.4-0.5-2.9-1.4c-0.3-0.5-0.4-1.1-0.5-1.9h1.8V103.1z M187,99.3V98c0.6,0,1-0.1,1.3-0.1
	c0.4-0.1,0.7-0.3,1-0.5c0.2-0.2,0.3-0.4,0.4-0.7c0-0.2,0.1-0.3,0.1-0.4h1.6v9.9h-2v-6.8H187V99.3z"/>
<text transform="matrix(1 0 0 1 135.9171 169.7639)" class="st1 st2 st7">Intro to Git</text>
<text transform="matrix(1 0 0 1 148.1655 188.8441)" class="st8 st2 st9">408 CSB</text>
<text transform="matrix(1 0 0 1 142.3996 199.3886)" class="st8 st2 st10">7:00 - 8:00 PM</text>
<text transform="matrix(1 0 0 1 103.8781 224.7293)" class="st0 st2 st11">Learn about flow control through Git! </text>
<text transform="matrix(1 0 0 1 111.3781 234.3293)" class="st0 st2 st11">You&apos;ll learn how to track changes </text>
<text transform="matrix(1 0 0 1 104.9781 243.9293)" class="st0 st2 st11">for your own projects as well as how </text>
<text transform="matrix(1 0 0 1 94.4781 253.5293)" class="st0 st2 st11">version control is used to streamline work </text>
<text transform="matrix(1 0 0 1 96.7781 263.1293)" class="st0 st2 st11">across large projects worked on by up to </text>
<text transform="matrix(1 0 0 1 135.6781 272.7293)" class="st0 st2 st11">thousands of people.</text>
<text transform="matrix(1 0 0 1 108.5781 291.9293)" class="st0 st2 st11">We’ll cover git from the ground up, </text>
<text transform="matrix(1 0 0 1 104.5781 301.5293)" class="st0 st2 st11">including why you should git, how to </text>
<text transform="matrix(1 0 0 1 92.7781 311.1293)" class="st0 st2 st11">use git, and how to get started with Github. </text>
<path class="st4" d="M89,327.1c-0.7-1.8-2.7-2.7-4.5-2s-2.7,2.7-2,4.5L89,327.1z M176.7,348.9c1.9,0,3.5-1.6,3.5-3.5
	s-1.6-3.5-3.5-3.5V348.9z M90.5,338.4l-3,1.8c0,0.1,0.1,0.1,0.1,0.2L90.5,338.4z M87.9,333.8l-3.2,1.5L87.9,333.8z M92.3,341.1
	l-2.9,2L92.3,341.1z M100.3,348.9h76.4v-7h-76.4C100.3,341.9,100.3,348.9,100.3,348.9z M87.6,340.3l1.8,2.7l5.8-3.9l-1.8-2.7
	L87.6,340.3z M82.5,329.6l1.5,4l6.5-2.5l-1.5-4L82.5,329.6z M85.6,337l1.8,3.1l6-3.5l-1.8-3.1L85.6,337z M84,333.6
	c0.3,0.7,0.5,1.3,0.7,1.8l6.3-3c-0.1-0.2-0.2-0.4-0.5-1.3L84,333.6z M91.7,333.5c-0.4-0.8-0.6-1-0.7-1.2l-6.3,3
	c0.3,0.5,0.5,1,0.9,1.7L91.7,333.5z M89.4,343c0.5,0.7,1,1.4,1.6,2l4.9-5c-0.3-0.3-0.5-0.6-0.8-0.9L89.4,343z M100.3,341.9
	c-1.6,0-3.2-0.6-4.4-1.8l-4.9,5c2.5,2.5,5.8,3.8,9.3,3.8V341.9z"/>
<path class="st6" d="M176.5,351c3.8,0,6.8-3,6.8-6.8s-3-6.8-6.8-6.8s-6.8,3-6.8,6.8C169.7,347.9,172.8,351,176.5,351z"/>
<text transform="matrix(1 0 0 1 150.3743 373.9973)" class="st1 st2 st7">Dinner</text>
<text transform="matrix(1 0 0 1 143.2569 393.5084)" class="st8 st2 st9">CS Lounge</text>
<text transform="matrix(1 0 0 1 144.2568 404.4125)" class="st8 st2 st10">8:00 - 9:00 PM</text>
<text transform="matrix(1 0 0 1 104.4911 428.9626)" class="st0 st2 st11">We’ll be serving Thai food. Vegetarian</text>
<text transform="matrix(1 0 0 1 105.1911 438.5626)" class="st0 st2 st11">options will be available, but food will</text>
<text transform="matrix(1 0 0 1 103.1911 448.1626)" class="st0 st2 st11">be served on a first-come, first-served </text>
<text transform="matrix(1 0 0 1 165.3911 457.7626)" class="st0 st2 st11">basis.</text>
<path class="st4" d="M89.3,467.9c-0.7-1.8-2.7-2.7-4.5-2s-2.7,2.7-2,4.5L89.3,467.9z M177.1,489.6c1.9,0,3.5-1.6,3.5-3.5
	s-1.6-3.5-3.5-3.5V489.6z M90.8,479.1l-3,1.8c0,0.1,0.1,0.1,0.1,0.2L90.8,479.1z M88.2,474.6l-3.2,1.5L88.2,474.6z M92.6,481.8
	l-2.9,2L92.6,481.8z M100.7,489.6h76.4v-7h-76.4C100.7,482.6,100.7,489.6,100.7,489.6z M87.9,481.1l1.8,2.7l5.8-3.9l-1.8-2.7
	L87.9,481.1z M82.8,470.4l1.5,4l6.5-2.5l-1.5-4L82.8,470.4z M86,477.8l1.8,3.1l6-3.5l-1.8-3.1L86,477.8z M84.3,474.3
	c0.3,0.7,0.5,1.3,0.7,1.8l6.3-3c-0.1-0.2-0.2-0.4-0.5-1.3L84.3,474.3z M92,474.3c-0.4-0.8-0.6-1-0.7-1.2l-6.3,3
	c0.3,0.5,0.5,1,0.9,1.7L92,474.3z M89.7,483.8c0.5,0.7,1,1.4,1.6,2l4.9-5c-0.3-0.3-0.5-0.6-0.8-0.9L89.7,483.8z M100.7,482.6
	c-1.6,0-3.2-0.6-4.4-1.8l-4.9,5c2.5,2.5,5.8,3.8,9.3,3.8V482.6z"/>
<path class="st6" d="M176.9,491.7c3.8,0,6.8-3,6.8-6.8s-3-6.8-6.8-6.8s-6.8,3-6.8,6.8C170.1,488.7,173.1,491.7,176.9,491.7z"/>
<text transform="matrix(1 0 0 1 146.8323 514.7455)" class="st1 st2 st7">Intro to </text>
<text transform="matrix(1 0 0 1 106.3323 531.5455)" class="st1 st2 st7">Algorithmic Trading</text>
<text transform="matrix(1 0 0 1 150.319 551.4171)" class="st8 st2 st9">CSB 408</text>
<text transform="matrix(1 0 0 1 144.257 561.1299)" class="st8 st2 st10">9:00 - 10:00 PM</text>
<text transform="matrix(1 0 0 1 99.8769 580.2337)" class="st0 st2 st11">Algorithmic trading strategies represent a </text>
<text transform="matrix(1 0 0 1 113.8769 589.8337)" class="st0 st2 st11">vast and fascinating application of </text>
<text transform="matrix(1 0 0 1 103.1769 599.4337)" class="st0 st2 st11">algorithms to markets. We&apos;ll discuss the </text>
<text transform="matrix(1 0 0 1 107.6769 609.0337)" class="st0 st2 st11">basics of equities markets, how mean </text>
<text transform="matrix(1 0 0 1 97.4769 618.6337)" class="st0 st2 st11">reversion and momentum algorithms work, </text>
<text transform="matrix(1 0 0 1 101.4769 628.2337)" class="st0 st2 st11">and how you can apply concepts learned </text>
<text transform="matrix(1 0 0 1 115.4769 637.8337)" class="st0 st2 st11">at DevFest to your own strategies.</text>
<text transform="matrix(1 0 0 1 194.0031 716.8022)" class="st8 st2 st12">408 CSB</text>
<text transform="matrix(1 0 0 1 188.6066 727.1565)" class="st8 st2 st10">10:00 - 11:00</text>
<text transform="matrix(1 0 0 1 182.3926 686.4661)" class="st1 st2 st10">CDSS: Statistics</text>
<text transform="matrix(1 0 0 1 188.3926 697.2661)" class="st1 st2 st10">for Interviews</text>
<text transform="matrix(1 0 0 1 110.2065 736.1236)" class="st8 st2 st12">480 CSB</text>
<text transform="matrix(1 0 0 1 105.475 746.0118)" class="st8 st2 st10">10:00 - 11:00</text>
<text transform="matrix(1 0 0 1 95.1059 686.466)" class="st1 st2 st10">Applied Statistical</text>
<text transform="matrix(1 0 0 1 107.1059 697.266)" class="st1 st2 st10">Methods for </text>
<text transform="matrix(1 0 0 1 106.9059 708.066)" class="st1 st2 st10">Quantatative</text>
<text transform="matrix(1 0 0 1 117.1059 718.866)" class="st1 st2 st10">Finance</text>
</svg>
