<?xml version="1.0" encoding="utf-8"?>
<!-- Generator: Adobe Illustrator 22.1.0, SVG Export Plug-In . SVG Version: 6.00 Build 0)  -->
<svg version="1.1" id="Layer_1" xmlns="http://www.w3.org/2000/svg" xmlns:xlink="http://www.w3.org/1999/xlink" x="0px" y="0px"
	 viewBox="0 0 275 672" style="enable-background:new 0 0 275 672;" xml:space="preserve">
<style type="text/css">
	.st0{fill:#FFFFFF;}
	.st1{fill:#FFFDFD;}
	.st2{font-family:'Helvetica-Bold';}
	.st3{font-size:15px;}
	.st4{fill:#1D76BB;}
	.st5{fill:none;stroke:#1D76BB;stroke-width:7;stroke-linecap:round;stroke-linejoin:round;}
	.st6{fill:#FFFFFF;stroke:#231F20;stroke-miterlimit:10;}
	.st7{font-size:14px;}
	.st8{font-size:12px;}
	.st9{fill:#AAAAAA;}
	.st10{font-size:9px;}
	.st11{font-size:11px;}
	.st12{font-size:13px;}
</style>
<path class="st0" d="M10.5,500.9c0-1.2,0.3-2.2,1-2.9c0.7-0.8,1.6-1.1,2.7-1.1c1.7,0,2.9,0.8,3.5,2.3c0.4,0.9,0.5,2,0.5,3.4
	s-0.2,2.5-0.5,3.4c-0.7,1.7-1.9,2.6-3.7,2.6c-0.8,0-1.6-0.2-2.3-0.8c-0.7-0.5-1.1-1.2-1.2-2.2h2.2c0.1,0.3,0.2,0.6,0.4,0.8
	c0.2,0.2,0.5,0.3,0.9,0.3c0.7,0,1.2-0.4,1.5-1.2c0.2-0.4,0.3-1.1,0.3-2c-0.2,0.3-0.4,0.5-0.6,0.6c-0.4,0.2-0.9,0.4-1.5,0.4
	c-0.9,0-1.7-0.3-2.4-0.9C10.8,503,10.5,502.1,10.5,500.9z M14.4,502.7c0.3,0,0.6-0.1,0.9-0.3c0.5-0.3,0.8-0.9,0.8-1.7
	c0-0.6-0.2-1.1-0.5-1.5s-0.7-0.6-1.2-0.6c-0.4,0-0.7,0.1-1,0.3c-0.4,0.3-0.6,0.9-0.6,1.7c0,0.7,0.1,1.2,0.4,1.5
	C13.4,502.6,13.8,502.7,14.4,502.7z M20.7,500.1h2.4v2.3h-2.4V500.1z M20.7,505.9h2.4v2.3h-2.4V505.9z M27,502.7
	c0,1.3,0.1,2.3,0.3,3c0.2,0.7,0.7,1,1.3,1c0.7,0,1.1-0.3,1.3-1c0.2-0.7,0.3-1.7,0.3-3c0-1.4-0.1-2.4-0.3-3c-0.2-0.7-0.6-1-1.3-1
	c-0.7,0-1.1,0.3-1.3,1C27.1,500.3,27,501.3,27,502.7z M28.6,496.9c1.4,0,2.5,0.5,3,1.5c0.6,1,0.9,2.5,0.9,4.3c0,1.9-0.3,3.3-0.9,4.3
	s-1.6,1.5-3,1.5s-2.5-0.5-3-1.5c-0.6-1-0.9-2.5-0.9-4.3c0-1.9,0.3-3.3,0.9-4.3S27.2,496.9,28.6,496.9z M35.9,502.7
	c0,1.3,0.1,2.3,0.3,3s0.7,1,1.3,1c0.7,0,1.1-0.3,1.3-1s0.3-1.7,0.3-3c0-1.4-0.1-2.4-0.3-3c-0.2-0.7-0.6-1-1.3-1s-1.1,0.3-1.3,1
	C36,500.3,35.9,501.3,35.9,502.7z M37.5,496.9c1.4,0,2.5,0.5,3,1.5c0.6,1,0.9,2.5,0.9,4.3c0,1.9-0.3,3.3-0.9,4.3
	c-0.6,1-1.6,1.5-3,1.5s-2.5-0.5-3-1.5c-0.6-1-0.9-2.5-0.9-4.3c0-1.9,0.3-3.3,0.9-4.3C35.1,497.4,36.1,496.9,37.5,496.9z M54.2,500.4
	c0-0.6-0.2-1-0.5-1.3s-0.8-0.4-1.3-0.4h-2.2v3.4h2.2c0.6,0,1-0.1,1.3-0.4C54,501.5,54.2,501,54.2,500.4z M56.6,500.4
	c0,1.4-0.3,2.3-1,2.9s-1.7,0.8-2.9,0.8h-2.4v4.1h-2.4v-11.5h5c1.2,0,2.1,0.3,2.8,0.9S56.6,499.2,56.6,500.4z M66,496.8h3.5v11.5
	h-2.2v-7.8c0-0.2,0-0.5,0-0.9s0-0.7,0-0.9l-2.2,9.7h-2.3l-2.2-9.7c0,0.2,0,0.5,0,0.9s0,0.7,0,0.9v7.8h-2.2v-11.5h3.5l2.1,9.1
	L66,496.8z"/>
<path class="st0" d="M12.7,320.3c0,0.6,0.1,1,0.4,1.3c0.3,0.3,0.7,0.5,1.2,0.5s0.9-0.2,1.2-0.5s0.4-0.7,0.4-1.3c0-0.6-0.1-1-0.4-1.3
	c-0.3-0.3-0.7-0.5-1.2-0.5s-0.9,0.2-1.2,0.5C12.9,319.3,12.7,319.7,12.7,320.3z M10.4,320.4c0-0.6,0.1-1.2,0.4-1.7
	c0.3-0.5,0.7-0.9,1.3-1.2c-0.5-0.4-0.9-0.8-1.1-1.2c-0.2-0.4-0.2-0.8-0.2-1.2c0-0.8,0.3-1.5,0.9-2.1c0.6-0.6,1.5-0.9,2.6-0.9
	s2,0.3,2.6,0.9c0.6,0.6,0.9,1.3,0.9,2.1c0,0.4-0.1,0.8-0.2,1.2c-0.2,0.4-0.5,0.8-1.1,1.1c0.6,0.3,1,0.7,1.3,1.2s0.4,1.1,0.4,1.7
	c0,1-0.4,1.8-1.1,2.4c-0.7,0.7-1.7,1-3,1s-2.2-0.3-2.9-1C10.7,322.2,10.4,321.4,10.4,320.4z M12.9,315.4c0,0.4,0.1,0.7,0.4,1
	c0.3,0.3,0.6,0.4,1.1,0.4s0.8-0.1,1-0.4s0.4-0.6,0.4-1s-0.1-0.8-0.4-1c-0.2-0.3-0.6-0.4-1-0.4s-0.8,0.1-1.1,0.4
	C13.1,314.6,12.9,315,12.9,315.4z M20.7,315.4h2.4v2.3h-2.4V315.4z M20.7,321.2h2.4v2.3h-2.4V321.2z M27,318c0,1.3,0.1,2.3,0.3,3
	c0.2,0.7,0.7,1,1.3,1c0.7,0,1.1-0.3,1.3-1c0.2-0.7,0.3-1.7,0.3-3c0-1.4-0.1-2.4-0.3-3c-0.2-0.7-0.6-1-1.3-1s-1.1,0.3-1.3,1
	C27.1,315.6,27,316.6,27,318z M28.6,312.2c1.4,0,2.5,0.5,3,1.5c0.6,1,0.9,2.5,0.9,4.3c0,1.9-0.3,3.3-0.9,4.3c-0.6,1-1.6,1.5-3,1.5
	c-1.4,0-2.5-0.5-3-1.5c-0.6-1-0.9-2.5-0.9-4.3c0-1.9,0.3-3.3,0.9-4.3C26.2,312.7,27.2,312.2,28.6,312.2z M35.9,318
	c0,1.3,0.1,2.3,0.3,3s0.7,1,1.3,1c0.7,0,1.1-0.3,1.3-1s0.3-1.7,0.3-3c0-1.4-0.1-2.4-0.3-3c-0.2-0.7-0.6-1-1.3-1s-1.1,0.3-1.3,1
	C36,315.6,35.9,316.6,35.9,318z M37.5,312.2c1.4,0,2.5,0.5,3,1.5c0.6,1,0.9,2.5,0.9,4.3c0,1.9-0.3,3.3-0.9,4.3c-0.6,1-1.6,1.5-3,1.5
	s-2.5-0.5-3-1.5c-0.6-1-0.9-2.5-0.9-4.3c0-1.9,0.3-3.3,0.9-4.3C35,312.7,36,312.2,37.5,312.2z M54.2,315.7c0-0.6-0.2-1-0.5-1.3
	s-0.8-0.4-1.3-0.4h-2.2v3.4h2.2c0.6,0,1-0.1,1.3-0.4C54,316.8,54.2,316.3,54.2,315.7z M56.5,315.7c0,1.4-0.3,2.3-1,2.9
	s-1.7,0.8-2.9,0.8h-2.4v4.1h-2.4V312h5c1.2,0,2.1,0.3,2.8,0.9S56.5,314.5,56.5,315.7z M66,312.1h3.5v11.5h-2.2v-7.8
	c0-0.2,0-0.5,0-0.9s0-0.7,0-0.9l-2.2,9.7h-2.3l-2.2-9.7c0,0.2,0,0.5,0,0.9s0,0.7,0,0.9v7.8h-2.2v-11.5h3.5l2.1,9.1L66,312.1z"/>
<path class="st0" d="M16.9,136.6c-0.3,0.3-0.8,0.9-1.4,1.8c-0.6,0.8-1.1,1.7-1.5,2.6c-0.3,0.7-0.6,1.6-0.9,2.6
	c-0.3,1-0.4,1.8-0.4,2.5h-2.3c0.1-2,0.7-4.1,2-6.3c0.8-1.4,1.5-2.3,2.1-2.8H8.9v-2h8V136.6z M19.2,137.8h2.4v2.3h-2.4V137.8z
	 M19.2,143.7h2.4v2.3h-2.4V143.7z M25.5,140.4c0,1.3,0.1,2.3,0.3,3c0.2,0.7,0.7,1,1.3,1c0.7,0,1.1-0.3,1.3-1c0.2-0.7,0.3-1.7,0.3-3
	c0-1.4-0.1-2.4-0.3-3c-0.2-0.7-0.6-1-1.3-1c-0.7,0-1.1,0.3-1.3,1C25.6,138.1,25.5,139.1,25.5,140.4z M27.1,134.6
	c1.4,0,2.5,0.5,3,1.5c0.6,1,0.9,2.5,0.9,4.3c0,1.9-0.3,3.3-0.9,4.3s-1.6,1.5-3,1.5s-2.5-0.5-3-1.5c-0.6-1-0.9-2.5-0.9-4.3
	c0-1.9,0.3-3.3,0.9-4.3S25.7,134.6,27.1,134.6z M34.4,140.4c0,1.3,0.1,2.3,0.3,3s0.7,1,1.3,1c0.7,0,1.1-0.3,1.3-1s0.3-1.7,0.3-3
	c0-1.4-0.1-2.4-0.3-3c-0.2-0.7-0.6-1-1.3-1s-1.1,0.3-1.3,1C34.5,138.1,34.4,139.1,34.4,140.4z M36,134.6c1.4,0,2.5,0.5,3,1.5
	c0.6,1,0.9,2.5,0.9,4.3c0,1.9-0.3,3.3-0.9,4.3c-0.6,1-1.6,1.5-3,1.5s-2.5-0.5-3-1.5c-0.6-1-0.9-2.5-0.9-4.3c0-1.9,0.3-3.3,0.9-4.3
	C33.6,135.1,34.6,134.6,36,134.6z M52.7,138.1c0-0.6-0.2-1-0.5-1.3s-0.8-0.4-1.3-0.4h-2.2v3.4h2.2c0.6,0,1-0.1,1.3-0.4
	C52.5,139.2,52.7,138.7,52.7,138.1z M55.1,138.1c0,1.4-0.3,2.3-1,2.9c-0.7,0.6-1.7,0.8-2.9,0.8h-2.4v4.1h-2.4v-11.5h5
	c1.2,0,2.1,0.3,2.8,0.9S55.1,136.9,55.1,138.1z M64.5,134.5H68V146h-2.2v-7.8c0-0.2,0-0.5,0-0.9s0-0.7,0-0.9l-2.2,9.7h-2.3l-2.2-9.7
	c0,0.2,0,0.5,0,0.9s0,0.7,0,0.9v7.8h-2.2v-11.5h3.5l2.1,9.1L64.5,134.5z"/>
<text transform="matrix(1 0 0 1 4.35 586.4966)" class="st1 st2 st3">10:00 PM</text>
<g>
	<path class="st4" d="M179.6,97c22.5,0,40.8-18.3,40.8-40.8s-18.3-40.8-40.8-40.8s-40.8,18.3-40.8,40.8S157.1,97,179.6,97z"/>
	<path class="st0" d="M194,41.8H182v33.5h-4.9V41.8h-12v-4.1h29V41.8z"/>
	<path class="st4" d="M92.1,127.2c-0.7-1.8-2.7-2.7-4.5-2c-1.8,0.7-2.7,2.7-2,4.5L92.1,127.2z M179.9,148.9c1.9,0,3.5-1.6,3.5-3.5
		s-1.6-3.5-3.5-3.5V148.9z M93.6,138.4l-3,1.8c0,0.1,0.1,0.1,0.1,0.2L93.6,138.4z M91,133.9l-3.2,1.5L91,133.9z M95.4,141.1l-2.9,2
		L95.4,141.1z M103.5,148.9h76.4v-7h-76.4V148.9z M90.7,140.4l1.8,2.7l5.8-3.9l-1.8-2.7L90.7,140.4z M85.6,129.7l1.5,4l6.5-2.5
		l-1.5-4L85.6,129.7z M88.8,137.1l1.8,3.1l6-3.5l-1.8-3.1L88.8,137.1z M87.1,133.6c0.3,0.7,0.5,1.3,0.7,1.8l6.3-3
		c-0.1-0.2-0.2-0.4-0.5-1.3L87.1,133.6z M94.8,133.6c-0.4-0.8-0.6-1-0.7-1.2l-6.3,3c0.3,0.5,0.5,1,0.9,1.7L94.8,133.6z M92.5,143.1
		c0.5,0.7,1,1.4,1.6,2l4.9-5c-0.3-0.3-0.5-0.6-0.8-0.9L92.5,143.1z M103.5,141.9c-1.6,0-3.2-0.6-4.4-1.8l-4.9,5
		c2.5,2.5,5.8,3.8,9.3,3.8V141.9z"/>
	<path class="st4" d="M93.3,564.2c-1-1.7-3.1-2.2-4.8-1.3c-1.7,1-2.2,3.1-1.3,4.8L93.3,564.2z M228.2,586.5c1.9,0,3.5-1.6,3.5-3.5
		s-1.6-3.5-3.5-3.5V586.5z M97.4,576l-2.6,2.3c0,0,0,0,0,0L97.4,576z M93.5,571.5l-2.8,2L93.5,571.5z M100.1,578.9l2.6-2.4
		L100.1,578.9z M100.5,579.3l2.5-2.4L100.5,579.3z M101.7,580.4l2.1-2.8L101.7,580.4z M107.7,583l0.3-3.5L107.7,583z M103.5,581.6
		l-1.8,3l0,0L103.5,581.6z M109.4,586.5h118.8v-7H109.4V586.5z M94.8,578.4l2.7,2.9l5.2-4.7l-2.7-2.9L94.8,578.4z M87.2,567.8
		l2.2,3.8l6.1-3.5l-2.2-3.8L87.2,567.8z M92.1,575.3l2.7,3l5.2-4.6l-2.7-3L92.1,575.3z M89.4,571.5c0.5,0.8,0.8,1.4,1.2,2l5.7-4.1
		c-0.2-0.2-0.3-0.5-0.9-1.4L89.4,571.5z M97.4,570.7c-0.7-0.8-0.9-1-1.1-1.3l-5.7,4.1c0.4,0.6,0.9,1.1,1.5,1.8L97.4,570.7z
		 M97.5,581.3c0.2,0.2,0.3,0.3,0.5,0.5l5-4.9c-0.1-0.1-0.1-0.1-0.3-0.4L97.5,581.3z M104.1,577.8c-0.3-0.2-0.3-0.2-0.4-0.3l-4.2,5.6
		c0.2,0.1,0.3,0.2,0.6,0.4L104.1,577.8z M98,581.8c0.5,0.5,1,1,1.6,1.4l4.2-5.6c-0.3-0.2-0.5-0.4-0.8-0.7L98,581.8z M109.4,579.5
		c-0.9,0-1.2,0-1.4,0l-0.6,7c0.6,0,1.2,0,2,0V579.5z M100.1,583.6c0.6,0.5,1.1,0.8,1.6,1.1l3.5-6c-0.2-0.1-0.4-0.3-1.1-0.8
		L100.1,583.6z M108,579.5c-1-0.1-1.9-0.4-2.7-0.9l-3.5,6c1.7,1,3.7,1.6,5.7,1.8L108,579.5z"/>
	<path class="st5" d="M88.9,97.4v540.5"/>
	<path class="st6" d="M179.7,151c3.8,0,6.8-3,6.8-6.8s-3-6.8-6.8-6.8c-3.8,0-6.8,3-6.8,6.8S175.9,151,179.7,151z"/>
	<path class="st6" d="M179.7,589.4c3.8,0,6.8-3,6.8-6.8c0-3.8-3-6.8-6.8-6.8c-3.8,0-6.8,3-6.8,6.8
		C172.9,586.3,176,589.4,179.7,589.4z"/>
	<path class="st0" d="M164.4,105.6c0,1.1,0.1,2,0.3,2.6c0.2,0.6,0.6,0.9,1.1,0.9c0.6,0,1-0.3,1.1-0.9c0.2-0.6,0.3-1.5,0.3-2.6
		c0-1.2-0.1-2.1-0.3-2.7c-0.2-0.6-0.6-0.9-1.1-0.9c-0.6,0-1,0.3-1.1,0.9C164.5,103.5,164.4,104.4,164.4,105.6z M165.8,100.4
		c1.3,0,2.1,0.4,2.7,1.3c0.5,0.9,0.8,2.2,0.8,3.8s-0.3,2.9-0.8,3.8c-0.5,0.9-1.4,1.3-2.7,1.3c-1.3,0-2.1-0.4-2.7-1.3
		c-0.5-0.9-0.8-2.1-0.8-3.8s0.3-2.9,0.8-3.8C163.7,100.9,164.5,100.4,165.8,100.4z M170.7,103.6v-1.3c0.6,0,1-0.1,1.3-0.1
		c0.4-0.1,0.7-0.3,1-0.5c0.2-0.2,0.3-0.4,0.4-0.7c0-0.2,0.1-0.3,0.1-0.4h1.6v9.9h-2v-6.8H170.7z M177.9,105.6h3.9v1.8h-3.9V105.6z
		 M182.6,110.4c0-0.7,0.2-1.4,0.5-1.9c0.3-0.7,0.9-1.4,2-2.1c0.9-0.6,1.5-1.1,1.7-1.4c0.4-0.4,0.6-0.9,0.6-1.4c0-0.4-0.1-0.8-0.3-1
		c-0.2-0.3-0.6-0.4-1-0.4c-0.6,0-1,0.2-1.2,0.7c-0.1,0.3-0.2,0.7-0.2,1.2h-1.9c0-0.8,0.2-1.5,0.5-2c0.5-1,1.4-1.5,2.8-1.5
		c1,0,1.9,0.3,2.5,0.9c0.6,0.6,0.9,1.3,0.9,2.3c0,0.7-0.2,1.4-0.7,2c-0.3,0.4-0.8,0.8-1.4,1.3l-0.8,0.6c-0.5,0.3-0.8,0.6-1,0.8
		c-0.2,0.2-0.3,0.3-0.5,0.5h4.3v1.7H182.6z M190.4,104c0-1.1,0.3-1.9,0.9-2.6c0.6-0.7,1.4-1,2.4-1c1.5,0,2.5,0.7,3.1,2
		c0.3,0.8,0.5,1.8,0.5,3c0,1.2-0.2,2.2-0.5,3c-0.6,1.5-1.7,2.3-3.2,2.3c-0.7,0-1.4-0.2-2-0.7c-0.6-0.4-0.9-1.1-1-1.9h1.9
		c0,0.3,0.2,0.5,0.4,0.7c0.2,0.2,0.5,0.3,0.8,0.3c0.6,0,1.1-0.4,1.4-1.1c0.1-0.4,0.2-1,0.3-1.7c-0.2,0.2-0.4,0.4-0.6,0.5
		c-0.4,0.2-0.8,0.3-1.3,0.3c-0.8,0-1.5-0.3-2.1-0.8C190.7,105.8,190.4,105,190.4,104z M193.8,105.6c0.3,0,0.5-0.1,0.8-0.2
		c0.4-0.3,0.7-0.8,0.7-1.5c0-0.6-0.1-1-0.4-1.3c-0.3-0.3-0.6-0.5-1.1-0.5c-0.3,0-0.6,0.1-0.9,0.3c-0.4,0.3-0.6,0.8-0.6,1.5
		c0,0.6,0.1,1,0.4,1.3C193,105.4,193.4,105.6,193.8,105.6z"/>
	<text transform="matrix(1 0 0 1 132.4786 166.1609)"><tspan x="0" y="0" class="st1 st2 st7">Making a React </tspan><tspan x="-0.4" y="16.8" class="st1 st2 st7">Native app with </tspan><tspan x="21.8" y="33.6" class="st1 st2 st7">real-time </tspan><tspan x="11.3" y="50.4" class="st1 st2 st7">functionality</tspan></text>
	<text transform="matrix(1 0 0 1 131.4183 280.4299)"><tspan x="0" y="0" class="st0 st2 st8">Prese</tspan><tspan x="32.7" y="0" class="st1 st2 st8">nted</tspan><tspan x="58" y="0" class="st1 st2 st7"> </tspan><tspan x="61.9" y="0" class="st1 st2 st8">by Hive </tspan><tspan x="2.3" y="14.4" class="st1 st2 st8">(https://hive.com)</tspan><tspan x="102.3" y="14.4" class="st0 st2 st8"> </tspan></text>
	<text transform="matrix(1 0 0 1 159.1921 242.2091)" class="st9 st2 st8">488 CSB</text>
	<text transform="matrix(1 0 0 1 153.4263 252.7536)" class="st9 st2 st10">7:00 - 8:00 PM</text>
	<path class="st4" d="M92.4,306.9c-1-1.6-3.2-2.2-4.8-1.2c-1.7,1-2.2,3.2-1.2,4.8L92.4,306.9z M230.4,328.7c1.9,0,3.5-1.6,3.5-3.5
		s-1.6-3.5-3.5-3.5V328.7z M96.7,318.4l-2.6,2.4c0,0,0,0,0,0L96.7,318.4z M94,315.5l-2.6,2.4L94,315.5z M92.7,314l2.8-2.1L92.7,314z
		 M99.4,321.2l-2.5,2.4L99.4,321.2z M99.9,321.7l-2.4,2.5L99.9,321.7z M101,322.6l-2,2.8L101,322.6z M107,325.2l0.3-3.5L107,325.2z
		 M103.2,324l-1.7,3.1L103.2,324z M108.9,328.7h121.5v-7H108.9V328.7z M94.2,320.9l2.7,2.8l5-4.9l-2.7-2.8L94.2,320.9z M86.4,310.5
		l2.2,3.6l6-3.6l-2.2-3.6L86.4,310.5z M91.5,317.9l2.7,2.9l5.1-4.8l-2.7-2.9L91.5,317.9z M88.6,314.1c0.5,0.8,0.9,1.4,1.3,2l5.6-4.2
		c-0.2-0.2-0.3-0.5-0.9-1.4L88.6,314.1z M96.6,313.1c-0.7-0.8-0.9-1-1.1-1.2l-5.6,4.2c0.4,0.6,0.9,1.1,1.6,1.8L96.6,313.1z
		 M96.9,323.6c0.2,0.2,0.4,0.4,0.6,0.6l4.9-5c-0.1-0.1-0.1-0.1-0.4-0.4L96.9,323.6z M103.5,320.1c-0.3-0.2-0.4-0.3-0.5-0.3l-4.1,5.7
		c0.2,0.1,0.4,0.3,0.7,0.5L103.5,320.1z M97.4,324.2c0.5,0.5,1,0.9,1.5,1.3l4.1-5.7c-0.3-0.2-0.5-0.4-0.7-0.6L97.4,324.2z
		 M108.9,321.7c-1,0-1.3,0-1.6,0l-0.7,7c0.7,0.1,1.3,0.1,2.2,0.1V321.7z M99.6,325.9c0.7,0.5,1.3,0.9,1.9,1.2l3.3-6.2
		c-0.2-0.1-0.5-0.3-1.3-0.8L99.6,325.9z M107.3,321.7c-0.9-0.1-1.7-0.3-2.5-0.7l-3.3,6.2c1.6,0.9,3.3,1.4,5.1,1.6L107.3,321.7z"/>
	<path class="st5" d="M132.4,417.6h8h7.5h7.2c0.9,0,1.3,0,1.7,0c0.4,0,0.9-0.1,1.7-0.3l2.6-0.5c2.1-0.4,3.1-0.5,4-0.9
		c1-0.4,1.8-1,3.6-2.1l2.1-1.4c1-0.7,1.5-1,1.9-1.4c0.4-0.4,0.8-0.8,1.6-1.7l4.9-5.3"/>
	<path class="st5" d="M228.2,417.6h-8h-7.5h-7.2c-0.9,0-1.3,0-1.7,0c-0.4,0-0.9-0.1-1.7-0.3l-2.6-0.5c-2.1-0.4-3.1-0.5-4-0.9
		c-1-0.4-1.8-1-3.6-2.1l-2.1-1.4c-1-0.7-1.5-1-1.9-1.4c-0.4-0.4-0.8-0.8-1.6-1.7l-4.9-5.3"/>
	<path class="st4" d="M170.9,323.3c-1.3-1.4-3.5-1.5-4.9-0.2c-1.4,1.3-1.5,3.5-0.1,5L170.9,323.3z M176.9,505c0,1.9,1.6,3.5,3.5,3.5
		s3.5-1.6,3.5-3.5H176.9z M179.3,339.1l-3.3,1.2L179.3,339.1z M179.1,338.6l3.2-1.4L179.1,338.6z M175.3,333.1l-2.5,2.4L175.3,333.1
		z M176.3,334.2l2.7-2.2L176.3,334.2z M176.4,334.3l2.8-2.1L176.4,334.3z M180.3,344.4l3.5-0.3L180.3,344.4z M180.3,344.1l-3.5,0.4
		L180.3,344.1z M183.9,505V368.4h-7V505H183.9z M183.9,368.4v-22.5h-7v22.5H183.9z M177.8,330.7l-6.9-7.4l-5.1,4.8l6.9,7.4
		L177.8,330.7z M183.5,341.9c-0.3-1.6-0.5-2.9-0.9-4.1l-6.6,2.4c0.2,0.5,0.3,1,0.6,2.9L183.5,341.9z M174.3,337.5
		c1,1.6,1.3,2,1.5,2.5l6.4-2.8c-0.5-1.2-1.2-2.2-2.1-3.6L174.3,337.5z M182.6,337.9c-0.1-0.2-0.2-0.5-0.3-0.7l-6.4,2.8
		c0,0.1,0.1,0.2,0.1,0.3L182.6,337.9z M172.8,335.5c0.5,0.6,0.7,0.7,0.8,0.9l5.4-4.4c-0.3-0.4-0.7-0.8-1.1-1.3L172.8,335.5z
		 M180.1,333.6c-0.4-0.6-0.7-1-1-1.4l-5.5,4.3c0.1,0.2,0.2,0.3,0.7,1L180.1,333.6z M173.6,336.4c0,0,0.1,0.1,0.1,0.1l5.5-4.3
		c-0.1-0.1-0.1-0.2-0.2-0.2L173.6,336.4z M183.9,345.9c0-0.7,0-1.3,0-1.9l-7,0.6c0,0.2,0,0.5,0,1.3H183.9z M176.6,343.2
		c0.2,0.8,0.2,1.1,0.2,1.3l7-0.7c-0.1-0.6-0.2-1.1-0.3-1.9L176.6,343.2z M183.8,344.1c0-0.1,0-0.2,0-0.3l-7,0.7c0,0,0,0.1,0,0.1
		L183.8,344.1z"/>
	<path class="st6" d="M132.2,332.3c3.8,0,6.8-3,6.8-6.8c0-3.8-3-6.8-6.8-6.8s-6.8,3-6.8,6.8C125.4,329.3,128.4,332.3,132.2,332.3z"
		/>
	<path class="st6" d="M132.2,424.3c3.8,0,6.8-3,6.8-6.8c0-3.8-3-6.8-6.8-6.8s-6.8,3-6.8,6.8C125.4,421.3,128.4,424.3,132.2,424.3z"
		/>
	<path class="st6" d="M228.2,332.3c3.8,0,6.8-3,6.8-6.8c0-3.8-3-6.8-6.8-6.8s-6.8,3-6.8,6.8C221.4,329.3,224.4,332.3,228.2,332.3z"
		/>
	<path class="st6" d="M228.2,424.3c3.8,0,6.8-3,6.8-6.8c0-3.8-3-6.8-6.8-6.8s-6.8,3-6.8,6.8C221.4,421.3,224.4,424.3,228.2,424.3z"
		/>
	<path class="st6" d="M180.2,402.3c3.8,0,6.8-3,6.8-6.8c0-3.8-3-6.8-6.8-6.8s-6.8,3-6.8,6.8C173.4,399.3,176.4,402.3,180.2,402.3z"
		/>
	<path class="st6" d="M180.6,510.7c3.8,0,6.8-3,6.8-6.8c0-3.8-3-6.8-6.8-6.8s-6.8,3-6.8,6.8C173.8,507.6,176.9,510.7,180.6,510.7z"
		/>
	<text transform="matrix(1 0 0 1 115.3044 373.2322)" class="st9 st2 st10">488 CSB</text>
	<text transform="matrix(1 0 0 1 111.3046 383.1209)" class="st9 st2 st10">8:00 - 8:30</text>
	<text transform="matrix(1 0 0 1 109.3314 348.4307)"><tspan x="0" y="0" class="st1 st2 st11">Beginner</tspan><tspan x="-9.2" y="13.2" class="st1 st2 st11">microlecture</tspan></text>
	<text transform="matrix(1 0 0 1 206.473 373.8409)" class="st9 st2 st10">408 CSB</text>
	<text transform="matrix(1 0 0 1 203.1461 383.7296)" class="st9 st2 st10">8:00 - 8:30</text>
	<text transform="matrix(1 0 0 1 188.6392 349.0394)"><tspan x="0" y="0" class="st1 st2 st11">Deep learning</tspan><tspan x="3.4" y="13.2" class="st1 st2 st11">microlecture</tspan></text>
	<text transform="matrix(1 0 0 1 111.7344 464.8473)" class="st9 st2 st10">488 CSB</text>
	<text transform="matrix(1 0 0 1 108.7704 475.3077)" class="st9 st2 st10">8:30 - 9:00</text>
	<text transform="matrix(1 0 0 1 108.3713 440.0458)"><tspan x="0" y="0" class="st1 st2 st11">Web Dev</tspan><tspan x="-9.8" y="13.2" class="st1 st2 st11">microlecture</tspan></text>
	<text transform="matrix(1 0 0 1 206.3283 463.5926)" class="st9 st2 st10">408 CSB</text>
	<text transform="matrix(1 0 0 1 203.0014 473.4813)" class="st9 st2 st10">8:30 - 9:00</text>
	<text transform="matrix(1 0 0 1 192.096 438.7911)"><tspan x="0" y="0" class="st1 st2 st11">Data Science </tspan><tspan x="2.8" y="13.2" class="st1 st2 st11">microlecture</tspan></text>
	<text transform="matrix(1 0 0 1 117.924 527.1419)" class="st1 st2 st12">Intro to HTML &amp; CSS</text>
	<text transform="matrix(1 0 0 1 159.7533 540.9839)" class="st9 st2 st10">Mudd 833</text>
	<text transform="matrix(1 0 0 1 153.4263 550.8726)" class="st9 st2 st10">9:00 - 10:00</text>
	<text transform="matrix(1 0 0 1 130.1646 609.1702)" class="st1 st2 st12">Free bubble tea!</text>
	<text transform="matrix(1 0 0 1 151.1922 621.1415)" class="st9 st2 st10">CS Lounge</text>
	<text transform="matrix(1 0 0 1 149.1414 632.5939)" class="st9 st2 st10">10:00 - 11:00</text>
</g>
</svg>
