<?xml version="1.0" encoding="utf-8"?>
<!-- Generator: Adobe Illustrator 22.1.0, SVG Export Plug-In . SVG Version: 6.00 Build 0)  -->
<svg version="1.1" id="Layer_1" xmlns="http://www.w3.org/2000/svg" xmlns:xlink="http://www.w3.org/1999/xlink" x="0px" y="0px"
	 viewBox="0 0 275 772" style="enable-background:new 0 0 275 772;" xml:space="preserve">
<style type="text/css">
	.st0{fill:#FFFFFF;}
	.st1{fill:#FFFDFD;}
	.st2{font-family:'Helvetica-Bold';}
	.st3{font-size:15px;}
	.st4{fill:#EF4137;}
	.st5{fill:none;stroke:#EF4137;stroke-width:7;stroke-linecap:round;stroke-linejoin:round;}
	.st6{fill:#FFFFFF;stroke:#231F20;stroke-miterlimit:10;}
	.st7{font-size:14px;}
	.st8{fill:#AAAAAA;}
	.st9{font-size:12px;}
	.st10{font-size:9px;}
	.st11{font-size:11px;}
	.st12{font-size:8px;}
	.st13{font-size:13px;}
</style>
<path class="st0" d="M10.5,500.9c0-1.2,0.3-2.2,1-2.9c0.7-0.8,1.6-1.1,2.7-1.1c1.7,0,2.9,0.8,3.5,2.3c0.4,0.9,0.5,2,0.5,3.4
	s-0.2,2.5-0.5,3.4c-0.7,1.7-1.9,2.6-3.7,2.6c-0.8,0-1.6-0.2-2.3-0.8c-0.7-0.5-1.1-1.2-1.2-2.2h2.2c0.1,0.3,0.2,0.6,0.4,0.8
	c0.2,0.2,0.5,0.3,0.9,0.3c0.7,0,1.2-0.4,1.5-1.2c0.2-0.4,0.3-1.1,0.3-2c-0.2,0.3-0.4,0.5-0.6,0.6c-0.4,0.2-0.9,0.4-1.5,0.4
	c-0.9,0-1.7-0.3-2.4-0.9C10.8,503,10.5,502.1,10.5,500.9z M14.4,502.7c0.3,0,0.6-0.1,0.9-0.3c0.5-0.3,0.8-0.9,0.8-1.7
	c0-0.6-0.2-1.1-0.5-1.5s-0.7-0.6-1.2-0.6c-0.4,0-0.7,0.1-1,0.3c-0.4,0.3-0.6,0.9-0.6,1.7c0,0.7,0.1,1.2,0.4,1.5
	C13.4,502.6,13.8,502.7,14.4,502.7z M20.7,500.1h2.4v2.3h-2.4V500.1z M20.7,505.9h2.4v2.3h-2.4V505.9z M27,502.7
	c0,1.3,0.1,2.3,0.3,3c0.2,0.7,0.7,1,1.3,1c0.7,0,1.1-0.3,1.3-1c0.2-0.7,0.3-1.7,0.3-3c0-1.4-0.1-2.4-0.3-3c-0.2-0.7-0.6-1-1.3-1
	c-0.7,0-1.1,0.3-1.3,1C27.1,500.3,27,501.3,27,502.7z M28.6,496.9c1.4,0,2.5,0.5,3,1.5c0.6,1,0.9,2.5,0.9,4.3c0,1.9-0.3,3.3-0.9,4.3
	s-1.6,1.5-3,1.5s-2.5-0.5-3-1.5c-0.6-1-0.9-2.5-0.9-4.3c0-1.9,0.3-3.3,0.9-4.3S27.2,496.9,28.6,496.9z M35.9,502.7
	c0,1.3,0.1,2.3,0.3,3s0.7,1,1.3,1c0.7,0,1.1-0.3,1.3-1s0.3-1.7,0.3-3c0-1.4-0.1-2.4-0.3-3c-0.2-0.7-0.6-1-1.3-1s-1.1,0.3-1.3,1
	C36,500.3,35.9,501.3,35.9,502.7z M37.5,496.9c1.4,0,2.5,0.5,3,1.5c0.6,1,0.9,2.5,0.9,4.3c0,1.9-0.3,3.3-0.9,4.3
	c-0.6,1-1.6,1.5-3,1.5s-2.5-0.5-3-1.5c-0.6-1-0.9-2.5-0.9-4.3c0-1.9,0.3-3.3,0.9-4.3C35.1,497.4,36.1,496.9,37.5,496.9z M54.2,500.4
	c0-0.6-0.2-1-0.5-1.3s-0.8-0.4-1.3-0.4h-2.2v3.4h2.2c0.6,0,1-0.1,1.3-0.4C54,501.5,54.2,501,54.2,500.4z M56.6,500.4
	c0,1.4-0.3,2.3-1,2.9s-1.7,0.8-2.9,0.8h-2.4v4.1h-2.4v-11.5h5c1.2,0,2.1,0.3,2.8,0.9S56.6,499.2,56.6,500.4z M66,496.8h3.5v11.5
	h-2.2v-7.8c0-0.2,0-0.5,0-0.9s0-0.7,0-0.9l-2.2,9.7h-2.3l-2.2-9.7c0,0.2,0,0.5,0,0.9s0,0.7,0,0.9v7.8h-2.2v-11.5h3.5l2.1,9.1
	L66,496.8z"/>
<path class="st0" d="M12.7,396c0,0.6,0.1,1,0.4,1.3c0.3,0.3,0.7,0.5,1.2,0.5s0.9-0.2,1.2-0.5s0.4-0.7,0.4-1.3c0-0.6-0.1-1-0.4-1.3
	c-0.3-0.3-0.7-0.5-1.2-0.5s-0.9,0.2-1.2,0.5C12.9,395,12.7,395.4,12.7,396z M10.4,396.1c0-0.6,0.1-1.2,0.4-1.7
	c0.3-0.5,0.7-0.9,1.3-1.2c-0.5-0.4-0.9-0.8-1.1-1.2c-0.2-0.4-0.2-0.8-0.2-1.2c0-0.8,0.3-1.5,0.9-2.1c0.6-0.6,1.5-0.9,2.6-0.9
	s2,0.3,2.6,0.9c0.6,0.6,0.9,1.3,0.9,2.1c0,0.4-0.1,0.8-0.2,1.2c-0.2,0.4-0.5,0.8-1.1,1.1c0.6,0.3,1,0.7,1.3,1.2s0.4,1.1,0.4,1.7
	c0,1-0.4,1.8-1.1,2.4c-0.7,0.7-1.7,1-3,1s-2.2-0.3-2.9-1C10.7,397.9,10.4,397.1,10.4,396.1z M12.9,391.1c0,0.4,0.1,0.7,0.4,1
	c0.3,0.3,0.6,0.4,1.1,0.4s0.8-0.1,1-0.4s0.4-0.6,0.4-1s-0.1-0.8-0.4-1c-0.2-0.3-0.6-0.4-1-0.4s-0.8,0.1-1.1,0.4
	C13.1,390.3,12.9,390.7,12.9,391.1z M20.7,391.1h2.4v2.3h-2.4V391.1z M20.7,396.9h2.4v2.3h-2.4V396.9z M27,393.7
	c0,1.3,0.1,2.3,0.3,3c0.2,0.7,0.7,1,1.3,1c0.7,0,1.1-0.3,1.3-1c0.2-0.7,0.3-1.7,0.3-3c0-1.4-0.1-2.4-0.3-3c-0.2-0.7-0.6-1-1.3-1
	c-0.7,0-1.1,0.3-1.3,1C27.1,391.3,27,392.3,27,393.7z M28.6,387.9c1.4,0,2.5,0.5,3,1.5c0.6,1,0.9,2.5,0.9,4.3c0,1.9-0.3,3.3-0.9,4.3
	c-0.6,1-1.6,1.5-3,1.5c-1.4,0-2.5-0.5-3-1.5c-0.6-1-0.9-2.5-0.9-4.3c0-1.9,0.3-3.3,0.9-4.3C26.2,388.4,27.2,387.9,28.6,387.9z
	 M35.9,393.7c0,1.3,0.1,2.3,0.3,3s0.7,1,1.3,1c0.7,0,1.1-0.3,1.3-1s0.3-1.7,0.3-3c0-1.4-0.1-2.4-0.3-3c-0.2-0.7-0.6-1-1.3-1
	s-1.1,0.3-1.3,1C36,391.3,35.9,392.3,35.9,393.7z M37.5,387.9c1.4,0,2.5,0.5,3,1.5c0.6,1,0.9,2.5,0.9,4.3c0,1.9-0.3,3.3-0.9,4.3
	c-0.6,1-1.6,1.5-3,1.5s-2.5-0.5-3-1.5c-0.6-1-0.9-2.5-0.9-4.3c0-1.9,0.3-3.3,0.9-4.3C35,388.4,36,387.9,37.5,387.9z M54.2,391.4
	c0-0.6-0.2-1-0.5-1.3s-0.8-0.4-1.3-0.4h-2.2v3.4h2.2c0.6,0,1-0.1,1.3-0.4C54,392.5,54.2,392,54.2,391.4z M56.5,391.4
	c0,1.4-0.3,2.3-1,2.9s-1.7,0.8-2.9,0.8h-2.4v4.1h-2.4v-11.5h5c1.2,0,2.1,0.3,2.8,0.9S56.5,390.2,56.5,391.4z M66,387.8h3.5v11.5
	h-2.2v-7.8c0-0.2,0-0.5,0-0.9s0-0.7,0-0.9l-2.2,9.7h-2.3l-2.2-9.7c0,0.2,0,0.5,0,0.9s0,0.7,0,0.9v7.8h-2.2v-11.5h3.5l2.1,9.1
	L66,387.8z"/>
<path class="st0" d="M16.9,136.6c-0.3,0.3-0.8,0.9-1.4,1.8c-0.6,0.8-1.1,1.7-1.5,2.6c-0.3,0.7-0.6,1.6-0.9,2.6
	c-0.3,1-0.4,1.8-0.4,2.5h-2.3c0.1-2,0.7-4.1,2-6.3c0.8-1.4,1.5-2.3,2.1-2.8H8.9v-2h8V136.6z M19.2,137.8h2.4v2.3h-2.4V137.8z
	 M19.2,143.7h2.4v2.3h-2.4V143.7z M25.5,140.4c0,1.3,0.1,2.3,0.3,3c0.2,0.7,0.7,1,1.3,1c0.7,0,1.1-0.3,1.3-1c0.2-0.7,0.3-1.7,0.3-3
	c0-1.4-0.1-2.4-0.3-3c-0.2-0.7-0.6-1-1.3-1c-0.7,0-1.1,0.3-1.3,1C25.6,138.1,25.5,139.1,25.5,140.4z M27.1,134.6
	c1.4,0,2.5,0.5,3,1.5c0.6,1,0.9,2.5,0.9,4.3c0,1.9-0.3,3.3-0.9,4.3s-1.6,1.5-3,1.5s-2.5-0.5-3-1.5c-0.6-1-0.9-2.5-0.9-4.3
	c0-1.9,0.3-3.3,0.9-4.3S25.7,134.6,27.1,134.6z M34.4,140.4c0,1.3,0.1,2.3,0.3,3s0.7,1,1.3,1c0.7,0,1.1-0.3,1.3-1s0.3-1.7,0.3-3
	c0-1.4-0.1-2.4-0.3-3c-0.2-0.7-0.6-1-1.3-1s-1.1,0.3-1.3,1C34.5,138.1,34.4,139.1,34.4,140.4z M36,134.6c1.4,0,2.5,0.5,3,1.5
	c0.6,1,0.9,2.5,0.9,4.3c0,1.9-0.3,3.3-0.9,4.3c-0.6,1-1.6,1.5-3,1.5s-2.5-0.5-3-1.5c-0.6-1-0.9-2.5-0.9-4.3c0-1.9,0.3-3.3,0.9-4.3
	C33.6,135.1,34.6,134.6,36,134.6z M52.7,138.1c0-0.6-0.2-1-0.5-1.3s-0.8-0.4-1.3-0.4h-2.2v3.4h2.2c0.6,0,1-0.1,1.3-0.4
	C52.5,139.2,52.7,138.7,52.7,138.1z M55.1,138.1c0,1.4-0.3,2.3-1,2.9c-0.7,0.6-1.7,0.8-2.9,0.8h-2.4v4.1h-2.4v-11.5h5
	c1.2,0,2.1,0.3,2.8,0.9S55.1,136.9,55.1,138.1z M64.5,134.5H68V146h-2.2v-7.8c0-0.2,0-0.5,0-0.9s0-0.7,0-0.9l-2.2,9.7h-2.3l-2.2-9.7
	c0,0.2,0,0.5,0,0.9s0,0.7,0,0.9v7.8h-2.2v-11.5h3.5l2.1,9.1L64.5,134.5z"/>
<text transform="matrix(1 0 0 1 4.3499 701.2382)" class="st1 st2 st3">10:00 PM</text>
<path class="st4" d="M88.3,127.2c-0.7-1.8-2.7-2.7-4.5-2c-1.8,0.7-2.7,2.7-2,4.5L88.3,127.2z M176,148.9c1.9,0,3.5-1.6,3.5-3.5
	s-1.6-3.5-3.5-3.5V148.9z M89.8,138.5l-3,1.8c0,0.1,0.1,0.1,0.1,0.2L89.8,138.5z M87.2,133.9l-3.2,1.5L87.2,133.9z M91.6,141.2
	l-2.9,2L91.6,141.2z M99.7,148.9H176v-7H99.7V148.9z M86.9,140.4l1.8,2.7l5.8-3.9l-1.8-2.7L86.9,140.4z M81.8,129.7l1.5,4l6.5-2.5
	l-1.5-4L81.8,129.7z M85,137.1l1.8,3.1l6-3.5l-1.8-3.1L85,137.1z M83.3,133.7c0.3,0.7,0.5,1.3,0.7,1.8l6.3-3
	c-0.1-0.2-0.2-0.4-0.5-1.3L83.3,133.7z M91,133.6c-0.4-0.8-0.6-1-0.7-1.2l-6.3,3c0.3,0.5,0.5,1,0.9,1.7L91,133.6z M88.7,143.1
	c0.5,0.7,1,1.4,1.6,2l4.9-5c-0.3-0.3-0.5-0.6-0.8-0.9L88.7,143.1z M99.7,141.9c-1.6,0-3.2-0.6-4.4-1.8l-4.9,5
	c2.5,2.5,5.8,3.8,9.3,3.8V141.9z"/>
<path class="st4" d="M88,377.6c-1-1.6-3.2-2.2-4.8-1.2c-1.6,1-2.2,3.2-1.2,4.8L88,377.6z M226,399.4c1.9,0,3.5-1.6,3.5-3.5
	s-1.6-3.5-3.5-3.5V399.4z M92.4,389.2l-2.6,2.4c0,0,0,0,0,0L92.4,389.2z M89.7,386.3l-2.6,2.4L89.7,386.3z M88.3,384.8l2.8-2.1
	L88.3,384.8z M95.1,391.9l-2.5,2.4L95.1,391.9z M95.5,392.4l-2.4,2.5L95.5,392.4z M96.7,393.3l-2,2.8L96.7,393.3z M102.6,395.9
	l0.3-3.5L102.6,395.9z M98.8,394.7l-1.7,3.1L98.8,394.7z M104.5,399.4H226v-7H104.5V399.4z M89.9,391.6l2.7,2.8l5-4.9l-2.7-2.8
	L89.9,391.6z M82.1,381.3l2.2,3.6l6-3.6l-2.2-3.6L82.1,381.3z M87.1,388.7l2.7,2.9l5.1-4.8l-2.7-2.9L87.1,388.7z M84.3,384.9
	c0.5,0.8,0.9,1.4,1.3,2l5.6-4.2c-0.2-0.2-0.3-0.5-0.9-1.4L84.3,384.9z M92.2,383.9c-0.7-0.8-0.9-1-1.1-1.2l-5.6,4.2
	c0.4,0.6,0.9,1.1,1.6,1.8L92.2,383.9z M92.5,394.4c0.2,0.2,0.4,0.4,0.6,0.6l4.9-5c-0.1-0.1-0.1-0.1-0.4-0.4L92.5,394.4z M99.2,390.8
	c-0.3-0.2-0.4-0.3-0.5-0.3l-4.1,5.7c0.2,0.1,0.4,0.3,0.7,0.5L99.2,390.8z M93.1,394.9c0.5,0.5,1,0.9,1.5,1.3l4.1-5.7
	c-0.3-0.2-0.5-0.4-0.7-0.6L93.1,394.9z M104.5,392.4c-1,0-1.3,0-1.6,0l-0.7,7c0.7,0.1,1.3,0.1,2.2,0.1V392.4z M95.3,396.6
	c0.7,0.5,1.3,0.9,1.9,1.2l3.3-6.2c-0.2-0.1-0.5-0.3-1.3-0.8L95.3,396.6z M103,392.4c-0.9-0.1-1.7-0.3-2.5-0.7l-3.3,6.2
	c1.6,0.9,3.3,1.4,5.1,1.6L103,392.4z"/>
<path class="st5" d="M85,97.4v659.6"/>
<path class="st6" d="M175.8,151c3.8,0,6.8-3,6.8-6.8s-3-6.8-6.8-6.8c-3.8,0-6.8,3-6.8,6.8S172.1,151,175.8,151z"/>
<path class="st6" d="M127.8,402c3.8,0,6.8-3,6.8-6.8c0-3.8-3-6.8-6.8-6.8c-3.8,0-6.8,3-6.8,6.8C121,399,124.1,402,127.8,402z"/>
<path class="st6" d="M223.8,402c3.8,0,6.8-3,6.8-6.8c0-3.8-3-6.8-6.8-6.8c-3.8,0-6.8,3-6.8,6.8C217,399,220.1,402,223.8,402z"/>
<path class="st4" d="M174.8,98c22.5,0,40.8-18.3,40.8-40.8s-18.3-40.8-40.8-40.8c-22.5,0-40.8,18.3-40.8,40.8S152.3,98,174.8,98z"/>
<path class="st0" d="M161.8,64.4l0.7,4.9l1.1-4.5l7.4-26.2h4.2l7.2,26.2l1,4.5l0.8-5.1l5.8-25.7h5l-9.1,37.5h-4.5l-7.7-27.4
	l-0.6-2.9l-0.6,2.9l-8,27.4H160l-9.1-37.5h5L161.8,64.4z"/>
<path class="st0" d="M159.6,105.6c0,1.1,0.1,2,0.3,2.6c0.2,0.6,0.6,0.9,1.1,0.9c0.6,0,1-0.3,1.1-0.9c0.2-0.6,0.3-1.5,0.3-2.6
	c0-1.2-0.1-2.1-0.3-2.7c-0.2-0.6-0.6-0.9-1.1-0.9c-0.6,0-1,0.3-1.1,0.9C159.6,103.5,159.6,104.4,159.6,105.6z M161,100.5
	c1.3,0,2.1,0.4,2.7,1.3c0.5,0.9,0.8,2.2,0.8,3.8s-0.3,2.9-0.8,3.8c-0.5,0.9-1.4,1.3-2.7,1.3c-1.3,0-2.1-0.4-2.7-1.3
	c-0.5-0.9-0.8-2.1-0.8-3.8s0.3-2.9,0.8-3.8C158.8,100.9,159.7,100.5,161,100.5z M165.9,103.6v-1.3c0.6,0,1-0.1,1.3-0.1
	c0.4-0.1,0.7-0.3,1-0.5c0.2-0.2,0.3-0.4,0.4-0.7c0-0.2,0.1-0.3,0.1-0.4h1.6v9.9h-2v-6.8H165.9z M173,105.6h3.9v1.8H173V105.6z
	 M179.7,107.4c0,0.4,0.1,0.7,0.2,1c0.2,0.5,0.7,0.7,1.3,0.7c0.4,0,0.7-0.1,1-0.4c0.3-0.3,0.4-0.6,0.4-1.1c0-0.7-0.3-1.1-0.8-1.3
	c-0.3-0.1-0.8-0.2-1.4-0.2v-1.4c0.6,0,1.1-0.1,1.3-0.2c0.4-0.2,0.6-0.6,0.6-1.2c0-0.4-0.1-0.7-0.3-0.9c-0.2-0.2-0.5-0.4-0.9-0.4
	c-0.5,0-0.8,0.1-1,0.4c-0.2,0.3-0.3,0.7-0.3,1.2h-1.8c0-0.5,0.1-1,0.3-1.4c0.2-0.4,0.4-0.7,0.8-1.1c0.3-0.2,0.6-0.4,0.9-0.5
	s0.8-0.2,1.3-0.2c0.9,0,1.7,0.2,2.3,0.7c0.6,0.5,0.9,1.1,0.9,2c0,0.6-0.2,1.1-0.5,1.5c-0.2,0.2-0.4,0.4-0.7,0.5
	c0.2,0,0.4,0.2,0.8,0.5c0.5,0.5,0.7,1.1,0.7,1.9c0,0.8-0.3,1.6-0.9,2.2c-0.6,0.6-1.4,0.9-2.6,0.9c-1.4,0-2.4-0.5-2.9-1.4
	c-0.3-0.5-0.4-1.1-0.5-1.9H179.7z M187.6,105.6c0,1.1,0.1,2,0.3,2.6c0.2,0.6,0.6,0.9,1.1,0.9c0.6,0,1-0.3,1.1-0.9
	c0.2-0.6,0.3-1.5,0.3-2.6c0-1.2-0.1-2.1-0.3-2.7c-0.2-0.6-0.6-0.9-1.1-0.9c-0.6,0-1,0.3-1.1,0.9
	C187.7,103.5,187.6,104.4,187.6,105.6z M189,100.5c1.3,0,2.1,0.4,2.7,1.3c0.5,0.9,0.8,2.2,0.8,3.8s-0.3,2.9-0.8,3.8
	c-0.5,0.9-1.4,1.3-2.7,1.3c-1.3,0-2.1-0.4-2.7-1.3c-0.5-0.9-0.8-2.1-0.8-3.8s0.3-2.9,0.8-3.8C186.9,100.9,187.8,100.5,189,100.5z"/>
<text transform="matrix(1 0 0 1 126.0083 176.8198)"><tspan x="0" y="0" class="st1 st2 st7">Designing your</tspan><tspan x="-10.1" y="16.8" class="st1 st2 st7">personal website: </tspan><tspan x="-20.2" y="33.6" class="st1 st2 st7">A workshop on UI/UX</tspan><tspan x="28.4" y="50.4" class="st1 st2 st7">design</tspan></text>
<text transform="matrix(1 0 0 1 153.4359 251.9)" class="st8 st2 st9">488 CSB</text>
<text transform="matrix(1 0 0 1 147.67 262.4445)" class="st8 st2 st10">7:00 - 8:00 PM</text>
<text transform="matrix(1 0 0 1 114.1105 449.1944)" class="st8 st2 st10">488 CSB</text>
<text transform="matrix(1 0 0 1 110.1107 459.0831)" class="st8 st2 st10">8:00 - 9:00</text>
<text transform="matrix(1 0 0 1 93.0759 418.9447)"><tspan x="0" y="0" class="st1 st2 st11">Goldman Sachs</tspan><tspan x="16.2" y="13.2" class="st1 st2 st11">Tech Talk</tspan></text>
<text transform="matrix(1 0 0 1 205.5104 448.4185)" class="st8 st2 st10">480 CSB</text>
<text transform="matrix(1 0 0 1 201.5106 458.3073)" class="st8 st2 st10">8:00 - 9:00</text>
<text transform="matrix(1 0 0 1 191.4387 419.1688)"><tspan x="0" y="0" class="st1 st2 st11">Intro to Web </tspan><tspan x="-8.3" y="13.2" class="st1 st2 st11">Apps with Flask</tspan></text>
<path class="st4" d="M89.3,484.7c-0.7-1.8-2.7-2.7-4.5-2c-1.8,0.7-2.7,2.7-2,4.5L89.3,484.7z M177,506.4c1.9,0,3.5-1.6,3.5-3.5
	c0-1.9-1.6-3.5-3.5-3.5V506.4z M90.8,496l-3,1.8c0,0.1,0.1,0.1,0.1,0.2L90.8,496z M88.2,491.4L85,493L88.2,491.4z M92.6,498.7
	l-2.9,2L92.6,498.7z M100.7,506.4H177v-7h-76.4V506.4z M87.9,497.9l1.8,2.7l5.8-3.9l-1.8-2.7L87.9,497.9z M82.8,487.2l1.5,4l6.5-2.5
	l-1.5-4L82.8,487.2z M85.9,494.6l1.8,3.1l6-3.5l-1.8-3.1L85.9,494.6z M84.3,491.2c0.3,0.7,0.5,1.3,0.7,1.8l6.3-3
	c-0.1-0.2-0.2-0.4-0.5-1.3L84.3,491.2z M92,491.1c-0.4-0.8-0.6-1-0.7-1.2l-6.3,3c0.3,0.5,0.5,1,0.9,1.7L92,491.1z M89.7,500.6
	c0.5,0.7,1,1.4,1.6,2l4.9-5c-0.3-0.3-0.5-0.6-0.8-0.9L89.7,500.6z M100.7,499.4c-1.6,0-3.2-0.6-4.4-1.8l-4.9,5
	c2.5,2.5,5.8,3.8,9.3,3.8V499.4z"/>
<path class="st6" d="M176.8,508.5c3.8,0,6.8-3,6.8-6.8c0-3.8-3-6.8-6.8-6.8c-3.8,0-6.8,3-6.8,6.8C170,505.5,173.1,508.5,176.8,508.5
	z"/>
<text transform="matrix(1 0 0 1 139.7533 524.8574)" class="st1 st2 st11">Writing a LISP</text>
<text transform="matrix(1 0 0 1 106.9551 565.1503)"><tspan x="0" y="0" class="st0 st2 st12"> LISP is an old language (dating back to </tspan><tspan x="14" y="9.6" class="st0 st2 st12">the 1950s), but its simplicity and </tspan><tspan x="10.2" y="19.2" class="st0 st2 st12">elegance has kept it alive for more </tspan><tspan x="14.9" y="28.8" class="st0 st2 st12">than 60 years. In this workshop, </tspan><tspan x="-1.2" y="38.4" class="st0 st2 st12">we&apos;ll quickly go over some of the unique </tspan><tspan x="-1.1" y="48" class="st0 st2 st12">features of LISP and then write our own! </tspan><tspan x="15.8" y="57.6" class="st0 st2 st12">This workshop requires a basic </tspan><tspan x="4" y="67.2" class="st0 st2 st12">understanding of Python (for loops, if </tspan><tspan x="-2" y="76.8" class="st0 st2 st12">statements, functions) and recursion but </tspan><tspan x="8" y="86.4" class="st0 st2 st12">no other advanced concepts will be </tspan><tspan x="4.2" y="96" class="st0 st2 st12">used -- it&apos;s a lot easier than it sounds. </tspan><tspan x="35.3" y="105.6" class="st0 st2 st12">Please bring a laptop.</tspan></text>
<text transform="matrix(1 0 0 1 101.17 280.4559)"><tspan x="0" y="0" class="st0 st2 st12">Ever wanted to design a beautiful personal </tspan><tspan x="6.9" y="9.6" class="st0 st2 st12">website to showcase yourself and your </tspan><tspan x="15.3" y="19.2" class="st0 st2 st12">projects? In this workshop, we will </tspan><tspan x="16" y="28.8" class="st0 st2 st12">be using Figma, a design software </tspan><tspan x="12.9" y="38.4" class="st0 st2 st12">used by many User Experience (UX) </tspan><tspan x="8.2" y="48" class="st0 st2 st12">Designers in order to design your own </tspan><tspan x="66.5" y="57.6" class="st0 st2 st12">website!</tspan></text>
<text transform="matrix(1 0 0 1 154.9874 541.01)" class="st8 st2 st9">488 CSB</text>
<text transform="matrix(1 0 0 1 146.2216 551.5544)" class="st8 st2 st10">9:00 - 10:00 PM</text>
<path class="st4" d="M89.3,677.4c-0.7-1.8-2.7-2.7-4.5-2c-1.8,0.7-2.7,2.7-2,4.5L89.3,677.4z M177,699.1c1.9,0,3.5-1.6,3.5-3.5
	s-1.6-3.5-3.5-3.5V699.1z M90.8,688.6l-3,1.8c0,0.1,0.1,0.1,0.1,0.2L90.8,688.6z M88.2,684.1l-3.2,1.5L88.2,684.1z M92.6,691.4
	l-2.9,2L92.6,691.4z M100.6,699.1H177v-7h-76.4V699.1z M87.9,690.6l1.8,2.7l5.8-3.9l-1.8-2.7L87.9,690.6z M82.8,679.9l1.5,4l6.5-2.5
	l-1.5-4L82.8,679.9z M85.9,687.3l1.8,3.1l6-3.5l-1.8-3.1L85.9,687.3z M84.3,683.9c0.3,0.7,0.5,1.3,0.7,1.8l6.3-3
	c-0.1-0.2-0.2-0.4-0.5-1.3L84.3,683.9z M92,683.8c-0.4-0.8-0.6-1-0.7-1.2l-6.3,3c0.3,0.5,0.5,1,0.9,1.7L92,683.8z M89.7,693.3
	c0.5,0.7,1,1.4,1.6,2l4.9-5c-0.3-0.3-0.5-0.6-0.8-0.9L89.7,693.3z M100.6,692.1c-1.6,0-3.2-0.6-4.4-1.8l-4.9,5
	c2.5,2.5,5.8,3.8,9.3,3.8V692.1z"/>
<path class="st6" d="M176.8,701.2c3.8,0,6.8-3,6.8-6.8c0-3.8-3-6.8-6.8-6.8c-3.8,0-6.8,3-6.8,6.8C170,698.2,173.1,701.2,176.8,701.2
	z"/>
<text transform="matrix(1 0 0 1 127.189 717.5477)" class="st1 st2 st13">Cookies &amp; Code</text>
<text transform="matrix(1 0 0 1 154.9874 735.0994)" class="st8 st2 st9">CS Lounge</text>
<text transform="matrix(1 0 0 1 159.4818 746.2229)" class="st8 st2 st10">10:00 - 11:00</text>
</svg>
