<?xml version="1.0" encoding="utf-8"?>
<!-- Generator: Adobe Illustrator 22.1.0, SVG Export Plug-In . SVG Version: 6.00 Build 0)  -->
<svg version="1.1" id="Layer_1" xmlns="http://www.w3.org/2000/svg" xmlns:xlink="http://www.w3.org/1999/xlink" x="0px" y="0px"
	 viewBox="0 0 181.3 14.7" style="enable-background:new 0 0 181.3 14.7;" xml:space="preserve">
<style type="text/css">
	.st0{fill:#D6F400;}
	.st1{fill:#FFFFFF;stroke:#231F20;stroke-miterlimit:10;}
</style>
<g>
	<line class="st0" x1="158.4" y1="7.5" x2="10.5" y2="8.1"/>
	<g>
		<path class="st0" d="M158.4,2.5c-16.6,0.1-33.3,0.1-50.1,0.2c-26.5,0.1-53,0.2-79.6,0.4c-6,0-12.1,0.1-18.2,0.1
			c-3.8,0-3.8,10,0,10c16.7-0.1,33.4-0.1,50.1-0.2c26.5-0.1,53.2-0.2,79.7-0.3c6,0,12.1-0.1,18.2-0.1
			C162.2,12.5,162.2,2.5,158.4,2.5L158.4,2.5z"/>
	</g>
</g>
<circle class="st1" cx="7.4" cy="7.6" r="6.5"/>
<circle class="st1" cx="40.9" cy="7.8" r="6.5"/>
<circle class="st1" cx="161.2" cy="8.1" r="6.5"/>
</svg>
