<?xml version="1.0" encoding="utf-8"?>
<!-- Generator: Adobe Illustrator 22.1.0, SVG Export Plug-In . SVG Version: 6.00 Build 0)  -->
<svg version="1.1" id="Layer_1" xmlns="http://www.w3.org/2000/svg" xmlns:xlink="http://www.w3.org/1999/xlink" x="0px" y="0px"
	 viewBox="0 0 365 15" style="enable-background:new 0 0 365 15;" xml:space="preserve">
<style type="text/css">
	.st0{fill:#0071BC;}
	.st1{fill:#FFFFFF;stroke:#231F20;stroke-miterlimit:10;}
</style>
<g>
	<line class="st0" x1="352" y1="8" x2="12.5" y2="8.1"/>
	<g>
		<path class="st0" d="M352,3c-38.2,0-76.5,0-114.7,0c-60.9,0-121.9,0.1-182.8,0.1c-14,0-28,0-41.9,0c-6.4,0-6.4,10,0,10
			c38.2,0,76.5,0,114.7,0c60.9,0,121.9-0.1,182.8-0.1c14,0,28,0,41.9,0C358.4,13,358.4,3,352,3L352,3z"/>
	</g>
</g>
<circle class="st1" cx="7.4" cy="7.6" r="6.5"/>
<ellipse class="st1" cx="357.2" cy="7.8" rx="6.5" ry="6.3"/>
<circle class="st1" cx="92.4" cy="7.6" r="6.5"/>
</svg>
