<?xml version="1.0" encoding="utf-8"?>
<!-- Generator: Adobe Illustrator 22.1.0, SVG Export Plug-In . SVG Version: 6.00 Build 0)  -->
<svg version="1.1" id="Layer_1" xmlns="http://www.w3.org/2000/svg" xmlns:xlink="http://www.w3.org/1999/xlink" x="0px" y="0px"
	 viewBox="0 0 155 14.7" style="enable-background:new 0 0 155 14.7;" xml:space="preserve">
<style type="text/css">
	.st0{fill:none;}
	.st1{fill:#009FAF;}
	.st2{fill:#FFFFFF;stroke:#231F20;stroke-miterlimit:10;}
</style>
<g>
	<line class="st0" x1="109.4" y1="7.5" x2="9.5" y2="8.1"/>
	<g>
		<path class="st1" d="M109.4,2.5C98.1,2.6,86.9,2.6,75.7,2.7c-18,0.1-35.9,0.2-53.8,0.4c-4.1,0-8.2,0.1-12.3,0.1
			c-2.5,0-2.5,10,0,10C20.8,13.1,32,13.1,43.3,13c17.9-0.1,35.8-0.2,53.7-0.3c4.1,0,8.2-0.1,12.3-0.1
			C111.9,12.5,111.9,2.5,109.4,2.5L109.4,2.5z"/>
	</g>
</g>
<circle class="st2" cx="7.4" cy="7.6" r="6.5"/>
<circle class="st2" cx="113" cy="8.1" r="6.5"/>
<circle class="st2" cx="37.4" cy="7.6" r="6.5"/>
</svg>
