<svg width="248" height="945" viewBox="0 0 248 945" fill="none" xmlns="http://www.w3.org/2000/svg">
<path d="M35.2693 534.75C34.5792 532.945 32.556 532.041 30.7504 532.731C28.9448 533.421 28.0405 535.444 28.7307 537.25L35.2693 534.75ZM123 556.5C124.933 556.5 126.5 554.933 126.5 553C126.5 551.067 124.933 549.5 123 549.5V556.5ZM36.7341 546.009L33.7117 547.774C33.7504 547.84 33.7912 547.905 33.8341 547.968L36.7341 546.009ZM34.1342 541.49L30.9778 543.003L34.1342 541.49ZM38.569 548.724L35.669 550.684L38.569 548.724ZM46.6187 556.5H123V549.5H46.6187V556.5ZM33.8341 547.968L35.669 550.684L41.469 546.765L39.6341 544.049L33.8341 547.968ZM28.7307 537.25L30.2499 541.224L36.7885 538.725L35.2693 534.75L28.7307 537.25ZM31.9077 544.684L33.7117 547.774L39.7565 544.244L37.9525 541.154L31.9077 544.684ZM30.2499 541.224C30.523 541.939 30.7253 542.476 30.9778 543.003L37.2906 539.978C37.1898 539.768 37.0999 539.54 36.7885 538.725L30.2499 541.224ZM37.9525 541.154C37.5127 540.401 37.3914 540.188 37.2906 539.978L30.9778 543.003C31.2304 543.53 31.522 544.024 31.9077 544.684L37.9525 541.154ZM35.669 550.684C36.1504 551.396 36.7002 552.06 37.3106 552.666L42.2411 547.697C41.954 547.412 41.6954 547.1 41.469 546.765L35.669 550.684ZM46.6187 549.5C44.9787 549.5 43.4052 548.852 42.2411 547.697L37.3106 552.666C39.7859 555.122 43.1316 556.5 46.6187 556.5V549.5Z" fill="#F69320"/>
<path d="M35.2428 110.683C34.5155 108.892 32.474 108.03 30.6831 108.757C28.8921 109.485 28.0299 111.526 28.7572 113.317L35.2428 110.683ZM123 131.5C124.933 131.5 126.5 129.933 126.5 128C126.5 126.067 124.933 124.5 123 124.5V131.5ZM36.7341 121.42L33.76 123.265C33.7705 123.282 33.7811 123.299 33.7919 123.316L36.7341 121.42ZM33.4645 115.606L30.2217 116.923L33.4645 115.606ZM35.0001 118.625L32.0261 120.47L35.0001 118.625ZM34.1362 117.165L37.2558 115.578L34.1362 117.165ZM38.6443 124.385L35.7021 126.28L38.6443 124.385ZM45.2742 131.5H123V124.5H45.2742V131.5ZM33.7919 123.316L35.7021 126.28L41.5865 122.489L39.6763 119.524L33.7919 123.316ZM28.7572 113.317L30.2217 116.923L36.7073 114.289L35.2428 110.683L28.7572 113.317ZM32.0261 120.47L33.76 123.265L39.7082 119.575L37.9742 116.78L32.0261 120.47ZM30.2217 116.923C30.5204 117.658 30.7417 118.211 31.0165 118.751L37.2558 115.578C37.1461 115.362 37.0478 115.128 36.7073 114.289L30.2217 116.923ZM37.9742 116.78C37.4971 116.011 37.3655 115.794 37.2558 115.578L31.0165 118.751C31.2914 119.292 31.6076 119.796 32.0261 120.47L37.9742 116.78ZM35.7021 126.28C36.1388 126.958 36.6462 127.588 37.2158 128.158L42.1697 123.213C41.9503 122.993 41.7548 122.75 41.5865 122.489L35.7021 126.28ZM45.2742 124.5C44.1095 124.5 42.9926 124.037 42.1697 123.213L37.2158 128.158C39.3518 130.298 42.251 131.5 45.2742 131.5V124.5Z" fill="#F69320"/>
<path d="M32 81L32 941" stroke="#F69320" stroke-width="7" stroke-linecap="round" stroke-linejoin="round"/>
<path d="M75.3906 358.5H83.5547V360.523H77.7812V363.172H82.8359V365.172H77.7812V370H75.3906V358.5ZM87.2109 361.484V366.617C87.2109 367.102 87.2682 367.466 87.3828 367.711C87.5859 368.143 87.9844 368.359 88.5781 368.359C89.3385 368.359 89.8594 368.052 90.1406 367.438C90.2865 367.104 90.3594 366.664 90.3594 366.117V361.484H92.6172V370H90.4531V368.797C90.4323 368.823 90.3802 368.901 90.2969 369.031C90.2135 369.161 90.1146 369.276 90 369.375C89.651 369.688 89.3125 369.901 88.9844 370.016C88.6615 370.13 88.2812 370.188 87.8438 370.188C86.5833 370.188 85.7344 369.734 85.2969 368.828C85.0521 368.328 84.9297 367.591 84.9297 366.617V361.484H87.2109ZM99.4922 361.281C100.372 361.281 101.091 361.513 101.648 361.977C102.211 362.435 102.492 363.198 102.492 364.266V370H100.211V364.82C100.211 364.372 100.151 364.029 100.031 363.789C99.8125 363.352 99.3958 363.133 98.7812 363.133C98.026 363.133 97.5078 363.453 97.2266 364.094C97.0807 364.432 97.0078 364.865 97.0078 365.391V370H94.7891V361.5H96.9375V362.742C97.224 362.305 97.4948 361.99 97.75 361.797C98.2083 361.453 98.7891 361.281 99.4922 361.281ZM117.703 360.523H111.609V362.969H117.203V364.969H111.609V367.93H117.984V370H109.258V358.484H117.703V360.523ZM124.93 361.484H127.32L124.25 370H121.898L118.844 361.484H121.344L123.117 367.766L124.93 361.484ZM131.945 363.094C131.43 363.094 131.029 363.255 130.742 363.578C130.461 363.901 130.284 364.339 130.211 364.891H133.672C133.635 364.302 133.456 363.857 133.133 363.555C132.815 363.247 132.419 363.094 131.945 363.094ZM131.945 361.258C132.654 361.258 133.292 361.391 133.859 361.656C134.427 361.922 134.896 362.341 135.266 362.914C135.599 363.419 135.815 364.005 135.914 364.672C135.971 365.062 135.995 365.625 135.984 366.359H130.156C130.188 367.214 130.456 367.812 130.961 368.156C131.268 368.37 131.638 368.477 132.07 368.477C132.529 368.477 132.901 368.346 133.188 368.086C133.344 367.945 133.482 367.75 133.602 367.5H135.875C135.818 368.005 135.555 368.518 135.086 369.039C134.357 369.867 133.336 370.281 132.023 370.281C130.94 370.281 129.984 369.932 129.156 369.234C128.328 368.536 127.914 367.401 127.914 365.828C127.914 364.354 128.286 363.224 129.031 362.438C129.781 361.651 130.753 361.258 131.945 361.258ZM142.211 361.281C143.091 361.281 143.81 361.513 144.367 361.977C144.93 362.435 145.211 363.198 145.211 364.266V370H142.93V364.82C142.93 364.372 142.87 364.029 142.75 363.789C142.531 363.352 142.115 363.133 141.5 363.133C140.745 363.133 140.227 363.453 139.945 364.094C139.799 364.432 139.727 364.865 139.727 365.391V370H137.508V361.5H139.656V362.742C139.943 362.305 140.214 361.99 140.469 361.797C140.927 361.453 141.508 361.281 142.211 361.281ZM146.398 363.148V361.562H147.586V359.188H149.789V361.562H151.172V363.148H149.789V367.648C149.789 367.997 149.833 368.216 149.922 368.305C150.01 368.388 150.281 368.43 150.734 368.43C150.802 368.43 150.872 368.43 150.945 368.43C151.023 368.424 151.099 368.419 151.172 368.414V370.078L150.117 370.117C149.065 370.154 148.346 369.971 147.961 369.57C147.711 369.315 147.586 368.922 147.586 368.391V363.148H146.398ZM160.789 365.562L161.422 363.281H160.125L159.516 365.562H160.789ZM156.367 365.562H157.953L158.57 363.281H156.977L157.328 361.969H158.922L159.773 358.82H161.328L160.477 361.969H161.773L162.602 358.82H164.156L163.328 361.969H164.898L164.547 363.281H162.977L162.344 365.562H163.938L163.586 366.875H161.992L161.156 370H159.602L160.438 366.875H159.156L158.305 370H156.75L157.602 366.875H156.016L156.367 365.562ZM166.031 362.188V360.672C166.734 360.641 167.227 360.594 167.508 360.531C167.956 360.432 168.32 360.234 168.602 359.938C168.794 359.734 168.94 359.464 169.039 359.125C169.096 358.922 169.125 358.771 169.125 358.672H170.977V370H168.695V362.188H166.031Z" fill="white"/>
<path d="M103.912 394.03H105.416V399.933H108.98V401.227H103.912V394.03ZM112.301 400.246C112.708 400.246 113.02 400.101 113.238 399.811C113.456 399.522 113.565 399.11 113.565 398.576C113.565 398.042 113.456 397.632 113.238 397.345C113.02 397.056 112.708 396.911 112.301 396.911C111.894 396.911 111.58 397.056 111.358 397.345C111.14 397.632 111.031 398.042 111.031 398.576C111.031 399.11 111.14 399.522 111.358 399.811C111.58 400.101 111.894 400.246 112.301 400.246ZM115.025 398.576C115.025 399.357 114.801 400.026 114.352 400.583C113.902 401.136 113.22 401.413 112.306 401.413C111.391 401.413 110.709 401.136 110.26 400.583C109.811 400.026 109.586 399.357 109.586 398.576C109.586 397.808 109.811 397.142 110.26 396.579C110.709 396.016 111.391 395.734 112.306 395.734C113.22 395.734 113.902 396.016 114.352 396.579C114.801 397.142 115.025 397.808 115.025 398.576ZM119.205 397.814C119.179 397.616 119.112 397.437 119.005 397.277C118.849 397.062 118.606 396.955 118.277 396.955C117.809 396.955 117.488 397.188 117.315 397.653C117.224 397.9 117.179 398.229 117.179 398.639C117.179 399.03 117.224 399.344 117.315 399.582C117.481 400.024 117.794 400.246 118.253 400.246C118.578 400.246 118.81 400.158 118.946 399.982C119.083 399.806 119.166 399.579 119.195 399.299H120.616C120.584 399.722 120.431 400.122 120.157 400.5C119.721 401.108 119.075 401.413 118.219 401.413C117.363 401.413 116.733 401.159 116.329 400.651C115.925 400.143 115.724 399.484 115.724 398.674C115.724 397.759 115.947 397.048 116.393 396.54C116.839 396.032 117.454 395.778 118.238 395.778C118.906 395.778 119.451 395.928 119.874 396.227C120.3 396.527 120.553 397.056 120.631 397.814H119.205ZM124.527 398.639C124.439 398.695 124.35 398.74 124.259 398.776C124.171 398.809 124.049 398.84 123.893 398.869L123.58 398.927C123.287 398.98 123.077 399.043 122.95 399.118C122.735 399.245 122.628 399.442 122.628 399.709C122.628 399.946 122.693 400.119 122.823 400.226C122.957 400.33 123.118 400.383 123.307 400.383C123.606 400.383 123.881 400.295 124.132 400.119C124.386 399.943 124.518 399.622 124.527 399.157V398.639ZM123.683 397.99C123.94 397.957 124.124 397.917 124.234 397.868C124.433 397.783 124.532 397.651 124.532 397.472C124.532 397.254 124.456 397.105 124.303 397.023C124.153 396.939 123.932 396.896 123.639 396.896C123.31 396.896 123.077 396.978 122.94 397.14C122.843 397.261 122.778 397.424 122.745 397.629H121.402C121.432 397.163 121.562 396.781 121.793 396.481C122.161 396.012 122.792 395.778 123.688 395.778C124.27 395.778 124.788 395.894 125.24 396.125C125.693 396.356 125.919 396.792 125.919 397.433V399.875C125.919 400.044 125.922 400.249 125.929 400.49C125.938 400.672 125.966 400.796 126.012 400.861C126.057 400.926 126.126 400.98 126.217 401.022V401.227H124.703C124.661 401.12 124.632 401.019 124.615 400.925C124.599 400.83 124.586 400.723 124.576 400.602C124.384 400.811 124.163 400.988 123.912 401.134C123.613 401.307 123.274 401.393 122.896 401.393C122.415 401.393 122.016 401.257 121.7 400.983C121.388 400.706 121.231 400.316 121.231 399.811C121.231 399.157 121.484 398.683 121.988 398.39C122.265 398.231 122.672 398.117 123.209 398.049L123.683 397.99ZM126.612 396.945V395.954H127.354V394.469H128.731V395.954H129.596V396.945H128.731V399.758C128.731 399.976 128.759 400.112 128.814 400.168C128.87 400.22 129.039 400.246 129.322 400.246C129.365 400.246 129.409 400.246 129.454 400.246C129.503 400.243 129.55 400.239 129.596 400.236V401.276L128.937 401.301C128.279 401.323 127.83 401.209 127.589 400.959C127.433 400.799 127.354 400.553 127.354 400.221V396.945H126.612ZM131.92 395.27H130.509V393.986H131.92V395.27ZM130.509 395.905H131.92V401.227H130.509V395.905ZM135.66 400.246C136.067 400.246 136.38 400.101 136.598 399.811C136.816 399.522 136.925 399.11 136.925 398.576C136.925 398.042 136.816 397.632 136.598 397.345C136.38 397.056 136.067 396.911 135.66 396.911C135.253 396.911 134.939 397.056 134.718 397.345C134.5 397.632 134.391 398.042 134.391 398.576C134.391 399.11 134.5 399.522 134.718 399.811C134.939 400.101 135.253 400.246 135.66 400.246ZM138.385 398.576C138.385 399.357 138.16 400.026 137.711 400.583C137.262 401.136 136.58 401.413 135.665 401.413C134.75 401.413 134.068 401.136 133.619 400.583C133.17 400.026 132.945 399.357 132.945 398.576C132.945 397.808 133.17 397.142 133.619 396.579C134.068 396.016 134.75 395.734 135.665 395.734C136.58 395.734 137.262 396.016 137.711 396.579C138.16 397.142 138.385 397.808 138.385 398.576ZM142.335 395.778C142.885 395.778 143.334 395.923 143.683 396.213C144.034 396.499 144.21 396.976 144.21 397.643V401.227H142.784V397.99C142.784 397.71 142.747 397.495 142.672 397.345C142.535 397.072 142.275 396.935 141.891 396.935C141.419 396.935 141.095 397.135 140.919 397.536C140.828 397.747 140.782 398.018 140.782 398.346V401.227H139.396V395.915H140.738V396.691C140.917 396.418 141.087 396.221 141.246 396.1C141.533 395.885 141.896 395.778 142.335 395.778ZM98.668 408.583C98.668 408.861 98.7396 409.078 98.8828 409.231C99.0286 409.385 99.2292 409.462 99.4844 409.462C99.7396 409.462 99.9388 409.385 100.082 409.231C100.228 409.078 100.301 408.861 100.301 408.583C100.301 408.294 100.227 408.075 100.078 407.926C99.9323 407.775 99.7344 407.7 99.4844 407.7C99.2344 407.7 99.0352 407.775 98.8867 407.926C98.7409 408.075 98.668 408.294 98.668 408.583ZM97.5117 408.657C97.5117 408.339 97.5833 408.051 97.7266 407.794C97.8724 407.536 98.0846 407.342 98.3633 407.212C98.0898 407.029 97.9115 406.833 97.8281 406.622C97.7474 406.408 97.707 406.209 97.707 406.024C97.707 405.613 97.862 405.262 98.1719 404.973C98.4818 404.682 98.9193 404.536 99.4844 404.536C100.049 404.536 100.487 404.682 100.797 404.973C101.107 405.262 101.262 405.613 101.262 406.024C101.262 406.209 101.22 406.408 101.137 406.622C101.056 406.833 100.879 407.016 100.605 407.173C100.884 407.329 101.094 407.536 101.234 407.794C101.375 408.051 101.445 408.339 101.445 408.657C101.445 409.134 101.268 409.54 100.914 409.876C100.562 410.209 100.07 410.376 99.4375 410.376C98.8047 410.376 98.3255 410.209 98 409.876C97.6745 409.54 97.5117 409.134 97.5117 408.657ZM98.7695 406.149C98.7695 406.355 98.832 406.523 98.957 406.653C99.0846 406.783 99.2604 406.848 99.4844 406.848C99.7109 406.848 99.8854 406.783 100.008 406.653C100.133 406.523 100.195 406.355 100.195 406.149C100.195 405.925 100.133 405.751 100.008 405.626C99.8854 405.498 99.7109 405.434 99.4844 405.434C99.2604 405.434 99.0846 405.498 98.957 405.626C98.832 405.751 98.7695 405.925 98.7695 406.149ZM102.66 406.137H103.844V407.301H102.66V406.137ZM102.66 409.063H103.844V410.227H102.66V409.063ZM105.805 407.45C105.805 408.101 105.858 408.6 105.965 408.946C106.072 409.29 106.29 409.462 106.621 409.462C106.952 409.462 107.168 409.29 107.27 408.946C107.374 408.6 107.426 408.101 107.426 407.45C107.426 406.768 107.374 406.262 107.27 405.934C107.168 405.606 106.952 405.442 106.621 405.442C106.29 405.442 106.072 405.606 105.965 405.934C105.858 406.262 105.805 406.768 105.805 407.45ZM106.621 404.524C107.342 404.524 107.848 404.778 108.137 405.286C108.428 405.794 108.574 406.515 108.574 407.45C108.574 408.385 108.428 409.105 108.137 409.61C107.848 410.115 107.342 410.368 106.621 410.368C105.9 410.368 105.393 410.115 105.102 409.61C104.812 409.105 104.668 408.385 104.668 407.45C104.668 406.515 104.812 405.794 105.102 405.286C105.393 404.778 105.9 404.524 106.621 404.524ZM110.258 407.45C110.258 408.101 110.311 408.6 110.418 408.946C110.525 409.29 110.743 409.462 111.074 409.462C111.405 409.462 111.621 409.29 111.723 408.946C111.827 408.6 111.879 408.101 111.879 407.45C111.879 406.768 111.827 406.262 111.723 405.934C111.621 405.606 111.405 405.442 111.074 405.442C110.743 405.442 110.525 405.606 110.418 405.934C110.311 406.262 110.258 406.768 110.258 407.45ZM111.074 404.524C111.796 404.524 112.301 404.778 112.59 405.286C112.882 405.794 113.027 406.515 113.027 407.45C113.027 408.385 112.882 409.105 112.59 409.61C112.301 410.115 111.796 410.368 111.074 410.368C110.353 410.368 109.846 410.115 109.555 409.61C109.266 409.105 109.121 408.385 109.121 407.45C109.121 406.515 109.266 405.794 109.555 405.286C109.846 404.778 110.353 404.524 111.074 404.524ZM115.734 407.469H117.977V408.524H115.734V407.469ZM120.68 406.555C120.68 405.949 120.854 405.458 121.203 405.083C121.555 404.705 122.01 404.516 122.57 404.516C123.432 404.516 124.023 404.898 124.344 405.661C124.526 406.093 124.617 406.662 124.617 407.368C124.617 408.053 124.53 408.624 124.355 409.083C124.022 409.955 123.41 410.391 122.52 410.391C122.095 410.391 121.714 410.266 121.375 410.016C121.036 409.764 120.842 409.397 120.793 408.915H121.902C121.928 409.081 121.999 409.217 122.113 409.321C122.228 409.425 122.38 409.477 122.57 409.477C122.938 409.477 123.195 409.274 123.344 408.868C123.424 408.644 123.475 408.317 123.496 407.887C123.395 408.015 123.286 408.113 123.172 408.18C122.964 408.305 122.707 408.368 122.402 408.368C121.952 408.368 121.552 408.213 121.203 407.903C120.854 407.591 120.68 407.141 120.68 406.555ZM122.645 407.462C122.798 407.462 122.943 407.417 123.078 407.329C123.331 407.167 123.457 406.887 123.457 406.489C123.457 406.169 123.382 405.915 123.23 405.727C123.082 405.54 122.878 405.446 122.617 405.446C122.427 405.446 122.264 405.499 122.129 405.606C121.915 405.773 121.809 406.055 121.809 406.454C121.809 406.79 121.876 407.042 122.012 407.212C122.15 407.378 122.361 407.462 122.645 407.462ZM125.801 406.137H126.984V407.301H125.801V406.137ZM125.801 409.063H126.984V410.227H125.801V409.063ZM128.945 407.45C128.945 408.101 128.999 408.6 129.105 408.946C129.212 409.29 129.431 409.462 129.762 409.462C130.092 409.462 130.309 409.29 130.41 408.946C130.514 408.6 130.566 408.101 130.566 407.45C130.566 406.768 130.514 406.262 130.41 405.934C130.309 405.606 130.092 405.442 129.762 405.442C129.431 405.442 129.212 405.606 129.105 405.934C128.999 406.262 128.945 406.768 128.945 407.45ZM129.762 404.524C130.483 404.524 130.988 404.778 131.277 405.286C131.569 405.794 131.715 406.515 131.715 407.45C131.715 408.385 131.569 409.105 131.277 409.61C130.988 410.115 130.483 410.368 129.762 410.368C129.04 410.368 128.534 410.115 128.242 409.61C127.953 409.105 127.809 408.385 127.809 407.45C127.809 406.515 127.953 405.794 128.242 405.286C128.534 404.778 129.04 404.524 129.762 404.524ZM133.398 407.45C133.398 408.101 133.452 408.6 133.559 408.946C133.665 409.29 133.884 409.462 134.215 409.462C134.546 409.462 134.762 409.29 134.863 408.946C134.967 408.6 135.02 408.101 135.02 407.45C135.02 406.768 134.967 406.262 134.863 405.934C134.762 405.606 134.546 405.442 134.215 405.442C133.884 405.442 133.665 405.606 133.559 405.934C133.452 406.262 133.398 406.768 133.398 407.45ZM134.215 404.524C134.936 404.524 135.441 404.778 135.73 405.286C136.022 405.794 136.168 406.515 136.168 407.45C136.168 408.385 136.022 409.105 135.73 409.61C135.441 410.115 134.936 410.368 134.215 410.368C133.493 410.368 132.987 410.115 132.695 409.61C132.406 409.105 132.262 408.385 132.262 407.45C132.262 406.515 132.406 405.794 132.695 405.286C132.987 404.778 133.493 404.524 134.215 404.524ZM142.145 408.098C142.145 407.77 142.069 407.48 141.918 407.227C141.77 406.975 141.527 406.848 141.191 406.848C140.788 406.848 140.51 407.04 140.359 407.423C140.281 407.626 140.242 407.884 140.242 408.196C140.242 408.691 140.374 409.038 140.637 409.239C140.793 409.356 140.978 409.415 141.191 409.415C141.501 409.415 141.737 409.295 141.898 409.055C142.062 408.816 142.145 408.497 142.145 408.098ZM141.512 405.876C142.009 405.876 142.43 406.059 142.773 406.426C143.12 406.794 143.293 407.333 143.293 408.044C143.293 408.794 143.124 409.365 142.785 409.759C142.449 410.152 142.016 410.348 141.484 410.348C141.146 410.348 140.865 410.264 140.641 410.094C140.518 410.001 140.398 409.864 140.281 409.684V411.903H139.18V405.969H140.246V406.598C140.366 406.413 140.493 406.268 140.629 406.161C140.876 405.971 141.171 405.876 141.512 405.876ZM148.859 405.876C149.047 405.876 149.232 405.912 149.414 405.985C149.596 406.058 149.762 406.186 149.91 406.368C150.03 406.516 150.111 406.699 150.152 406.915C150.178 407.058 150.191 407.268 150.191 407.544L150.184 410.227H149.043V407.516C149.043 407.355 149.017 407.222 148.965 407.118C148.866 406.92 148.684 406.821 148.418 406.821C148.111 406.821 147.898 406.949 147.781 407.204C147.721 407.339 147.691 407.502 147.691 407.692V410.227H146.57V407.692C146.57 407.44 146.544 407.256 146.492 407.141C146.398 406.936 146.215 406.833 145.941 406.833C145.624 406.833 145.41 406.936 145.301 407.141C145.241 407.259 145.211 407.433 145.211 407.665V410.227H144.082V405.977H145.164V406.598C145.302 406.377 145.432 406.219 145.555 406.126C145.771 405.959 146.051 405.876 146.395 405.876C146.72 405.876 146.983 405.947 147.184 406.091C147.345 406.223 147.467 406.394 147.551 406.602C147.697 406.352 147.878 406.169 148.094 406.051C148.323 405.934 148.578 405.876 148.859 405.876Z" fill="#999999"/>
<path d="M123.8 560.6C127.556 560.6 130.6 557.556 130.6 553.8C130.6 550.044 127.556 547 123.8 547C120.044 547 117 550.044 117 553.8C117 557.556 120.044 560.6 123.8 560.6Z" fill="white" stroke="#231F20" stroke-miterlimit="10"/>
<path d="M35.2693 324.75C34.5792 322.945 32.556 322.041 30.7504 322.731C28.9448 323.421 28.0405 325.444 28.7307 327.25L35.2693 324.75ZM123 346.5C124.933 346.5 126.5 344.933 126.5 343C126.5 341.067 124.933 339.5 123 339.5V346.5ZM36.7341 336.009L33.7117 337.774C33.7504 337.84 33.7912 337.905 33.8341 337.968L36.7341 336.009ZM34.1342 331.49L30.9778 333.003L34.1342 331.49ZM38.569 338.724L35.669 340.684L38.569 338.724ZM46.6187 346.5H123V339.5H46.6187V346.5ZM33.8341 337.968L35.669 340.684L41.469 336.765L39.6341 334.049L33.8341 337.968ZM28.7307 327.25L30.2499 331.224L36.7885 328.725L35.2693 324.75L28.7307 327.25ZM31.9077 334.684L33.7117 337.774L39.7565 334.244L37.9525 331.154L31.9077 334.684ZM30.2499 331.224C30.523 331.939 30.7253 332.476 30.9778 333.003L37.2906 329.978C37.1898 329.768 37.0999 329.54 36.7885 328.725L30.2499 331.224ZM37.9525 331.154C37.5127 330.401 37.3914 330.188 37.2906 329.978L30.9778 333.003C31.2304 333.53 31.522 334.024 31.9077 334.684L37.9525 331.154ZM35.669 340.684C36.1504 341.396 36.7002 342.06 37.3106 342.666L42.2411 337.697C41.954 337.412 41.6954 337.1 41.469 336.765L35.669 340.684ZM46.6187 339.5C44.9787 339.5 43.4052 338.852 42.2411 337.697L37.3106 342.666C39.7859 345.122 43.1316 346.5 46.6187 346.5V339.5Z" fill="#F69320"/>
<path d="M123.8 349.6C127.556 349.6 130.6 346.556 130.6 342.8C130.6 339.044 127.556 336 123.8 336C120.044 336 117 339.044 117 342.8C117 346.556 120.044 349.6 123.8 349.6Z" fill="white" stroke="#231F20" stroke-miterlimit="10"/>
<path d="M122.8 134.6C126.556 134.6 129.6 131.556 129.6 127.8C129.6 124.044 126.556 121 122.8 121C119.044 121 116 124.044 116 127.8C116 131.556 119.044 134.6 122.8 134.6Z" fill="white" stroke="#231F20" stroke-miterlimit="10"/>
<path d="M123.8 385.6C127.556 385.6 130.6 382.556 130.6 378.8C130.6 375.044 127.556 372 123.8 372C120.044 372 117 375.044 117 378.8C117 382.556 120.044 385.6 123.8 385.6Z" fill="white" stroke="#231F20" stroke-miterlimit="10"/>
<path d="M92.375 140.484V143.578H95.1016C95.6432 143.578 96.0495 143.516 96.3203 143.391C96.7995 143.172 97.0391 142.74 97.0391 142.094C97.0391 141.396 96.8073 140.927 96.3438 140.688C96.0833 140.552 95.6927 140.484 95.1719 140.484H92.375ZM95.6719 138.484C96.4792 138.5 97.099 138.599 97.5312 138.781C97.9688 138.964 98.3385 139.232 98.6406 139.586C98.8906 139.878 99.0885 140.201 99.2344 140.555C99.3802 140.909 99.4531 141.312 99.4531 141.766C99.4531 142.312 99.3151 142.852 99.0391 143.383C98.763 143.909 98.3073 144.281 97.6719 144.5C98.2031 144.714 98.5781 145.018 98.7969 145.414C99.0208 145.805 99.1328 146.404 99.1328 147.211V147.984C99.1328 148.51 99.1536 148.867 99.1953 149.055C99.2578 149.352 99.4036 149.57 99.6328 149.711V150H96.9844C96.9115 149.745 96.8594 149.539 96.8281 149.383C96.7656 149.06 96.7318 148.729 96.7266 148.391L96.7109 147.32C96.7005 146.586 96.5651 146.096 96.3047 145.852C96.0495 145.607 95.5677 145.484 94.8594 145.484H92.375V150H90.0234V138.484H95.6719ZM106.047 145.859C105.906 145.948 105.763 146.021 105.617 146.078C105.477 146.13 105.281 146.18 105.031 146.227L104.531 146.32C104.062 146.404 103.727 146.505 103.523 146.625C103.18 146.828 103.008 147.143 103.008 147.57C103.008 147.951 103.112 148.227 103.32 148.398C103.534 148.565 103.792 148.648 104.094 148.648C104.573 148.648 105.013 148.508 105.414 148.227C105.82 147.945 106.031 147.432 106.047 146.688V145.859ZM104.695 144.82C105.107 144.768 105.401 144.703 105.578 144.625C105.896 144.49 106.055 144.279 106.055 143.992C106.055 143.643 105.932 143.404 105.688 143.273C105.448 143.138 105.094 143.07 104.625 143.07C104.099 143.07 103.727 143.201 103.508 143.461C103.352 143.654 103.247 143.914 103.195 144.242H101.047C101.094 143.497 101.302 142.885 101.672 142.406C102.26 141.656 103.271 141.281 104.703 141.281C105.635 141.281 106.464 141.466 107.188 141.836C107.911 142.206 108.273 142.904 108.273 143.93V147.836C108.273 148.107 108.279 148.435 108.289 148.82C108.305 149.112 108.349 149.31 108.422 149.414C108.495 149.518 108.604 149.604 108.75 149.672V150H106.328C106.26 149.828 106.214 149.667 106.188 149.516C106.161 149.365 106.141 149.193 106.125 149C105.818 149.333 105.464 149.617 105.062 149.852C104.583 150.128 104.042 150.266 103.438 150.266C102.667 150.266 102.029 150.047 101.523 149.609C101.023 149.167 100.773 148.542 100.773 147.734C100.773 146.688 101.177 145.93 101.984 145.461C102.427 145.206 103.078 145.023 103.938 144.914L104.695 144.82ZM114.977 141.281C115.857 141.281 116.576 141.513 117.133 141.977C117.695 142.435 117.977 143.198 117.977 144.266V150H115.695V144.82C115.695 144.372 115.635 144.029 115.516 143.789C115.297 143.352 114.88 143.133 114.266 143.133C113.51 143.133 112.992 143.453 112.711 144.094C112.565 144.432 112.492 144.865 112.492 145.391V150H110.273V141.5H112.422V142.742C112.708 142.305 112.979 141.99 113.234 141.797C113.693 141.453 114.273 141.281 114.977 141.281ZM123.18 141.281C123.695 141.281 124.154 141.396 124.555 141.625C124.956 141.849 125.281 142.161 125.531 142.562V138.5H127.789V150H125.625V148.82C125.307 149.326 124.945 149.693 124.539 149.922C124.133 150.151 123.628 150.266 123.023 150.266C122.029 150.266 121.19 149.865 120.508 149.062C119.831 148.255 119.492 147.221 119.492 145.961C119.492 144.508 119.826 143.365 120.492 142.531C121.164 141.698 122.06 141.281 123.18 141.281ZM123.664 148.391C124.294 148.391 124.773 148.156 125.102 147.688C125.43 147.219 125.594 146.612 125.594 145.867C125.594 144.826 125.331 144.081 124.805 143.633C124.482 143.362 124.107 143.227 123.68 143.227C123.029 143.227 122.549 143.474 122.242 143.969C121.94 144.458 121.789 145.068 121.789 145.797C121.789 146.583 121.943 147.214 122.25 147.688C122.562 148.156 123.034 148.391 123.664 148.391ZM133.641 148.43C134.292 148.43 134.792 148.198 135.141 147.734C135.49 147.271 135.664 146.612 135.664 145.758C135.664 144.904 135.49 144.247 135.141 143.789C134.792 143.326 134.292 143.094 133.641 143.094C132.99 143.094 132.487 143.326 132.133 143.789C131.784 144.247 131.609 144.904 131.609 145.758C131.609 146.612 131.784 147.271 132.133 147.734C132.487 148.198 132.99 148.43 133.641 148.43ZM138 145.758C138 147.008 137.641 148.078 136.922 148.969C136.203 149.854 135.112 150.297 133.648 150.297C132.185 150.297 131.094 149.854 130.375 148.969C129.656 148.078 129.297 147.008 129.297 145.758C129.297 144.529 129.656 143.464 130.375 142.562C131.094 141.661 132.185 141.211 133.648 141.211C135.112 141.211 136.203 141.661 136.922 142.562C137.641 143.464 138 144.529 138 145.758ZM149.117 141.297C149.492 141.297 149.862 141.37 150.227 141.516C150.591 141.661 150.922 141.917 151.219 142.281C151.458 142.578 151.62 142.943 151.703 143.375C151.755 143.661 151.781 144.081 151.781 144.633L151.766 150H149.484V144.578C149.484 144.255 149.432 143.99 149.328 143.781C149.13 143.385 148.766 143.188 148.234 143.188C147.62 143.188 147.195 143.443 146.961 143.953C146.841 144.224 146.781 144.549 146.781 144.93V150H144.539V144.93C144.539 144.424 144.487 144.057 144.383 143.828C144.195 143.417 143.828 143.211 143.281 143.211C142.646 143.211 142.219 143.417 142 143.828C141.88 144.062 141.82 144.411 141.82 144.875V150H139.562V141.5H141.727V142.742C142.003 142.299 142.263 141.984 142.508 141.797C142.94 141.464 143.5 141.297 144.188 141.297C144.839 141.297 145.365 141.44 145.766 141.727C146.089 141.992 146.333 142.333 146.5 142.75C146.792 142.25 147.154 141.883 147.586 141.648C148.044 141.414 148.555 141.297 149.117 141.297ZM80.1094 154.484L81.6328 161.078L81.9609 162.914L82.2969 161.117L83.5938 154.484H86.1328L87.5 161.078L87.8516 162.914L88.2031 161.148L89.7422 154.484H92.1875L88.9453 166H86.6484L85.2578 159.266L84.8516 157.039L84.4453 159.266L83.0547 166H80.8203L77.5547 154.484H80.1094ZM97.0078 164.43C97.6589 164.43 98.1589 164.198 98.5078 163.734C98.8568 163.271 99.0312 162.612 99.0312 161.758C99.0312 160.904 98.8568 160.247 98.5078 159.789C98.1589 159.326 97.6589 159.094 97.0078 159.094C96.3568 159.094 95.8542 159.326 95.5 159.789C95.151 160.247 94.9766 160.904 94.9766 161.758C94.9766 162.612 95.151 163.271 95.5 163.734C95.8542 164.198 96.3568 164.43 97.0078 164.43ZM101.367 161.758C101.367 163.008 101.008 164.078 100.289 164.969C99.5703 165.854 98.4792 166.297 97.0156 166.297C95.5521 166.297 94.4609 165.854 93.7422 164.969C93.0234 164.078 92.6641 163.008 92.6641 161.758C92.6641 160.529 93.0234 159.464 93.7422 158.562C94.4609 157.661 95.5521 157.211 97.0156 157.211C98.4792 157.211 99.5703 157.661 100.289 158.562C101.008 159.464 101.367 160.529 101.367 161.758ZM107.594 157.281C107.635 157.281 107.669 157.284 107.695 157.289C107.727 157.289 107.792 157.292 107.891 157.297V159.578C107.75 159.562 107.625 159.552 107.516 159.547C107.406 159.542 107.318 159.539 107.25 159.539C106.354 159.539 105.753 159.831 105.445 160.414C105.273 160.742 105.188 161.247 105.188 161.93V166H102.945V157.484H105.07V158.969C105.414 158.401 105.714 158.013 105.969 157.805C106.385 157.456 106.927 157.281 107.594 157.281ZM109.18 154.523H111.367V160.727L114.141 157.523H116.898L113.922 160.781L117.016 166H114.328L112.289 162.359L111.367 163.32V166H109.18V154.523ZM119.844 163.281C119.891 163.677 119.992 163.958 120.148 164.125C120.424 164.422 120.935 164.57 121.68 164.57C122.117 164.57 122.464 164.505 122.719 164.375C122.979 164.245 123.109 164.049 123.109 163.789C123.109 163.539 123.005 163.349 122.797 163.219C122.589 163.089 121.815 162.865 120.477 162.547C119.513 162.307 118.833 162.008 118.438 161.648C118.042 161.294 117.844 160.784 117.844 160.117C117.844 159.331 118.151 158.656 118.766 158.094C119.385 157.526 120.255 157.242 121.375 157.242C122.438 157.242 123.302 157.456 123.969 157.883C124.641 158.305 125.026 159.036 125.125 160.078H122.898C122.867 159.792 122.786 159.565 122.656 159.398C122.411 159.096 121.995 158.945 121.406 158.945C120.922 158.945 120.576 159.021 120.367 159.172C120.164 159.323 120.062 159.5 120.062 159.703C120.062 159.958 120.172 160.143 120.391 160.258C120.609 160.378 121.383 160.583 122.711 160.875C123.596 161.083 124.26 161.398 124.703 161.82C125.141 162.247 125.359 162.781 125.359 163.422C125.359 164.266 125.044 164.956 124.414 165.492C123.789 166.023 122.82 166.289 121.508 166.289C120.169 166.289 119.18 166.008 118.539 165.445C117.904 164.878 117.586 164.156 117.586 163.281H119.844ZM131.711 157.266C132.237 157.266 132.714 157.357 133.141 157.539C133.573 157.721 133.927 158 134.203 158.375C134.438 158.693 134.581 159.021 134.633 159.359C134.685 159.693 134.711 160.24 134.711 161V166H132.438V160.82C132.438 160.362 132.359 159.992 132.203 159.711C132 159.315 131.615 159.117 131.047 159.117C130.458 159.117 130.01 159.315 129.703 159.711C129.401 160.102 129.25 160.661 129.25 161.391V166H127.031V154.523H129.25V158.594C129.573 158.099 129.945 157.755 130.367 157.562C130.794 157.365 131.242 157.266 131.711 157.266ZM140.617 164.43C141.268 164.43 141.768 164.198 142.117 163.734C142.466 163.271 142.641 162.612 142.641 161.758C142.641 160.904 142.466 160.247 142.117 159.789C141.768 159.326 141.268 159.094 140.617 159.094C139.966 159.094 139.464 159.326 139.109 159.789C138.76 160.247 138.586 160.904 138.586 161.758C138.586 162.612 138.76 163.271 139.109 163.734C139.464 164.198 139.966 164.43 140.617 164.43ZM144.977 161.758C144.977 163.008 144.617 164.078 143.898 164.969C143.18 165.854 142.089 166.297 140.625 166.297C139.161 166.297 138.07 165.854 137.352 164.969C136.633 164.078 136.273 163.008 136.273 161.758C136.273 160.529 136.633 159.464 137.352 158.562C138.07 157.661 139.161 157.211 140.625 157.211C142.089 157.211 143.18 157.661 143.898 158.562C144.617 159.464 144.977 160.529 144.977 161.758ZM152.445 161.742C152.445 161.086 152.294 160.505 151.992 160C151.695 159.495 151.211 159.242 150.539 159.242C149.732 159.242 149.177 159.625 148.875 160.391C148.719 160.797 148.641 161.312 148.641 161.938C148.641 162.927 148.904 163.622 149.43 164.023C149.742 164.258 150.112 164.375 150.539 164.375C151.159 164.375 151.63 164.135 151.953 163.656C152.281 163.177 152.445 162.539 152.445 161.742ZM151.18 157.297C152.174 157.297 153.016 157.664 153.703 158.398C154.396 159.133 154.742 160.211 154.742 161.633C154.742 163.133 154.404 164.276 153.727 165.062C153.055 165.849 152.188 166.242 151.125 166.242C150.448 166.242 149.885 166.073 149.438 165.734C149.193 165.547 148.953 165.273 148.719 164.914V169.352H146.516V157.484H148.648V158.742C148.888 158.372 149.143 158.081 149.414 157.867C149.909 157.487 150.497 157.297 151.18 157.297ZM160.883 158.188V156.672C161.586 156.641 162.078 156.594 162.359 156.531C162.807 156.432 163.172 156.234 163.453 155.938C163.646 155.734 163.792 155.464 163.891 155.125C163.948 154.922 163.977 154.771 163.977 154.672H165.828V166H163.547V158.188H160.883Z" fill="white"/>
<path d="M83.9766 184.053V188.75H85.3633C86.0729 188.75 86.5677 188.4 86.8477 187.7C87.0007 187.316 87.0771 186.859 87.0771 186.328C87.0771 185.596 86.9616 185.034 86.7305 184.644C86.5026 184.25 86.0469 184.053 85.3633 184.053H83.9766ZM85.6172 182.803C86.0632 182.809 86.4342 182.861 86.7305 182.959C87.235 183.125 87.6436 183.429 87.9561 183.872C88.2067 184.23 88.3776 184.618 88.4688 185.034C88.5599 185.451 88.6055 185.848 88.6055 186.226C88.6055 187.183 88.4134 187.993 88.0293 188.657C87.5085 189.552 86.7044 190 85.6172 190H82.5166V182.803H85.6172ZM92.5654 187.412C92.4775 187.467 92.388 187.513 92.2969 187.549C92.209 187.581 92.0869 187.612 91.9307 187.642L91.6182 187.7C91.3252 187.752 91.1152 187.816 90.9883 187.891C90.7734 188.018 90.666 188.215 90.666 188.481C90.666 188.719 90.7311 188.892 90.8613 188.999C90.9948 189.103 91.1559 189.155 91.3447 189.155C91.6442 189.155 91.9193 189.067 92.1699 188.892C92.4238 188.716 92.5557 188.395 92.5654 187.93V187.412ZM91.7207 186.763C91.9779 186.73 92.1618 186.689 92.2725 186.641C92.471 186.556 92.5703 186.424 92.5703 186.245C92.5703 186.027 92.4938 185.877 92.3408 185.796C92.1911 185.711 91.9697 185.669 91.6768 185.669C91.348 185.669 91.1152 185.75 90.9785 185.913C90.8809 186.034 90.8158 186.196 90.7832 186.401H89.4404C89.4697 185.936 89.5999 185.553 89.8311 185.254C90.1989 184.785 90.8304 184.551 91.7256 184.551C92.3083 184.551 92.8258 184.666 93.2783 184.897C93.7308 185.129 93.957 185.565 93.957 186.206V188.647C93.957 188.817 93.9603 189.022 93.9668 189.263C93.9766 189.445 94.0042 189.569 94.0498 189.634C94.0954 189.699 94.1637 189.753 94.2549 189.795V190H92.7412C92.6989 189.893 92.6696 189.792 92.6533 189.697C92.637 189.603 92.624 189.495 92.6143 189.375C92.4222 189.583 92.2008 189.761 91.9502 189.907C91.6507 190.08 91.3122 190.166 90.9346 190.166C90.4528 190.166 90.054 190.029 89.7383 189.756C89.4258 189.479 89.2695 189.089 89.2695 188.584C89.2695 187.93 89.5218 187.456 90.0264 187.163C90.3031 187.004 90.71 186.89 91.2471 186.821L91.7207 186.763ZM98.4785 184.678H99.9727L98.0537 190H96.584L94.6748 184.678H96.2373L97.3457 188.604L98.4785 184.678ZM102.194 184.043H100.783V182.759H102.194V184.043ZM100.783 184.678H102.194V190H100.783V184.678ZM104.631 188.301C104.66 188.548 104.724 188.724 104.821 188.828C104.994 189.014 105.313 189.106 105.778 189.106C106.052 189.106 106.268 189.066 106.428 188.984C106.59 188.903 106.672 188.781 106.672 188.618C106.672 188.462 106.607 188.343 106.477 188.262C106.346 188.18 105.863 188.04 105.026 187.842C104.424 187.692 103.999 187.505 103.752 187.28C103.505 187.059 103.381 186.74 103.381 186.323C103.381 185.832 103.573 185.41 103.957 185.059C104.344 184.704 104.888 184.526 105.588 184.526C106.252 184.526 106.792 184.66 107.209 184.927C107.629 185.19 107.87 185.648 107.932 186.299H106.54C106.521 186.12 106.47 185.978 106.389 185.874C106.236 185.685 105.975 185.591 105.607 185.591C105.305 185.591 105.088 185.638 104.958 185.732C104.831 185.827 104.768 185.938 104.768 186.064C104.768 186.224 104.836 186.34 104.973 186.411C105.109 186.486 105.593 186.615 106.423 186.797C106.976 186.927 107.391 187.124 107.668 187.388C107.941 187.655 108.078 187.988 108.078 188.389C108.078 188.916 107.881 189.347 107.487 189.683C107.097 190.015 106.491 190.181 105.671 190.181C104.834 190.181 104.216 190.005 103.815 189.653C103.418 189.299 103.22 188.848 103.22 188.301H104.631ZM113.605 187.28H115.432L114.533 184.448L113.605 187.28ZM113.698 182.803H115.397L117.946 190H116.315L115.852 188.521H113.2L112.702 190H111.13L113.698 182.803ZM120.139 184.678V187.886C120.139 188.188 120.174 188.416 120.246 188.569C120.373 188.84 120.622 188.975 120.993 188.975C121.468 188.975 121.794 188.783 121.97 188.398C122.061 188.19 122.106 187.915 122.106 187.573V184.678H123.518V190H122.165V189.248C122.152 189.264 122.119 189.313 122.067 189.395C122.015 189.476 121.953 189.548 121.882 189.609C121.664 189.805 121.452 189.938 121.247 190.01C121.045 190.081 120.808 190.117 120.534 190.117C119.746 190.117 119.216 189.834 118.942 189.268C118.789 188.955 118.713 188.494 118.713 187.886V184.678H120.139ZM126.828 184.551C127.15 184.551 127.437 184.622 127.688 184.766C127.938 184.906 128.142 185.101 128.298 185.352V182.812H129.709V190H128.356V189.263C128.158 189.578 127.932 189.808 127.678 189.951C127.424 190.094 127.108 190.166 126.73 190.166C126.109 190.166 125.585 189.915 125.158 189.414C124.735 188.91 124.523 188.263 124.523 187.476C124.523 186.567 124.732 185.853 125.148 185.332C125.568 184.811 126.128 184.551 126.828 184.551ZM127.131 188.994C127.525 188.994 127.824 188.848 128.029 188.555C128.234 188.262 128.337 187.882 128.337 187.417C128.337 186.766 128.173 186.3 127.844 186.021C127.642 185.851 127.408 185.767 127.141 185.767C126.734 185.767 126.434 185.921 126.242 186.23C126.053 186.536 125.959 186.917 125.959 187.373C125.959 187.865 126.055 188.258 126.247 188.555C126.442 188.848 126.737 188.994 127.131 188.994ZM132.409 184.043H130.998V182.759H132.409V184.043ZM130.998 184.678H132.409V190H130.998V184.678ZM133.215 185.718V184.727H133.957V183.242H135.334V184.727H136.198V185.718H135.334V188.53C135.334 188.748 135.362 188.885 135.417 188.94C135.472 188.993 135.642 189.019 135.925 189.019C135.967 189.019 136.011 189.019 136.057 189.019C136.105 189.015 136.153 189.012 136.198 189.009V190.049L135.539 190.073C134.882 190.096 134.432 189.982 134.191 189.731C134.035 189.572 133.957 189.326 133.957 188.994V185.718H133.215ZM139.479 189.019C139.886 189.019 140.199 188.874 140.417 188.584C140.635 188.294 140.744 187.882 140.744 187.349C140.744 186.815 140.635 186.405 140.417 186.118C140.199 185.828 139.886 185.684 139.479 185.684C139.073 185.684 138.758 185.828 138.537 186.118C138.319 186.405 138.21 186.815 138.21 187.349C138.21 187.882 138.319 188.294 138.537 188.584C138.758 188.874 139.073 189.019 139.479 189.019ZM142.204 187.349C142.204 188.13 141.979 188.799 141.53 189.355C141.081 189.909 140.399 190.186 139.484 190.186C138.57 190.186 137.888 189.909 137.438 189.355C136.989 188.799 136.765 188.13 136.765 187.349C136.765 186.58 136.989 185.915 137.438 185.352C137.888 184.788 138.57 184.507 139.484 184.507C140.399 184.507 141.081 184.788 141.53 185.352C141.979 185.915 142.204 186.58 142.204 187.349ZM146.096 184.551C146.122 184.551 146.143 184.552 146.159 184.556C146.179 184.556 146.219 184.557 146.281 184.561V185.986C146.193 185.977 146.115 185.97 146.047 185.967C145.979 185.964 145.923 185.962 145.881 185.962C145.321 185.962 144.945 186.144 144.753 186.509C144.646 186.714 144.592 187.03 144.592 187.456V190H143.19V184.678H144.519V185.605C144.733 185.251 144.921 185.008 145.08 184.878C145.34 184.66 145.679 184.551 146.096 184.551ZM148.532 184.043H147.121V182.759H148.532V184.043ZM147.121 184.678H148.532V190H147.121V184.678ZM151.271 184.678V187.886C151.271 188.188 151.307 188.416 151.379 188.569C151.506 188.84 151.755 188.975 152.126 188.975C152.601 188.975 152.927 188.783 153.103 188.398C153.194 188.19 153.239 187.915 153.239 187.573V184.678H154.65V190H153.298V189.248C153.285 189.264 153.252 189.313 153.2 189.395C153.148 189.476 153.086 189.548 153.015 189.609C152.797 189.805 152.585 189.938 152.38 190.01C152.178 190.081 151.94 190.117 151.667 190.117C150.879 190.117 150.349 189.834 150.075 189.268C149.922 188.955 149.846 188.494 149.846 187.886V184.678H151.271ZM161.945 184.561C162.18 184.561 162.411 184.606 162.639 184.697C162.867 184.788 163.073 184.948 163.259 185.176C163.409 185.361 163.509 185.589 163.562 185.859C163.594 186.038 163.61 186.3 163.61 186.646L163.601 190H162.175V186.611C162.175 186.41 162.142 186.243 162.077 186.113C161.953 185.866 161.726 185.742 161.394 185.742C161.009 185.742 160.744 185.902 160.598 186.221C160.523 186.39 160.485 186.593 160.485 186.831V190H159.084V186.831C159.084 186.515 159.051 186.286 158.986 186.143C158.869 185.885 158.64 185.757 158.298 185.757C157.901 185.757 157.634 185.885 157.497 186.143C157.422 186.289 157.385 186.507 157.385 186.797V190H155.974V184.688H157.326V185.464C157.499 185.187 157.661 184.99 157.814 184.873C158.085 184.665 158.435 184.561 158.864 184.561C159.271 184.561 159.6 184.65 159.851 184.829C160.052 184.995 160.205 185.208 160.31 185.469C160.492 185.156 160.718 184.927 160.988 184.78C161.275 184.634 161.594 184.561 161.945 184.561ZM100.52 193.281C100.353 193.445 100.121 193.738 99.8242 194.16C99.5273 194.579 99.2786 195.013 99.0781 195.461C98.9193 195.812 98.776 196.242 98.6484 196.75C98.5208 197.258 98.457 197.674 98.457 198H97.3008C97.3346 196.984 97.668 195.928 98.3008 194.832C98.7096 194.152 99.0521 193.678 99.3281 193.41H96.5039L96.5195 192.41H100.52V193.281ZM101.66 193.91H102.844V195.074H101.66V193.91ZM101.66 196.836H102.844V198H101.66V196.836ZM104.805 195.223C104.805 195.874 104.858 196.372 104.965 196.719C105.072 197.062 105.29 197.234 105.621 197.234C105.952 197.234 106.168 197.062 106.27 196.719C106.374 196.372 106.426 195.874 106.426 195.223C106.426 194.54 106.374 194.035 106.27 193.707C106.168 193.379 105.952 193.215 105.621 193.215C105.29 193.215 105.072 193.379 104.965 193.707C104.858 194.035 104.805 194.54 104.805 195.223ZM105.621 192.297C106.342 192.297 106.848 192.551 107.137 193.059C107.428 193.566 107.574 194.288 107.574 195.223C107.574 196.158 107.428 196.878 107.137 197.383C106.848 197.888 106.342 198.141 105.621 198.141C104.9 198.141 104.393 197.888 104.102 197.383C103.812 196.878 103.668 196.158 103.668 195.223C103.668 194.288 103.812 193.566 104.102 193.059C104.393 192.551 104.9 192.297 105.621 192.297ZM109.258 195.223C109.258 195.874 109.311 196.372 109.418 196.719C109.525 197.062 109.743 197.234 110.074 197.234C110.405 197.234 110.621 197.062 110.723 196.719C110.827 196.372 110.879 195.874 110.879 195.223C110.879 194.54 110.827 194.035 110.723 193.707C110.621 193.379 110.405 193.215 110.074 193.215C109.743 193.215 109.525 193.379 109.418 193.707C109.311 194.035 109.258 194.54 109.258 195.223ZM110.074 192.297C110.796 192.297 111.301 192.551 111.59 193.059C111.882 193.566 112.027 194.288 112.027 195.223C112.027 196.158 111.882 196.878 111.59 197.383C111.301 197.888 110.796 198.141 110.074 198.141C109.353 198.141 108.846 197.888 108.555 197.383C108.266 196.878 108.121 196.158 108.121 195.223C108.121 194.288 108.266 193.566 108.555 193.059C108.846 192.551 109.353 192.297 110.074 192.297ZM114.734 195.242H116.977V196.297H114.734V195.242ZM120.809 196.355C120.809 196.634 120.88 196.85 121.023 197.004C121.169 197.158 121.37 197.234 121.625 197.234C121.88 197.234 122.079 197.158 122.223 197.004C122.368 196.85 122.441 196.634 122.441 196.355C122.441 196.066 122.367 195.848 122.219 195.699C122.073 195.548 121.875 195.473 121.625 195.473C121.375 195.473 121.176 195.548 121.027 195.699C120.882 195.848 120.809 196.066 120.809 196.355ZM119.652 196.43C119.652 196.112 119.724 195.824 119.867 195.566C120.013 195.309 120.225 195.115 120.504 194.984C120.23 194.802 120.052 194.605 119.969 194.395C119.888 194.181 119.848 193.982 119.848 193.797C119.848 193.385 120.003 193.035 120.312 192.746C120.622 192.454 121.06 192.309 121.625 192.309C122.19 192.309 122.628 192.454 122.938 192.746C123.247 193.035 123.402 193.385 123.402 193.797C123.402 193.982 123.361 194.181 123.277 194.395C123.197 194.605 123.02 194.789 122.746 194.945C123.025 195.102 123.234 195.309 123.375 195.566C123.516 195.824 123.586 196.112 123.586 196.43C123.586 196.906 123.409 197.312 123.055 197.648C122.703 197.982 122.211 198.148 121.578 198.148C120.945 198.148 120.466 197.982 120.141 197.648C119.815 197.312 119.652 196.906 119.652 196.43ZM120.91 193.922C120.91 194.128 120.973 194.296 121.098 194.426C121.225 194.556 121.401 194.621 121.625 194.621C121.852 194.621 122.026 194.556 122.148 194.426C122.273 194.296 122.336 194.128 122.336 193.922C122.336 193.698 122.273 193.523 122.148 193.398C122.026 193.271 121.852 193.207 121.625 193.207C121.401 193.207 121.225 193.271 121.098 193.398C120.973 193.523 120.91 193.698 120.91 193.922ZM124.801 193.91H125.984V195.074H124.801V193.91ZM124.801 196.836H125.984V198H124.801V196.836ZM127.945 195.223C127.945 195.874 127.999 196.372 128.105 196.719C128.212 197.062 128.431 197.234 128.762 197.234C129.092 197.234 129.309 197.062 129.41 196.719C129.514 196.372 129.566 195.874 129.566 195.223C129.566 194.54 129.514 194.035 129.41 193.707C129.309 193.379 129.092 193.215 128.762 193.215C128.431 193.215 128.212 193.379 128.105 193.707C127.999 194.035 127.945 194.54 127.945 195.223ZM128.762 192.297C129.483 192.297 129.988 192.551 130.277 193.059C130.569 193.566 130.715 194.288 130.715 195.223C130.715 196.158 130.569 196.878 130.277 197.383C129.988 197.888 129.483 198.141 128.762 198.141C128.04 198.141 127.534 197.888 127.242 197.383C126.953 196.878 126.809 196.158 126.809 195.223C126.809 194.288 126.953 193.566 127.242 193.059C127.534 192.551 128.04 192.297 128.762 192.297ZM132.398 195.223C132.398 195.874 132.452 196.372 132.559 196.719C132.665 197.062 132.884 197.234 133.215 197.234C133.546 197.234 133.762 197.062 133.863 196.719C133.967 196.372 134.02 195.874 134.02 195.223C134.02 194.54 133.967 194.035 133.863 193.707C133.762 193.379 133.546 193.215 133.215 193.215C132.884 193.215 132.665 193.379 132.559 193.707C132.452 194.035 132.398 194.54 132.398 195.223ZM133.215 192.297C133.936 192.297 134.441 192.551 134.73 193.059C135.022 193.566 135.168 194.288 135.168 195.223C135.168 196.158 135.022 196.878 134.73 197.383C134.441 197.888 133.936 198.141 133.215 198.141C132.493 198.141 131.987 197.888 131.695 197.383C131.406 196.878 131.262 196.158 131.262 195.223C131.262 194.288 131.406 193.566 131.695 193.059C131.987 192.551 132.493 192.297 133.215 192.297ZM141.145 195.871C141.145 195.543 141.069 195.253 140.918 195C140.77 194.747 140.527 194.621 140.191 194.621C139.788 194.621 139.51 194.812 139.359 195.195C139.281 195.398 139.242 195.656 139.242 195.969C139.242 196.464 139.374 196.811 139.637 197.012C139.793 197.129 139.978 197.188 140.191 197.188C140.501 197.188 140.737 197.068 140.898 196.828C141.062 196.589 141.145 196.27 141.145 195.871ZM140.512 193.648C141.009 193.648 141.43 193.832 141.773 194.199C142.12 194.566 142.293 195.105 142.293 195.816C142.293 196.566 142.124 197.138 141.785 197.531C141.449 197.924 141.016 198.121 140.484 198.121C140.146 198.121 139.865 198.036 139.641 197.867C139.518 197.773 139.398 197.637 139.281 197.457V199.676H138.18V193.742H139.246V194.371C139.366 194.186 139.493 194.04 139.629 193.934C139.876 193.743 140.171 193.648 140.512 193.648ZM147.859 193.648C148.047 193.648 148.232 193.685 148.414 193.758C148.596 193.831 148.762 193.958 148.91 194.141C149.03 194.289 149.111 194.471 149.152 194.688C149.178 194.831 149.191 195.04 149.191 195.316L149.184 198H148.043V195.289C148.043 195.128 148.017 194.995 147.965 194.891C147.866 194.693 147.684 194.594 147.418 194.594C147.111 194.594 146.898 194.721 146.781 194.977C146.721 195.112 146.691 195.275 146.691 195.465V198H145.57V195.465C145.57 195.212 145.544 195.029 145.492 194.914C145.398 194.708 145.215 194.605 144.941 194.605C144.624 194.605 144.41 194.708 144.301 194.914C144.241 195.031 144.211 195.206 144.211 195.438V198H143.082V193.75H144.164V194.371C144.302 194.15 144.432 193.992 144.555 193.898C144.771 193.732 145.051 193.648 145.395 193.648C145.72 193.648 145.983 193.72 146.184 193.863C146.345 193.996 146.467 194.167 146.551 194.375C146.697 194.125 146.878 193.941 147.094 193.824C147.323 193.707 147.578 193.648 147.859 193.648Z" fill="#999999"/>
<path d="M122.78 81.6C145.302 81.6 163.559 63.3332 163.559 40.8C163.559 18.2668 145.302 0 122.78 0C100.258 0 82 18.2668 82 40.8C82 63.3332 100.258 81.6 122.78 81.6Z" fill="#F15B2A"/>
<path d="M134.346 43.2223H118.594V59.8H113.643V22.2616H136.899V26.3352H118.594V39.1745H134.346V43.2223Z" fill="white"/>
<path d="M109.51 90.1396C109.51 91.279 109.603 92.1517 109.79 92.7578C109.977 93.3594 110.36 93.6602 110.938 93.6602C111.517 93.6602 111.896 93.3594 112.073 92.7578C112.256 92.1517 112.347 91.279 112.347 90.1396C112.347 88.9456 112.256 88.0615 112.073 87.4873C111.896 86.9131 111.517 86.626 110.938 86.626C110.36 86.626 109.977 86.9131 109.79 87.4873C109.603 88.0615 109.51 88.9456 109.51 90.1396ZM110.938 85.0195C112.201 85.0195 113.085 85.4639 113.591 86.3525C114.101 87.2412 114.356 88.5036 114.356 90.1396C114.356 91.7757 114.101 93.0358 113.591 93.9199C113.085 94.804 112.201 95.2461 110.938 95.2461C109.676 95.2461 108.79 94.804 108.279 93.9199C107.773 93.0358 107.521 91.7757 107.521 90.1396C107.521 88.5036 107.773 87.2412 108.279 86.3525C108.79 85.4639 109.676 85.0195 110.938 85.0195ZM115.313 95C115.332 94.2891 115.484 93.6396 115.771 93.0518C116.049 92.391 116.706 91.6914 117.74 90.9531C118.638 90.3105 119.219 89.8503 119.483 89.5723C119.889 89.1393 120.092 88.6654 120.092 88.1504C120.092 87.7311 119.976 87.3825 119.743 87.1045C119.511 86.8265 119.178 86.6875 118.745 86.6875C118.153 86.6875 117.749 86.9085 117.535 87.3506C117.412 87.6058 117.339 88.0114 117.316 88.5674H115.423C115.455 87.7243 115.607 87.043 115.881 86.5234C116.4 85.5345 117.323 85.04 118.649 85.04C119.698 85.04 120.532 85.3317 121.151 85.915C121.771 86.4938 122.081 87.2617 122.081 88.2188C122.081 88.9525 121.862 89.6042 121.425 90.1738C121.138 90.5521 120.666 90.9736 120.01 91.4385L119.23 91.9922C118.743 92.3385 118.408 92.5892 118.226 92.7441C118.048 92.8991 117.897 93.0791 117.774 93.2842H122.102V95H115.313ZM122.99 90.1738H126.914V92.0195H122.99V90.1738ZM129.758 90.1396C129.758 91.279 129.851 92.1517 130.038 92.7578C130.225 93.3594 130.608 93.6602 131.187 93.6602C131.765 93.6602 132.144 93.3594 132.321 92.7578C132.504 92.1517 132.595 91.279 132.595 90.1396C132.595 88.9456 132.504 88.0615 132.321 87.4873C132.144 86.9131 131.765 86.626 131.187 86.626C130.608 86.626 130.225 86.9131 130.038 87.4873C129.851 88.0615 129.758 88.9456 129.758 90.1396ZM131.187 85.0195C132.449 85.0195 133.333 85.4639 133.839 86.3525C134.349 87.2412 134.604 88.5036 134.604 90.1396C134.604 91.7757 134.349 93.0358 133.839 93.9199C133.333 94.804 132.449 95.2461 131.187 95.2461C129.924 95.2461 129.038 94.804 128.527 93.9199C128.021 93.0358 127.769 91.7757 127.769 90.1396C127.769 88.5036 128.021 87.2412 128.527 86.3525C129.038 85.4639 129.924 85.0195 131.187 85.0195ZM136.095 88.1641V86.8379C136.71 86.8105 137.141 86.7695 137.387 86.7148C137.779 86.6283 138.098 86.4551 138.344 86.1953C138.512 86.0176 138.64 85.7806 138.727 85.4844C138.777 85.3066 138.802 85.1745 138.802 85.0879H140.422V95H138.426V88.1641H136.095Z" fill="white"/>
</svg>
