<svg width="297" height="945" viewBox="0 0 297 945" fill="none" xmlns="http://www.w3.org/2000/svg">
<path d="M84.2428 110.683C83.5155 108.892 81.474 108.03 79.6831 108.757C77.8921 109.485 77.0299 111.526 77.7572 113.317L84.2428 110.683ZM172 131.5C173.933 131.5 175.5 129.933 175.5 128C175.5 126.067 173.933 124.5 172 124.5V131.5ZM85.7341 121.42L82.76 123.265C82.7705 123.282 82.7811 123.299 82.7919 123.316L85.7341 121.42ZM82.4645 115.606L79.2217 116.923L82.4645 115.606ZM84.0001 118.625L81.0261 120.47L84.0001 118.625ZM83.1362 117.165L86.2558 115.578L83.1362 117.165ZM87.6443 124.385L84.7021 126.28L87.6443 124.385ZM94.2742 131.5H172V124.5H94.2742V131.5ZM82.7919 123.316L84.7021 126.28L90.5865 122.489L88.6763 119.524L82.7919 123.316ZM77.7572 113.317L79.2217 116.923L85.7073 114.289L84.2428 110.683L77.7572 113.317ZM81.0261 120.47L82.76 123.265L88.7082 119.575L86.9742 116.78L81.0261 120.47ZM79.2217 116.923C79.5204 117.658 79.7417 118.211 80.0165 118.751L86.2558 115.578C86.1461 115.362 86.0478 115.128 85.7073 114.289L79.2217 116.923ZM86.9742 116.78C86.4971 116.011 86.3655 115.794 86.2558 115.578L80.0165 118.751C80.2914 119.292 80.6076 119.796 81.0261 120.47L86.9742 116.78ZM84.7021 126.28C85.1388 126.958 85.6462 127.588 86.2158 128.158L91.1697 123.213C90.9503 122.993 90.7548 122.75 90.5865 122.489L84.7021 126.28ZM94.2742 124.5C93.1095 124.5 91.9926 124.037 91.1697 123.213L86.2158 128.158C88.3518 130.298 91.251 131.5 94.2742 131.5V124.5Z" fill="#F15B2A"/>
<path d="M81 81L81 941" stroke="#F15B2A" stroke-width="7" stroke-linecap="round" stroke-linejoin="round"/>
<path d="M84.2693 324.75C83.5792 322.945 81.556 322.041 79.7504 322.731C77.9448 323.421 77.0405 325.444 77.7307 327.25L84.2693 324.75ZM172 346.5C173.933 346.5 175.5 344.933 175.5 343C175.5 341.067 173.933 339.5 172 339.5V346.5ZM85.7341 336.009L82.7117 337.774C82.7504 337.84 82.7912 337.905 82.8341 337.968L85.7341 336.009ZM83.1342 331.49L79.9778 333.003L83.1342 331.49ZM87.569 338.724L84.669 340.684L87.569 338.724ZM95.6187 346.5H172V339.5H95.6187V346.5ZM82.8341 337.968L84.669 340.684L90.469 336.765L88.6341 334.049L82.8341 337.968ZM77.7307 327.25L79.2499 331.224L85.7885 328.725L84.2693 324.75L77.7307 327.25ZM80.9077 334.684L82.7117 337.774L88.7565 334.244L86.9525 331.154L80.9077 334.684ZM79.2499 331.224C79.523 331.939 79.7253 332.476 79.9778 333.003L86.2906 329.978C86.1898 329.768 86.0999 329.54 85.7885 328.725L79.2499 331.224ZM86.9525 331.154C86.5127 330.401 86.3914 330.188 86.2906 329.978L79.9778 333.003C80.2304 333.53 80.522 334.024 80.9077 334.684L86.9525 331.154ZM84.669 340.684C85.1504 341.396 85.7002 342.06 86.3106 342.666L91.2411 337.697C90.954 337.412 90.6954 337.1 90.469 336.765L84.669 340.684ZM95.6187 339.5C93.9787 339.5 92.4052 338.852 91.2411 337.697L86.3106 342.666C88.7859 345.122 92.1316 346.5 95.6187 346.5V339.5Z" fill="#F15B2A"/>
<path d="M124.391 358.5H132.555V360.523H126.781V363.172H131.836V365.172H126.781V370H124.391V358.5ZM136.211 361.484V366.617C136.211 367.102 136.268 367.466 136.383 367.711C136.586 368.143 136.984 368.359 137.578 368.359C138.339 368.359 138.859 368.052 139.141 367.438C139.286 367.104 139.359 366.664 139.359 366.117V361.484H141.617V370H139.453V368.797C139.432 368.823 139.38 368.901 139.297 369.031C139.214 369.161 139.115 369.276 139 369.375C138.651 369.688 138.312 369.901 137.984 370.016C137.661 370.13 137.281 370.188 136.844 370.188C135.583 370.188 134.734 369.734 134.297 368.828C134.052 368.328 133.93 367.591 133.93 366.617V361.484H136.211ZM148.492 361.281C149.372 361.281 150.091 361.513 150.648 361.977C151.211 362.435 151.492 363.198 151.492 364.266V370H149.211V364.82C149.211 364.372 149.151 364.029 149.031 363.789C148.812 363.352 148.396 363.133 147.781 363.133C147.026 363.133 146.508 363.453 146.227 364.094C146.081 364.432 146.008 364.865 146.008 365.391V370H143.789V361.5H145.938V362.742C146.224 362.305 146.495 361.99 146.75 361.797C147.208 361.453 147.789 361.281 148.492 361.281ZM166.703 360.523H160.609V362.969H166.203V364.969H160.609V367.93H166.984V370H158.258V358.484H166.703V360.523ZM173.93 361.484H176.32L173.25 370H170.898L167.844 361.484H170.344L172.117 367.766L173.93 361.484ZM180.945 363.094C180.43 363.094 180.029 363.255 179.742 363.578C179.461 363.901 179.284 364.339 179.211 364.891H182.672C182.635 364.302 182.456 363.857 182.133 363.555C181.815 363.247 181.419 363.094 180.945 363.094ZM180.945 361.258C181.654 361.258 182.292 361.391 182.859 361.656C183.427 361.922 183.896 362.341 184.266 362.914C184.599 363.419 184.815 364.005 184.914 364.672C184.971 365.062 184.995 365.625 184.984 366.359H179.156C179.188 367.214 179.456 367.812 179.961 368.156C180.268 368.37 180.638 368.477 181.07 368.477C181.529 368.477 181.901 368.346 182.188 368.086C182.344 367.945 182.482 367.75 182.602 367.5H184.875C184.818 368.005 184.555 368.518 184.086 369.039C183.357 369.867 182.336 370.281 181.023 370.281C179.94 370.281 178.984 369.932 178.156 369.234C177.328 368.536 176.914 367.401 176.914 365.828C176.914 364.354 177.286 363.224 178.031 362.438C178.781 361.651 179.753 361.258 180.945 361.258ZM191.211 361.281C192.091 361.281 192.81 361.513 193.367 361.977C193.93 362.435 194.211 363.198 194.211 364.266V370H191.93V364.82C191.93 364.372 191.87 364.029 191.75 363.789C191.531 363.352 191.115 363.133 190.5 363.133C189.745 363.133 189.227 363.453 188.945 364.094C188.799 364.432 188.727 364.865 188.727 365.391V370H186.508V361.5H188.656V362.742C188.943 362.305 189.214 361.99 189.469 361.797C189.927 361.453 190.508 361.281 191.211 361.281ZM195.398 363.148V361.562H196.586V359.188H198.789V361.562H200.172V363.148H198.789V367.648C198.789 367.997 198.833 368.216 198.922 368.305C199.01 368.388 199.281 368.43 199.734 368.43C199.802 368.43 199.872 368.43 199.945 368.43C200.023 368.424 200.099 368.419 200.172 368.414V370.078L199.117 370.117C198.065 370.154 197.346 369.971 196.961 369.57C196.711 369.315 196.586 368.922 196.586 368.391V363.148H195.398ZM209.789 365.562L210.422 363.281H209.125L208.516 365.562H209.789ZM205.367 365.562H206.953L207.57 363.281H205.977L206.328 361.969H207.922L208.773 358.82H210.328L209.477 361.969H210.773L211.602 358.82H213.156L212.328 361.969H213.898L213.547 363.281H211.977L211.344 365.562H212.938L212.586 366.875H210.992L210.156 370H208.602L209.438 366.875H208.156L207.305 370H205.75L206.602 366.875H205.016L205.367 365.562ZM215.031 362.188V360.672C215.734 360.641 216.227 360.594 216.508 360.531C216.956 360.432 217.32 360.234 217.602 359.938C217.794 359.734 217.94 359.464 218.039 359.125C218.096 358.922 218.125 358.771 218.125 358.672H219.977V370H217.695V362.188H215.031Z" fill="white"/>
<path d="M152.912 394.03H154.416V399.933H157.98V401.227H152.912V394.03ZM161.301 400.246C161.708 400.246 162.02 400.101 162.238 399.811C162.456 399.522 162.565 399.11 162.565 398.576C162.565 398.042 162.456 397.632 162.238 397.345C162.02 397.056 161.708 396.911 161.301 396.911C160.894 396.911 160.58 397.056 160.358 397.345C160.14 397.632 160.031 398.042 160.031 398.576C160.031 399.11 160.14 399.522 160.358 399.811C160.58 400.101 160.894 400.246 161.301 400.246ZM164.025 398.576C164.025 399.357 163.801 400.026 163.352 400.583C162.902 401.136 162.22 401.413 161.306 401.413C160.391 401.413 159.709 401.136 159.26 400.583C158.811 400.026 158.586 399.357 158.586 398.576C158.586 397.808 158.811 397.142 159.26 396.579C159.709 396.016 160.391 395.734 161.306 395.734C162.22 395.734 162.902 396.016 163.352 396.579C163.801 397.142 164.025 397.808 164.025 398.576ZM168.205 397.814C168.179 397.616 168.112 397.437 168.005 397.277C167.849 397.062 167.606 396.955 167.277 396.955C166.809 396.955 166.488 397.188 166.315 397.653C166.224 397.9 166.179 398.229 166.179 398.639C166.179 399.03 166.224 399.344 166.315 399.582C166.481 400.024 166.794 400.246 167.253 400.246C167.578 400.246 167.81 400.158 167.946 399.982C168.083 399.806 168.166 399.579 168.195 399.299H169.616C169.584 399.722 169.431 400.122 169.157 400.5C168.721 401.108 168.075 401.413 167.219 401.413C166.363 401.413 165.733 401.159 165.329 400.651C164.925 400.143 164.724 399.484 164.724 398.674C164.724 397.759 164.947 397.048 165.393 396.54C165.839 396.032 166.454 395.778 167.238 395.778C167.906 395.778 168.451 395.928 168.874 396.227C169.3 396.527 169.553 397.056 169.631 397.814H168.205ZM173.527 398.639C173.439 398.695 173.35 398.74 173.259 398.776C173.171 398.809 173.049 398.84 172.893 398.869L172.58 398.927C172.287 398.98 172.077 399.043 171.95 399.118C171.735 399.245 171.628 399.442 171.628 399.709C171.628 399.946 171.693 400.119 171.823 400.226C171.957 400.33 172.118 400.383 172.307 400.383C172.606 400.383 172.881 400.295 173.132 400.119C173.386 399.943 173.518 399.622 173.527 399.157V398.639ZM172.683 397.99C172.94 397.957 173.124 397.917 173.234 397.868C173.433 397.783 173.532 397.651 173.532 397.472C173.532 397.254 173.456 397.105 173.303 397.023C173.153 396.939 172.932 396.896 172.639 396.896C172.31 396.896 172.077 396.978 171.94 397.14C171.843 397.261 171.778 397.424 171.745 397.629H170.402C170.432 397.163 170.562 396.781 170.793 396.481C171.161 396.012 171.792 395.778 172.688 395.778C173.27 395.778 173.788 395.894 174.24 396.125C174.693 396.356 174.919 396.792 174.919 397.433V399.875C174.919 400.044 174.922 400.249 174.929 400.49C174.938 400.672 174.966 400.796 175.012 400.861C175.057 400.926 175.126 400.98 175.217 401.022V401.227H173.703C173.661 401.12 173.632 401.019 173.615 400.925C173.599 400.83 173.586 400.723 173.576 400.602C173.384 400.811 173.163 400.988 172.912 401.134C172.613 401.307 172.274 401.393 171.896 401.393C171.415 401.393 171.016 401.257 170.7 400.983C170.388 400.706 170.231 400.316 170.231 399.811C170.231 399.157 170.484 398.683 170.988 398.39C171.265 398.231 171.672 398.117 172.209 398.049L172.683 397.99ZM175.612 396.945V395.954H176.354V394.469H177.731V395.954H178.596V396.945H177.731V399.758C177.731 399.976 177.759 400.112 177.814 400.168C177.87 400.22 178.039 400.246 178.322 400.246C178.365 400.246 178.409 400.246 178.454 400.246C178.503 400.243 178.55 400.239 178.596 400.236V401.276L177.937 401.301C177.279 401.323 176.83 401.209 176.589 400.959C176.433 400.799 176.354 400.553 176.354 400.221V396.945H175.612ZM180.92 395.27H179.509V393.986H180.92V395.27ZM179.509 395.905H180.92V401.227H179.509V395.905ZM184.66 400.246C185.067 400.246 185.38 400.101 185.598 399.811C185.816 399.522 185.925 399.11 185.925 398.576C185.925 398.042 185.816 397.632 185.598 397.345C185.38 397.056 185.067 396.911 184.66 396.911C184.253 396.911 183.939 397.056 183.718 397.345C183.5 397.632 183.391 398.042 183.391 398.576C183.391 399.11 183.5 399.522 183.718 399.811C183.939 400.101 184.253 400.246 184.66 400.246ZM187.385 398.576C187.385 399.357 187.16 400.026 186.711 400.583C186.262 401.136 185.58 401.413 184.665 401.413C183.75 401.413 183.068 401.136 182.619 400.583C182.17 400.026 181.945 399.357 181.945 398.576C181.945 397.808 182.17 397.142 182.619 396.579C183.068 396.016 183.75 395.734 184.665 395.734C185.58 395.734 186.262 396.016 186.711 396.579C187.16 397.142 187.385 397.808 187.385 398.576ZM191.335 395.778C191.885 395.778 192.334 395.923 192.683 396.213C193.034 396.499 193.21 396.976 193.21 397.643V401.227H191.784V397.99C191.784 397.71 191.747 397.495 191.672 397.345C191.535 397.072 191.275 396.935 190.891 396.935C190.419 396.935 190.095 397.135 189.919 397.536C189.828 397.747 189.782 398.018 189.782 398.346V401.227H188.396V395.915H189.738V396.691C189.917 396.418 190.087 396.221 190.246 396.1C190.533 395.885 190.896 395.778 191.335 395.778ZM147.668 408.583C147.668 408.861 147.74 409.078 147.883 409.231C148.029 409.385 148.229 409.462 148.484 409.462C148.74 409.462 148.939 409.385 149.082 409.231C149.228 409.078 149.301 408.861 149.301 408.583C149.301 408.294 149.227 408.075 149.078 407.926C148.932 407.775 148.734 407.7 148.484 407.7C148.234 407.7 148.035 407.775 147.887 407.926C147.741 408.075 147.668 408.294 147.668 408.583ZM146.512 408.657C146.512 408.339 146.583 408.051 146.727 407.794C146.872 407.536 147.085 407.342 147.363 407.212C147.09 407.029 146.911 406.833 146.828 406.622C146.747 406.408 146.707 406.209 146.707 406.024C146.707 405.613 146.862 405.262 147.172 404.973C147.482 404.682 147.919 404.536 148.484 404.536C149.049 404.536 149.487 404.682 149.797 404.973C150.107 405.262 150.262 405.613 150.262 406.024C150.262 406.209 150.22 406.408 150.137 406.622C150.056 406.833 149.879 407.016 149.605 407.173C149.884 407.329 150.094 407.536 150.234 407.794C150.375 408.051 150.445 408.339 150.445 408.657C150.445 409.134 150.268 409.54 149.914 409.876C149.562 410.209 149.07 410.376 148.438 410.376C147.805 410.376 147.326 410.209 147 409.876C146.674 409.54 146.512 409.134 146.512 408.657ZM147.77 406.149C147.77 406.355 147.832 406.523 147.957 406.653C148.085 406.783 148.26 406.848 148.484 406.848C148.711 406.848 148.885 406.783 149.008 406.653C149.133 406.523 149.195 406.355 149.195 406.149C149.195 405.925 149.133 405.751 149.008 405.626C148.885 405.498 148.711 405.434 148.484 405.434C148.26 405.434 148.085 405.498 147.957 405.626C147.832 405.751 147.77 405.925 147.77 406.149ZM151.66 406.137H152.844V407.301H151.66V406.137ZM151.66 409.063H152.844V410.227H151.66V409.063ZM154.805 407.45C154.805 408.101 154.858 408.6 154.965 408.946C155.072 409.29 155.29 409.462 155.621 409.462C155.952 409.462 156.168 409.29 156.27 408.946C156.374 408.6 156.426 408.101 156.426 407.45C156.426 406.768 156.374 406.262 156.27 405.934C156.168 405.606 155.952 405.442 155.621 405.442C155.29 405.442 155.072 405.606 154.965 405.934C154.858 406.262 154.805 406.768 154.805 407.45ZM155.621 404.524C156.342 404.524 156.848 404.778 157.137 405.286C157.428 405.794 157.574 406.515 157.574 407.45C157.574 408.385 157.428 409.105 157.137 409.61C156.848 410.115 156.342 410.368 155.621 410.368C154.9 410.368 154.393 410.115 154.102 409.61C153.812 409.105 153.668 408.385 153.668 407.45C153.668 406.515 153.812 405.794 154.102 405.286C154.393 404.778 154.9 404.524 155.621 404.524ZM159.258 407.45C159.258 408.101 159.311 408.6 159.418 408.946C159.525 409.29 159.743 409.462 160.074 409.462C160.405 409.462 160.621 409.29 160.723 408.946C160.827 408.6 160.879 408.101 160.879 407.45C160.879 406.768 160.827 406.262 160.723 405.934C160.621 405.606 160.405 405.442 160.074 405.442C159.743 405.442 159.525 405.606 159.418 405.934C159.311 406.262 159.258 406.768 159.258 407.45ZM160.074 404.524C160.796 404.524 161.301 404.778 161.59 405.286C161.882 405.794 162.027 406.515 162.027 407.45C162.027 408.385 161.882 409.105 161.59 409.61C161.301 410.115 160.796 410.368 160.074 410.368C159.353 410.368 158.846 410.115 158.555 409.61C158.266 409.105 158.121 408.385 158.121 407.45C158.121 406.515 158.266 405.794 158.555 405.286C158.846 404.778 159.353 404.524 160.074 404.524ZM164.734 407.469H166.977V408.524H164.734V407.469ZM169.68 406.555C169.68 405.949 169.854 405.458 170.203 405.083C170.555 404.705 171.01 404.516 171.57 404.516C172.432 404.516 173.023 404.898 173.344 405.661C173.526 406.093 173.617 406.662 173.617 407.368C173.617 408.053 173.53 408.624 173.355 409.083C173.022 409.955 172.41 410.391 171.52 410.391C171.095 410.391 170.714 410.266 170.375 410.016C170.036 409.764 169.842 409.397 169.793 408.915H170.902C170.928 409.081 170.999 409.217 171.113 409.321C171.228 409.425 171.38 409.477 171.57 409.477C171.938 409.477 172.195 409.274 172.344 408.868C172.424 408.644 172.475 408.317 172.496 407.887C172.395 408.015 172.286 408.113 172.172 408.18C171.964 408.305 171.707 408.368 171.402 408.368C170.952 408.368 170.552 408.213 170.203 407.903C169.854 407.591 169.68 407.141 169.68 406.555ZM171.645 407.462C171.798 407.462 171.943 407.417 172.078 407.329C172.331 407.167 172.457 406.887 172.457 406.489C172.457 406.169 172.382 405.915 172.23 405.727C172.082 405.54 171.878 405.446 171.617 405.446C171.427 405.446 171.264 405.499 171.129 405.606C170.915 405.773 170.809 406.055 170.809 406.454C170.809 406.79 170.876 407.042 171.012 407.212C171.15 407.378 171.361 407.462 171.645 407.462ZM174.801 406.137H175.984V407.301H174.801V406.137ZM174.801 409.063H175.984V410.227H174.801V409.063ZM177.945 407.45C177.945 408.101 177.999 408.6 178.105 408.946C178.212 409.29 178.431 409.462 178.762 409.462C179.092 409.462 179.309 409.29 179.41 408.946C179.514 408.6 179.566 408.101 179.566 407.45C179.566 406.768 179.514 406.262 179.41 405.934C179.309 405.606 179.092 405.442 178.762 405.442C178.431 405.442 178.212 405.606 178.105 405.934C177.999 406.262 177.945 406.768 177.945 407.45ZM178.762 404.524C179.483 404.524 179.988 404.778 180.277 405.286C180.569 405.794 180.715 406.515 180.715 407.45C180.715 408.385 180.569 409.105 180.277 409.61C179.988 410.115 179.483 410.368 178.762 410.368C178.04 410.368 177.534 410.115 177.242 409.61C176.953 409.105 176.809 408.385 176.809 407.45C176.809 406.515 176.953 405.794 177.242 405.286C177.534 404.778 178.04 404.524 178.762 404.524ZM182.398 407.45C182.398 408.101 182.452 408.6 182.559 408.946C182.665 409.29 182.884 409.462 183.215 409.462C183.546 409.462 183.762 409.29 183.863 408.946C183.967 408.6 184.02 408.101 184.02 407.45C184.02 406.768 183.967 406.262 183.863 405.934C183.762 405.606 183.546 405.442 183.215 405.442C182.884 405.442 182.665 405.606 182.559 405.934C182.452 406.262 182.398 406.768 182.398 407.45ZM183.215 404.524C183.936 404.524 184.441 404.778 184.73 405.286C185.022 405.794 185.168 406.515 185.168 407.45C185.168 408.385 185.022 409.105 184.73 409.61C184.441 410.115 183.936 410.368 183.215 410.368C182.493 410.368 181.987 410.115 181.695 409.61C181.406 409.105 181.262 408.385 181.262 407.45C181.262 406.515 181.406 405.794 181.695 405.286C181.987 404.778 182.493 404.524 183.215 404.524ZM191.145 408.098C191.145 407.77 191.069 407.48 190.918 407.227C190.77 406.975 190.527 406.848 190.191 406.848C189.788 406.848 189.51 407.04 189.359 407.423C189.281 407.626 189.242 407.884 189.242 408.196C189.242 408.691 189.374 409.038 189.637 409.239C189.793 409.356 189.978 409.415 190.191 409.415C190.501 409.415 190.737 409.295 190.898 409.055C191.062 408.816 191.145 408.497 191.145 408.098ZM190.512 405.876C191.009 405.876 191.43 406.059 191.773 406.426C192.12 406.794 192.293 407.333 192.293 408.044C192.293 408.794 192.124 409.365 191.785 409.759C191.449 410.152 191.016 410.348 190.484 410.348C190.146 410.348 189.865 410.264 189.641 410.094C189.518 410.001 189.398 409.864 189.281 409.684V411.903H188.18V405.969H189.246V406.598C189.366 406.413 189.493 406.268 189.629 406.161C189.876 405.971 190.171 405.876 190.512 405.876ZM197.859 405.876C198.047 405.876 198.232 405.912 198.414 405.985C198.596 406.058 198.762 406.186 198.91 406.368C199.03 406.516 199.111 406.699 199.152 406.915C199.178 407.058 199.191 407.268 199.191 407.544L199.184 410.227H198.043V407.516C198.043 407.355 198.017 407.222 197.965 407.118C197.866 406.92 197.684 406.821 197.418 406.821C197.111 406.821 196.898 406.949 196.781 407.204C196.721 407.339 196.691 407.502 196.691 407.692V410.227H195.57V407.692C195.57 407.44 195.544 407.256 195.492 407.141C195.398 406.936 195.215 406.833 194.941 406.833C194.624 406.833 194.41 406.936 194.301 407.141C194.241 407.259 194.211 407.433 194.211 407.665V410.227H193.082V405.977H194.164V406.598C194.302 406.377 194.432 406.219 194.555 406.126C194.771 405.959 195.051 405.876 195.395 405.876C195.72 405.876 195.983 405.947 196.184 406.091C196.345 406.223 196.467 406.394 196.551 406.602C196.697 406.352 196.878 406.169 197.094 406.051C197.323 405.934 197.578 405.876 197.859 405.876Z" fill="#999999"/>
<path d="M172.8 349.6C176.556 349.6 179.6 346.556 179.6 342.8C179.6 339.044 176.556 336 172.8 336C169.044 336 166 339.044 166 342.8C166 346.556 169.044 349.6 172.8 349.6Z" fill="white" stroke="#231F20" stroke-miterlimit="10"/>
<path d="M171.8 134.6C175.556 134.6 178.6 131.556 178.6 127.8C178.6 124.044 175.556 121 171.8 121C168.044 121 165 124.044 165 127.8C165 131.556 168.044 134.6 171.8 134.6Z" fill="white" stroke="#231F20" stroke-miterlimit="10"/>
<path d="M131.336 146.484L132.859 153.078L133.188 154.914L133.523 153.117L134.82 146.484H137.359L138.727 153.078L139.078 154.914L139.43 153.148L140.969 146.484H143.414L140.172 158H137.875L136.484 151.266L136.078 149.039L135.672 151.266L134.281 158H132.047L128.781 146.484H131.336ZM148.234 156.43C148.885 156.43 149.385 156.198 149.734 155.734C150.083 155.271 150.258 154.612 150.258 153.758C150.258 152.904 150.083 152.247 149.734 151.789C149.385 151.326 148.885 151.094 148.234 151.094C147.583 151.094 147.081 151.326 146.727 151.789C146.378 152.247 146.203 152.904 146.203 153.758C146.203 154.612 146.378 155.271 146.727 155.734C147.081 156.198 147.583 156.43 148.234 156.43ZM152.594 153.758C152.594 155.008 152.234 156.078 151.516 156.969C150.797 157.854 149.706 158.297 148.242 158.297C146.779 158.297 145.688 157.854 144.969 156.969C144.25 156.078 143.891 155.008 143.891 153.758C143.891 152.529 144.25 151.464 144.969 150.562C145.688 149.661 146.779 149.211 148.242 149.211C149.706 149.211 150.797 149.661 151.516 150.562C152.234 151.464 152.594 152.529 152.594 153.758ZM158.82 149.281C158.862 149.281 158.896 149.284 158.922 149.289C158.953 149.289 159.018 149.292 159.117 149.297V151.578C158.977 151.562 158.852 151.552 158.742 151.547C158.633 151.542 158.544 151.539 158.477 151.539C157.581 151.539 156.979 151.831 156.672 152.414C156.5 152.742 156.414 153.247 156.414 153.93V158H154.172V149.484H156.297V150.969C156.641 150.401 156.94 150.013 157.195 149.805C157.612 149.456 158.154 149.281 158.82 149.281ZM160.406 146.523H162.594V152.727L165.367 149.523H168.125L165.148 152.781L168.242 158H165.555L163.516 154.359L162.594 155.32V158H160.406V146.523ZM171.07 155.281C171.117 155.677 171.219 155.958 171.375 156.125C171.651 156.422 172.161 156.57 172.906 156.57C173.344 156.57 173.69 156.505 173.945 156.375C174.206 156.245 174.336 156.049 174.336 155.789C174.336 155.539 174.232 155.349 174.023 155.219C173.815 155.089 173.042 154.865 171.703 154.547C170.74 154.307 170.06 154.008 169.664 153.648C169.268 153.294 169.07 152.784 169.07 152.117C169.07 151.331 169.378 150.656 169.992 150.094C170.612 149.526 171.482 149.242 172.602 149.242C173.664 149.242 174.529 149.456 175.195 149.883C175.867 150.305 176.253 151.036 176.352 152.078H174.125C174.094 151.792 174.013 151.565 173.883 151.398C173.638 151.096 173.221 150.945 172.633 150.945C172.148 150.945 171.802 151.021 171.594 151.172C171.391 151.323 171.289 151.5 171.289 151.703C171.289 151.958 171.398 152.143 171.617 152.258C171.836 152.378 172.609 152.583 173.938 152.875C174.823 153.083 175.487 153.398 175.93 153.82C176.367 154.247 176.586 154.781 176.586 155.422C176.586 156.266 176.271 156.956 175.641 157.492C175.016 158.023 174.047 158.289 172.734 158.289C171.396 158.289 170.406 158.008 169.766 157.445C169.13 156.878 168.812 156.156 168.812 155.281H171.07ZM182.938 149.266C183.464 149.266 183.94 149.357 184.367 149.539C184.799 149.721 185.154 150 185.43 150.375C185.664 150.693 185.807 151.021 185.859 151.359C185.911 151.693 185.938 152.24 185.938 153V158H183.664V152.82C183.664 152.362 183.586 151.992 183.43 151.711C183.227 151.315 182.841 151.117 182.273 151.117C181.685 151.117 181.237 151.315 180.93 151.711C180.628 152.102 180.477 152.661 180.477 153.391V158H178.258V146.523H180.477V150.594C180.799 150.099 181.172 149.755 181.594 149.562C182.021 149.365 182.469 149.266 182.938 149.266ZM191.844 156.43C192.495 156.43 192.995 156.198 193.344 155.734C193.693 155.271 193.867 154.612 193.867 153.758C193.867 152.904 193.693 152.247 193.344 151.789C192.995 151.326 192.495 151.094 191.844 151.094C191.193 151.094 190.69 151.326 190.336 151.789C189.987 152.247 189.812 152.904 189.812 153.758C189.812 154.612 189.987 155.271 190.336 155.734C190.69 156.198 191.193 156.43 191.844 156.43ZM196.203 153.758C196.203 155.008 195.844 156.078 195.125 156.969C194.406 157.854 193.315 158.297 191.852 158.297C190.388 158.297 189.297 157.854 188.578 156.969C187.859 156.078 187.5 155.008 187.5 153.758C187.5 152.529 187.859 151.464 188.578 150.562C189.297 149.661 190.388 149.211 191.852 149.211C193.315 149.211 194.406 149.661 195.125 150.562C195.844 151.464 196.203 152.529 196.203 153.758ZM203.672 153.742C203.672 153.086 203.521 152.505 203.219 152C202.922 151.495 202.438 151.242 201.766 151.242C200.958 151.242 200.404 151.625 200.102 152.391C199.945 152.797 199.867 153.312 199.867 153.938C199.867 154.927 200.13 155.622 200.656 156.023C200.969 156.258 201.339 156.375 201.766 156.375C202.385 156.375 202.857 156.135 203.18 155.656C203.508 155.177 203.672 154.539 203.672 153.742ZM202.406 149.297C203.401 149.297 204.242 149.664 204.93 150.398C205.622 151.133 205.969 152.211 205.969 153.633C205.969 155.133 205.63 156.276 204.953 157.062C204.281 157.849 203.414 158.242 202.352 158.242C201.674 158.242 201.112 158.073 200.664 157.734C200.419 157.547 200.18 157.273 199.945 156.914V161.352H197.742V149.484H199.875V150.742C200.115 150.372 200.37 150.081 200.641 149.867C201.135 149.487 201.724 149.297 202.406 149.297ZM212.109 150.188V148.672C212.812 148.641 213.305 148.594 213.586 148.531C214.034 148.432 214.398 148.234 214.68 147.938C214.872 147.734 215.018 147.464 215.117 147.125C215.174 146.922 215.203 146.771 215.203 146.672H217.055V158H214.773V150.188H212.109Z" fill="white"/>
<path d="M132.977 184.053V188.75H134.363C135.073 188.75 135.568 188.4 135.848 187.7C136.001 187.316 136.077 186.859 136.077 186.328C136.077 185.596 135.962 185.034 135.73 184.644C135.503 184.25 135.047 184.053 134.363 184.053H132.977ZM134.617 182.803C135.063 182.809 135.434 182.861 135.73 182.959C136.235 183.125 136.644 183.429 136.956 183.872C137.207 184.23 137.378 184.618 137.469 185.034C137.56 185.451 137.605 185.848 137.605 186.226C137.605 187.183 137.413 187.993 137.029 188.657C136.508 189.552 135.704 190 134.617 190H131.517V182.803H134.617ZM141.565 187.412C141.478 187.467 141.388 187.513 141.297 187.549C141.209 187.581 141.087 187.612 140.931 187.642L140.618 187.7C140.325 187.752 140.115 187.816 139.988 187.891C139.773 188.018 139.666 188.215 139.666 188.481C139.666 188.719 139.731 188.892 139.861 188.999C139.995 189.103 140.156 189.155 140.345 189.155C140.644 189.155 140.919 189.067 141.17 188.892C141.424 188.716 141.556 188.395 141.565 187.93V187.412ZM140.721 186.763C140.978 186.73 141.162 186.689 141.272 186.641C141.471 186.556 141.57 186.424 141.57 186.245C141.57 186.027 141.494 185.877 141.341 185.796C141.191 185.711 140.97 185.669 140.677 185.669C140.348 185.669 140.115 185.75 139.979 185.913C139.881 186.034 139.816 186.196 139.783 186.401H138.44C138.47 185.936 138.6 185.553 138.831 185.254C139.199 184.785 139.83 184.551 140.726 184.551C141.308 184.551 141.826 184.666 142.278 184.897C142.731 185.129 142.957 185.565 142.957 186.206V188.647C142.957 188.817 142.96 189.022 142.967 189.263C142.977 189.445 143.004 189.569 143.05 189.634C143.095 189.699 143.164 189.753 143.255 189.795V190H141.741C141.699 189.893 141.67 189.792 141.653 189.697C141.637 189.603 141.624 189.495 141.614 189.375C141.422 189.583 141.201 189.761 140.95 189.907C140.651 190.08 140.312 190.166 139.935 190.166C139.453 190.166 139.054 190.029 138.738 189.756C138.426 189.479 138.27 189.089 138.27 188.584C138.27 187.93 138.522 187.456 139.026 187.163C139.303 187.004 139.71 186.89 140.247 186.821L140.721 186.763ZM147.479 184.678H148.973L147.054 190H145.584L143.675 184.678H145.237L146.346 188.604L147.479 184.678ZM151.194 184.043H149.783V182.759H151.194V184.043ZM149.783 184.678H151.194V190H149.783V184.678ZM153.631 188.301C153.66 188.548 153.724 188.724 153.821 188.828C153.994 189.014 154.313 189.106 154.778 189.106C155.052 189.106 155.268 189.066 155.428 188.984C155.59 188.903 155.672 188.781 155.672 188.618C155.672 188.462 155.607 188.343 155.477 188.262C155.346 188.18 154.863 188.04 154.026 187.842C153.424 187.692 152.999 187.505 152.752 187.28C152.505 187.059 152.381 186.74 152.381 186.323C152.381 185.832 152.573 185.41 152.957 185.059C153.344 184.704 153.888 184.526 154.588 184.526C155.252 184.526 155.792 184.66 156.209 184.927C156.629 185.19 156.87 185.648 156.932 186.299H155.54C155.521 186.12 155.47 185.978 155.389 185.874C155.236 185.685 154.975 185.591 154.607 185.591C154.305 185.591 154.088 185.638 153.958 185.732C153.831 185.827 153.768 185.938 153.768 186.064C153.768 186.224 153.836 186.34 153.973 186.411C154.109 186.486 154.593 186.615 155.423 186.797C155.976 186.927 156.391 187.124 156.668 187.388C156.941 187.655 157.078 187.988 157.078 188.389C157.078 188.916 156.881 189.347 156.487 189.683C156.097 190.015 155.491 190.181 154.671 190.181C153.834 190.181 153.216 190.005 152.815 189.653C152.418 189.299 152.22 188.848 152.22 188.301H153.631ZM162.605 187.28H164.432L163.533 184.448L162.605 187.28ZM162.698 182.803H164.397L166.946 190H165.315L164.852 188.521H162.2L161.702 190H160.13L162.698 182.803ZM169.139 184.678V187.886C169.139 188.188 169.174 188.416 169.246 188.569C169.373 188.84 169.622 188.975 169.993 188.975C170.468 188.975 170.794 188.783 170.97 188.398C171.061 188.19 171.106 187.915 171.106 187.573V184.678H172.518V190H171.165V189.248C171.152 189.264 171.119 189.313 171.067 189.395C171.015 189.476 170.953 189.548 170.882 189.609C170.664 189.805 170.452 189.938 170.247 190.01C170.045 190.081 169.808 190.117 169.534 190.117C168.746 190.117 168.216 189.834 167.942 189.268C167.789 188.955 167.713 188.494 167.713 187.886V184.678H169.139ZM175.828 184.551C176.15 184.551 176.437 184.622 176.688 184.766C176.938 184.906 177.142 185.101 177.298 185.352V182.812H178.709V190H177.356V189.263C177.158 189.578 176.932 189.808 176.678 189.951C176.424 190.094 176.108 190.166 175.73 190.166C175.109 190.166 174.585 189.915 174.158 189.414C173.735 188.91 173.523 188.263 173.523 187.476C173.523 186.567 173.732 185.853 174.148 185.332C174.568 184.811 175.128 184.551 175.828 184.551ZM176.131 188.994C176.525 188.994 176.824 188.848 177.029 188.555C177.234 188.262 177.337 187.882 177.337 187.417C177.337 186.766 177.173 186.3 176.844 186.021C176.642 185.851 176.408 185.767 176.141 185.767C175.734 185.767 175.434 185.921 175.242 186.23C175.053 186.536 174.959 186.917 174.959 187.373C174.959 187.865 175.055 188.258 175.247 188.555C175.442 188.848 175.737 188.994 176.131 188.994ZM181.409 184.043H179.998V182.759H181.409V184.043ZM179.998 184.678H181.409V190H179.998V184.678ZM182.215 185.718V184.727H182.957V183.242H184.334V184.727H185.198V185.718H184.334V188.53C184.334 188.748 184.362 188.885 184.417 188.94C184.472 188.993 184.642 189.019 184.925 189.019C184.967 189.019 185.011 189.019 185.057 189.019C185.105 189.015 185.153 189.012 185.198 189.009V190.049L184.539 190.073C183.882 190.096 183.432 189.982 183.191 189.731C183.035 189.572 182.957 189.326 182.957 188.994V185.718H182.215ZM188.479 189.019C188.886 189.019 189.199 188.874 189.417 188.584C189.635 188.294 189.744 187.882 189.744 187.349C189.744 186.815 189.635 186.405 189.417 186.118C189.199 185.828 188.886 185.684 188.479 185.684C188.073 185.684 187.758 185.828 187.537 186.118C187.319 186.405 187.21 186.815 187.21 187.349C187.21 187.882 187.319 188.294 187.537 188.584C187.758 188.874 188.073 189.019 188.479 189.019ZM191.204 187.349C191.204 188.13 190.979 188.799 190.53 189.355C190.081 189.909 189.399 190.186 188.484 190.186C187.57 190.186 186.888 189.909 186.438 189.355C185.989 188.799 185.765 188.13 185.765 187.349C185.765 186.58 185.989 185.915 186.438 185.352C186.888 184.788 187.57 184.507 188.484 184.507C189.399 184.507 190.081 184.788 190.53 185.352C190.979 185.915 191.204 186.58 191.204 187.349ZM195.096 184.551C195.122 184.551 195.143 184.552 195.159 184.556C195.179 184.556 195.219 184.557 195.281 184.561V185.986C195.193 185.977 195.115 185.97 195.047 185.967C194.979 185.964 194.923 185.962 194.881 185.962C194.321 185.962 193.945 186.144 193.753 186.509C193.646 186.714 193.592 187.03 193.592 187.456V190H192.19V184.678H193.519V185.605C193.733 185.251 193.921 185.008 194.08 184.878C194.34 184.66 194.679 184.551 195.096 184.551ZM197.532 184.043H196.121V182.759H197.532V184.043ZM196.121 184.678H197.532V190H196.121V184.678ZM200.271 184.678V187.886C200.271 188.188 200.307 188.416 200.379 188.569C200.506 188.84 200.755 188.975 201.126 188.975C201.601 188.975 201.927 188.783 202.103 188.398C202.194 188.19 202.239 187.915 202.239 187.573V184.678H203.65V190H202.298V189.248C202.285 189.264 202.252 189.313 202.2 189.395C202.148 189.476 202.086 189.548 202.015 189.609C201.797 189.805 201.585 189.938 201.38 190.01C201.178 190.081 200.94 190.117 200.667 190.117C199.879 190.117 199.349 189.834 199.075 189.268C198.922 188.955 198.846 188.494 198.846 187.886V184.678H200.271ZM210.945 184.561C211.18 184.561 211.411 184.606 211.639 184.697C211.867 184.788 212.073 184.948 212.259 185.176C212.409 185.361 212.509 185.589 212.562 185.859C212.594 186.038 212.61 186.3 212.61 186.646L212.601 190H211.175V186.611C211.175 186.41 211.142 186.243 211.077 186.113C210.953 185.866 210.726 185.742 210.394 185.742C210.009 185.742 209.744 185.902 209.598 186.221C209.523 186.39 209.485 186.593 209.485 186.831V190H208.084V186.831C208.084 186.515 208.051 186.286 207.986 186.143C207.869 185.885 207.64 185.757 207.298 185.757C206.901 185.757 206.634 185.885 206.497 186.143C206.422 186.289 206.385 186.507 206.385 186.797V190H204.974V184.688H206.326V185.464C206.499 185.187 206.661 184.99 206.814 184.873C207.085 184.665 207.435 184.561 207.864 184.561C208.271 184.561 208.6 184.65 208.851 184.829C209.052 184.995 209.205 185.208 209.31 185.469C209.492 185.156 209.718 184.927 209.988 184.78C210.275 184.634 210.594 184.561 210.945 184.561ZM149.52 193.281C149.353 193.445 149.121 193.738 148.824 194.16C148.527 194.579 148.279 195.013 148.078 195.461C147.919 195.812 147.776 196.242 147.648 196.75C147.521 197.258 147.457 197.674 147.457 198H146.301C146.335 196.984 146.668 195.928 147.301 194.832C147.71 194.152 148.052 193.678 148.328 193.41H145.504L145.52 192.41H149.52V193.281ZM150.66 193.91H151.844V195.074H150.66V193.91ZM150.66 196.836H151.844V198H150.66V196.836ZM153.805 195.223C153.805 195.874 153.858 196.372 153.965 196.719C154.072 197.062 154.29 197.234 154.621 197.234C154.952 197.234 155.168 197.062 155.27 196.719C155.374 196.372 155.426 195.874 155.426 195.223C155.426 194.54 155.374 194.035 155.27 193.707C155.168 193.379 154.952 193.215 154.621 193.215C154.29 193.215 154.072 193.379 153.965 193.707C153.858 194.035 153.805 194.54 153.805 195.223ZM154.621 192.297C155.342 192.297 155.848 192.551 156.137 193.059C156.428 193.566 156.574 194.288 156.574 195.223C156.574 196.158 156.428 196.878 156.137 197.383C155.848 197.888 155.342 198.141 154.621 198.141C153.9 198.141 153.393 197.888 153.102 197.383C152.812 196.878 152.668 196.158 152.668 195.223C152.668 194.288 152.812 193.566 153.102 193.059C153.393 192.551 153.9 192.297 154.621 192.297ZM158.258 195.223C158.258 195.874 158.311 196.372 158.418 196.719C158.525 197.062 158.743 197.234 159.074 197.234C159.405 197.234 159.621 197.062 159.723 196.719C159.827 196.372 159.879 195.874 159.879 195.223C159.879 194.54 159.827 194.035 159.723 193.707C159.621 193.379 159.405 193.215 159.074 193.215C158.743 193.215 158.525 193.379 158.418 193.707C158.311 194.035 158.258 194.54 158.258 195.223ZM159.074 192.297C159.796 192.297 160.301 192.551 160.59 193.059C160.882 193.566 161.027 194.288 161.027 195.223C161.027 196.158 160.882 196.878 160.59 197.383C160.301 197.888 159.796 198.141 159.074 198.141C158.353 198.141 157.846 197.888 157.555 197.383C157.266 196.878 157.121 196.158 157.121 195.223C157.121 194.288 157.266 193.566 157.555 193.059C157.846 192.551 158.353 192.297 159.074 192.297ZM163.734 195.242H165.977V196.297H163.734V195.242ZM169.809 196.355C169.809 196.634 169.88 196.85 170.023 197.004C170.169 197.158 170.37 197.234 170.625 197.234C170.88 197.234 171.079 197.158 171.223 197.004C171.368 196.85 171.441 196.634 171.441 196.355C171.441 196.066 171.367 195.848 171.219 195.699C171.073 195.548 170.875 195.473 170.625 195.473C170.375 195.473 170.176 195.548 170.027 195.699C169.882 195.848 169.809 196.066 169.809 196.355ZM168.652 196.43C168.652 196.112 168.724 195.824 168.867 195.566C169.013 195.309 169.225 195.115 169.504 194.984C169.23 194.802 169.052 194.605 168.969 194.395C168.888 194.181 168.848 193.982 168.848 193.797C168.848 193.385 169.003 193.035 169.312 192.746C169.622 192.454 170.06 192.309 170.625 192.309C171.19 192.309 171.628 192.454 171.938 192.746C172.247 193.035 172.402 193.385 172.402 193.797C172.402 193.982 172.361 194.181 172.277 194.395C172.197 194.605 172.02 194.789 171.746 194.945C172.025 195.102 172.234 195.309 172.375 195.566C172.516 195.824 172.586 196.112 172.586 196.43C172.586 196.906 172.409 197.312 172.055 197.648C171.703 197.982 171.211 198.148 170.578 198.148C169.945 198.148 169.466 197.982 169.141 197.648C168.815 197.312 168.652 196.906 168.652 196.43ZM169.91 193.922C169.91 194.128 169.973 194.296 170.098 194.426C170.225 194.556 170.401 194.621 170.625 194.621C170.852 194.621 171.026 194.556 171.148 194.426C171.273 194.296 171.336 194.128 171.336 193.922C171.336 193.698 171.273 193.523 171.148 193.398C171.026 193.271 170.852 193.207 170.625 193.207C170.401 193.207 170.225 193.271 170.098 193.398C169.973 193.523 169.91 193.698 169.91 193.922ZM173.801 193.91H174.984V195.074H173.801V193.91ZM173.801 196.836H174.984V198H173.801V196.836ZM176.945 195.223C176.945 195.874 176.999 196.372 177.105 196.719C177.212 197.062 177.431 197.234 177.762 197.234C178.092 197.234 178.309 197.062 178.41 196.719C178.514 196.372 178.566 195.874 178.566 195.223C178.566 194.54 178.514 194.035 178.41 193.707C178.309 193.379 178.092 193.215 177.762 193.215C177.431 193.215 177.212 193.379 177.105 193.707C176.999 194.035 176.945 194.54 176.945 195.223ZM177.762 192.297C178.483 192.297 178.988 192.551 179.277 193.059C179.569 193.566 179.715 194.288 179.715 195.223C179.715 196.158 179.569 196.878 179.277 197.383C178.988 197.888 178.483 198.141 177.762 198.141C177.04 198.141 176.534 197.888 176.242 197.383C175.953 196.878 175.809 196.158 175.809 195.223C175.809 194.288 175.953 193.566 176.242 193.059C176.534 192.551 177.04 192.297 177.762 192.297ZM181.398 195.223C181.398 195.874 181.452 196.372 181.559 196.719C181.665 197.062 181.884 197.234 182.215 197.234C182.546 197.234 182.762 197.062 182.863 196.719C182.967 196.372 183.02 195.874 183.02 195.223C183.02 194.54 182.967 194.035 182.863 193.707C182.762 193.379 182.546 193.215 182.215 193.215C181.884 193.215 181.665 193.379 181.559 193.707C181.452 194.035 181.398 194.54 181.398 195.223ZM182.215 192.297C182.936 192.297 183.441 192.551 183.73 193.059C184.022 193.566 184.168 194.288 184.168 195.223C184.168 196.158 184.022 196.878 183.73 197.383C183.441 197.888 182.936 198.141 182.215 198.141C181.493 198.141 180.987 197.888 180.695 197.383C180.406 196.878 180.262 196.158 180.262 195.223C180.262 194.288 180.406 193.566 180.695 193.059C180.987 192.551 181.493 192.297 182.215 192.297ZM190.145 195.871C190.145 195.543 190.069 195.253 189.918 195C189.77 194.747 189.527 194.621 189.191 194.621C188.788 194.621 188.51 194.812 188.359 195.195C188.281 195.398 188.242 195.656 188.242 195.969C188.242 196.464 188.374 196.811 188.637 197.012C188.793 197.129 188.978 197.188 189.191 197.188C189.501 197.188 189.737 197.068 189.898 196.828C190.062 196.589 190.145 196.27 190.145 195.871ZM189.512 193.648C190.009 193.648 190.43 193.832 190.773 194.199C191.12 194.566 191.293 195.105 191.293 195.816C191.293 196.566 191.124 197.138 190.785 197.531C190.449 197.924 190.016 198.121 189.484 198.121C189.146 198.121 188.865 198.036 188.641 197.867C188.518 197.773 188.398 197.637 188.281 197.457V199.676H187.18V193.742H188.246V194.371C188.366 194.186 188.493 194.04 188.629 193.934C188.876 193.743 189.171 193.648 189.512 193.648ZM196.859 193.648C197.047 193.648 197.232 193.685 197.414 193.758C197.596 193.831 197.762 193.958 197.91 194.141C198.03 194.289 198.111 194.471 198.152 194.688C198.178 194.831 198.191 195.04 198.191 195.316L198.184 198H197.043V195.289C197.043 195.128 197.017 194.995 196.965 194.891C196.866 194.693 196.684 194.594 196.418 194.594C196.111 194.594 195.898 194.721 195.781 194.977C195.721 195.112 195.691 195.275 195.691 195.465V198H194.57V195.465C194.57 195.212 194.544 195.029 194.492 194.914C194.398 194.708 194.215 194.605 193.941 194.605C193.624 194.605 193.41 194.708 193.301 194.914C193.241 195.031 193.211 195.206 193.211 195.438V198H192.082V193.75H193.164V194.371C193.302 194.15 193.432 193.992 193.555 193.898C193.771 193.732 194.051 193.648 194.395 193.648C194.72 193.648 194.983 193.72 195.184 193.863C195.345 193.996 195.467 194.167 195.551 194.375C195.697 194.125 195.878 193.941 196.094 193.824C196.323 193.707 196.578 193.648 196.859 193.648Z" fill="#999999"/>
<path d="M171.78 81.6C194.302 81.6 212.559 63.3332 212.559 40.8C212.559 18.2668 194.302 0 171.78 0C149.258 0 131 18.2668 131 40.8C131 63.3332 149.258 81.6 171.78 81.6Z" fill="#F15B2A"/>
<path d="M183.346 43.2223H167.594V59.8H162.643V22.2616H185.899V26.3352H167.594V39.1745H183.346V43.2223Z" fill="white"/>
<path d="M158.51 90.1396C158.51 91.279 158.603 92.1517 158.79 92.7578C158.977 93.3594 159.36 93.6602 159.938 93.6602C160.517 93.6602 160.896 93.3594 161.073 92.7578C161.256 92.1517 161.347 91.279 161.347 90.1396C161.347 88.9456 161.256 88.0615 161.073 87.4873C160.896 86.9131 160.517 86.626 159.938 86.626C159.36 86.626 158.977 86.9131 158.79 87.4873C158.603 88.0615 158.51 88.9456 158.51 90.1396ZM159.938 85.0195C161.201 85.0195 162.085 85.4639 162.591 86.3525C163.101 87.2412 163.356 88.5036 163.356 90.1396C163.356 91.7757 163.101 93.0358 162.591 93.9199C162.085 94.804 161.201 95.2461 159.938 95.2461C158.676 95.2461 157.79 94.804 157.279 93.9199C156.773 93.0358 156.521 91.7757 156.521 90.1396C156.521 88.5036 156.773 87.2412 157.279 86.3525C157.79 85.4639 158.676 85.0195 159.938 85.0195ZM164.313 95C164.332 94.2891 164.484 93.6396 164.771 93.0518C165.049 92.391 165.706 91.6914 166.74 90.9531C167.638 90.3105 168.219 89.8503 168.483 89.5723C168.889 89.1393 169.092 88.6654 169.092 88.1504C169.092 87.7311 168.976 87.3825 168.743 87.1045C168.511 86.8265 168.178 86.6875 167.745 86.6875C167.153 86.6875 166.749 86.9085 166.535 87.3506C166.412 87.6058 166.339 88.0114 166.316 88.5674H164.423C164.455 87.7243 164.607 87.043 164.881 86.5234C165.4 85.5345 166.323 85.04 167.649 85.04C168.698 85.04 169.532 85.3317 170.151 85.915C170.771 86.4938 171.081 87.2617 171.081 88.2188C171.081 88.9525 170.862 89.6042 170.425 90.1738C170.138 90.5521 169.666 90.9736 169.01 91.4385L168.23 91.9922C167.743 92.3385 167.408 92.5892 167.226 92.7441C167.048 92.8991 166.897 93.0791 166.774 93.2842H171.102V95H164.313ZM171.99 90.1738H175.914V92.0195H171.99V90.1738ZM178.758 90.1396C178.758 91.279 178.851 92.1517 179.038 92.7578C179.225 93.3594 179.608 93.6602 180.187 93.6602C180.765 93.6602 181.144 93.3594 181.321 92.7578C181.504 92.1517 181.595 91.279 181.595 90.1396C181.595 88.9456 181.504 88.0615 181.321 87.4873C181.144 86.9131 180.765 86.626 180.187 86.626C179.608 86.626 179.225 86.9131 179.038 87.4873C178.851 88.0615 178.758 88.9456 178.758 90.1396ZM180.187 85.0195C181.449 85.0195 182.333 85.4639 182.839 86.3525C183.349 87.2412 183.604 88.5036 183.604 90.1396C183.604 91.7757 183.349 93.0358 182.839 93.9199C182.333 94.804 181.449 95.2461 180.187 95.2461C178.924 95.2461 178.038 94.804 177.527 93.9199C177.021 93.0358 176.769 91.7757 176.769 90.1396C176.769 88.5036 177.021 87.2412 177.527 86.3525C178.038 85.4639 178.924 85.0195 180.187 85.0195ZM185.095 88.1641V86.8379C185.71 86.8105 186.141 86.7695 186.387 86.7148C186.779 86.6283 187.098 86.4551 187.344 86.1953C187.512 86.0176 187.64 85.7806 187.727 85.4844C187.777 85.3066 187.802 85.1745 187.802 85.0879H189.422V95H187.426V88.1641H185.095Z" fill="white"/>
<path d="M25.6758 341.533C25.6758 341.951 25.7832 342.275 25.998 342.506C26.2168 342.736 26.5176 342.852 26.9004 342.852C27.2832 342.852 27.582 342.736 27.7969 342.506C28.0156 342.275 28.125 341.951 28.125 341.533C28.125 341.1 28.0137 340.771 27.791 340.549C27.5723 340.322 27.2754 340.209 26.9004 340.209C26.5254 340.209 26.2266 340.322 26.0039 340.549C25.7852 340.771 25.6758 341.1 25.6758 341.533ZM23.9414 341.645C23.9414 341.168 24.0488 340.736 24.2637 340.35C24.4824 339.963 24.8008 339.672 25.2188 339.477C24.8086 339.203 24.541 338.908 24.416 338.592C24.2949 338.271 24.2344 337.973 24.2344 337.695C24.2344 337.078 24.4668 336.553 24.9316 336.119C25.3965 335.682 26.0527 335.463 26.9004 335.463C27.748 335.463 28.4043 335.682 28.8691 336.119C29.334 336.553 29.5664 337.078 29.5664 337.695C29.5664 337.973 29.5039 338.271 29.3789 338.592C29.2578 338.908 28.9922 339.184 28.582 339.418C29 339.652 29.3145 339.963 29.5254 340.35C29.7363 340.736 29.8418 341.168 29.8418 341.645C29.8418 342.359 29.5762 342.969 29.0449 343.473C28.5176 343.973 27.7793 344.223 26.8301 344.223C25.8809 344.223 25.1621 343.973 24.6738 343.473C24.1855 342.969 23.9414 342.359 23.9414 341.645ZM25.8281 337.883C25.8281 338.191 25.9219 338.443 26.1094 338.639C26.3008 338.834 26.5645 338.932 26.9004 338.932C27.2402 338.932 27.502 338.834 27.6855 338.639C27.873 338.443 27.9668 338.191 27.9668 337.883C27.9668 337.547 27.873 337.285 27.6855 337.098C27.502 336.906 27.2402 336.811 26.9004 336.811C26.5645 336.811 26.3008 336.906 26.1094 337.098C25.9219 337.285 25.8281 337.547 25.8281 337.883ZM31.6641 337.865H33.4395V339.611H31.6641V337.865ZM31.6641 342.254H33.4395V344H31.6641V342.254ZM36.3809 339.834C36.3809 340.811 36.4609 341.559 36.6211 342.078C36.7812 342.594 37.1094 342.852 37.6055 342.852C38.1016 342.852 38.4258 342.594 38.5781 342.078C38.7344 341.559 38.8125 340.811 38.8125 339.834C38.8125 338.811 38.7344 338.053 38.5781 337.561C38.4258 337.068 38.1016 336.822 37.6055 336.822C37.1094 336.822 36.7812 337.068 36.6211 337.561C36.4609 338.053 36.3809 338.811 36.3809 339.834ZM37.6055 335.445C38.6875 335.445 39.4453 335.826 39.8789 336.588C40.3164 337.35 40.5352 338.432 40.5352 339.834C40.5352 341.236 40.3164 342.316 39.8789 343.074C39.4453 343.832 38.6875 344.211 37.6055 344.211C36.5234 344.211 35.7637 343.832 35.3262 343.074C34.8926 342.316 34.6758 341.236 34.6758 339.834C34.6758 338.432 34.8926 337.35 35.3262 336.588C35.7637 335.826 36.5234 335.445 37.6055 335.445ZM43.0605 339.834C43.0605 340.811 43.1406 341.559 43.3008 342.078C43.4609 342.594 43.7891 342.852 44.2852 342.852C44.7812 342.852 45.1055 342.594 45.2578 342.078C45.4141 341.559 45.4922 340.811 45.4922 339.834C45.4922 338.811 45.4141 338.053 45.2578 337.561C45.1055 337.068 44.7812 336.822 44.2852 336.822C43.7891 336.822 43.4609 337.068 43.3008 337.561C43.1406 338.053 43.0605 338.811 43.0605 339.834ZM44.2852 335.445C45.3672 335.445 46.125 335.826 46.5586 336.588C46.9961 337.35 47.2148 338.432 47.2148 339.834C47.2148 341.236 46.9961 342.316 46.5586 343.074C46.125 343.832 45.3672 344.211 44.2852 344.211C43.2031 344.211 42.4434 343.832 42.0059 343.074C41.5723 342.316 41.3555 341.236 41.3555 339.834C41.3555 338.432 41.5723 337.35 42.0059 336.588C42.4434 335.826 43.2031 335.445 44.2852 335.445ZM56.7773 338.111C56.7773 337.662 56.6582 337.342 56.4199 337.15C56.1855 336.959 55.8555 336.863 55.4297 336.863H53.748V339.406H55.4297C55.8555 339.406 56.1855 339.303 56.4199 339.096C56.6582 338.889 56.7773 338.561 56.7773 338.111ZM58.5645 338.1C58.5645 339.119 58.3066 339.84 57.791 340.262C57.2754 340.684 56.5391 340.895 55.582 340.895H53.748V344H51.9551V335.363H55.7168C56.584 335.363 57.2754 335.586 57.791 336.031C58.3066 336.477 58.5645 337.166 58.5645 338.1ZM65.6426 335.363H68.2383V344H66.5566V338.158C66.5566 337.99 66.5586 337.756 66.5625 337.455C66.5664 337.15 66.5684 336.916 66.5684 336.752L64.9336 344H63.1816L61.5586 336.752C61.5586 336.916 61.5605 337.15 61.5645 337.455C61.5684 337.756 61.5703 337.99 61.5703 338.158V344H59.8887V335.363H62.5137L64.084 342.154L65.6426 335.363Z" fill="white"/>
<path d="M29.9531 124.922C29.7031 125.168 29.3555 125.607 28.9102 126.24C28.4648 126.869 28.0918 127.52 27.791 128.191C27.5527 128.719 27.3379 129.363 27.1465 130.125C26.9551 130.887 26.8594 131.512 26.8594 132H25.125C25.1758 130.477 25.6758 128.893 26.625 127.248C27.2383 126.229 27.752 125.518 28.166 125.115H23.9297L23.9531 123.615H29.9531V124.922ZM31.6641 125.865H33.4395V127.611H31.6641V125.865ZM31.6641 130.254H33.4395V132H31.6641V130.254ZM36.3809 127.834C36.3809 128.811 36.4609 129.559 36.6211 130.078C36.7812 130.594 37.1094 130.852 37.6055 130.852C38.1016 130.852 38.4258 130.594 38.5781 130.078C38.7344 129.559 38.8125 128.811 38.8125 127.834C38.8125 126.811 38.7344 126.053 38.5781 125.561C38.4258 125.068 38.1016 124.822 37.6055 124.822C37.1094 124.822 36.7812 125.068 36.6211 125.561C36.4609 126.053 36.3809 126.811 36.3809 127.834ZM37.6055 123.445C38.6875 123.445 39.4453 123.826 39.8789 124.588C40.3164 125.35 40.5352 126.432 40.5352 127.834C40.5352 129.236 40.3164 130.316 39.8789 131.074C39.4453 131.832 38.6875 132.211 37.6055 132.211C36.5234 132.211 35.7637 131.832 35.3262 131.074C34.8926 130.316 34.6758 129.236 34.6758 127.834C34.6758 126.432 34.8926 125.35 35.3262 124.588C35.7637 123.826 36.5234 123.445 37.6055 123.445ZM43.0605 127.834C43.0605 128.811 43.1406 129.559 43.3008 130.078C43.4609 130.594 43.7891 130.852 44.2852 130.852C44.7812 130.852 45.1055 130.594 45.2578 130.078C45.4141 129.559 45.4922 128.811 45.4922 127.834C45.4922 126.811 45.4141 126.053 45.2578 125.561C45.1055 125.068 44.7812 124.822 44.2852 124.822C43.7891 124.822 43.4609 125.068 43.3008 125.561C43.1406 126.053 43.0605 126.811 43.0605 127.834ZM44.2852 123.445C45.3672 123.445 46.125 123.826 46.5586 124.588C46.9961 125.35 47.2148 126.432 47.2148 127.834C47.2148 129.236 46.9961 130.316 46.5586 131.074C46.125 131.832 45.3672 132.211 44.2852 132.211C43.2031 132.211 42.4434 131.832 42.0059 131.074C41.5723 130.316 41.3555 129.236 41.3555 127.834C41.3555 126.432 41.5723 125.35 42.0059 124.588C42.4434 123.826 43.2031 123.445 44.2852 123.445ZM56.7773 126.111C56.7773 125.662 56.6582 125.342 56.4199 125.15C56.1855 124.959 55.8555 124.863 55.4297 124.863H53.748V127.406H55.4297C55.8555 127.406 56.1855 127.303 56.4199 127.096C56.6582 126.889 56.7773 126.561 56.7773 126.111ZM58.5645 126.1C58.5645 127.119 58.3066 127.84 57.791 128.262C57.2754 128.684 56.5391 128.895 55.582 128.895H53.748V132H51.9551V123.363H55.7168C56.584 123.363 57.2754 123.586 57.791 124.031C58.3066 124.477 58.5645 125.166 58.5645 126.1ZM65.6426 123.363H68.2383V132H66.5566V126.158C66.5566 125.99 66.5586 125.756 66.5625 125.455C66.5664 125.15 66.5684 124.916 66.5684 124.752L64.9336 132H63.1816L61.5586 124.752C61.5586 124.916 61.5605 125.15 61.5645 125.455C61.5684 125.756 61.5703 125.99 61.5703 126.158V132H59.8887V123.363H62.5137L64.084 130.154L65.6426 123.363Z" fill="white"/>
</svg>
