<?xml version="1.0" encoding="utf-8"?>
<!-- Generator: Adobe Illustrator 22.1.0, SVG Export Plug-In . SVG Version: 6.00 Build 0)  -->
<svg version="1.1" id="Layer_1" xmlns="http://www.w3.org/2000/svg" xmlns:xlink="http://www.w3.org/1999/xlink" x="0px" y="0px"
	 viewBox="0 0 148.1 14.7" style="enable-background:new 0 0 148.1 14.7;" xml:space="preserve">
<style type="text/css">
	.st0{fill:#7ACE02;}
	.st1{fill:#FFFFFF;stroke:#231F20;stroke-miterlimit:10;}
</style>
<g>
	<line class="st0" x1="123.6" y1="7.5" x2="9.8" y2="8.1"/>
	<g>
		<path class="st0" d="M123.6,2.5C110.8,2.6,98,2.6,85.1,2.7C64.7,2.8,44.3,2.9,23.8,3.1c-4.6,0-9.3,0.1-14,0.1c-2.9,0-2.9,10,0,10
			c12.8-0.1,25.7-0.1,38.5-0.2c20.4-0.1,40.9-0.2,61.3-0.3c4.6,0,9.3-0.1,14-0.1C126.5,12.5,126.5,2.5,123.6,2.5L123.6,2.5z"/>
	</g>
</g>
<circle class="st1" cx="7.4" cy="7.6" r="6.5"/>
<circle class="st1" cx="40.9" cy="7.8" r="6.5"/>
<circle class="st1" cx="123.6" cy="8.1" r="6.5"/>
</svg>
