<?xml version="1.0" encoding="utf-8"?>
<!-- Generator: Adobe Illustrator 22.1.0, SVG Export Plug-In . SVG Version: 6.00 Build 0)  -->
<svg version="1.1" id="Layer_1" xmlns="http://www.w3.org/2000/svg" xmlns:xlink="http://www.w3.org/1999/xlink" x="0px" y="0px"
	 viewBox="0 0 177.4 14.7" style="enable-background:new 0 0 177.4 14.7;" xml:space="preserve">
<style type="text/css">
	.st0{fill:#494949;}
	.st1{fill:#4A4A4A;}
	.st2{fill:#FFFFFF;stroke:#231F20;stroke-miterlimit:10;}
</style>
<g>
	<line class="st0" x1="164.9" y1="7.5" x2="10.6" y2="8.1"/>
	<g>
		<path class="st1" d="M164.9,2.5c-17.4,0.1-34.8,0.1-52.2,0.2C85,2.8,57.3,2.9,29.6,3.1c-6.3,0-12.6,0.1-19,0.1c-3.9,0-3.9,10,0,10
			C28,13.1,45.4,13.1,62.8,13c27.7-0.1,55.4-0.2,83.1-0.3c6.3,0,12.6-0.1,19-0.1C168.8,12.5,168.8,2.5,164.9,2.5L164.9,2.5z"/>
	</g>
</g>
<circle class="st2" cx="7.4" cy="7.6" r="6.5"/>
<circle class="st2" cx="167.8" cy="7.6" r="6.5"/>
<circle class="st2" cx="37.4" cy="7.6" r="6.5"/>
</svg>
