<?xml version="1.0" encoding="utf-8"?>
<!-- Generator: Adobe Illustrator 22.1.0, SVG Export Plug-In . SVG Version: 6.00 Build 0)  -->
<svg version="1.1" id="Layer_1" xmlns="http://www.w3.org/2000/svg" xmlns:xlink="http://www.w3.org/1999/xlink" x="0px" y="0px"
	 viewBox="0 0 155 14.7" style="enable-background:new 0 0 155 14.7;" xml:space="preserve">
<style type="text/css">
	.st0{fill:#5F5F5F;}
	.st1{fill:#581C91;}
	.st2{fill:#FFFFFF;stroke:#231F20;stroke-miterlimit:10;}
</style>
<g>
	<line class="st0" x1="145.7" y1="7.5" x2="10.2" y2="8.1"/>
	<g>
		<path class="st1" d="M145.7,2.5c-15.3,0.1-30.5,0.1-45.8,0.2C75.5,2.8,51.2,2.9,26.9,3.1c-5.5,0-11.1,0.1-16.7,0.1
			c-3.4,0-3.4,10,0,10c15.3-0.1,30.5-0.1,45.8-0.2c24.3-0.1,48.6-0.2,72.9-0.3c5.5,0,11.1-0.1,16.7-0.1
			C149.1,12.5,149.1,2.5,145.7,2.5L145.7,2.5z"/>
	</g>
</g>
<circle class="st2" cx="7.4" cy="7.6" r="6.5"/>
<circle class="st2" cx="146.6" cy="7.1" r="6.5"/>
<circle class="st2" cx="37.4" cy="7.6" r="6.5"/>
</svg>
