<?xml version="1.0" encoding="utf-8"?>
<!-- Generator: Adobe Illustrator 22.1.0, SVG Export Plug-In . SVG Version: 6.00 Build 0)  -->
<svg version="1.1" id="Layer_1" xmlns="http://www.w3.org/2000/svg" xmlns:xlink="http://www.w3.org/1999/xlink" x="0px" y="0px"
	 viewBox="0 0 319 16" style="enable-background:new 0 0 319 16;" xml:space="preserve">
<style type="text/css">
	.st0{fill:#29ABE2;}
	.st1{fill:#FFFFFF;stroke:#231F20;stroke-miterlimit:10;}
</style>
<g>
	<line class="st0" x1="305" y1="8" x2="12.5" y2="8.1"/>
	<g>
		<path class="st0" d="M305,3c-33,0-66,0-99,0c-52.5,0-105.1,0.1-157.6,0.1c-11.9,0-23.9,0-35.8,0c-6.4,0-6.4,10,0,10
			c33,0,66,0,99,0c52.5,0,105.1-0.1,157.6-0.1c11.9,0,23.9,0,35.8,0C311.4,13,311.4,3,305,3L305,3z"/>
	</g>
</g>
<circle class="st1" cx="7.4" cy="7.6" r="6.5"/>
<ellipse class="st1" cx="310.2" cy="7.8" rx="6.5" ry="6.3"/>
<circle class="st1" cx="252.2" cy="7.7" r="6.5"/>
</svg>
