<?xml version="1.0" encoding="utf-8"?>
<!-- Generator: Adobe Illustrator 22.1.0, SVG Export Plug-In . SVG Version: 6.00 Build 0)  -->
<svg version="1.1" id="Layer_1" xmlns="http://www.w3.org/2000/svg" xmlns:xlink="http://www.w3.org/1999/xlink" x="0px" y="0px"
	 viewBox="0 0 148.1 14.7" style="enable-background:new 0 0 148.1 14.7;" xml:space="preserve">
<style type="text/css">
	.st0{fill:#E2CC00;}
	.st1{fill:#FFFFFF;stroke:#231F20;stroke-miterlimit:10;}
</style>
<g>
	<line class="st0" x1="137.7" y1="7.5" x2="10.1" y2="8.1"/>
	<g>
		<path class="st0" d="M137.7,2.5C123.4,2.6,109,2.6,94.5,2.7C71.6,2.8,48.8,2.9,25.8,3.1c-5.2,0-10.4,0.1-15.7,0.1
			c-3.3,0-3.3,10,0,10c14.4-0.1,28.8-0.1,43.2-0.2c22.9-0.1,45.9-0.2,68.8-0.3c5.2,0,10.4-0.1,15.7-0.1C141,12.5,141,2.5,137.7,2.5
			L137.7,2.5z"/>
	</g>
</g>
<circle class="st1" cx="7.4" cy="7.6" r="6.5"/>
<circle class="st1" cx="40.9" cy="7.8" r="6.5"/>
<circle class="st1" cx="137.7" cy="7.8" r="6.5"/>
</svg>
