<?xml version="1.0" encoding="utf-8"?>
<!-- Generator: Adobe Illustrator 22.1.0, SVG Export Plug-In . SVG Version: 6.00 Build 0)  -->
<svg version="1.1" id="Layer_1" xmlns="http://www.w3.org/2000/svg" xmlns:xlink="http://www.w3.org/1999/xlink" x="0px" y="0px"
	 viewBox="0 0 434 16" style="enable-background:new 0 0 434 16;" xml:space="preserve">
<style type="text/css">
	.st0{fill:#D4145A;}
	.st1{fill:#FFFFFF;stroke:#231F20;stroke-miterlimit:10;}
</style>
<g>
	<line class="st0" x1="420" y1="6.3" x2="13.5" y2="8.9"/>
	<g>
		<path class="st0" d="M420,1.3c-13.5,0.1-26.9,0.2-40.4,0.3c-32.3,0.2-64.7,0.4-97,0.6c-39.1,0.2-78.2,0.5-117.4,0.7
			C131.4,3.1,97.6,3.3,63.7,3.6C47.3,3.7,30.7,3.1,14.2,3.9c-0.2,0-0.5,0-0.7,0c-6.4,0-6.4,10,0,10c13.5-0.1,26.9-0.2,40.4-0.3
			c32.3-0.2,64.7-0.4,97-0.6c39.1-0.2,78.2-0.5,117.4-0.7c33.8-0.2,67.7-0.4,101.5-0.6c16.5-0.1,33.1,0.5,49.5-0.3
			c0.2,0,0.5,0,0.7,0C426.4,11.2,426.4,1.2,420,1.3L420,1.3z"/>
	</g>
</g>
<circle class="st1" cx="8.4" cy="8.4" r="6.5"/>
<circle class="st1" cx="426.1" cy="6.9" r="6.5"/>
<circle class="st1" cx="38.4" cy="8.3" r="6.5"/>
</svg>
