<?xml version="1.0" encoding="utf-8"?>
<!-- Generator: Adobe Illustrator 23.0.1, SVG Export Plug-In . SVG Version: 6.00 Build 0)  -->
<svg version="1.1" id="Layer_1" xmlns="http://www.w3.org/2000/svg" xmlns:xlink="http://www.w3.org/1999/xlink" x="0px" y="0px"
	 viewBox="0 0 867 942.42" style="enable-background:new 0 0 867 942.42;" xml:space="preserve">
<style type="text/css">
	.st0{fill:#EC1C24;stroke:#EC1C24;stroke-width:3;stroke-miterlimit:10;}
	.st1{fill:#EC1C24;stroke:#EC1C24;stroke-width:0.75;stroke-miterlimit:10;}
	.st2{fill:#EC1C24;stroke:#EC1C24;stroke-width:5;stroke-miterlimit:10;}
	.st3{fill:#EC1C24;stroke:#EC1C24;stroke-width:12;stroke-linecap:round;stroke-linejoin:round;}
	.st4{fill:#EC1C24;stroke:#EC1C24;stroke-width:4;stroke-miterlimit:10;}
	.st5{fill:#FFFFFF;stroke:#231F20;stroke-miterlimit:10;}
	.st6{fill:#AAAAAA;}
	.st7{font-family:'Helvetica-Bold';}
	.st8{font-size:15px;}
	.st9{fill:#F2F2F2;}
	.st10{fill:#FFFFFF;}
	.st11{font-size:20px;}
	.st12{fill:#E6E6E6;}
	.st13{font-size:16.7715px;}
	.st14{font-size:18px;}
</style>
<path class="st0" d="M407.59,143.42c0.93-2.58,3.57-3.87,5.95-2.87s3.57,3.87,2.64,6.45L407.59,143.42z M291.63,174.54
	c-2.51,0-4.63-2.29-4.63-5.02s2.12-5.02,4.63-5.02V174.54z M405.74,159.48l3.97,2.58c0,0.14-0.13,0.14-0.13,0.29L405.74,159.48z
	 M409.18,153.03l4.1,2.15L409.18,153.03z M403.23,163.35l3.83,2.87L403.23,163.35z M392.65,174.54H291.63V164.5h101.02V174.54z
	 M409.57,162.35l-2.38,3.87l-7.67-5.59l2.38-3.87L409.57,162.35z M416.32,146.86l-1.98,5.74l-8.59-3.58l1.98-5.74L416.32,146.86z
	 M412.09,157.62l-2.38,4.44l-7.93-5.02l2.38-4.44L412.09,157.62z M414.33,152.6c-0.4,1-0.66,1.86-0.93,2.58l-8.33-4.3
	c0.13-0.29,0.26-0.57,0.66-1.86L414.33,152.6z M404.02,152.6c0.53-1.15,0.79-1.43,0.93-1.72l8.33,4.3c-0.4,0.72-0.66,1.43-1.19,2.44
	L404.02,152.6z M407.06,166.22c-0.66,1-1.32,2.01-2.12,2.87l-6.48-7.17c0.4-0.43,0.66-0.86,1.06-1.29L407.06,166.22z M392.65,164.5
	c2.12,0,4.23-0.86,5.82-2.58l6.48,7.17c-3.31,3.58-7.67,5.45-12.3,5.45L392.65,164.5L392.65,164.5z"/>
<path class="st1" d="M420.46,52.44c-1.34-3.12-5.17-4.67-8.61-3.46c-3.44,1.21-5.17,4.67-3.83,7.79L420.46,52.44z M588.3,90
	c3.64,0,6.7-2.77,6.7-6.06s-3.06-6.06-6.7-6.06V90z M423.14,71.82l-5.74,3.12c0,0.17,0.19,0.17,0.19,0.35L423.14,71.82z
	 M418.16,64.03l-5.93,2.6L418.16,64.03z M426.77,76.5l-5.55,3.46L426.77,76.5z M442.08,90H588.3V77.88H442.08V90z M417.59,75.29
	l3.44,4.67l11.1-6.75l-3.44-4.67L417.59,75.29z M407.83,56.59l2.87,6.92l12.44-4.33l-2.87-6.92L407.83,56.59z M413.95,69.57
	l3.44,5.37l11.48-6.06l-3.44-5.37L413.95,69.57z M410.7,63.51c0.57,1.21,0.96,2.25,1.34,3.12l12.06-5.19
	c-0.19-0.35-0.38-0.69-0.96-2.25L410.7,63.51z M425.62,63.51c-0.77-1.38-1.15-1.73-1.34-2.08l-12.06,5.19
	c0.57,0.87,0.96,1.73,1.72,2.94L425.62,63.51z M421.22,79.96c0.96,1.21,1.91,2.42,3.06,3.46l9.38-8.66
	c-0.57-0.52-0.96-1.04-1.53-1.56L421.22,79.96z M442.08,77.88c-3.06,0-6.12-1.04-8.42-3.12l-9.38,8.66
	c4.78,4.33,11.1,6.58,17.8,6.58L442.08,77.88L442.08,77.88z"/>
<path class="st2" d="M407.59,349.19c1.37-1.59,4.38-2.19,6.57-1.19c2.33,1,3.01,3.19,1.64,4.78L407.59,349.19z M218.79,370.9
	c-2.6,0-4.79-1.59-4.79-3.49s2.19-3.49,4.79-3.49V370.9z M401.71,360.64l3.56,2.39l0,0L401.71,360.64z M405.4,357.76l3.56,2.39
	L405.4,357.76z M407.18,356.26l-3.83-2.09L407.18,356.26z M398.01,363.43l3.42,2.39L398.01,363.43z M397.33,363.93l3.28,2.49
	L397.33,363.93z M395.83,364.83l2.74,2.79L395.83,364.83z M387.62,367.42l-0.41-3.49L387.62,367.42z M392.82,366.22l2.33,3.09
	L392.82,366.22z M385.02,370.9H218.79v-6.97h166.23V370.9z M405.13,363.03l-3.69,2.79l-6.84-4.88l3.69-2.79L405.13,363.03z
	 M415.8,352.78l-3.01,3.58l-8.21-3.58l3.01-3.58L415.8,352.78z M408.82,360.15l-3.69,2.89l-6.98-4.78l3.69-2.89L408.82,360.15z
	 M412.79,356.36c-0.68,0.8-1.23,1.39-1.78,1.99l-7.66-4.18c0.27-0.2,0.41-0.5,1.23-1.39L412.79,356.36z M401.84,355.37
	c0.96-0.8,1.23-1,1.5-1.19l7.66,4.18c-0.55,0.6-1.23,1.1-2.19,1.79L401.84,355.37z M401.43,365.82c-0.27,0.2-0.55,0.4-0.82,0.6
	l-6.7-4.98c0.14-0.1,0.14-0.1,0.55-0.4L401.43,365.82z M392.4,362.34c0.41-0.2,0.55-0.3,0.68-0.3l5.61,5.68
	c-0.27,0.1-0.55,0.3-0.96,0.5L392.4,362.34z M400.61,366.42c-0.68,0.5-1.37,0.9-2.05,1.29l-5.61-5.68c0.41-0.2,0.68-0.4,0.96-0.6
	L400.61,366.42z M385.02,363.93c1.37,0,1.78,0,2.19,0l0.96,6.97c-0.96,0.1-1.78,0.1-3.01,0.1v-7.07H385.02z M397.74,368.11
	c-0.96,0.5-1.78,0.9-2.6,1.19l-4.51-6.17c0.27-0.1,0.68-0.3,1.78-0.8L397.74,368.11z M387.21,363.93c1.23-0.1,2.33-0.3,3.42-0.7
	l4.51,6.17c-2.19,0.9-4.51,1.39-6.98,1.59L387.21,363.93z"/>
<path class="st3" d="M412.75,24v645.96"/>
<path class="st4" d="M409.1,669.96c-0.14-1.98,1.34-3.61,3.32-3.61s3.75,1.63,3.82,3.68L409.1,669.96z M541.83,811.17
	c1.48,1.48,1.48,3.75,0.14,5.09c-1.34,1.34-3.68,1.27-5.09-0.14L541.83,811.17z M415.04,687.78l3.25-1.41L415.04,687.78z
	 M414.76,687.22l-3.32,1.2L414.76,687.22z M413.34,680.43l3.61,0.07L413.34,680.43z M413.41,681.91l-3.61,0.21L413.41,681.91z
	 M413.49,682.12l-3.61,0.35L413.49,682.12z M418.22,692.52l-2.69,2.26L418.22,692.52z M418.15,692.31l2.76-2.19L418.15,692.31z
	 M536.88,816.12L433.92,713.17l4.95-4.95L541.9,811.24l-4.95,4.95L536.88,816.12z M433.92,713.17l-16.97-16.97l4.95-4.95
	l16.97,16.97L433.92,713.17z M409.67,680.43l-0.71-10.47h7.21l0.71,10.47H409.67z M414.19,692.87c-1.06-1.48-1.84-2.55-2.4-3.68
	l6.51-2.83c0.21,0.49,0.57,0.99,1.77,2.62L414.19,692.87z M417.3,683.11c0.49,1.91,0.64,2.47,0.85,2.97l-6.65,2.4
	c-0.49-1.2-0.78-2.47-1.2-4.17L417.3,683.11z M411.79,689.2c-0.14-0.28-0.21-0.49-0.35-0.78l6.65-2.4c0.07,0.07,0.07,0.21,0.21,0.35
	L411.79,689.2z M416.95,680.5c0.07,0.78,0.07,1.06,0.07,1.2l-7.14,0.49c-0.07-0.49-0.07-1.06-0.14-1.7h7.21V680.5z M410.23,684.25
	c-0.14-0.71-0.21-1.2-0.35-1.77l7.14-0.64c0.07,0.21,0.14,0.42,0.21,1.2L410.23,684.25z M417.02,681.7v0.14l-7.14,0.64
	c0-0.14-0.07-0.21-0.07-0.35L417.02,681.7z M416.95,696.2c-0.57-0.57-0.99-0.99-1.41-1.41l5.37-4.53c0.14,0.14,0.35,0.35,0.99,0.99
	L416.95,696.2z M419.99,689.05c0.49,0.78,0.71,0.99,0.85,1.13l-5.52,4.38c-0.35-0.49-0.71-0.99-1.2-1.63L419.99,689.05z
	 M415.54,694.78c-0.07-0.07-0.14-0.14-0.21-0.21l5.52-4.38l0.07,0.07L415.54,694.78z"/>
<path class="st5" d="M600.14,93.03c5.53,0,9.9-4.37,9.9-9.89c0-5.53-4.37-9.9-9.9-9.9s-9.9,4.37-9.9,9.9S594.61,93.03,600.14,93.03z
	"/>
<text transform="matrix(1 0 0 1 535.217 140.4551)" class="st6 st7 st8">Sponsored by </text>
<text transform="matrix(1 0 0 1 639.397 140.4551)" class="st9 st7 st8">ADI</text>
<text transform="matrix(1 -2.610000e-03 2.610000e-03 1 505.8836 119.3041)" class="st10 st7 st11">Best Beginner Hack</text>
<text transform="matrix(0.9931 0 0 1 545.7666 214.1885)" class="st12 st7 st8"> </text>
<path class="st5" d="M289.14,178.03c5.53,0,9.9-4.37,9.9-9.9s-4.37-9.9-9.9-9.9s-9.9,4.37-9.9,9.9S283.61,178.03,289.14,178.03z"/>
<text transform="matrix(1 -2.610000e-03 2.610000e-03 1 224.4165 203.4724)" class="st10 st7 st11">Best Hack for</text>
<text transform="matrix(1 -2.610000e-03 2.610000e-03 1 230.6092 227.4564)" class="st10 st7 st11">Social Good</text>
<text transform="matrix(1 0 0 1 221.2111 246.4551)" class="st6 st7 st8">Sponsored by </text>
<text transform="matrix(1 0 0 1 325.3911 246.4551)" class="st9 st7 st8">ADI</text>
<text transform="matrix(1 -4.202660e-03 4.202660e-03 1 224.6459 274.2618)" class="st10 st7 st8">Amazon Echo for </text>
<text transform="matrix(1 -4.202660e-03 4.202660e-03 1 215.4716 292.3007)" class="st10 st7 st8">each member of the </text>
<text transform="matrix(1 -4.202660e-03 4.202660e-03 1 240.7272 310.1949)" class="st10 st7 st8">winning team</text>
<path class="st5" d="M412.14,34.03c5.53,0,9.9-4.37,9.9-9.89s-4.37-9.9-9.9-9.9s-9.9,4.37-9.9,9.9S406.61,34.03,412.14,34.03z"/>
<path class="st5" d="M209.14,377.03c5.53,0,9.9-4.37,9.9-9.89s-4.37-9.89-9.9-9.89s-9.9,4.37-9.9,9.89S203.61,377.03,209.14,377.03z
	"/>
<path class="st5" d="M413.14,150.03c5.53,0,9.9-4.37,9.9-9.9s-4.37-9.9-9.9-9.9s-9.9,4.37-9.9,9.9S407.61,150.03,413.14,150.03z"/>
<path class="st5" d="M540.14,823.03c5.53,0,9.9-4.37,9.9-9.9s-4.37-9.89-9.9-9.89s-9.9,4.37-9.9,9.89
	C530.24,818.67,534.61,823.03,540.14,823.03z"/>
<text transform="matrix(1 -2.610000e-03 2.610000e-03 1 111.8836 404.3041)" class="st10 st7 st11">Best Financial Hack</text>
<text transform="matrix(1 0 0 1 113.217 427.4551)" class="st6 st7 st8">Sponsored by </text>
<text transform="matrix(1 0 0 1 217.397 427.4551)" class="st9 st7 st8">CapitalOne</text>
<text transform="matrix(1 -2.610000e-03 2.610000e-03 1 379.8836 853.3041)" class="st10 st7 st11">Best Use of the Google Cloud Platform</text>
<text transform="matrix(1 0 0 1 472.217 876.4551)" class="st6 st7 st8">Sponsored by </text>
<text transform="matrix(1 0 0 1 576.397 876.4551)" class="st9 st7 st8">Google</text>
<text transform="matrix(1 0 0 1 447.9541 904.9922)" class="st10 st7 st8"> Google Home Mini for each </text>
<text transform="matrix(1 0 0 1 447.5641 922.9922)" class="st10 st7 st8">member of the winning team</text>
<path class="st0" d="M421.33,349.99c-2.05,2.25-6.55,3.1-9.83,1.69c-3.48-1.41-4.5-4.51-2.46-6.76L421.33,349.99z M703.84,319.28
	c3.89,0,7.16,2.25,7.16,4.93s-3.28,4.93-7.16,4.93V319.28z M430.13,333.79l-5.32-3.38l0,0L430.13,333.79z M424.61,337.88l-5.32-3.38
	L424.61,337.88z M421.94,339.99l5.73,2.96L421.94,339.99z M435.66,329.85l-5.12-3.38L435.66,329.85z M436.68,329.14l-4.91-3.52
	L436.68,329.14z M438.94,327.87l-4.09-3.94L438.94,327.87z M451.22,324.21l0.61,4.93L451.22,324.21z M443.44,325.9l-3.48-4.37
	L443.44,325.9z M455.11,319.28h248.73v9.86H455.11V319.28z M425.02,330.41l5.53-3.94l10.24,6.9l-5.53,3.94L425.02,330.41z
	 M409.05,344.92l4.5-5.07l12.28,5.07l-4.5,5.07L409.05,344.92z M419.49,334.5l5.53-4.09l10.44,6.76l-5.53,4.09L419.49,334.5z
	 M413.55,339.85c1.02-1.13,1.84-1.97,2.66-2.82l11.46,5.92c-0.41,0.28-0.61,0.7-1.84,1.97L413.55,339.85z M429.93,341.26
	c-1.43,1.13-1.84,1.41-2.25,1.69l-11.46-5.92c0.82-0.85,1.84-1.55,3.28-2.54L429.93,341.26z M430.54,326.46
	c0.41-0.28,0.82-0.56,1.23-0.85l10.03,7.04c-0.2,0.14-0.2,0.14-0.82,0.56L430.54,326.46z M444.05,331.4
	c-0.61,0.28-0.82,0.42-1.02,0.42l-8.39-8.03c0.41-0.14,0.82-0.42,1.43-0.7L444.05,331.4z M431.77,325.62
	c1.02-0.7,2.05-1.27,3.07-1.83l8.39,8.03c-0.61,0.28-1.02,0.56-1.43,0.85L431.77,325.62z M455.11,329.14c-2.05,0-2.66,0-3.28,0
	l-1.43-9.86c1.43-0.14,2.66-0.14,4.5-0.14v10H455.11z M436.07,323.22c1.43-0.7,2.66-1.27,3.89-1.69l6.76,8.74
	c-0.41,0.14-1.02,0.42-2.66,1.13L436.07,323.22z M451.83,329.14c-1.84,0.14-3.48,0.42-5.12,0.99l-6.76-8.74
	c3.28-1.27,6.76-1.97,10.44-2.25L451.83,329.14z"/>
<path class="st5" d="M413.14,353.03c5.53,0,9.9-4.37,9.9-9.89s-4.37-9.89-9.9-9.89s-9.9,4.37-9.9,9.89S407.61,353.03,413.14,353.03z
	"/>
<path class="st5" d="M711.14,334.03c5.53,0,9.9-4.37,9.9-9.89s-4.37-9.89-9.9-9.89s-9.9,4.37-9.9,9.89S705.61,334.03,711.14,334.03z
	"/>
<text transform="matrix(1 -2.610000e-03 2.610000e-03 1 551.8837 360.3041)" class="st10 st7 st11">Best Use of Facebook’s Mission</text>
<text transform="matrix(1 0 0 1 618.217 381.4551)" class="st6 st7 st8">Sponsored by </text>
<text transform="matrix(1 0 0 1 722.397 381.4551)" class="st9 st7 st8">Facebook</text>
<path class="st1" d="M421.46,458.44c-1.34-3.12-5.17-4.67-8.61-3.46c-3.44,1.21-5.17,4.67-3.83,7.79L421.46,458.44z M589.3,496
	c3.64,0,6.7-2.77,6.7-6.06s-3.06-6.06-6.7-6.06V496z M424.14,477.82l-5.74,3.12c0,0.17,0.19,0.17,0.19,0.35L424.14,477.82z
	 M419.16,470.03l-5.93,2.6L419.16,470.03z M427.77,482.5l-5.55,3.46L427.77,482.5z M443.08,496H589.3v-12.12H443.08V496z
	 M418.59,481.29l3.44,4.67l11.1-6.75l-3.44-4.67L418.59,481.29z M408.83,462.59l2.87,6.92l12.44-4.33l-2.87-6.92L408.83,462.59z
	 M414.95,475.57l3.44,5.37l11.48-6.06l-3.44-5.37L414.95,475.57z M411.7,469.51c0.57,1.21,0.96,2.25,1.34,3.12l12.06-5.19
	c-0.19-0.35-0.38-0.69-0.96-2.25L411.7,469.51z M426.62,469.51c-0.77-1.38-1.15-1.73-1.34-2.08l-12.06,5.19
	c0.57,0.87,0.96,1.73,1.72,2.94L426.62,469.51z M422.22,485.96c0.96,1.21,1.91,2.42,3.06,3.46l9.38-8.66
	c-0.57-0.52-0.96-1.04-1.53-1.56L422.22,485.96z M443.08,483.88c-3.06,0-6.12-1.04-8.42-3.12l-9.38,8.66
	c4.78,4.33,11.1,6.58,17.8,6.58L443.08,483.88L443.08,483.88z"/>
<path class="st5" d="M413.14,467.03c5.53,0,9.9-4.37,9.9-9.89s-4.37-9.89-9.9-9.89s-9.9,4.37-9.9,9.89S407.61,467.03,413.14,467.03z
	"/>
<text transform="matrix(1 -2.610000e-03 2.610000e-03 1 487.8836 518.3041)" class="st10 st7 st11">Best Hack for Sustainability</text>
<text transform="matrix(0.894 0 0 1 500.2168 541.3555)" class="st6 st7 st13">Sponsored by </text>
<text transform="matrix(0.894 0 0 1 604.3496 541.3555)" class="st9 st7 st13">Columbia EcoReps</text>
<text transform="matrix(1 -4.202660e-03 4.202660e-03 1 597.6343 563.077)" class="st10 st7 st14">$250</text>
<path class="st5" d="M591.14,498.03c5.53,0,9.9-4.37,9.9-9.89s-4.37-9.89-9.9-9.89s-9.9,4.37-9.9,9.89S585.61,498.03,591.14,498.03z
	"/>
<text transform="matrix(1 -4.202660e-03 4.202660e-03 1 508.9415 171.8927)" class="st10 st7 st8">UE Wonderboom Speaker</text>
<text transform="matrix(1 -4.202660e-03 4.202660e-03 1 517.6119 189.5446)" class="st10 st7 st8">for each member of the </text>
<text transform="matrix(1 -4.202660e-03 4.202660e-03 1 542.8676 207.4388)" class="st10 st7 st8">the winning team</text>
<path class="st1" d="M406.21,589.36c1.34-3.12,5.17-4.67,8.61-3.46c3.44,1.21,5.17,4.67,3.83,7.79L406.21,589.36z M238.37,626.92
	c-3.64,0-6.7-2.77-6.7-6.06c0-3.29,3.06-6.06,6.7-6.06V626.92z M403.53,608.74l5.74,3.12c0,0.17-0.19,0.17-0.19,0.35L403.53,608.74z
	 M408.51,600.95l5.93,2.6L408.51,600.95z M399.9,613.42l5.55,3.46L399.9,613.42z M384.59,626.92H238.37V614.8h146.22V626.92z
	 M409.08,612.21l-3.44,4.67l-11.1-6.75l3.44-4.67L409.08,612.21z M418.84,593.51l-2.87,6.92l-12.44-4.33l2.87-6.92L418.84,593.51z
	 M412.72,606.49l-3.44,5.37l-11.48-6.06l3.44-5.37L412.72,606.49z M415.97,600.43c-0.57,1.21-0.96,2.25-1.34,3.12l-12.06-5.19
	c0.19-0.35,0.38-0.69,0.96-2.25L415.97,600.43z M401.05,600.43c0.77-1.38,1.15-1.73,1.34-2.08l12.06,5.19
	c-0.57,0.87-0.96,1.73-1.72,2.94L401.05,600.43z M405.45,616.88c-0.96,1.21-1.91,2.42-3.06,3.46l-9.38-8.66
	c0.57-0.52,0.96-1.04,1.53-1.56L405.45,616.88z M384.59,614.8c3.06,0,6.12-1.04,8.42-3.12l9.38,8.66c-4.78,4.33-11.1,6.58-17.8,6.58
	L384.59,614.8L384.59,614.8z"/>
<path class="st5" d="M230.61,631.29c5.53,0,9.9-4.37,9.9-9.89s-4.37-9.89-9.9-9.89s-9.9,4.37-9.9,9.89S225.08,631.29,230.61,631.29z
	"/>
<text transform="matrix(1 -2.610000e-03 2.610000e-03 1 120.8856 655.3506)" class="st10 st7 st11">Best Educational Hack</text>
<text transform="matrix(0.894 0 0 1 134.2413 677.2599)" class="st6 st7 st13">Sponsored by </text>
<text transform="matrix(0.894 0 0 1 238.3741 677.2599)" class="st9 st7 st13">J.P. Morgan</text>
<text transform="matrix(1 -4.202660e-03 4.202660e-03 1 125.2167 703.65)" class="st10 st7 st8">Bose Soundlink Speakers for </text>
<text transform="matrix(1 -4.202660e-03 4.202660e-03 1 153.1407 721.2426)" class="st10 st7 st8">each member of the </text>
<text transform="matrix(1 -4.202660e-03 4.202660e-03 1 178.3964 739.1367)" class="st10 st7 st8">winning team</text>
<path class="st5" d="M412.92,590.79c5.53,0,9.9-4.37,9.9-9.89s-4.37-9.89-9.9-9.89s-9.9,4.37-9.9,9.89S407.39,590.79,412.92,590.79z
	"/>
</svg>
