<?xml version="1.0" encoding="utf-8"?>
<!-- Generator: Adobe Illustrator 23.0.1, SVG Export Plug-In . SVG Version: 6.00 Build 0)  -->
<svg version="1.1" id="Layer_1" xmlns="http://www.w3.org/2000/svg" xmlns:xlink="http://www.w3.org/1999/xlink" x="0px" y="0px"
	 viewBox="0 0 767 807" style="enable-background:new 0 0 767 807;" xml:space="preserve">
<style type="text/css">
	.st0{fill:#EC1C24;stroke:#EC1C24;stroke-width:3;stroke-miterlimit:10;}
	.st1{fill:#EC1C24;stroke:#EC1C24;stroke-width:0.75;stroke-miterlimit:10;}
	.st2{fill:#EC1C24;stroke:#EC1C24;stroke-width:5;stroke-miterlimit:10;}
	.st3{fill:#EC1C24;stroke:#EC1C24;stroke-width:10;stroke-linecap:round;stroke-linejoin:round;}
	.st4{fill:#EC1C24;stroke:#EC1C24;stroke-width:4;stroke-miterlimit:10;}
	.st5{fill:#FFFFFF;stroke:#231F20;stroke-miterlimit:10;}
	.st6{enable-background:new    ;}
	.st7{fill:#AAAAAA;}
	.st8{font-family:'Helvetica-Bold';}
	.st9{font-size:15px;}
	.st10{fill:#F2F2F2;}
	.st11{fill:#FFFFFF;}
	.st12{font-size:20px;}
	.st13{fill:#E6E6E6;}
</style>
<path class="st0" d="M310.59,177.42c0.93-2.58,3.57-3.87,5.95-2.87s3.57,3.87,2.64,6.45L310.59,177.42z M194.63,208.54
	c-2.51,0-4.63-2.29-4.63-5.02s2.12-5.02,4.63-5.02V208.54z M308.74,193.48l3.97,2.58c0,0.14-0.13,0.14-0.13,0.29L308.74,193.48z
	 M312.18,187.03l4.1,2.15L312.18,187.03z M306.23,197.35l3.83,2.87L306.23,197.35z M295.65,208.54H194.63V198.5h101.02V208.54z
	 M312.57,196.35l-2.38,3.87l-7.67-5.59l2.38-3.87L312.57,196.35z M319.32,180.86l-1.98,5.74l-8.59-3.58l1.98-5.74L319.32,180.86z
	 M315.09,191.62l-2.38,4.44l-7.93-5.02l2.38-4.44L315.09,191.62z M317.33,186.6c-0.4,1-0.66,1.86-0.93,2.58l-8.33-4.3
	c0.13-0.29,0.26-0.57,0.66-1.86L317.33,186.6z M307.02,186.6c0.53-1.15,0.79-1.43,0.93-1.72l8.33,4.3c-0.4,0.72-0.66,1.43-1.19,2.44
	L307.02,186.6z M310.06,200.22c-0.66,1-1.32,2.01-2.12,2.87l-6.48-7.17c0.4-0.43,0.66-0.86,1.06-1.29L310.06,200.22z M295.65,198.5
	c2.12,0,4.23-0.86,5.82-2.58l6.48,7.17c-3.31,3.58-7.67,5.45-12.3,5.45V198.5z"/>
<path class="st1" d="M325.46,53.44c-1.34-3.12-5.17-4.67-8.61-3.46c-3.44,1.21-5.17,4.67-3.83,7.79L325.46,53.44z M493.3,91
	c3.64,0,6.7-2.77,6.7-6.06s-3.06-6.06-6.7-6.06V91z M328.14,72.82l-5.74,3.12c0,0.17,0.19,0.17,0.19,0.35L328.14,72.82z
	 M323.16,65.03l-5.93,2.6L323.16,65.03z M331.77,77.5l-5.55,3.46L331.77,77.5z M347.08,91H493.3V78.88H347.08V91z M322.59,76.29
	l3.44,4.67l11.1-6.75l-3.44-4.67L322.59,76.29z M312.83,57.59l2.87,6.92l12.44-4.33l-2.87-6.92L312.83,57.59z M318.95,70.57
	l3.44,5.37l11.48-6.06l-3.44-5.37L318.95,70.57z M315.7,64.51c0.57,1.21,0.96,2.25,1.34,3.12l12.06-5.19
	c-0.19-0.35-0.38-0.69-0.96-2.25L315.7,64.51z M330.62,64.51c-0.77-1.38-1.15-1.73-1.34-2.08l-12.06,5.19
	c0.57,0.87,0.96,1.73,1.72,2.94L330.62,64.51z M326.22,80.96c0.96,1.21,1.91,2.42,3.06,3.46l9.38-8.66
	c-0.57-0.52-0.96-1.04-1.53-1.56L326.22,80.96z M347.08,78.88c-3.06,0-6.12-1.04-8.42-3.12l-9.38,8.66
	c4.78,4.33,11.1,6.58,17.8,6.58V78.88z"/>
<path class="st2" d="M308.59,427.19c1.37-1.59,4.38-2.19,6.57-1.19c2.33,1,3.01,3.19,1.64,4.78L308.59,427.19z M119.79,448.9
	c-2.6,0-4.79-1.59-4.79-3.49s2.19-3.49,4.79-3.49V448.9z M302.71,438.64l3.56,2.39l0,0L302.71,438.64z M306.4,435.76l3.56,2.39
	L306.4,435.76z M308.18,434.26l-3.83-2.09L308.18,434.26z M299.01,441.43l3.42,2.39L299.01,441.43z M298.33,441.93l3.28,2.49
	L298.33,441.93z M296.83,442.83l2.74,2.79L296.83,442.83z M288.62,445.42l-0.41-3.49L288.62,445.42z M293.82,444.22l2.33,3.09
	L293.82,444.22z M286.02,448.9H119.79v-6.97h166.23V448.9z M306.13,441.03l-3.69,2.79l-6.84-4.88l3.69-2.79L306.13,441.03z
	 M316.8,430.78l-3.01,3.58l-8.21-3.58l3.01-3.58L316.8,430.78z M309.82,438.15l-3.69,2.89l-6.98-4.78l3.69-2.89L309.82,438.15z
	 M313.79,434.36c-0.68,0.8-1.23,1.39-1.78,1.99l-7.66-4.18c0.27-0.2,0.41-0.5,1.23-1.39L313.79,434.36z M302.84,433.37
	c0.96-0.8,1.23-1,1.5-1.19l7.66,4.18c-0.55,0.6-1.23,1.1-2.19,1.79L302.84,433.37z M302.43,443.82c-0.27,0.2-0.55,0.4-0.82,0.6
	l-6.7-4.98c0.14-0.1,0.14-0.1,0.55-0.4L302.43,443.82z M293.4,440.34c0.41-0.2,0.55-0.3,0.68-0.3l5.61,5.68
	c-0.27,0.1-0.55,0.3-0.96,0.5L293.4,440.34z M301.61,444.42c-0.68,0.5-1.37,0.9-2.05,1.29l-5.61-5.68c0.41-0.2,0.68-0.4,0.96-0.6
	L301.61,444.42z M286.02,441.93c1.37,0,1.78,0,2.19,0l0.96,6.97c-0.96,0.1-1.78,0.1-3.01,0.1v-7.07H286.02z M298.74,446.11
	c-0.96,0.5-1.78,0.9-2.6,1.19l-4.51-6.17c0.27-0.1,0.68-0.3,1.78-0.8L298.74,446.11z M288.21,441.93c1.23-0.1,2.33-0.3,3.42-0.7
	l4.51,6.17c-2.19,0.9-4.51,1.39-6.98,1.59L288.21,441.93z"/>
<path class="st3" d="M317.34,24v488"/>
<path class="st4" d="M314.1,499.96c-0.14-1.98,1.34-3.61,3.32-3.61s3.75,1.63,3.82,3.68L314.1,499.96z M446.83,641.17
	c1.48,1.48,1.48,3.75,0.14,5.09s-3.68,1.27-5.09-0.14L446.83,641.17z M320.04,517.78l3.25-1.41L320.04,517.78z M319.76,517.22
	l-3.32,1.2L319.76,517.22z M318.34,510.43l3.61,0.07L318.34,510.43z M318.41,511.91l-3.61,0.21L318.41,511.91z M318.49,512.12
	l-3.61,0.35L318.49,512.12z M323.22,522.52l-2.69,2.26L323.22,522.52z M323.15,522.31l2.76-2.19L323.15,522.31z M441.88,646.12
	L338.92,543.17l4.95-4.95L446.9,641.24l-4.95,4.95L441.88,646.12z M338.92,543.17l-16.97-16.97l4.95-4.95l16.97,16.97L338.92,543.17
	z M314.67,510.43l-0.71-10.47h7.21l0.71,10.47H314.67z M319.19,522.87c-1.06-1.48-1.84-2.55-2.4-3.68l6.51-2.83
	c0.21,0.49,0.57,0.99,1.77,2.62L319.19,522.87z M322.3,513.11c0.49,1.91,0.64,2.47,0.85,2.97l-6.65,2.4
	c-0.49-1.2-0.78-2.47-1.2-4.17L322.3,513.11z M316.79,519.2c-0.14-0.28-0.21-0.49-0.35-0.78l6.65-2.4c0.07,0.07,0.07,0.21,0.21,0.35
	L316.79,519.2z M321.95,510.5c0.07,0.78,0.07,1.06,0.07,1.2l-7.14,0.49c-0.07-0.49-0.07-1.06-0.14-1.7H321.95z M315.23,514.25
	c-0.14-0.71-0.21-1.2-0.35-1.77l7.14-0.64c0.07,0.21,0.14,0.42,0.21,1.2L315.23,514.25z M322.02,511.7l0,0.14l-7.14,0.64
	c0-0.14-0.07-0.21-0.07-0.35L322.02,511.7z M321.95,526.2c-0.57-0.57-0.99-0.99-1.41-1.41l5.37-4.53c0.14,0.14,0.35,0.35,0.99,0.99
	L321.95,526.2z M324.99,519.05c0.49,0.78,0.71,0.99,0.85,1.13l-5.52,4.38c-0.35-0.49-0.71-0.99-1.2-1.63L324.99,519.05z
	 M320.54,524.78c-0.07-0.07-0.14-0.14-0.21-0.21l5.52-4.38l0.07,0.07L320.54,524.78z"/>
<path class="st5" d="M505.14,93.03c5.53,0,9.9-4.37,9.9-9.89c0-5.53-4.37-9.9-9.9-9.9s-9.9,4.37-9.9,9.9
	C495.24,88.67,499.61,93.03,505.14,93.03z"/>
<text transform="matrix(1 0 0 1 440.217 140.4551)" class="st6"><tspan x="0" y="0" class="st7 st8 st9">Sponsored by </tspan><tspan x="104.18" y="0" class="st10 st8 st9">ADI</tspan></text>
<text transform="matrix(1 -2.610267e-03 2.610267e-03 1 410.94 119.3546)" class="st11 st8 st12">Best Beginner Hack</text>
<text transform="matrix(0.9931 0 0 1 405.7158 170.689)" class="st6"><tspan x="0" y="0" class="st13 st8 st9">Bose SoundLink Bluetooth </tspan><tspan x="2.45" y="18" class="st13 st8 st9">Speakers for each member</tspan><tspan x="27.91" y="36" class="st13 st8 st9">of the winning team</tspan></text>
<text transform="matrix(0.9931 0 0 1 450.7666 214.1885)" class="st13 st8 st9"> </text>
<path class="st5" d="M190.14,213.03c5.53,0,9.9-4.37,9.9-9.9s-4.37-9.9-9.9-9.9s-9.9,4.37-9.9,9.9S184.61,213.03,190.14,213.03z"/>
<text transform="matrix(1 -2.610267e-03 2.610267e-03 1 127.4724 244.5229)"><tspan x="0" y="0" class="st11 st8 st12">Best Hack for</tspan><tspan x="6.13" y="24" class="st11 st8 st12">Social Good</tspan></text>
<text transform="matrix(1 0 0 1 126.2111 292.4551)" class="st6"><tspan x="0" y="0" class="st7 st8 st9">Sponsored by </tspan><tspan x="104.18" y="0" class="st10 st8 st9">ADI</tspan></text>
<text transform="matrix(1 0 0 1 131.709 326.9922)"><tspan x="0" y="0" class="st11 st8 st9">Amazon Echo for </tspan><tspan x="-9.25" y="18" class="st11 st8 st9">each member of the </tspan><tspan x="15.93" y="36" class="st11 st8 st9">winning team</tspan></text>
<path class="st5" d="M316.14,34.03c5.53,0,9.9-4.37,9.9-9.89s-4.37-9.9-9.9-9.9s-9.9,4.37-9.9,9.9S310.61,34.03,316.14,34.03z"/>
<path class="st5" d="M114.14,455.03c5.53,0,9.9-4.37,9.9-9.89s-4.37-9.89-9.9-9.89c-5.53,0-9.9,4.37-9.9,9.89
	S108.61,455.03,114.14,455.03z"/>
<path class="st5" d="M316.14,182.03c5.53,0,9.9-4.37,9.9-9.9s-4.37-9.9-9.9-9.9s-9.9,4.37-9.9,9.9S310.61,182.03,316.14,182.03z"/>
<path class="st5" d="M445.14,653.03c5.53,0,9.9-4.37,9.9-9.9c0-5.53-4.37-9.89-9.9-9.89s-9.9,4.37-9.9,9.89
	C435.24,648.67,439.61,653.03,445.14,653.03z"/>
<text transform="matrix(1 -2.610267e-03 2.610267e-03 1 16.94 485.3546)" class="st11 st8 st12">Best Financial Hack</text>
<text transform="matrix(1 0 0 1 18.217 510.4551)" class="st6"><tspan x="0" y="0" class="st7 st8 st9">Sponsored by </tspan><tspan x="104.18" y="0" class="st10 st8 st9">CaptialOne</tspan></text>
<text transform="matrix(1 -2.610267e-03 2.610267e-03 1 284.94 683.3546)" class="st11 st8 st12">Best Use of the Google Cloud Platform</text>
<text transform="matrix(1 0 0 1 377.217 706.4551)" class="st6"><tspan x="0" y="0" class="st7 st8 st9">Sponsored by </tspan><tspan x="104.18" y="0" class="st10 st8 st9">Google</tspan></text>
<text transform="matrix(1 0 0 1 352.9541 734.9922)"><tspan x="0" y="0" class="st11 st8 st9"> Google Home Mini for each </tspan><tspan x="-0.39" y="18" class="st11 st8 st9">member of the winning team</tspan></text>
<path class="st2" d="M323.33,429.99c-2.05,2.25-6.55,3.1-9.83,1.69c-3.48-1.41-4.5-4.51-2.46-6.76L323.33,429.99z M605.84,399.28
	c3.89,0,7.16,2.25,7.16,4.93c0,2.68-3.28,4.93-7.16,4.93V399.28z M332.13,413.79l-5.32-3.38l0,0L332.13,413.79z M326.61,417.88
	l-5.32-3.38L326.61,417.88z M323.94,419.99l5.73,2.96L323.94,419.99z M337.66,409.85l-5.12-3.38L337.66,409.85z M338.68,409.14
	l-4.91-3.52L338.68,409.14z M340.94,407.87l-4.09-3.94L340.94,407.87z M353.22,404.21l0.61,4.93L353.22,404.21z M345.44,405.9
	l-3.48-4.37L345.44,405.9z M357.11,399.28h248.73v9.86H357.11V399.28z M327.02,410.41l5.53-3.94l10.24,6.9l-5.53,3.94L327.02,410.41
	z M311.05,424.92l4.5-5.07l12.28,5.07l-4.5,5.07L311.05,424.92z M321.49,414.5l5.53-4.09l10.44,6.76l-5.53,4.09L321.49,414.5z
	 M315.55,419.85c1.02-1.13,1.84-1.97,2.66-2.82l11.46,5.92c-0.41,0.28-0.61,0.7-1.84,1.97L315.55,419.85z M331.93,421.26
	c-1.43,1.13-1.84,1.41-2.25,1.69l-11.46-5.92c0.82-0.85,1.84-1.55,3.28-2.54L331.93,421.26z M332.54,406.46
	c0.41-0.28,0.82-0.56,1.23-0.85l10.03,7.04c-0.2,0.14-0.2,0.14-0.82,0.56L332.54,406.46z M346.05,411.4
	c-0.61,0.28-0.82,0.42-1.02,0.42l-8.39-8.03c0.41-0.14,0.82-0.42,1.43-0.7L346.05,411.4z M333.77,405.62
	c1.02-0.7,2.05-1.27,3.07-1.83l8.39,8.03c-0.61,0.28-1.02,0.56-1.43,0.85L333.77,405.62z M357.11,409.14c-2.05,0-2.66,0-3.28,0
	l-1.43-9.86c1.43-0.14,2.66-0.14,4.5-0.14v10H357.11z M338.07,403.22c1.43-0.7,2.66-1.27,3.89-1.69l6.76,8.74
	c-0.41,0.14-1.02,0.42-2.66,1.13L338.07,403.22z M353.83,409.14c-1.84,0.14-3.48,0.42-5.12,0.99l-6.76-8.74
	c3.28-1.27,6.76-1.97,10.44-2.25L353.83,409.14z"/>
<path class="st5" d="M317.14,437.03c5.53,0,9.9-4.37,9.9-9.89s-4.37-9.89-9.9-9.89s-9.9,4.37-9.9,9.89S311.61,437.03,317.14,437.03z
	"/>
<path class="st5" d="M606.14,414.03c5.53,0,9.9-4.37,9.9-9.89s-4.37-9.89-9.9-9.89c-5.53,0-9.9,4.37-9.9,9.89
	S600.61,414.03,606.14,414.03z"/>
<text transform="matrix(1 -2.610267e-03 2.610267e-03 1 456.94 444.3546)" class="st11 st8 st12">Best Use of Facebook’s Mission</text>
<text transform="matrix(1 0 0 1 523.217 466.4551)" class="st6"><tspan x="0" y="0" class="st7 st8 st9">Sponsored by </tspan><tspan x="104.18" y="0" class="st10 st8 st9">Facebook</tspan></text>
</svg>
