<?xml version="1.0" encoding="utf-8"?>
<!-- Generator: Adobe Illustrator 22.1.0, SVG Export Plug-In . SVG Version: 6.00 Build 0)  -->
<svg version="1.1" id="Layer_1" xmlns="http://www.w3.org/2000/svg" xmlns:xlink="http://www.w3.org/1999/xlink" x="0px" y="0px"
	 viewBox="0 0 440.5 14.7" style="enable-background:new 0 0 440.5 14.7;" xml:space="preserve">
<style type="text/css">
	.st0{fill:none;}
	.st1{fill:#FF0004;}
	.st2{fill:#FFFFFF;stroke:#231F20;stroke-miterlimit:10;}
</style>
<g>
	<line class="st0" x1="428.9" y1="7.5" x2="15.5" y2="8.1"/>
	<g>
		<path class="st1" d="M428.9,2.5c-46.5,0.1-93,0.1-139.9,0.2C215,2.8,140.9,2.9,66.4,3.1c-16.7,0-33.8,0.1-50.9,0.1
			c-10.5,0-10.5,10,0,10c46.5-0.1,93.4-0.1,139.9-0.2c74.1-0.1,148.6-0.2,222.7-0.3c16.7,0,33.8-0.1,50.9-0.1
			C439.5,12.5,439.5,2.5,428.9,2.5L428.9,2.5z"/>
	</g>
</g>
<circle class="st2" cx="433.6" cy="8.1" r="6.5"/>
</svg>
