<svg width="298" height="945" viewBox="0 0 298 945" fill="none" xmlns="http://www.w3.org/2000/svg">
<path d="M84.2428 110.683C83.5155 108.892 81.474 108.03 79.6831 108.757C77.8921 109.485 77.0299 111.526 77.7572 113.317L84.2428 110.683ZM172 131.5C173.933 131.5 175.5 129.933 175.5 128C175.5 126.067 173.933 124.5 172 124.5V131.5ZM85.7341 121.42L82.76 123.265C82.7705 123.282 82.7811 123.299 82.7919 123.316L85.7341 121.42ZM82.4645 115.606L79.2217 116.923L82.4645 115.606ZM84.0001 118.625L81.0261 120.47L84.0001 118.625ZM83.1362 117.165L86.2558 115.578L83.1362 117.165ZM87.6443 124.385L84.7021 126.28L87.6443 124.385ZM94.2742 131.5H172V124.5H94.2742V131.5ZM82.7919 123.316L84.7021 126.28L90.5865 122.489L88.6763 119.524L82.7919 123.316ZM77.7572 113.317L79.2217 116.923L85.7073 114.289L84.2428 110.683L77.7572 113.317ZM81.0261 120.47L82.76 123.265L88.7082 119.575L86.9742 116.78L81.0261 120.47ZM79.2217 116.923C79.5204 117.658 79.7417 118.211 80.0165 118.751L86.2558 115.578C86.1461 115.362 86.0478 115.128 85.7073 114.289L79.2217 116.923ZM86.9742 116.78C86.4971 116.011 86.3655 115.794 86.2558 115.578L80.0165 118.751C80.2914 119.292 80.6076 119.796 81.0261 120.47L86.9742 116.78ZM84.7021 126.28C85.1388 126.958 85.6462 127.588 86.2158 128.158L91.1697 123.213C90.9503 122.993 90.7548 122.75 90.5865 122.489L84.7021 126.28ZM94.2742 124.5C93.1095 124.5 91.9926 124.037 91.1697 123.213L86.2158 128.158C88.3518 130.298 91.251 131.5 94.2742 131.5V124.5Z" fill="#9E2064"/>
<path d="M81 81L81 941" stroke="#9E2064" stroke-width="7" stroke-linecap="round" stroke-linejoin="round"/>
<path d="M84.2693 324.75C83.5792 322.945 81.556 322.041 79.7504 322.731C77.9448 323.421 77.0405 325.444 77.7307 327.25L84.2693 324.75ZM172 346.5C173.933 346.5 175.5 344.933 175.5 343C175.5 341.067 173.933 339.5 172 339.5V346.5ZM85.7341 336.009L82.7117 337.774C82.7504 337.84 82.7912 337.905 82.8341 337.968L85.7341 336.009ZM83.1342 331.49L79.9778 333.003L83.1342 331.49ZM87.569 338.724L84.669 340.684L87.569 338.724ZM95.6187 346.5H172V339.5H95.6187V346.5ZM82.8341 337.968L84.669 340.684L90.469 336.765L88.6341 334.049L82.8341 337.968ZM77.7307 327.25L79.2499 331.224L85.7885 328.725L84.2693 324.75L77.7307 327.25ZM80.9077 334.684L82.7117 337.774L88.7565 334.244L86.9525 331.154L80.9077 334.684ZM79.2499 331.224C79.523 331.939 79.7253 332.476 79.9778 333.003L86.2906 329.978C86.1898 329.768 86.0999 329.54 85.7885 328.725L79.2499 331.224ZM86.9525 331.154C86.5127 330.401 86.3914 330.188 86.2906 329.978L79.9778 333.003C80.2304 333.53 80.522 334.024 80.9077 334.684L86.9525 331.154ZM84.669 340.684C85.1504 341.396 85.7002 342.06 86.3106 342.666L91.2411 337.697C90.954 337.412 90.6954 337.1 90.469 336.765L84.669 340.684ZM95.6187 339.5C93.9787 339.5 92.4052 338.852 91.2411 337.697L86.3106 342.666C88.7859 345.122 92.1316 346.5 95.6187 346.5V339.5Z" fill="#9E2064"/>
<path d="M171.8 134.6C175.556 134.6 178.6 131.556 178.6 127.8C178.6 124.044 175.556 121 171.8 121C168.044 121 165 124.044 165 127.8C165 131.556 168.044 134.6 171.8 134.6Z" fill="white" stroke="#231F20" stroke-miterlimit="10"/>
<path d="M172.8 349.6C176.556 349.6 179.6 346.556 179.6 342.8C179.6 339.044 176.556 336 172.8 336C169.044 336 166 339.044 166 342.8C166 346.556 169.044 349.6 172.8 349.6Z" fill="white" stroke="#231F20" stroke-miterlimit="10"/>
<path d="M124.391 357.5H132.555V359.523H126.781V362.172H131.836V364.172H126.781V369H124.391V357.5ZM136.211 360.484V365.617C136.211 366.102 136.268 366.466 136.383 366.711C136.586 367.143 136.984 367.359 137.578 367.359C138.339 367.359 138.859 367.052 139.141 366.438C139.286 366.104 139.359 365.664 139.359 365.117V360.484H141.617V369H139.453V367.797C139.432 367.823 139.38 367.901 139.297 368.031C139.214 368.161 139.115 368.276 139 368.375C138.651 368.688 138.312 368.901 137.984 369.016C137.661 369.13 137.281 369.188 136.844 369.188C135.583 369.188 134.734 368.734 134.297 367.828C134.052 367.328 133.93 366.591 133.93 365.617V360.484H136.211ZM148.492 360.281C149.372 360.281 150.091 360.513 150.648 360.977C151.211 361.435 151.492 362.198 151.492 363.266V369H149.211V363.82C149.211 363.372 149.151 363.029 149.031 362.789C148.812 362.352 148.396 362.133 147.781 362.133C147.026 362.133 146.508 362.453 146.227 363.094C146.081 363.432 146.008 363.865 146.008 364.391V369H143.789V360.5H145.938V361.742C146.224 361.305 146.495 360.99 146.75 360.797C147.208 360.453 147.789 360.281 148.492 360.281ZM166.703 359.523H160.609V361.969H166.203V363.969H160.609V366.93H166.984V369H158.258V357.484H166.703V359.523ZM173.93 360.484H176.32L173.25 369H170.898L167.844 360.484H170.344L172.117 366.766L173.93 360.484ZM180.945 362.094C180.43 362.094 180.029 362.255 179.742 362.578C179.461 362.901 179.284 363.339 179.211 363.891H182.672C182.635 363.302 182.456 362.857 182.133 362.555C181.815 362.247 181.419 362.094 180.945 362.094ZM180.945 360.258C181.654 360.258 182.292 360.391 182.859 360.656C183.427 360.922 183.896 361.341 184.266 361.914C184.599 362.419 184.815 363.005 184.914 363.672C184.971 364.062 184.995 364.625 184.984 365.359H179.156C179.188 366.214 179.456 366.812 179.961 367.156C180.268 367.37 180.638 367.477 181.07 367.477C181.529 367.477 181.901 367.346 182.188 367.086C182.344 366.945 182.482 366.75 182.602 366.5H184.875C184.818 367.005 184.555 367.518 184.086 368.039C183.357 368.867 182.336 369.281 181.023 369.281C179.94 369.281 178.984 368.932 178.156 368.234C177.328 367.536 176.914 366.401 176.914 364.828C176.914 363.354 177.286 362.224 178.031 361.438C178.781 360.651 179.753 360.258 180.945 360.258ZM191.211 360.281C192.091 360.281 192.81 360.513 193.367 360.977C193.93 361.435 194.211 362.198 194.211 363.266V369H191.93V363.82C191.93 363.372 191.87 363.029 191.75 362.789C191.531 362.352 191.115 362.133 190.5 362.133C189.745 362.133 189.227 362.453 188.945 363.094C188.799 363.432 188.727 363.865 188.727 364.391V369H186.508V360.5H188.656V361.742C188.943 361.305 189.214 360.99 189.469 360.797C189.927 360.453 190.508 360.281 191.211 360.281ZM195.398 362.148V360.562H196.586V358.188H198.789V360.562H200.172V362.148H198.789V366.648C198.789 366.997 198.833 367.216 198.922 367.305C199.01 367.388 199.281 367.43 199.734 367.43C199.802 367.43 199.872 367.43 199.945 367.43C200.023 367.424 200.099 367.419 200.172 367.414V369.078L199.117 369.117C198.065 369.154 197.346 368.971 196.961 368.57C196.711 368.315 196.586 367.922 196.586 367.391V362.148H195.398ZM209.789 364.562L210.422 362.281H209.125L208.516 364.562H209.789ZM205.367 364.562H206.953L207.57 362.281H205.977L206.328 360.969H207.922L208.773 357.82H210.328L209.477 360.969H210.773L211.602 357.82H213.156L212.328 360.969H213.898L213.547 362.281H211.977L211.344 364.562H212.938L212.586 365.875H210.992L210.156 369H208.602L209.438 365.875H208.156L207.305 369H205.75L206.602 365.875H205.016L205.367 364.562ZM214.422 369C214.443 368.188 214.617 367.445 214.945 366.773C215.263 366.018 216.013 365.219 217.195 364.375C218.221 363.641 218.885 363.115 219.188 362.797C219.651 362.302 219.883 361.76 219.883 361.172C219.883 360.693 219.75 360.294 219.484 359.977C219.219 359.659 218.839 359.5 218.344 359.5C217.667 359.5 217.206 359.753 216.961 360.258C216.82 360.549 216.737 361.013 216.711 361.648H214.547C214.583 360.685 214.758 359.906 215.07 359.312C215.664 358.182 216.719 357.617 218.234 357.617C219.432 357.617 220.385 357.951 221.094 358.617C221.802 359.279 222.156 360.156 222.156 361.25C222.156 362.089 221.906 362.833 221.406 363.484C221.078 363.917 220.539 364.398 219.789 364.93L218.898 365.562C218.341 365.958 217.958 366.245 217.75 366.422C217.547 366.599 217.375 366.805 217.234 367.039H222.18V369H214.422Z" fill="white"/>
<path d="M152.912 393.03H154.416V398.933H157.98V400.227H152.912V393.03ZM161.301 399.246C161.708 399.246 162.02 399.101 162.238 398.811C162.456 398.522 162.565 398.11 162.565 397.576C162.565 397.042 162.456 396.632 162.238 396.345C162.02 396.056 161.708 395.911 161.301 395.911C160.894 395.911 160.58 396.056 160.358 396.345C160.14 396.632 160.031 397.042 160.031 397.576C160.031 398.11 160.14 398.522 160.358 398.811C160.58 399.101 160.894 399.246 161.301 399.246ZM164.025 397.576C164.025 398.357 163.801 399.026 163.352 399.583C162.902 400.136 162.22 400.413 161.306 400.413C160.391 400.413 159.709 400.136 159.26 399.583C158.811 399.026 158.586 398.357 158.586 397.576C158.586 396.808 158.811 396.142 159.26 395.579C159.709 395.016 160.391 394.734 161.306 394.734C162.22 394.734 162.902 395.016 163.352 395.579C163.801 396.142 164.025 396.808 164.025 397.576ZM168.205 396.814C168.179 396.616 168.112 396.437 168.005 396.277C167.849 396.062 167.606 395.955 167.277 395.955C166.809 395.955 166.488 396.188 166.315 396.653C166.224 396.9 166.179 397.229 166.179 397.639C166.179 398.03 166.224 398.344 166.315 398.582C166.481 399.024 166.794 399.246 167.253 399.246C167.578 399.246 167.81 399.158 167.946 398.982C168.083 398.806 168.166 398.579 168.195 398.299H169.616C169.584 398.722 169.431 399.122 169.157 399.5C168.721 400.108 168.075 400.413 167.219 400.413C166.363 400.413 165.733 400.159 165.329 399.651C164.925 399.143 164.724 398.484 164.724 397.674C164.724 396.759 164.947 396.048 165.393 395.54C165.839 395.032 166.454 394.778 167.238 394.778C167.906 394.778 168.451 394.928 168.874 395.227C169.3 395.527 169.553 396.056 169.631 396.814H168.205ZM173.527 397.639C173.439 397.695 173.35 397.74 173.259 397.776C173.171 397.809 173.049 397.84 172.893 397.869L172.58 397.927C172.287 397.98 172.077 398.043 171.95 398.118C171.735 398.245 171.628 398.442 171.628 398.709C171.628 398.946 171.693 399.119 171.823 399.226C171.957 399.33 172.118 399.383 172.307 399.383C172.606 399.383 172.881 399.295 173.132 399.119C173.386 398.943 173.518 398.622 173.527 398.157V397.639ZM172.683 396.99C172.94 396.957 173.124 396.917 173.234 396.868C173.433 396.783 173.532 396.651 173.532 396.472C173.532 396.254 173.456 396.105 173.303 396.023C173.153 395.939 172.932 395.896 172.639 395.896C172.31 395.896 172.077 395.978 171.94 396.14C171.843 396.261 171.778 396.424 171.745 396.629H170.402C170.432 396.163 170.562 395.781 170.793 395.481C171.161 395.012 171.792 394.778 172.688 394.778C173.27 394.778 173.788 394.894 174.24 395.125C174.693 395.356 174.919 395.792 174.919 396.433V398.875C174.919 399.044 174.922 399.249 174.929 399.49C174.938 399.672 174.966 399.796 175.012 399.861C175.057 399.926 175.126 399.98 175.217 400.022V400.227H173.703C173.661 400.12 173.632 400.019 173.615 399.925C173.599 399.83 173.586 399.723 173.576 399.602C173.384 399.811 173.163 399.988 172.912 400.134C172.613 400.307 172.274 400.393 171.896 400.393C171.415 400.393 171.016 400.257 170.7 399.983C170.388 399.706 170.231 399.316 170.231 398.811C170.231 398.157 170.484 397.683 170.988 397.39C171.265 397.231 171.672 397.117 172.209 397.049L172.683 396.99ZM175.612 395.945V394.954H176.354V393.469H177.731V394.954H178.596V395.945H177.731V398.758C177.731 398.976 177.759 399.112 177.814 399.168C177.87 399.22 178.039 399.246 178.322 399.246C178.365 399.246 178.409 399.246 178.454 399.246C178.503 399.243 178.55 399.239 178.596 399.236V400.276L177.937 400.301C177.279 400.323 176.83 400.209 176.589 399.959C176.433 399.799 176.354 399.553 176.354 399.221V395.945H175.612ZM180.92 394.27H179.509V392.986H180.92V394.27ZM179.509 394.905H180.92V400.227H179.509V394.905ZM184.66 399.246C185.067 399.246 185.38 399.101 185.598 398.811C185.816 398.522 185.925 398.11 185.925 397.576C185.925 397.042 185.816 396.632 185.598 396.345C185.38 396.056 185.067 395.911 184.66 395.911C184.253 395.911 183.939 396.056 183.718 396.345C183.5 396.632 183.391 397.042 183.391 397.576C183.391 398.11 183.5 398.522 183.718 398.811C183.939 399.101 184.253 399.246 184.66 399.246ZM187.385 397.576C187.385 398.357 187.16 399.026 186.711 399.583C186.262 400.136 185.58 400.413 184.665 400.413C183.75 400.413 183.068 400.136 182.619 399.583C182.17 399.026 181.945 398.357 181.945 397.576C181.945 396.808 182.17 396.142 182.619 395.579C183.068 395.016 183.75 394.734 184.665 394.734C185.58 394.734 186.262 395.016 186.711 395.579C187.16 396.142 187.385 396.808 187.385 397.576ZM191.335 394.778C191.885 394.778 192.334 394.923 192.683 395.213C193.034 395.499 193.21 395.976 193.21 396.643V400.227H191.784V396.99C191.784 396.71 191.747 396.495 191.672 396.345C191.535 396.072 191.275 395.935 190.891 395.935C190.419 395.935 190.095 396.135 189.919 396.536C189.828 396.747 189.782 397.018 189.782 397.346V400.227H188.396V394.915H189.738V395.691C189.917 395.418 190.087 395.221 190.246 395.1C190.533 394.885 190.896 394.778 191.335 394.778ZM147.668 407.583C147.668 407.861 147.74 408.078 147.883 408.231C148.029 408.385 148.229 408.462 148.484 408.462C148.74 408.462 148.939 408.385 149.082 408.231C149.228 408.078 149.301 407.861 149.301 407.583C149.301 407.294 149.227 407.075 149.078 406.926C148.932 406.775 148.734 406.7 148.484 406.7C148.234 406.7 148.035 406.775 147.887 406.926C147.741 407.075 147.668 407.294 147.668 407.583ZM146.512 407.657C146.512 407.339 146.583 407.051 146.727 406.794C146.872 406.536 147.085 406.342 147.363 406.212C147.09 406.029 146.911 405.833 146.828 405.622C146.747 405.408 146.707 405.209 146.707 405.024C146.707 404.613 146.862 404.262 147.172 403.973C147.482 403.682 147.919 403.536 148.484 403.536C149.049 403.536 149.487 403.682 149.797 403.973C150.107 404.262 150.262 404.613 150.262 405.024C150.262 405.209 150.22 405.408 150.137 405.622C150.056 405.833 149.879 406.016 149.605 406.173C149.884 406.329 150.094 406.536 150.234 406.794C150.375 407.051 150.445 407.339 150.445 407.657C150.445 408.134 150.268 408.54 149.914 408.876C149.562 409.209 149.07 409.376 148.438 409.376C147.805 409.376 147.326 409.209 147 408.876C146.674 408.54 146.512 408.134 146.512 407.657ZM147.77 405.149C147.77 405.355 147.832 405.523 147.957 405.653C148.085 405.783 148.26 405.848 148.484 405.848C148.711 405.848 148.885 405.783 149.008 405.653C149.133 405.523 149.195 405.355 149.195 405.149C149.195 404.925 149.133 404.751 149.008 404.626C148.885 404.498 148.711 404.434 148.484 404.434C148.26 404.434 148.085 404.498 147.957 404.626C147.832 404.751 147.77 404.925 147.77 405.149ZM151.66 405.137H152.844V406.301H151.66V405.137ZM151.66 408.063H152.844V409.227H151.66V408.063ZM154.805 406.45C154.805 407.101 154.858 407.6 154.965 407.946C155.072 408.29 155.29 408.462 155.621 408.462C155.952 408.462 156.168 408.29 156.27 407.946C156.374 407.6 156.426 407.101 156.426 406.45C156.426 405.768 156.374 405.262 156.27 404.934C156.168 404.606 155.952 404.442 155.621 404.442C155.29 404.442 155.072 404.606 154.965 404.934C154.858 405.262 154.805 405.768 154.805 406.45ZM155.621 403.524C156.342 403.524 156.848 403.778 157.137 404.286C157.428 404.794 157.574 405.515 157.574 406.45C157.574 407.385 157.428 408.105 157.137 408.61C156.848 409.115 156.342 409.368 155.621 409.368C154.9 409.368 154.393 409.115 154.102 408.61C153.812 408.105 153.668 407.385 153.668 406.45C153.668 405.515 153.812 404.794 154.102 404.286C154.393 403.778 154.9 403.524 155.621 403.524ZM159.258 406.45C159.258 407.101 159.311 407.6 159.418 407.946C159.525 408.29 159.743 408.462 160.074 408.462C160.405 408.462 160.621 408.29 160.723 407.946C160.827 407.6 160.879 407.101 160.879 406.45C160.879 405.768 160.827 405.262 160.723 404.934C160.621 404.606 160.405 404.442 160.074 404.442C159.743 404.442 159.525 404.606 159.418 404.934C159.311 405.262 159.258 405.768 159.258 406.45ZM160.074 403.524C160.796 403.524 161.301 403.778 161.59 404.286C161.882 404.794 162.027 405.515 162.027 406.45C162.027 407.385 161.882 408.105 161.59 408.61C161.301 409.115 160.796 409.368 160.074 409.368C159.353 409.368 158.846 409.115 158.555 408.61C158.266 408.105 158.121 407.385 158.121 406.45C158.121 405.515 158.266 404.794 158.555 404.286C158.846 403.778 159.353 403.524 160.074 403.524ZM164.734 406.469H166.977V407.524H164.734V406.469ZM169.68 405.555C169.68 404.949 169.854 404.458 170.203 404.083C170.555 403.705 171.01 403.516 171.57 403.516C172.432 403.516 173.023 403.898 173.344 404.661C173.526 405.093 173.617 405.662 173.617 406.368C173.617 407.053 173.53 407.624 173.355 408.083C173.022 408.955 172.41 409.391 171.52 409.391C171.095 409.391 170.714 409.266 170.375 409.016C170.036 408.764 169.842 408.397 169.793 407.915H170.902C170.928 408.081 170.999 408.217 171.113 408.321C171.228 408.425 171.38 408.477 171.57 408.477C171.938 408.477 172.195 408.274 172.344 407.868C172.424 407.644 172.475 407.317 172.496 406.887C172.395 407.015 172.286 407.113 172.172 407.18C171.964 407.305 171.707 407.368 171.402 407.368C170.952 407.368 170.552 407.213 170.203 406.903C169.854 406.591 169.68 406.141 169.68 405.555ZM171.645 406.462C171.798 406.462 171.943 406.417 172.078 406.329C172.331 406.167 172.457 405.887 172.457 405.489C172.457 405.169 172.382 404.915 172.23 404.727C172.082 404.54 171.878 404.446 171.617 404.446C171.427 404.446 171.264 404.499 171.129 404.606C170.915 404.773 170.809 405.055 170.809 405.454C170.809 405.79 170.876 406.042 171.012 406.212C171.15 406.378 171.361 406.462 171.645 406.462ZM174.801 405.137H175.984V406.301H174.801V405.137ZM174.801 408.063H175.984V409.227H174.801V408.063ZM177.945 406.45C177.945 407.101 177.999 407.6 178.105 407.946C178.212 408.29 178.431 408.462 178.762 408.462C179.092 408.462 179.309 408.29 179.41 407.946C179.514 407.6 179.566 407.101 179.566 406.45C179.566 405.768 179.514 405.262 179.41 404.934C179.309 404.606 179.092 404.442 178.762 404.442C178.431 404.442 178.212 404.606 178.105 404.934C177.999 405.262 177.945 405.768 177.945 406.45ZM178.762 403.524C179.483 403.524 179.988 403.778 180.277 404.286C180.569 404.794 180.715 405.515 180.715 406.45C180.715 407.385 180.569 408.105 180.277 408.61C179.988 409.115 179.483 409.368 178.762 409.368C178.04 409.368 177.534 409.115 177.242 408.61C176.953 408.105 176.809 407.385 176.809 406.45C176.809 405.515 176.953 404.794 177.242 404.286C177.534 403.778 178.04 403.524 178.762 403.524ZM182.398 406.45C182.398 407.101 182.452 407.6 182.559 407.946C182.665 408.29 182.884 408.462 183.215 408.462C183.546 408.462 183.762 408.29 183.863 407.946C183.967 407.6 184.02 407.101 184.02 406.45C184.02 405.768 183.967 405.262 183.863 404.934C183.762 404.606 183.546 404.442 183.215 404.442C182.884 404.442 182.665 404.606 182.559 404.934C182.452 405.262 182.398 405.768 182.398 406.45ZM183.215 403.524C183.936 403.524 184.441 403.778 184.73 404.286C185.022 404.794 185.168 405.515 185.168 406.45C185.168 407.385 185.022 408.105 184.73 408.61C184.441 409.115 183.936 409.368 183.215 409.368C182.493 409.368 181.987 409.115 181.695 408.61C181.406 408.105 181.262 407.385 181.262 406.45C181.262 405.515 181.406 404.794 181.695 404.286C181.987 403.778 182.493 403.524 183.215 403.524ZM191.145 407.098C191.145 406.77 191.069 406.48 190.918 406.227C190.77 405.975 190.527 405.848 190.191 405.848C189.788 405.848 189.51 406.04 189.359 406.423C189.281 406.626 189.242 406.884 189.242 407.196C189.242 407.691 189.374 408.038 189.637 408.239C189.793 408.356 189.978 408.415 190.191 408.415C190.501 408.415 190.737 408.295 190.898 408.055C191.062 407.816 191.145 407.497 191.145 407.098ZM190.512 404.876C191.009 404.876 191.43 405.059 191.773 405.426C192.12 405.794 192.293 406.333 192.293 407.044C192.293 407.794 192.124 408.365 191.785 408.759C191.449 409.152 191.016 409.348 190.484 409.348C190.146 409.348 189.865 409.264 189.641 409.094C189.518 409.001 189.398 408.864 189.281 408.684V410.903H188.18V404.969H189.246V405.598C189.366 405.413 189.493 405.268 189.629 405.161C189.876 404.971 190.171 404.876 190.512 404.876ZM197.859 404.876C198.047 404.876 198.232 404.912 198.414 404.985C198.596 405.058 198.762 405.186 198.91 405.368C199.03 405.516 199.111 405.699 199.152 405.915C199.178 406.058 199.191 406.268 199.191 406.544L199.184 409.227H198.043V406.516C198.043 406.355 198.017 406.222 197.965 406.118C197.866 405.92 197.684 405.821 197.418 405.821C197.111 405.821 196.898 405.949 196.781 406.204C196.721 406.339 196.691 406.502 196.691 406.692V409.227H195.57V406.692C195.57 406.44 195.544 406.256 195.492 406.141C195.398 405.936 195.215 405.833 194.941 405.833C194.624 405.833 194.41 405.936 194.301 406.141C194.241 406.259 194.211 406.433 194.211 406.665V409.227H193.082V404.977H194.164V405.598C194.302 405.377 194.432 405.219 194.555 405.126C194.771 404.959 195.051 404.876 195.395 404.876C195.72 404.876 195.983 404.947 196.184 405.091C196.345 405.223 196.467 405.394 196.551 405.602C196.697 405.352 196.878 405.169 197.094 405.051C197.323 404.934 197.578 404.876 197.859 404.876Z" fill="#999999"/>
<path d="M134.273 152V140.484H136.656V144.875H141.156V140.484H143.547V152H141.156V146.859H136.656V152H134.273ZM150.367 147.859C150.227 147.948 150.083 148.021 149.938 148.078C149.797 148.13 149.602 148.18 149.352 148.227L148.852 148.32C148.383 148.404 148.047 148.505 147.844 148.625C147.5 148.828 147.328 149.143 147.328 149.57C147.328 149.951 147.432 150.227 147.641 150.398C147.854 150.565 148.112 150.648 148.414 150.648C148.893 150.648 149.333 150.508 149.734 150.227C150.141 149.945 150.352 149.432 150.367 148.688V147.859ZM149.016 146.82C149.427 146.768 149.721 146.703 149.898 146.625C150.216 146.49 150.375 146.279 150.375 145.992C150.375 145.643 150.253 145.404 150.008 145.273C149.768 145.138 149.414 145.07 148.945 145.07C148.419 145.07 148.047 145.201 147.828 145.461C147.672 145.654 147.568 145.914 147.516 146.242H145.367C145.414 145.497 145.622 144.885 145.992 144.406C146.581 143.656 147.591 143.281 149.023 143.281C149.956 143.281 150.784 143.466 151.508 143.836C152.232 144.206 152.594 144.904 152.594 145.93V149.836C152.594 150.107 152.599 150.435 152.609 150.82C152.625 151.112 152.669 151.31 152.742 151.414C152.815 151.518 152.924 151.604 153.07 151.672V152H150.648C150.581 151.828 150.534 151.667 150.508 151.516C150.482 151.365 150.461 151.193 150.445 151C150.138 151.333 149.784 151.617 149.383 151.852C148.904 152.128 148.362 152.266 147.758 152.266C146.987 152.266 146.349 152.047 145.844 151.609C145.344 151.167 145.094 150.542 145.094 149.734C145.094 148.688 145.497 147.93 146.305 147.461C146.747 147.206 147.398 147.023 148.258 146.914L149.016 146.82ZM159.664 146.539C159.622 146.221 159.516 145.935 159.344 145.68C159.094 145.336 158.706 145.164 158.18 145.164C157.43 145.164 156.917 145.536 156.641 146.281C156.495 146.677 156.422 147.203 156.422 147.859C156.422 148.484 156.495 148.987 156.641 149.367C156.906 150.076 157.406 150.43 158.141 150.43C158.661 150.43 159.031 150.289 159.25 150.008C159.469 149.727 159.602 149.362 159.648 148.914H161.922C161.87 149.591 161.625 150.232 161.188 150.836C160.49 151.81 159.456 152.297 158.086 152.297C156.716 152.297 155.708 151.891 155.062 151.078C154.417 150.266 154.094 149.211 154.094 147.914C154.094 146.451 154.451 145.312 155.164 144.5C155.878 143.688 156.862 143.281 158.117 143.281C159.185 143.281 160.057 143.521 160.734 144C161.417 144.479 161.82 145.326 161.945 146.539H159.664ZM163.461 140.523H165.648V146.727L168.422 143.523H171.18L168.203 146.781L171.297 152H168.609L166.57 148.359L165.648 149.32V152H163.461V140.523ZM177.086 147.859C176.945 147.948 176.802 148.021 176.656 148.078C176.516 148.13 176.32 148.18 176.07 148.227L175.57 148.32C175.102 148.404 174.766 148.505 174.562 148.625C174.219 148.828 174.047 149.143 174.047 149.57C174.047 149.951 174.151 150.227 174.359 150.398C174.573 150.565 174.831 150.648 175.133 150.648C175.612 150.648 176.052 150.508 176.453 150.227C176.859 149.945 177.07 149.432 177.086 148.688V147.859ZM175.734 146.82C176.146 146.768 176.44 146.703 176.617 146.625C176.935 146.49 177.094 146.279 177.094 145.992C177.094 145.643 176.971 145.404 176.727 145.273C176.487 145.138 176.133 145.07 175.664 145.07C175.138 145.07 174.766 145.201 174.547 145.461C174.391 145.654 174.286 145.914 174.234 146.242H172.086C172.133 145.497 172.341 144.885 172.711 144.406C173.299 143.656 174.31 143.281 175.742 143.281C176.674 143.281 177.503 143.466 178.227 143.836C178.951 144.206 179.312 144.904 179.312 145.93V149.836C179.312 150.107 179.318 150.435 179.328 150.82C179.344 151.112 179.388 151.31 179.461 151.414C179.534 151.518 179.643 151.604 179.789 151.672V152H177.367C177.299 151.828 177.253 151.667 177.227 151.516C177.201 151.365 177.18 151.193 177.164 151C176.857 151.333 176.503 151.617 176.102 151.852C175.622 152.128 175.081 152.266 174.477 152.266C173.706 152.266 173.068 152.047 172.562 151.609C172.062 151.167 171.812 150.542 171.812 149.734C171.812 148.688 172.216 147.93 173.023 147.461C173.466 147.206 174.117 147.023 174.977 146.914L175.734 146.82ZM180.422 145.148V143.562H181.609V141.188H183.812V143.562H185.195V145.148H183.812V149.648C183.812 149.997 183.857 150.216 183.945 150.305C184.034 150.388 184.305 150.43 184.758 150.43C184.826 150.43 184.896 150.43 184.969 150.43C185.047 150.424 185.122 150.419 185.195 150.414V152.078L184.141 152.117C183.089 152.154 182.37 151.971 181.984 151.57C181.734 151.315 181.609 150.922 181.609 150.391V145.148H180.422ZM191.32 143.266C191.846 143.266 192.323 143.357 192.75 143.539C193.182 143.721 193.536 144 193.812 144.375C194.047 144.693 194.19 145.021 194.242 145.359C194.294 145.693 194.32 146.24 194.32 147V152H192.047V146.82C192.047 146.362 191.969 145.992 191.812 145.711C191.609 145.315 191.224 145.117 190.656 145.117C190.068 145.117 189.62 145.315 189.312 145.711C189.01 146.102 188.859 146.661 188.859 147.391V152H186.641V140.523H188.859V144.594C189.182 144.099 189.555 143.755 189.977 143.562C190.404 143.365 190.852 143.266 191.32 143.266ZM200.227 150.43C200.878 150.43 201.378 150.198 201.727 149.734C202.076 149.271 202.25 148.612 202.25 147.758C202.25 146.904 202.076 146.247 201.727 145.789C201.378 145.326 200.878 145.094 200.227 145.094C199.576 145.094 199.073 145.326 198.719 145.789C198.37 146.247 198.195 146.904 198.195 147.758C198.195 148.612 198.37 149.271 198.719 149.734C199.073 150.198 199.576 150.43 200.227 150.43ZM204.586 147.758C204.586 149.008 204.227 150.078 203.508 150.969C202.789 151.854 201.698 152.297 200.234 152.297C198.771 152.297 197.68 151.854 196.961 150.969C196.242 150.078 195.883 149.008 195.883 147.758C195.883 146.529 196.242 145.464 196.961 144.562C197.68 143.661 198.771 143.211 200.234 143.211C201.698 143.211 202.789 143.661 203.508 144.562C204.227 145.464 204.586 146.529 204.586 147.758ZM210.906 143.281C211.786 143.281 212.505 143.513 213.062 143.977C213.625 144.435 213.906 145.198 213.906 146.266V152H211.625V146.82C211.625 146.372 211.565 146.029 211.445 145.789C211.227 145.352 210.81 145.133 210.195 145.133C209.44 145.133 208.922 145.453 208.641 146.094C208.495 146.432 208.422 146.865 208.422 147.391V152H206.203V143.5H208.352V144.742C208.638 144.305 208.909 143.99 209.164 143.797C209.622 143.453 210.203 143.281 210.906 143.281ZM154.273 164.445C154.346 164.971 154.49 165.365 154.703 165.625C155.094 166.099 155.763 166.336 156.711 166.336C157.279 166.336 157.74 166.273 158.094 166.148C158.766 165.909 159.102 165.464 159.102 164.812C159.102 164.432 158.935 164.138 158.602 163.93C158.268 163.727 157.745 163.547 157.031 163.391L155.812 163.117C154.615 162.846 153.786 162.552 153.328 162.234C152.552 161.703 152.164 160.872 152.164 159.742C152.164 158.711 152.539 157.854 153.289 157.172C154.039 156.49 155.141 156.148 156.594 156.148C157.807 156.148 158.841 156.471 159.695 157.117C160.555 157.758 161.005 158.69 161.047 159.914H158.734C158.693 159.221 158.391 158.729 157.828 158.438C157.453 158.245 156.987 158.148 156.43 158.148C155.81 158.148 155.315 158.273 154.945 158.523C154.576 158.773 154.391 159.122 154.391 159.57C154.391 159.982 154.573 160.289 154.938 160.492C155.172 160.628 155.672 160.786 156.438 160.969L158.422 161.445C159.292 161.654 159.948 161.932 160.391 162.281C161.078 162.823 161.422 163.607 161.422 164.633C161.422 165.685 161.018 166.56 160.211 167.258C159.409 167.951 158.273 168.297 156.805 168.297C155.305 168.297 154.125 167.956 153.266 167.273C152.406 166.586 151.977 165.643 151.977 164.445H154.273ZM162.148 161.148V159.562H163.336V157.188H165.539V159.562H166.922V161.148H165.539V165.648C165.539 165.997 165.583 166.216 165.672 166.305C165.76 166.388 166.031 166.43 166.484 166.43C166.552 166.43 166.622 166.43 166.695 166.43C166.773 166.424 166.849 166.419 166.922 166.414V168.078L165.867 168.117C164.815 168.154 164.096 167.971 163.711 167.57C163.461 167.315 163.336 166.922 163.336 166.391V161.148H162.148ZM173.047 163.859C172.906 163.948 172.763 164.021 172.617 164.078C172.477 164.13 172.281 164.18 172.031 164.227L171.531 164.32C171.062 164.404 170.727 164.505 170.523 164.625C170.18 164.828 170.008 165.143 170.008 165.57C170.008 165.951 170.112 166.227 170.32 166.398C170.534 166.565 170.792 166.648 171.094 166.648C171.573 166.648 172.013 166.508 172.414 166.227C172.82 165.945 173.031 165.432 173.047 164.688V163.859ZM171.695 162.82C172.107 162.768 172.401 162.703 172.578 162.625C172.896 162.49 173.055 162.279 173.055 161.992C173.055 161.643 172.932 161.404 172.688 161.273C172.448 161.138 172.094 161.07 171.625 161.07C171.099 161.07 170.727 161.201 170.508 161.461C170.352 161.654 170.247 161.914 170.195 162.242H168.047C168.094 161.497 168.302 160.885 168.672 160.406C169.26 159.656 170.271 159.281 171.703 159.281C172.635 159.281 173.464 159.466 174.188 159.836C174.911 160.206 175.273 160.904 175.273 161.93V165.836C175.273 166.107 175.279 166.435 175.289 166.82C175.305 167.112 175.349 167.31 175.422 167.414C175.495 167.518 175.604 167.604 175.75 167.672V168H173.328C173.26 167.828 173.214 167.667 173.188 167.516C173.161 167.365 173.141 167.193 173.125 167C172.818 167.333 172.464 167.617 172.062 167.852C171.583 168.128 171.042 168.266 170.438 168.266C169.667 168.266 169.029 168.047 168.523 167.609C168.023 167.167 167.773 166.542 167.773 165.734C167.773 164.688 168.177 163.93 168.984 163.461C169.427 163.206 170.078 163.023 170.938 162.914L171.695 162.82ZM181.883 159.281C181.924 159.281 181.958 159.284 181.984 159.289C182.016 159.289 182.081 159.292 182.18 159.297V161.578C182.039 161.562 181.914 161.552 181.805 161.547C181.695 161.542 181.607 161.539 181.539 161.539C180.643 161.539 180.042 161.831 179.734 162.414C179.562 162.742 179.477 163.247 179.477 163.93V168H177.234V159.484H179.359V160.969C179.703 160.401 180.003 160.013 180.258 159.805C180.674 159.456 181.216 159.281 181.883 159.281ZM182.617 161.148V159.562H183.805V157.188H186.008V159.562H187.391V161.148H186.008V165.648C186.008 165.997 186.052 166.216 186.141 166.305C186.229 166.388 186.5 166.43 186.953 166.43C187.021 166.43 187.091 166.43 187.164 166.43C187.242 166.424 187.318 166.419 187.391 166.414V168.078L186.336 168.117C185.284 168.154 184.565 167.971 184.18 167.57C183.93 167.315 183.805 166.922 183.805 166.391V161.148H182.617ZM190.555 165.281C190.602 165.677 190.703 165.958 190.859 166.125C191.135 166.422 191.646 166.57 192.391 166.57C192.828 166.57 193.174 166.505 193.43 166.375C193.69 166.245 193.82 166.049 193.82 165.789C193.82 165.539 193.716 165.349 193.508 165.219C193.299 165.089 192.526 164.865 191.188 164.547C190.224 164.307 189.544 164.008 189.148 163.648C188.753 163.294 188.555 162.784 188.555 162.117C188.555 161.331 188.862 160.656 189.477 160.094C190.096 159.526 190.966 159.242 192.086 159.242C193.148 159.242 194.013 159.456 194.68 159.883C195.352 160.305 195.737 161.036 195.836 162.078H193.609C193.578 161.792 193.497 161.565 193.367 161.398C193.122 161.096 192.706 160.945 192.117 160.945C191.633 160.945 191.286 161.021 191.078 161.172C190.875 161.323 190.773 161.5 190.773 161.703C190.773 161.958 190.883 162.143 191.102 162.258C191.32 162.378 192.094 162.583 193.422 162.875C194.307 163.083 194.971 163.398 195.414 163.82C195.852 164.247 196.07 164.781 196.07 165.422C196.07 166.266 195.755 166.956 195.125 167.492C194.5 168.023 193.531 168.289 192.219 168.289C190.88 168.289 189.891 168.008 189.25 167.445C188.615 166.878 188.297 166.156 188.297 165.281H190.555Z" fill="white"/>
<path d="M153.912 184.03H155.416V189.933H158.98V191.227H153.912V184.03ZM162.301 190.246C162.708 190.246 163.02 190.101 163.238 189.811C163.456 189.522 163.565 189.11 163.565 188.576C163.565 188.042 163.456 187.632 163.238 187.345C163.02 187.056 162.708 186.911 162.301 186.911C161.894 186.911 161.58 187.056 161.358 187.345C161.14 187.632 161.031 188.042 161.031 188.576C161.031 189.11 161.14 189.522 161.358 189.811C161.58 190.101 161.894 190.246 162.301 190.246ZM165.025 188.576C165.025 189.357 164.801 190.026 164.352 190.583C163.902 191.136 163.22 191.413 162.306 191.413C161.391 191.413 160.709 191.136 160.26 190.583C159.811 190.026 159.586 189.357 159.586 188.576C159.586 187.808 159.811 187.142 160.26 186.579C160.709 186.016 161.391 185.734 162.306 185.734C163.22 185.734 163.902 186.016 164.352 186.579C164.801 187.142 165.025 187.808 165.025 188.576ZM169.205 187.814C169.179 187.616 169.112 187.437 169.005 187.277C168.849 187.062 168.606 186.955 168.277 186.955C167.809 186.955 167.488 187.188 167.315 187.653C167.224 187.9 167.179 188.229 167.179 188.639C167.179 189.03 167.224 189.344 167.315 189.582C167.481 190.024 167.794 190.246 168.253 190.246C168.578 190.246 168.81 190.158 168.946 189.982C169.083 189.806 169.166 189.579 169.195 189.299H170.616C170.584 189.722 170.431 190.122 170.157 190.5C169.721 191.108 169.075 191.413 168.219 191.413C167.363 191.413 166.733 191.159 166.329 190.651C165.925 190.143 165.724 189.484 165.724 188.674C165.724 187.759 165.947 187.048 166.393 186.54C166.839 186.032 167.454 185.778 168.238 185.778C168.906 185.778 169.451 185.928 169.874 186.227C170.3 186.527 170.553 187.056 170.631 187.814H169.205ZM174.527 188.639C174.439 188.695 174.35 188.74 174.259 188.776C174.171 188.809 174.049 188.84 173.893 188.869L173.58 188.927C173.287 188.98 173.077 189.043 172.95 189.118C172.735 189.245 172.628 189.442 172.628 189.709C172.628 189.946 172.693 190.119 172.823 190.226C172.957 190.33 173.118 190.383 173.307 190.383C173.606 190.383 173.881 190.295 174.132 190.119C174.386 189.943 174.518 189.622 174.527 189.157V188.639ZM173.683 187.99C173.94 187.957 174.124 187.917 174.234 187.868C174.433 187.783 174.532 187.651 174.532 187.472C174.532 187.254 174.456 187.105 174.303 187.023C174.153 186.939 173.932 186.896 173.639 186.896C173.31 186.896 173.077 186.978 172.94 187.14C172.843 187.261 172.778 187.424 172.745 187.629H171.402C171.432 187.163 171.562 186.781 171.793 186.481C172.161 186.012 172.792 185.778 173.688 185.778C174.27 185.778 174.788 185.894 175.24 186.125C175.693 186.356 175.919 186.792 175.919 187.433V189.875C175.919 190.044 175.922 190.249 175.929 190.49C175.938 190.672 175.966 190.796 176.012 190.861C176.057 190.926 176.126 190.98 176.217 191.022V191.227H174.703C174.661 191.12 174.632 191.019 174.615 190.925C174.599 190.83 174.586 190.723 174.576 190.602C174.384 190.811 174.163 190.988 173.912 191.134C173.613 191.307 173.274 191.393 172.896 191.393C172.415 191.393 172.016 191.257 171.7 190.983C171.388 190.706 171.231 190.316 171.231 189.811C171.231 189.157 171.484 188.683 171.988 188.39C172.265 188.231 172.672 188.117 173.209 188.049L173.683 187.99ZM176.612 186.945V185.954H177.354V184.469H178.731V185.954H179.596V186.945H178.731V189.758C178.731 189.976 178.759 190.112 178.814 190.168C178.87 190.22 179.039 190.246 179.322 190.246C179.365 190.246 179.409 190.246 179.454 190.246C179.503 190.243 179.55 190.239 179.596 190.236V191.276L178.937 191.301C178.279 191.323 177.83 191.209 177.589 190.959C177.433 190.799 177.354 190.553 177.354 190.221V186.945H176.612ZM181.92 185.27H180.509V183.986H181.92V185.27ZM180.509 185.905H181.92V191.227H180.509V185.905ZM185.66 190.246C186.067 190.246 186.38 190.101 186.598 189.811C186.816 189.522 186.925 189.11 186.925 188.576C186.925 188.042 186.816 187.632 186.598 187.345C186.38 187.056 186.067 186.911 185.66 186.911C185.253 186.911 184.939 187.056 184.718 187.345C184.5 187.632 184.391 188.042 184.391 188.576C184.391 189.11 184.5 189.522 184.718 189.811C184.939 190.101 185.253 190.246 185.66 190.246ZM188.385 188.576C188.385 189.357 188.16 190.026 187.711 190.583C187.262 191.136 186.58 191.413 185.665 191.413C184.75 191.413 184.068 191.136 183.619 190.583C183.17 190.026 182.945 189.357 182.945 188.576C182.945 187.808 183.17 187.142 183.619 186.579C184.068 186.016 184.75 185.734 185.665 185.734C186.58 185.734 187.262 186.016 187.711 186.579C188.16 187.142 188.385 187.808 188.385 188.576ZM192.335 185.778C192.885 185.778 193.334 185.923 193.683 186.213C194.034 186.499 194.21 186.976 194.21 187.643V191.227H192.784V187.99C192.784 187.71 192.747 187.495 192.672 187.345C192.535 187.072 192.275 186.935 191.891 186.935C191.419 186.935 191.095 187.135 190.919 187.536C190.828 187.747 190.782 188.018 190.782 188.346V191.227H189.396V185.915H190.738V186.691C190.917 186.418 191.087 186.221 191.246 186.1C191.533 185.885 191.896 185.778 192.335 185.778ZM145.312 196.555C145.312 195.949 145.487 195.458 145.836 195.083C146.188 194.705 146.643 194.516 147.203 194.516C148.065 194.516 148.656 194.898 148.977 195.661C149.159 196.093 149.25 196.662 149.25 197.368C149.25 198.053 149.163 198.624 148.988 199.083C148.655 199.955 148.043 200.391 147.152 200.391C146.728 200.391 146.346 200.266 146.008 200.016C145.669 199.764 145.475 199.397 145.426 198.915H146.535C146.561 199.081 146.632 199.217 146.746 199.321C146.861 199.425 147.013 199.477 147.203 199.477C147.57 199.477 147.828 199.274 147.977 198.868C148.057 198.644 148.108 198.317 148.129 197.887C148.027 198.015 147.919 198.113 147.805 198.18C147.596 198.305 147.34 198.368 147.035 198.368C146.585 198.368 146.185 198.213 145.836 197.903C145.487 197.591 145.312 197.141 145.312 196.555ZM147.277 197.462C147.431 197.462 147.576 197.417 147.711 197.329C147.964 197.167 148.09 196.887 148.09 196.489C148.09 196.169 148.014 195.915 147.863 195.727C147.715 195.54 147.51 195.446 147.25 195.446C147.06 195.446 146.897 195.499 146.762 195.606C146.548 195.773 146.441 196.055 146.441 196.454C146.441 196.79 146.509 197.042 146.645 197.212C146.783 197.378 146.993 197.462 147.277 197.462ZM150.434 196.137H151.617V197.301H150.434V196.137ZM150.434 199.063H151.617V200.227H150.434V199.063ZM153.578 197.45C153.578 198.101 153.632 198.6 153.738 198.946C153.845 199.29 154.064 199.462 154.395 199.462C154.725 199.462 154.941 199.29 155.043 198.946C155.147 198.6 155.199 198.101 155.199 197.45C155.199 196.768 155.147 196.262 155.043 195.934C154.941 195.606 154.725 195.442 154.395 195.442C154.064 195.442 153.845 195.606 153.738 195.934C153.632 196.262 153.578 196.768 153.578 197.45ZM154.395 194.524C155.116 194.524 155.621 194.778 155.91 195.286C156.202 195.794 156.348 196.515 156.348 197.45C156.348 198.385 156.202 199.105 155.91 199.61C155.621 200.115 155.116 200.368 154.395 200.368C153.673 200.368 153.167 200.115 152.875 199.61C152.586 199.105 152.441 198.385 152.441 197.45C152.441 196.515 152.586 195.794 152.875 195.286C153.167 194.778 153.673 194.524 154.395 194.524ZM158.031 197.45C158.031 198.101 158.085 198.6 158.191 198.946C158.298 199.29 158.517 199.462 158.848 199.462C159.178 199.462 159.395 199.29 159.496 198.946C159.6 198.6 159.652 198.101 159.652 197.45C159.652 196.768 159.6 196.262 159.496 195.934C159.395 195.606 159.178 195.442 158.848 195.442C158.517 195.442 158.298 195.606 158.191 195.934C158.085 196.262 158.031 196.768 158.031 197.45ZM158.848 194.524C159.569 194.524 160.074 194.778 160.363 195.286C160.655 195.794 160.801 196.515 160.801 197.45C160.801 198.385 160.655 199.105 160.363 199.61C160.074 200.115 159.569 200.368 158.848 200.368C158.126 200.368 157.62 200.115 157.328 199.61C157.039 199.105 156.895 198.385 156.895 197.45C156.895 196.515 157.039 195.794 157.328 195.286C157.62 194.778 158.126 194.524 158.848 194.524ZM163.508 197.469H165.75V198.524H163.508V197.469ZM168.77 196.321V195.563C169.121 195.548 169.367 195.524 169.508 195.493C169.732 195.443 169.914 195.344 170.055 195.196C170.151 195.094 170.224 194.959 170.273 194.79C170.302 194.688 170.316 194.613 170.316 194.563H171.242V200.227H170.102V196.321H168.77ZM174.055 197.45C174.055 198.101 174.108 198.6 174.215 198.946C174.322 199.29 174.54 199.462 174.871 199.462C175.202 199.462 175.418 199.29 175.52 198.946C175.624 198.6 175.676 198.101 175.676 197.45C175.676 196.768 175.624 196.262 175.52 195.934C175.418 195.606 175.202 195.442 174.871 195.442C174.54 195.442 174.322 195.606 174.215 195.934C174.108 196.262 174.055 196.768 174.055 197.45ZM174.871 194.524C175.592 194.524 176.098 194.778 176.387 195.286C176.678 195.794 176.824 196.515 176.824 197.45C176.824 198.385 176.678 199.105 176.387 199.61C176.098 200.115 175.592 200.368 174.871 200.368C174.15 200.368 173.643 200.115 173.352 199.61C173.062 199.105 172.918 198.385 172.918 197.45C172.918 196.515 173.062 195.794 173.352 195.286C173.643 194.778 174.15 194.524 174.871 194.524ZM178.027 196.137H179.211V197.301H178.027V196.137ZM178.027 199.063H179.211V200.227H178.027V199.063ZM181.172 197.45C181.172 198.101 181.225 198.6 181.332 198.946C181.439 199.29 181.658 199.462 181.988 199.462C182.319 199.462 182.535 199.29 182.637 198.946C182.741 198.6 182.793 198.101 182.793 197.45C182.793 196.768 182.741 196.262 182.637 195.934C182.535 195.606 182.319 195.442 181.988 195.442C181.658 195.442 181.439 195.606 181.332 195.934C181.225 196.262 181.172 196.768 181.172 197.45ZM181.988 194.524C182.71 194.524 183.215 194.778 183.504 195.286C183.796 195.794 183.941 196.515 183.941 197.45C183.941 198.385 183.796 199.105 183.504 199.61C183.215 200.115 182.71 200.368 181.988 200.368C181.267 200.368 180.76 200.115 180.469 199.61C180.18 199.105 180.035 198.385 180.035 197.45C180.035 196.515 180.18 195.794 180.469 195.286C180.76 194.778 181.267 194.524 181.988 194.524ZM185.625 197.45C185.625 198.101 185.678 198.6 185.785 198.946C185.892 199.29 186.111 199.462 186.441 199.462C186.772 199.462 186.988 199.29 187.09 198.946C187.194 198.6 187.246 198.101 187.246 197.45C187.246 196.768 187.194 196.262 187.09 195.934C186.988 195.606 186.772 195.442 186.441 195.442C186.111 195.442 185.892 195.606 185.785 195.934C185.678 196.262 185.625 196.768 185.625 197.45ZM186.441 194.524C187.163 194.524 187.668 194.778 187.957 195.286C188.249 195.794 188.395 196.515 188.395 197.45C188.395 198.385 188.249 199.105 187.957 199.61C187.668 200.115 187.163 200.368 186.441 200.368C185.72 200.368 185.214 200.115 184.922 199.61C184.633 199.105 184.488 198.385 184.488 197.45C184.488 196.515 184.633 195.794 184.922 195.286C185.214 194.778 185.72 194.524 186.441 194.524ZM194.371 198.098C194.371 197.77 194.296 197.48 194.145 197.227C193.996 196.975 193.754 196.848 193.418 196.848C193.014 196.848 192.737 197.04 192.586 197.423C192.508 197.626 192.469 197.884 192.469 198.196C192.469 198.691 192.6 199.038 192.863 199.239C193.02 199.356 193.204 199.415 193.418 199.415C193.728 199.415 193.964 199.295 194.125 199.055C194.289 198.816 194.371 198.497 194.371 198.098ZM193.738 195.876C194.236 195.876 194.656 196.059 195 196.426C195.346 196.794 195.52 197.333 195.52 198.044C195.52 198.794 195.35 199.365 195.012 199.759C194.676 200.152 194.242 200.348 193.711 200.348C193.372 200.348 193.091 200.264 192.867 200.094C192.745 200.001 192.625 199.864 192.508 199.684V201.903H191.406V195.969H192.473V196.598C192.592 196.413 192.72 196.268 192.855 196.161C193.103 195.971 193.397 195.876 193.738 195.876ZM201.086 195.876C201.273 195.876 201.458 195.912 201.641 195.985C201.823 196.058 201.988 196.186 202.137 196.368C202.257 196.516 202.337 196.699 202.379 196.915C202.405 197.058 202.418 197.268 202.418 197.544L202.41 200.227H201.27V197.516C201.27 197.355 201.243 197.222 201.191 197.118C201.092 196.92 200.91 196.821 200.645 196.821C200.337 196.821 200.125 196.949 200.008 197.204C199.948 197.339 199.918 197.502 199.918 197.692V200.227H198.797V197.692C198.797 197.44 198.771 197.256 198.719 197.141C198.625 196.936 198.441 196.833 198.168 196.833C197.85 196.833 197.637 196.936 197.527 197.141C197.467 197.259 197.438 197.433 197.438 197.665V200.227H196.309V195.977H197.391V196.598C197.529 196.377 197.659 196.219 197.781 196.126C197.997 195.959 198.277 195.876 198.621 195.876C198.947 195.876 199.21 195.947 199.41 196.091C199.572 196.223 199.694 196.394 199.777 196.602C199.923 196.352 200.104 196.169 200.32 196.051C200.549 195.934 200.805 195.876 201.086 195.876Z" fill="#999999"/>
<path d="M171.78 81.6C194.302 81.6 212.559 63.3332 212.559 40.8C212.559 18.2668 194.302 0 171.78 0C149.258 0 131 18.2668 131 40.8C131 63.3332 149.258 81.6 171.78 81.6Z" fill="#9E2064"/>
<path d="M172.504 43.0676C168.259 41.8472 165.165 40.3519 163.223 38.5815C161.298 36.794 160.335 34.5939 160.335 31.9814C160.335 29.0251 161.513 26.5844 163.868 24.6593C166.239 22.7171 169.316 21.746 173.097 21.746C175.676 21.746 177.97 22.2444 179.981 23.2413C182.009 24.2382 183.573 25.6133 184.673 27.3664C185.791 29.1196 186.349 31.0361 186.349 33.1158H181.373C181.373 30.847 180.652 29.068 179.208 27.7789C177.764 26.4727 175.727 25.8195 173.097 25.8195C170.657 25.8195 168.749 26.3609 167.374 27.4438C166.016 28.5094 165.337 29.9962 165.337 31.904C165.337 33.4338 165.982 34.7314 167.271 35.7971C168.577 36.8456 170.786 37.8081 173.897 38.6847C177.025 39.5612 179.466 40.5324 181.219 41.598C182.989 42.6465 184.295 43.8754 185.138 45.2848C185.997 46.6942 186.427 48.3529 186.427 50.2607C186.427 53.303 185.241 55.7436 182.869 57.5827C180.497 59.4047 177.326 60.3156 173.355 60.3156C170.777 60.3156 168.371 59.8258 166.136 58.8461C163.902 57.8492 162.175 56.4913 160.954 54.7725C159.751 53.0537 159.149 51.1029 159.149 48.9201H164.125C164.125 51.1889 164.959 52.985 166.626 54.3085C168.311 55.6147 170.554 56.2679 173.355 56.2679C175.968 56.2679 177.97 55.7351 179.362 54.6694C180.755 53.6038 181.451 52.1514 181.451 50.3123C181.451 48.4732 180.806 47.0552 179.517 46.0583C178.228 45.0442 175.89 44.0473 172.504 43.0676Z" fill="white"/>
<path d="M158.51 90.1396C158.51 91.279 158.603 92.1517 158.79 92.7578C158.977 93.3594 159.36 93.6602 159.938 93.6602C160.517 93.6602 160.896 93.3594 161.073 92.7578C161.256 92.1517 161.347 91.279 161.347 90.1396C161.347 88.9456 161.256 88.0615 161.073 87.4873C160.896 86.9131 160.517 86.626 159.938 86.626C159.36 86.626 158.977 86.9131 158.79 87.4873C158.603 88.0615 158.51 88.9456 158.51 90.1396ZM159.938 85.0195C161.201 85.0195 162.085 85.4639 162.591 86.3525C163.101 87.2412 163.356 88.5036 163.356 90.1396C163.356 91.7757 163.101 93.0358 162.591 93.9199C162.085 94.804 161.201 95.2461 159.938 95.2461C158.676 95.2461 157.79 94.804 157.279 93.9199C156.773 93.0358 156.521 91.7757 156.521 90.1396C156.521 88.5036 156.773 87.2412 157.279 86.3525C157.79 85.4639 158.676 85.0195 159.938 85.0195ZM164.313 95C164.332 94.2891 164.484 93.6396 164.771 93.0518C165.049 92.391 165.706 91.6914 166.74 90.9531C167.638 90.3105 168.219 89.8503 168.483 89.5723C168.889 89.1393 169.092 88.6654 169.092 88.1504C169.092 87.7311 168.976 87.3825 168.743 87.1045C168.511 86.8265 168.178 86.6875 167.745 86.6875C167.153 86.6875 166.749 86.9085 166.535 87.3506C166.412 87.6058 166.339 88.0114 166.316 88.5674H164.423C164.455 87.7243 164.607 87.043 164.881 86.5234C165.4 85.5345 166.323 85.04 167.649 85.04C168.698 85.04 169.532 85.3317 170.151 85.915C170.771 86.4938 171.081 87.2617 171.081 88.2188C171.081 88.9525 170.862 89.6042 170.425 90.1738C170.138 90.5521 169.666 90.9736 169.01 91.4385L168.23 91.9922C167.743 92.3385 167.408 92.5892 167.226 92.7441C167.048 92.8991 166.897 93.0791 166.774 93.2842H171.102V95H164.313ZM171.99 90.1738H175.914V92.0195H171.99V90.1738ZM178.758 90.1396C178.758 91.279 178.851 92.1517 179.038 92.7578C179.225 93.3594 179.608 93.6602 180.187 93.6602C180.765 93.6602 181.144 93.3594 181.321 92.7578C181.504 92.1517 181.595 91.279 181.595 90.1396C181.595 88.9456 181.504 88.0615 181.321 87.4873C181.144 86.9131 180.765 86.626 180.187 86.626C179.608 86.626 179.225 86.9131 179.038 87.4873C178.851 88.0615 178.758 88.9456 178.758 90.1396ZM180.187 85.0195C181.449 85.0195 182.333 85.4639 182.839 86.3525C183.349 87.2412 183.604 88.5036 183.604 90.1396C183.604 91.7757 183.349 93.0358 182.839 93.9199C182.333 94.804 181.449 95.2461 180.187 95.2461C178.924 95.2461 178.038 94.804 177.527 93.9199C177.021 93.0358 176.769 91.7757 176.769 90.1396C176.769 88.5036 177.021 87.2412 177.527 86.3525C178.038 85.4639 178.924 85.0195 180.187 85.0195ZM184.562 95C184.58 94.2891 184.732 93.6396 185.02 93.0518C185.298 92.391 185.954 91.6914 186.988 90.9531C187.886 90.3105 188.467 89.8503 188.731 89.5723C189.137 89.1393 189.34 88.6654 189.34 88.1504C189.34 87.7311 189.224 87.3825 188.991 87.1045C188.759 86.8265 188.426 86.6875 187.993 86.6875C187.401 86.6875 186.997 86.9085 186.783 87.3506C186.66 87.6058 186.587 88.0114 186.564 88.5674H184.671C184.703 87.7243 184.855 87.043 185.129 86.5234C185.648 85.5345 186.571 85.04 187.897 85.04C188.946 85.04 189.78 85.3317 190.399 85.915C191.019 86.4938 191.329 87.2617 191.329 88.2188C191.329 88.9525 191.11 89.6042 190.673 90.1738C190.386 90.5521 189.914 90.9736 189.258 91.4385L188.479 91.9922C187.991 92.3385 187.656 92.5892 187.474 92.7441C187.296 92.8991 187.146 93.0791 187.022 93.2842H191.35V95H184.562Z" fill="white"/>
<path d="M25.6758 341.533C25.6758 341.951 25.7832 342.275 25.998 342.506C26.2168 342.736 26.5176 342.852 26.9004 342.852C27.2832 342.852 27.582 342.736 27.7969 342.506C28.0156 342.275 28.125 341.951 28.125 341.533C28.125 341.1 28.0137 340.771 27.791 340.549C27.5723 340.322 27.2754 340.209 26.9004 340.209C26.5254 340.209 26.2266 340.322 26.0039 340.549C25.7852 340.771 25.6758 341.1 25.6758 341.533ZM23.9414 341.645C23.9414 341.168 24.0488 340.736 24.2637 340.35C24.4824 339.963 24.8008 339.672 25.2188 339.477C24.8086 339.203 24.541 338.908 24.416 338.592C24.2949 338.271 24.2344 337.973 24.2344 337.695C24.2344 337.078 24.4668 336.553 24.9316 336.119C25.3965 335.682 26.0527 335.463 26.9004 335.463C27.748 335.463 28.4043 335.682 28.8691 336.119C29.334 336.553 29.5664 337.078 29.5664 337.695C29.5664 337.973 29.5039 338.271 29.3789 338.592C29.2578 338.908 28.9922 339.184 28.582 339.418C29 339.652 29.3145 339.963 29.5254 340.35C29.7363 340.736 29.8418 341.168 29.8418 341.645C29.8418 342.359 29.5762 342.969 29.0449 343.473C28.5176 343.973 27.7793 344.223 26.8301 344.223C25.8809 344.223 25.1621 343.973 24.6738 343.473C24.1855 342.969 23.9414 342.359 23.9414 341.645ZM25.8281 337.883C25.8281 338.191 25.9219 338.443 26.1094 338.639C26.3008 338.834 26.5645 338.932 26.9004 338.932C27.2402 338.932 27.502 338.834 27.6855 338.639C27.873 338.443 27.9668 338.191 27.9668 337.883C27.9668 337.547 27.873 337.285 27.6855 337.098C27.502 336.906 27.2402 336.811 26.9004 336.811C26.5645 336.811 26.3008 336.906 26.1094 337.098C25.9219 337.285 25.8281 337.547 25.8281 337.883ZM31.6641 337.865H33.4395V339.611H31.6641V337.865ZM31.6641 342.254H33.4395V344H31.6641V342.254ZM36.3809 339.834C36.3809 340.811 36.4609 341.559 36.6211 342.078C36.7812 342.594 37.1094 342.852 37.6055 342.852C38.1016 342.852 38.4258 342.594 38.5781 342.078C38.7344 341.559 38.8125 340.811 38.8125 339.834C38.8125 338.811 38.7344 338.053 38.5781 337.561C38.4258 337.068 38.1016 336.822 37.6055 336.822C37.1094 336.822 36.7812 337.068 36.6211 337.561C36.4609 338.053 36.3809 338.811 36.3809 339.834ZM37.6055 335.445C38.6875 335.445 39.4453 335.826 39.8789 336.588C40.3164 337.35 40.5352 338.432 40.5352 339.834C40.5352 341.236 40.3164 342.316 39.8789 343.074C39.4453 343.832 38.6875 344.211 37.6055 344.211C36.5234 344.211 35.7637 343.832 35.3262 343.074C34.8926 342.316 34.6758 341.236 34.6758 339.834C34.6758 338.432 34.8926 337.35 35.3262 336.588C35.7637 335.826 36.5234 335.445 37.6055 335.445ZM43.0605 339.834C43.0605 340.811 43.1406 341.559 43.3008 342.078C43.4609 342.594 43.7891 342.852 44.2852 342.852C44.7812 342.852 45.1055 342.594 45.2578 342.078C45.4141 341.559 45.4922 340.811 45.4922 339.834C45.4922 338.811 45.4141 338.053 45.2578 337.561C45.1055 337.068 44.7812 336.822 44.2852 336.822C43.7891 336.822 43.4609 337.068 43.3008 337.561C43.1406 338.053 43.0605 338.811 43.0605 339.834ZM44.2852 335.445C45.3672 335.445 46.125 335.826 46.5586 336.588C46.9961 337.35 47.2148 338.432 47.2148 339.834C47.2148 341.236 46.9961 342.316 46.5586 343.074C46.125 343.832 45.3672 344.211 44.2852 344.211C43.2031 344.211 42.4434 343.832 42.0059 343.074C41.5723 342.316 41.3555 341.236 41.3555 339.834C41.3555 338.432 41.5723 337.35 42.0059 336.588C42.4434 335.826 43.2031 335.445 44.2852 335.445ZM56.7773 338.111C56.7773 337.662 56.6582 337.342 56.4199 337.15C56.1855 336.959 55.8555 336.863 55.4297 336.863H53.748V339.406H55.4297C55.8555 339.406 56.1855 339.303 56.4199 339.096C56.6582 338.889 56.7773 338.561 56.7773 338.111ZM58.5645 338.1C58.5645 339.119 58.3066 339.84 57.791 340.262C57.2754 340.684 56.5391 340.895 55.582 340.895H53.748V344H51.9551V335.363H55.7168C56.584 335.363 57.2754 335.586 57.791 336.031C58.3066 336.477 58.5645 337.166 58.5645 338.1ZM65.6426 335.363H68.2383V344H66.5566V338.158C66.5566 337.99 66.5586 337.756 66.5625 337.455C66.5664 337.15 66.5684 336.916 66.5684 336.752L64.9336 344H63.1816L61.5586 336.752C61.5586 336.916 61.5605 337.15 61.5645 337.455C61.5684 337.756 61.5703 337.99 61.5703 338.158V344H59.8887V335.363H62.5137L64.084 342.154L65.6426 335.363Z" fill="white"/>
<path d="M29.9531 124.922C29.7031 125.168 29.3555 125.607 28.9102 126.24C28.4648 126.869 28.0918 127.52 27.791 128.191C27.5527 128.719 27.3379 129.363 27.1465 130.125C26.9551 130.887 26.8594 131.512 26.8594 132H25.125C25.1758 130.477 25.6758 128.893 26.625 127.248C27.2383 126.229 27.752 125.518 28.166 125.115H23.9297L23.9531 123.615H29.9531V124.922ZM31.6641 125.865H33.4395V127.611H31.6641V125.865ZM31.6641 130.254H33.4395V132H31.6641V130.254ZM36.3809 127.834C36.3809 128.811 36.4609 129.559 36.6211 130.078C36.7812 130.594 37.1094 130.852 37.6055 130.852C38.1016 130.852 38.4258 130.594 38.5781 130.078C38.7344 129.559 38.8125 128.811 38.8125 127.834C38.8125 126.811 38.7344 126.053 38.5781 125.561C38.4258 125.068 38.1016 124.822 37.6055 124.822C37.1094 124.822 36.7812 125.068 36.6211 125.561C36.4609 126.053 36.3809 126.811 36.3809 127.834ZM37.6055 123.445C38.6875 123.445 39.4453 123.826 39.8789 124.588C40.3164 125.35 40.5352 126.432 40.5352 127.834C40.5352 129.236 40.3164 130.316 39.8789 131.074C39.4453 131.832 38.6875 132.211 37.6055 132.211C36.5234 132.211 35.7637 131.832 35.3262 131.074C34.8926 130.316 34.6758 129.236 34.6758 127.834C34.6758 126.432 34.8926 125.35 35.3262 124.588C35.7637 123.826 36.5234 123.445 37.6055 123.445ZM43.0605 127.834C43.0605 128.811 43.1406 129.559 43.3008 130.078C43.4609 130.594 43.7891 130.852 44.2852 130.852C44.7812 130.852 45.1055 130.594 45.2578 130.078C45.4141 129.559 45.4922 128.811 45.4922 127.834C45.4922 126.811 45.4141 126.053 45.2578 125.561C45.1055 125.068 44.7812 124.822 44.2852 124.822C43.7891 124.822 43.4609 125.068 43.3008 125.561C43.1406 126.053 43.0605 126.811 43.0605 127.834ZM44.2852 123.445C45.3672 123.445 46.125 123.826 46.5586 124.588C46.9961 125.35 47.2148 126.432 47.2148 127.834C47.2148 129.236 46.9961 130.316 46.5586 131.074C46.125 131.832 45.3672 132.211 44.2852 132.211C43.2031 132.211 42.4434 131.832 42.0059 131.074C41.5723 130.316 41.3555 129.236 41.3555 127.834C41.3555 126.432 41.5723 125.35 42.0059 124.588C42.4434 123.826 43.2031 123.445 44.2852 123.445ZM56.7773 126.111C56.7773 125.662 56.6582 125.342 56.4199 125.15C56.1855 124.959 55.8555 124.863 55.4297 124.863H53.748V127.406H55.4297C55.8555 127.406 56.1855 127.303 56.4199 127.096C56.6582 126.889 56.7773 126.561 56.7773 126.111ZM58.5645 126.1C58.5645 127.119 58.3066 127.84 57.791 128.262C57.2754 128.684 56.5391 128.895 55.582 128.895H53.748V132H51.9551V123.363H55.7168C56.584 123.363 57.2754 123.586 57.791 124.031C58.3066 124.477 58.5645 125.166 58.5645 126.1ZM65.6426 123.363H68.2383V132H66.5566V126.158C66.5566 125.99 66.5586 125.756 66.5625 125.455C66.5664 125.15 66.5684 124.916 66.5684 124.752L64.9336 132H63.1816L61.5586 124.752C61.5586 124.916 61.5605 125.15 61.5645 125.455C61.5684 125.756 61.5703 125.99 61.5703 126.158V132H59.8887V123.363H62.5137L64.084 130.154L65.6426 123.363Z" fill="white"/>
</svg>
