<svg width="248" height="946" viewBox="0 0 248 946" fill="none" xmlns="http://www.w3.org/2000/svg">
<path d="M34.2693 111.75C33.5792 109.945 31.556 109.041 29.7504 109.731C27.9448 110.421 27.0405 112.444 27.7307 114.25L34.2693 111.75ZM122 133.5C123.933 133.5 125.5 131.933 125.5 130C125.5 128.067 123.933 126.5 122 126.5V133.5ZM35.7341 123.009L32.7117 124.774C32.7504 124.84 32.7912 124.905 32.8341 124.968L35.7341 123.009ZM33.1342 118.49L29.9778 120.003L33.1342 118.49ZM37.569 125.724L34.669 127.684L37.569 125.724ZM45.6187 133.5H122V126.5H45.6187V133.5ZM32.8341 124.968L34.669 127.684L40.469 123.765L38.6341 121.049L32.8341 124.968ZM27.7307 114.25L29.2499 118.224L35.7885 115.725L34.2693 111.75L27.7307 114.25ZM30.9077 121.684L32.7117 124.774L38.7565 121.244L36.9525 118.154L30.9077 121.684ZM29.2499 118.224C29.523 118.939 29.7253 119.476 29.9778 120.003L36.2906 116.978C36.1898 116.768 36.0999 116.54 35.7885 115.725L29.2499 118.224ZM36.9525 118.154C36.5127 117.401 36.3914 117.188 36.2906 116.978L29.9778 120.003C30.2304 120.53 30.522 121.024 30.9077 121.684L36.9525 118.154ZM34.669 127.684C35.1504 128.396 35.7002 129.06 36.3106 129.666L41.2411 124.697C40.954 124.412 40.6954 124.1 40.469 123.765L34.669 127.684ZM45.6187 126.5C43.9787 126.5 42.4052 125.852 41.2411 124.697L36.3106 129.666C38.7859 132.122 42.1316 133.5 45.6187 133.5V126.5Z" fill="#9E2064"/>
<path d="M34.2428 362.683C33.5155 360.892 31.474 360.03 29.6831 360.757C27.8921 361.485 27.0299 363.526 27.7572 365.317L34.2428 362.683ZM122 383.5C123.933 383.5 125.5 381.933 125.5 380C125.5 378.067 123.933 376.5 122 376.5V383.5ZM35.7341 373.42L32.76 375.265C32.7705 375.282 32.7811 375.299 32.7919 375.316L35.7341 373.42ZM32.4645 367.606L29.2217 368.923L32.4645 367.606ZM34.0001 370.625L31.0261 372.47L34.0001 370.625ZM33.1362 369.165L36.2558 367.578L33.1362 369.165ZM37.6443 376.385L34.7021 378.28L37.6443 376.385ZM44.2742 383.5H122V376.5H44.2742V383.5ZM32.7919 375.316L34.7021 378.28L40.5865 374.489L38.6763 371.524L32.7919 375.316ZM27.7572 365.317L29.2217 368.923L35.7073 366.289L34.2428 362.683L27.7572 365.317ZM31.0261 372.47L32.76 375.265L38.7082 371.575L36.9742 368.78L31.0261 372.47ZM29.2217 368.923C29.5204 369.658 29.7417 370.211 30.0165 370.751L36.2558 367.578C36.1461 367.362 36.0478 367.128 35.7073 366.289L29.2217 368.923ZM36.9742 368.78C36.4971 368.011 36.3655 367.794 36.2558 367.578L30.0165 370.751C30.2914 371.292 30.6076 371.796 31.0261 372.47L36.9742 368.78ZM34.7021 378.28C35.1388 378.958 35.6462 379.588 36.2158 380.158L41.1697 375.213C40.9503 374.993 40.7548 374.75 40.5865 374.489L34.7021 378.28ZM44.2742 376.5C43.1095 376.5 41.9926 376.037 41.1697 375.213L36.2158 380.158C38.3518 382.298 41.251 383.5 44.2742 383.5V376.5Z" fill="#9E2064"/>
<path d="M31 82L31 942" stroke="#9E2064" stroke-width="7" stroke-linecap="round" stroke-linejoin="round"/>
<path d="M121.8 135.6C125.556 135.6 128.6 132.556 128.6 128.8C128.6 125.044 125.556 122 121.8 122C118.044 122 115 125.044 115 128.8C115 132.556 118.044 135.6 121.8 135.6Z" fill="white" stroke="#231F20" stroke-miterlimit="10"/>
<path d="M122.8 386.6C126.556 386.6 129.6 383.556 129.6 379.8C129.6 376.044 126.556 373 122.8 373C119.044 373 116 376.044 116 379.8C116 383.556 119.044 386.6 122.8 386.6Z" fill="white" stroke="#231F20" stroke-miterlimit="10"/>
<path d="M73.3906 393.5H81.5547V395.523H75.7812V398.172H80.8359V400.172H75.7812V405H73.3906V393.5ZM85.2109 396.484V401.617C85.2109 402.102 85.2682 402.466 85.3828 402.711C85.5859 403.143 85.9844 403.359 86.5781 403.359C87.3385 403.359 87.8594 403.052 88.1406 402.438C88.2865 402.104 88.3594 401.664 88.3594 401.117V396.484H90.6172V405H88.4531V403.797C88.4323 403.823 88.3802 403.901 88.2969 404.031C88.2135 404.161 88.1146 404.276 88 404.375C87.651 404.688 87.3125 404.901 86.9844 405.016C86.6615 405.13 86.2812 405.188 85.8438 405.188C84.5833 405.188 83.7344 404.734 83.2969 403.828C83.0521 403.328 82.9297 402.591 82.9297 401.617V396.484H85.2109ZM97.4922 396.281C98.3724 396.281 99.0911 396.513 99.6484 396.977C100.211 397.435 100.492 398.198 100.492 399.266V405H98.2109V399.82C98.2109 399.372 98.151 399.029 98.0312 398.789C97.8125 398.352 97.3958 398.133 96.7812 398.133C96.026 398.133 95.5078 398.453 95.2266 399.094C95.0807 399.432 95.0078 399.865 95.0078 400.391V405H92.7891V396.5H94.9375V397.742C95.224 397.305 95.4948 396.99 95.75 396.797C96.2083 396.453 96.7891 396.281 97.4922 396.281ZM115.703 395.523H109.609V397.969H115.203V399.969H109.609V402.93H115.984V405H107.258V393.484H115.703V395.523ZM122.93 396.484H125.32L122.25 405H119.898L116.844 396.484H119.344L121.117 402.766L122.93 396.484ZM129.945 398.094C129.43 398.094 129.029 398.255 128.742 398.578C128.461 398.901 128.284 399.339 128.211 399.891H131.672C131.635 399.302 131.456 398.857 131.133 398.555C130.815 398.247 130.419 398.094 129.945 398.094ZM129.945 396.258C130.654 396.258 131.292 396.391 131.859 396.656C132.427 396.922 132.896 397.341 133.266 397.914C133.599 398.419 133.815 399.005 133.914 399.672C133.971 400.062 133.995 400.625 133.984 401.359H128.156C128.188 402.214 128.456 402.812 128.961 403.156C129.268 403.37 129.638 403.477 130.07 403.477C130.529 403.477 130.901 403.346 131.188 403.086C131.344 402.945 131.482 402.75 131.602 402.5H133.875C133.818 403.005 133.555 403.518 133.086 404.039C132.357 404.867 131.336 405.281 130.023 405.281C128.94 405.281 127.984 404.932 127.156 404.234C126.328 403.536 125.914 402.401 125.914 400.828C125.914 399.354 126.286 398.224 127.031 397.438C127.781 396.651 128.753 396.258 129.945 396.258ZM140.211 396.281C141.091 396.281 141.81 396.513 142.367 396.977C142.93 397.435 143.211 398.198 143.211 399.266V405H140.93V399.82C140.93 399.372 140.87 399.029 140.75 398.789C140.531 398.352 140.115 398.133 139.5 398.133C138.745 398.133 138.227 398.453 137.945 399.094C137.799 399.432 137.727 399.865 137.727 400.391V405H135.508V396.5H137.656V397.742C137.943 397.305 138.214 396.99 138.469 396.797C138.927 396.453 139.508 396.281 140.211 396.281ZM144.398 398.148V396.562H145.586V394.188H147.789V396.562H149.172V398.148H147.789V402.648C147.789 402.997 147.833 403.216 147.922 403.305C148.01 403.388 148.281 403.43 148.734 403.43C148.802 403.43 148.872 403.43 148.945 403.43C149.023 403.424 149.099 403.419 149.172 403.414V405.078L148.117 405.117C147.065 405.154 146.346 404.971 145.961 404.57C145.711 404.315 145.586 403.922 145.586 403.391V398.148H144.398ZM158.789 400.562L159.422 398.281H158.125L157.516 400.562H158.789ZM154.367 400.562H155.953L156.57 398.281H154.977L155.328 396.969H156.922L157.773 393.82H159.328L158.477 396.969H159.773L160.602 393.82H162.156L161.328 396.969H162.898L162.547 398.281H160.977L160.344 400.562H161.938L161.586 401.875H159.992L159.156 405H157.602L158.438 401.875H157.156L156.305 405H154.75L155.602 401.875H154.016L154.367 400.562ZM164.031 397.188V395.672C164.734 395.641 165.227 395.594 165.508 395.531C165.956 395.432 166.32 395.234 166.602 394.938C166.794 394.734 166.94 394.464 167.039 394.125C167.096 393.922 167.125 393.771 167.125 393.672H168.977V405H166.695V397.188H164.031Z" fill="white"/>
<path d="M101.912 429.03H103.416V434.933H106.98V436.227H101.912V429.03ZM110.301 435.246C110.708 435.246 111.02 435.101 111.238 434.811C111.456 434.522 111.565 434.11 111.565 433.576C111.565 433.042 111.456 432.632 111.238 432.345C111.02 432.056 110.708 431.911 110.301 431.911C109.894 431.911 109.58 432.056 109.358 432.345C109.14 432.632 109.031 433.042 109.031 433.576C109.031 434.11 109.14 434.522 109.358 434.811C109.58 435.101 109.894 435.246 110.301 435.246ZM113.025 433.576C113.025 434.357 112.801 435.026 112.352 435.583C111.902 436.136 111.22 436.413 110.306 436.413C109.391 436.413 108.709 436.136 108.26 435.583C107.811 435.026 107.586 434.357 107.586 433.576C107.586 432.808 107.811 432.142 108.26 431.579C108.709 431.016 109.391 430.734 110.306 430.734C111.22 430.734 111.902 431.016 112.352 431.579C112.801 432.142 113.025 432.808 113.025 433.576ZM117.205 432.814C117.179 432.616 117.112 432.437 117.005 432.277C116.849 432.062 116.606 431.955 116.277 431.955C115.809 431.955 115.488 432.188 115.315 432.653C115.224 432.9 115.179 433.229 115.179 433.639C115.179 434.03 115.224 434.344 115.315 434.582C115.481 435.024 115.794 435.246 116.253 435.246C116.578 435.246 116.81 435.158 116.946 434.982C117.083 434.806 117.166 434.579 117.195 434.299H118.616C118.584 434.722 118.431 435.122 118.157 435.5C117.721 436.108 117.075 436.413 116.219 436.413C115.363 436.413 114.733 436.159 114.329 435.651C113.925 435.143 113.724 434.484 113.724 433.674C113.724 432.759 113.947 432.048 114.393 431.54C114.839 431.032 115.454 430.778 116.238 430.778C116.906 430.778 117.451 430.928 117.874 431.227C118.3 431.527 118.553 432.056 118.631 432.814H117.205ZM122.527 433.639C122.439 433.695 122.35 433.74 122.259 433.776C122.171 433.809 122.049 433.84 121.893 433.869L121.58 433.927C121.287 433.98 121.077 434.043 120.95 434.118C120.735 434.245 120.628 434.442 120.628 434.709C120.628 434.946 120.693 435.119 120.823 435.226C120.957 435.33 121.118 435.383 121.307 435.383C121.606 435.383 121.881 435.295 122.132 435.119C122.386 434.943 122.518 434.622 122.527 434.157V433.639ZM121.683 432.99C121.94 432.957 122.124 432.917 122.234 432.868C122.433 432.783 122.532 432.651 122.532 432.472C122.532 432.254 122.456 432.105 122.303 432.023C122.153 431.939 121.932 431.896 121.639 431.896C121.31 431.896 121.077 431.978 120.94 432.14C120.843 432.261 120.778 432.424 120.745 432.629H119.402C119.432 432.163 119.562 431.781 119.793 431.481C120.161 431.012 120.792 430.778 121.688 430.778C122.27 430.778 122.788 430.894 123.24 431.125C123.693 431.356 123.919 431.792 123.919 432.433V434.875C123.919 435.044 123.922 435.249 123.929 435.49C123.938 435.672 123.966 435.796 124.012 435.861C124.057 435.926 124.126 435.98 124.217 436.022V436.227H122.703C122.661 436.12 122.632 436.019 122.615 435.925C122.599 435.83 122.586 435.723 122.576 435.602C122.384 435.811 122.163 435.988 121.912 436.134C121.613 436.307 121.274 436.393 120.896 436.393C120.415 436.393 120.016 436.257 119.7 435.983C119.388 435.706 119.231 435.316 119.231 434.811C119.231 434.157 119.484 433.683 119.988 433.39C120.265 433.231 120.672 433.117 121.209 433.049L121.683 432.99ZM124.612 431.945V430.954H125.354V429.469H126.731V430.954H127.596V431.945H126.731V434.758C126.731 434.976 126.759 435.112 126.814 435.168C126.87 435.22 127.039 435.246 127.322 435.246C127.365 435.246 127.409 435.246 127.454 435.246C127.503 435.243 127.55 435.239 127.596 435.236V436.276L126.937 436.301C126.279 436.323 125.83 436.209 125.589 435.959C125.433 435.799 125.354 435.553 125.354 435.221V431.945H124.612ZM129.92 430.27H128.509V428.986H129.92V430.27ZM128.509 430.905H129.92V436.227H128.509V430.905ZM133.66 435.246C134.067 435.246 134.38 435.101 134.598 434.811C134.816 434.522 134.925 434.11 134.925 433.576C134.925 433.042 134.816 432.632 134.598 432.345C134.38 432.056 134.067 431.911 133.66 431.911C133.253 431.911 132.939 432.056 132.718 432.345C132.5 432.632 132.391 433.042 132.391 433.576C132.391 434.11 132.5 434.522 132.718 434.811C132.939 435.101 133.253 435.246 133.66 435.246ZM136.385 433.576C136.385 434.357 136.16 435.026 135.711 435.583C135.262 436.136 134.58 436.413 133.665 436.413C132.75 436.413 132.068 436.136 131.619 435.583C131.17 435.026 130.945 434.357 130.945 433.576C130.945 432.808 131.17 432.142 131.619 431.579C132.068 431.016 132.75 430.734 133.665 430.734C134.58 430.734 135.262 431.016 135.711 431.579C136.16 432.142 136.385 432.808 136.385 433.576ZM140.335 430.778C140.885 430.778 141.334 430.923 141.683 431.213C142.034 431.499 142.21 431.976 142.21 432.643V436.227H140.784V432.99C140.784 432.71 140.747 432.495 140.672 432.345C140.535 432.072 140.275 431.935 139.891 431.935C139.419 431.935 139.095 432.135 138.919 432.536C138.828 432.747 138.782 433.018 138.782 433.346V436.227H137.396V430.915H138.738V431.691C138.917 431.418 139.087 431.221 139.246 431.1C139.533 430.885 139.896 430.778 140.335 430.778ZM96.668 443.583C96.668 443.861 96.7396 444.078 96.8828 444.231C97.0286 444.385 97.2292 444.462 97.4844 444.462C97.7396 444.462 97.9388 444.385 98.082 444.231C98.2279 444.078 98.3008 443.861 98.3008 443.583C98.3008 443.294 98.2266 443.075 98.0781 442.926C97.9323 442.775 97.7344 442.7 97.4844 442.7C97.2344 442.7 97.0352 442.775 96.8867 442.926C96.7409 443.075 96.668 443.294 96.668 443.583ZM95.5117 443.657C95.5117 443.339 95.5833 443.051 95.7266 442.794C95.8724 442.536 96.0846 442.342 96.3633 442.212C96.0898 442.029 95.9115 441.833 95.8281 441.622C95.7474 441.408 95.707 441.209 95.707 441.024C95.707 440.613 95.862 440.262 96.1719 439.973C96.4818 439.682 96.9193 439.536 97.4844 439.536C98.0495 439.536 98.487 439.682 98.7969 439.973C99.1068 440.262 99.2617 440.613 99.2617 441.024C99.2617 441.209 99.2201 441.408 99.1367 441.622C99.056 441.833 98.8789 442.016 98.6055 442.173C98.8841 442.329 99.0938 442.536 99.2344 442.794C99.375 443.051 99.4453 443.339 99.4453 443.657C99.4453 444.134 99.2682 444.54 98.9141 444.876C98.5625 445.209 98.0703 445.376 97.4375 445.376C96.8047 445.376 96.3255 445.209 96 444.876C95.6745 444.54 95.5117 444.134 95.5117 443.657ZM96.7695 441.149C96.7695 441.355 96.832 441.523 96.957 441.653C97.0846 441.783 97.2604 441.848 97.4844 441.848C97.7109 441.848 97.8854 441.783 98.0078 441.653C98.1328 441.523 98.1953 441.355 98.1953 441.149C98.1953 440.925 98.1328 440.751 98.0078 440.626C97.8854 440.498 97.7109 440.434 97.4844 440.434C97.2604 440.434 97.0846 440.498 96.957 440.626C96.832 440.751 96.7695 440.925 96.7695 441.149ZM100.66 441.137H101.844V442.301H100.66V441.137ZM100.66 444.063H101.844V445.227H100.66V444.063ZM103.805 442.45C103.805 443.101 103.858 443.6 103.965 443.946C104.072 444.29 104.29 444.462 104.621 444.462C104.952 444.462 105.168 444.29 105.27 443.946C105.374 443.6 105.426 443.101 105.426 442.45C105.426 441.768 105.374 441.262 105.27 440.934C105.168 440.606 104.952 440.442 104.621 440.442C104.29 440.442 104.072 440.606 103.965 440.934C103.858 441.262 103.805 441.768 103.805 442.45ZM104.621 439.524C105.342 439.524 105.848 439.778 106.137 440.286C106.428 440.794 106.574 441.515 106.574 442.45C106.574 443.385 106.428 444.105 106.137 444.61C105.848 445.115 105.342 445.368 104.621 445.368C103.9 445.368 103.393 445.115 103.102 444.61C102.812 444.105 102.668 443.385 102.668 442.45C102.668 441.515 102.812 440.794 103.102 440.286C103.393 439.778 103.9 439.524 104.621 439.524ZM108.258 442.45C108.258 443.101 108.311 443.6 108.418 443.946C108.525 444.29 108.743 444.462 109.074 444.462C109.405 444.462 109.621 444.29 109.723 443.946C109.827 443.6 109.879 443.101 109.879 442.45C109.879 441.768 109.827 441.262 109.723 440.934C109.621 440.606 109.405 440.442 109.074 440.442C108.743 440.442 108.525 440.606 108.418 440.934C108.311 441.262 108.258 441.768 108.258 442.45ZM109.074 439.524C109.796 439.524 110.301 439.778 110.59 440.286C110.882 440.794 111.027 441.515 111.027 442.45C111.027 443.385 110.882 444.105 110.59 444.61C110.301 445.115 109.796 445.368 109.074 445.368C108.353 445.368 107.846 445.115 107.555 444.61C107.266 444.105 107.121 443.385 107.121 442.45C107.121 441.515 107.266 440.794 107.555 440.286C107.846 439.778 108.353 439.524 109.074 439.524ZM113.734 442.469H115.977V443.524H113.734V442.469ZM118.68 441.555C118.68 440.949 118.854 440.458 119.203 440.083C119.555 439.705 120.01 439.516 120.57 439.516C121.432 439.516 122.023 439.898 122.344 440.661C122.526 441.093 122.617 441.662 122.617 442.368C122.617 443.053 122.53 443.624 122.355 444.083C122.022 444.955 121.41 445.391 120.52 445.391C120.095 445.391 119.714 445.266 119.375 445.016C119.036 444.764 118.842 444.397 118.793 443.915H119.902C119.928 444.081 119.999 444.217 120.113 444.321C120.228 444.425 120.38 444.477 120.57 444.477C120.938 444.477 121.195 444.274 121.344 443.868C121.424 443.644 121.475 443.317 121.496 442.887C121.395 443.015 121.286 443.113 121.172 443.18C120.964 443.305 120.707 443.368 120.402 443.368C119.952 443.368 119.552 443.213 119.203 442.903C118.854 442.591 118.68 442.141 118.68 441.555ZM120.645 442.462C120.798 442.462 120.943 442.417 121.078 442.329C121.331 442.167 121.457 441.887 121.457 441.489C121.457 441.169 121.382 440.915 121.23 440.727C121.082 440.54 120.878 440.446 120.617 440.446C120.427 440.446 120.264 440.499 120.129 440.606C119.915 440.773 119.809 441.055 119.809 441.454C119.809 441.79 119.876 442.042 120.012 442.212C120.15 442.378 120.361 442.462 120.645 442.462ZM123.801 441.137H124.984V442.301H123.801V441.137ZM123.801 444.063H124.984V445.227H123.801V444.063ZM126.945 442.45C126.945 443.101 126.999 443.6 127.105 443.946C127.212 444.29 127.431 444.462 127.762 444.462C128.092 444.462 128.309 444.29 128.41 443.946C128.514 443.6 128.566 443.101 128.566 442.45C128.566 441.768 128.514 441.262 128.41 440.934C128.309 440.606 128.092 440.442 127.762 440.442C127.431 440.442 127.212 440.606 127.105 440.934C126.999 441.262 126.945 441.768 126.945 442.45ZM127.762 439.524C128.483 439.524 128.988 439.778 129.277 440.286C129.569 440.794 129.715 441.515 129.715 442.45C129.715 443.385 129.569 444.105 129.277 444.61C128.988 445.115 128.483 445.368 127.762 445.368C127.04 445.368 126.534 445.115 126.242 444.61C125.953 444.105 125.809 443.385 125.809 442.45C125.809 441.515 125.953 440.794 126.242 440.286C126.534 439.778 127.04 439.524 127.762 439.524ZM131.398 442.45C131.398 443.101 131.452 443.6 131.559 443.946C131.665 444.29 131.884 444.462 132.215 444.462C132.546 444.462 132.762 444.29 132.863 443.946C132.967 443.6 133.02 443.101 133.02 442.45C133.02 441.768 132.967 441.262 132.863 440.934C132.762 440.606 132.546 440.442 132.215 440.442C131.884 440.442 131.665 440.606 131.559 440.934C131.452 441.262 131.398 441.768 131.398 442.45ZM132.215 439.524C132.936 439.524 133.441 439.778 133.73 440.286C134.022 440.794 134.168 441.515 134.168 442.45C134.168 443.385 134.022 444.105 133.73 444.61C133.441 445.115 132.936 445.368 132.215 445.368C131.493 445.368 130.987 445.115 130.695 444.61C130.406 444.105 130.262 443.385 130.262 442.45C130.262 441.515 130.406 440.794 130.695 440.286C130.987 439.778 131.493 439.524 132.215 439.524ZM140.145 443.098C140.145 442.77 140.069 442.48 139.918 442.227C139.77 441.975 139.527 441.848 139.191 441.848C138.788 441.848 138.51 442.04 138.359 442.423C138.281 442.626 138.242 442.884 138.242 443.196C138.242 443.691 138.374 444.038 138.637 444.239C138.793 444.356 138.978 444.415 139.191 444.415C139.501 444.415 139.737 444.295 139.898 444.055C140.062 443.816 140.145 443.497 140.145 443.098ZM139.512 440.876C140.009 440.876 140.43 441.059 140.773 441.426C141.12 441.794 141.293 442.333 141.293 443.044C141.293 443.794 141.124 444.365 140.785 444.759C140.449 445.152 140.016 445.348 139.484 445.348C139.146 445.348 138.865 445.264 138.641 445.094C138.518 445.001 138.398 444.864 138.281 444.684V446.903H137.18V440.969H138.246V441.598C138.366 441.413 138.493 441.268 138.629 441.161C138.876 440.971 139.171 440.876 139.512 440.876ZM146.859 440.876C147.047 440.876 147.232 440.912 147.414 440.985C147.596 441.058 147.762 441.186 147.91 441.368C148.03 441.516 148.111 441.699 148.152 441.915C148.178 442.058 148.191 442.268 148.191 442.544L148.184 445.227H147.043V442.516C147.043 442.355 147.017 442.222 146.965 442.118C146.866 441.92 146.684 441.821 146.418 441.821C146.111 441.821 145.898 441.949 145.781 442.204C145.721 442.339 145.691 442.502 145.691 442.692V445.227H144.57V442.692C144.57 442.44 144.544 442.256 144.492 442.141C144.398 441.936 144.215 441.833 143.941 441.833C143.624 441.833 143.41 441.936 143.301 442.141C143.241 442.259 143.211 442.433 143.211 442.665V445.227H142.082V440.977H143.164V441.598C143.302 441.377 143.432 441.219 143.555 441.126C143.771 440.959 144.051 440.876 144.395 440.876C144.72 440.876 144.983 440.947 145.184 441.091C145.345 441.223 145.467 441.394 145.551 441.602C145.697 441.352 145.878 441.169 146.094 441.051C146.323 440.934 146.578 440.876 146.859 440.876Z" fill="#999999"/>
<path d="M84.2734 159V147.484H86.6562V151.875H91.1562V147.484H93.5469V159H91.1562V153.859H86.6562V159H84.2734ZM100.367 154.859C100.227 154.948 100.083 155.021 99.9375 155.078C99.7969 155.13 99.6016 155.18 99.3516 155.227L98.8516 155.32C98.3828 155.404 98.0469 155.505 97.8438 155.625C97.5 155.828 97.3281 156.143 97.3281 156.57C97.3281 156.951 97.4323 157.227 97.6406 157.398C97.8542 157.565 98.112 157.648 98.4141 157.648C98.8932 157.648 99.3333 157.508 99.7344 157.227C100.141 156.945 100.352 156.432 100.367 155.688V154.859ZM99.0156 153.82C99.4271 153.768 99.7214 153.703 99.8984 153.625C100.216 153.49 100.375 153.279 100.375 152.992C100.375 152.643 100.253 152.404 100.008 152.273C99.7682 152.138 99.4141 152.07 98.9453 152.07C98.4193 152.07 98.0469 152.201 97.8281 152.461C97.6719 152.654 97.5677 152.914 97.5156 153.242H95.3672C95.4141 152.497 95.6224 151.885 95.9922 151.406C96.5807 150.656 97.5911 150.281 99.0234 150.281C99.9557 150.281 100.784 150.466 101.508 150.836C102.232 151.206 102.594 151.904 102.594 152.93V156.836C102.594 157.107 102.599 157.435 102.609 157.82C102.625 158.112 102.669 158.31 102.742 158.414C102.815 158.518 102.924 158.604 103.07 158.672V159H100.648C100.581 158.828 100.534 158.667 100.508 158.516C100.482 158.365 100.461 158.193 100.445 158C100.138 158.333 99.7839 158.617 99.3828 158.852C98.9036 159.128 98.362 159.266 97.7578 159.266C96.987 159.266 96.349 159.047 95.8438 158.609C95.3438 158.167 95.0938 157.542 95.0938 156.734C95.0938 155.688 95.4974 154.93 96.3047 154.461C96.7474 154.206 97.3984 154.023 98.2578 153.914L99.0156 153.82ZM109.664 153.539C109.622 153.221 109.516 152.935 109.344 152.68C109.094 152.336 108.706 152.164 108.18 152.164C107.43 152.164 106.917 152.536 106.641 153.281C106.495 153.677 106.422 154.203 106.422 154.859C106.422 155.484 106.495 155.987 106.641 156.367C106.906 157.076 107.406 157.43 108.141 157.43C108.661 157.43 109.031 157.289 109.25 157.008C109.469 156.727 109.602 156.362 109.648 155.914H111.922C111.87 156.591 111.625 157.232 111.188 157.836C110.49 158.81 109.456 159.297 108.086 159.297C106.716 159.297 105.708 158.891 105.062 158.078C104.417 157.266 104.094 156.211 104.094 154.914C104.094 153.451 104.451 152.312 105.164 151.5C105.878 150.688 106.862 150.281 108.117 150.281C109.185 150.281 110.057 150.521 110.734 151C111.417 151.479 111.82 152.326 111.945 153.539H109.664ZM113.461 147.523H115.648V153.727L118.422 150.523H121.18L118.203 153.781L121.297 159H118.609L116.57 155.359L115.648 156.32V159H113.461V147.523ZM127.086 154.859C126.945 154.948 126.802 155.021 126.656 155.078C126.516 155.13 126.32 155.18 126.07 155.227L125.57 155.32C125.102 155.404 124.766 155.505 124.562 155.625C124.219 155.828 124.047 156.143 124.047 156.57C124.047 156.951 124.151 157.227 124.359 157.398C124.573 157.565 124.831 157.648 125.133 157.648C125.612 157.648 126.052 157.508 126.453 157.227C126.859 156.945 127.07 156.432 127.086 155.688V154.859ZM125.734 153.82C126.146 153.768 126.44 153.703 126.617 153.625C126.935 153.49 127.094 153.279 127.094 152.992C127.094 152.643 126.971 152.404 126.727 152.273C126.487 152.138 126.133 152.07 125.664 152.07C125.138 152.07 124.766 152.201 124.547 152.461C124.391 152.654 124.286 152.914 124.234 153.242H122.086C122.133 152.497 122.341 151.885 122.711 151.406C123.299 150.656 124.31 150.281 125.742 150.281C126.674 150.281 127.503 150.466 128.227 150.836C128.951 151.206 129.312 151.904 129.312 152.93V156.836C129.312 157.107 129.318 157.435 129.328 157.82C129.344 158.112 129.388 158.31 129.461 158.414C129.534 158.518 129.643 158.604 129.789 158.672V159H127.367C127.299 158.828 127.253 158.667 127.227 158.516C127.201 158.365 127.18 158.193 127.164 158C126.857 158.333 126.503 158.617 126.102 158.852C125.622 159.128 125.081 159.266 124.477 159.266C123.706 159.266 123.068 159.047 122.562 158.609C122.062 158.167 121.812 157.542 121.812 156.734C121.812 155.688 122.216 154.93 123.023 154.461C123.466 154.206 124.117 154.023 124.977 153.914L125.734 153.82ZM130.422 152.148V150.562H131.609V148.188H133.812V150.562H135.195V152.148H133.812V156.648C133.812 156.997 133.857 157.216 133.945 157.305C134.034 157.388 134.305 157.43 134.758 157.43C134.826 157.43 134.896 157.43 134.969 157.43C135.047 157.424 135.122 157.419 135.195 157.414V159.078L134.141 159.117C133.089 159.154 132.37 158.971 131.984 158.57C131.734 158.315 131.609 157.922 131.609 157.391V152.148H130.422ZM141.32 150.266C141.846 150.266 142.323 150.357 142.75 150.539C143.182 150.721 143.536 151 143.812 151.375C144.047 151.693 144.19 152.021 144.242 152.359C144.294 152.693 144.32 153.24 144.32 154V159H142.047V153.82C142.047 153.362 141.969 152.992 141.812 152.711C141.609 152.315 141.224 152.117 140.656 152.117C140.068 152.117 139.62 152.315 139.312 152.711C139.01 153.102 138.859 153.661 138.859 154.391V159H136.641V147.523H138.859V151.594C139.182 151.099 139.555 150.755 139.977 150.562C140.404 150.365 140.852 150.266 141.32 150.266ZM150.227 157.43C150.878 157.43 151.378 157.198 151.727 156.734C152.076 156.271 152.25 155.612 152.25 154.758C152.25 153.904 152.076 153.247 151.727 152.789C151.378 152.326 150.878 152.094 150.227 152.094C149.576 152.094 149.073 152.326 148.719 152.789C148.37 153.247 148.195 153.904 148.195 154.758C148.195 155.612 148.37 156.271 148.719 156.734C149.073 157.198 149.576 157.43 150.227 157.43ZM154.586 154.758C154.586 156.008 154.227 157.078 153.508 157.969C152.789 158.854 151.698 159.297 150.234 159.297C148.771 159.297 147.68 158.854 146.961 157.969C146.242 157.078 145.883 156.008 145.883 154.758C145.883 153.529 146.242 152.464 146.961 151.562C147.68 150.661 148.771 150.211 150.234 150.211C151.698 150.211 152.789 150.661 153.508 151.562C154.227 152.464 154.586 153.529 154.586 154.758ZM160.906 150.281C161.786 150.281 162.505 150.513 163.062 150.977C163.625 151.435 163.906 152.198 163.906 153.266V159H161.625V153.82C161.625 153.372 161.565 153.029 161.445 152.789C161.227 152.352 160.81 152.133 160.195 152.133C159.44 152.133 158.922 152.453 158.641 153.094C158.495 153.432 158.422 153.865 158.422 154.391V159H156.203V150.5H158.352V151.742C158.638 151.305 158.909 150.99 159.164 150.797C159.622 150.453 160.203 150.281 160.906 150.281ZM104.273 171.445C104.346 171.971 104.49 172.365 104.703 172.625C105.094 173.099 105.763 173.336 106.711 173.336C107.279 173.336 107.74 173.273 108.094 173.148C108.766 172.909 109.102 172.464 109.102 171.812C109.102 171.432 108.935 171.138 108.602 170.93C108.268 170.727 107.745 170.547 107.031 170.391L105.812 170.117C104.615 169.846 103.786 169.552 103.328 169.234C102.552 168.703 102.164 167.872 102.164 166.742C102.164 165.711 102.539 164.854 103.289 164.172C104.039 163.49 105.141 163.148 106.594 163.148C107.807 163.148 108.841 163.471 109.695 164.117C110.555 164.758 111.005 165.69 111.047 166.914H108.734C108.693 166.221 108.391 165.729 107.828 165.438C107.453 165.245 106.987 165.148 106.43 165.148C105.81 165.148 105.315 165.273 104.945 165.523C104.576 165.773 104.391 166.122 104.391 166.57C104.391 166.982 104.573 167.289 104.938 167.492C105.172 167.628 105.672 167.786 106.438 167.969L108.422 168.445C109.292 168.654 109.948 168.932 110.391 169.281C111.078 169.823 111.422 170.607 111.422 171.633C111.422 172.685 111.018 173.56 110.211 174.258C109.409 174.951 108.273 175.297 106.805 175.297C105.305 175.297 104.125 174.956 103.266 174.273C102.406 173.586 101.977 172.643 101.977 171.445H104.273ZM112.148 168.148V166.562H113.336V164.188H115.539V166.562H116.922V168.148H115.539V172.648C115.539 172.997 115.583 173.216 115.672 173.305C115.76 173.388 116.031 173.43 116.484 173.43C116.552 173.43 116.622 173.43 116.695 173.43C116.773 173.424 116.849 173.419 116.922 173.414V175.078L115.867 175.117C114.815 175.154 114.096 174.971 113.711 174.57C113.461 174.315 113.336 173.922 113.336 173.391V168.148H112.148ZM123.047 170.859C122.906 170.948 122.763 171.021 122.617 171.078C122.477 171.13 122.281 171.18 122.031 171.227L121.531 171.32C121.062 171.404 120.727 171.505 120.523 171.625C120.18 171.828 120.008 172.143 120.008 172.57C120.008 172.951 120.112 173.227 120.32 173.398C120.534 173.565 120.792 173.648 121.094 173.648C121.573 173.648 122.013 173.508 122.414 173.227C122.82 172.945 123.031 172.432 123.047 171.688V170.859ZM121.695 169.82C122.107 169.768 122.401 169.703 122.578 169.625C122.896 169.49 123.055 169.279 123.055 168.992C123.055 168.643 122.932 168.404 122.688 168.273C122.448 168.138 122.094 168.07 121.625 168.07C121.099 168.07 120.727 168.201 120.508 168.461C120.352 168.654 120.247 168.914 120.195 169.242H118.047C118.094 168.497 118.302 167.885 118.672 167.406C119.26 166.656 120.271 166.281 121.703 166.281C122.635 166.281 123.464 166.466 124.188 166.836C124.911 167.206 125.273 167.904 125.273 168.93V172.836C125.273 173.107 125.279 173.435 125.289 173.82C125.305 174.112 125.349 174.31 125.422 174.414C125.495 174.518 125.604 174.604 125.75 174.672V175H123.328C123.26 174.828 123.214 174.667 123.188 174.516C123.161 174.365 123.141 174.193 123.125 174C122.818 174.333 122.464 174.617 122.062 174.852C121.583 175.128 121.042 175.266 120.438 175.266C119.667 175.266 119.029 175.047 118.523 174.609C118.023 174.167 117.773 173.542 117.773 172.734C117.773 171.688 118.177 170.93 118.984 170.461C119.427 170.206 120.078 170.023 120.938 169.914L121.695 169.82ZM131.883 166.281C131.924 166.281 131.958 166.284 131.984 166.289C132.016 166.289 132.081 166.292 132.18 166.297V168.578C132.039 168.562 131.914 168.552 131.805 168.547C131.695 168.542 131.607 168.539 131.539 168.539C130.643 168.539 130.042 168.831 129.734 169.414C129.562 169.742 129.477 170.247 129.477 170.93V175H127.234V166.484H129.359V167.969C129.703 167.401 130.003 167.013 130.258 166.805C130.674 166.456 131.216 166.281 131.883 166.281ZM132.617 168.148V166.562H133.805V164.188H136.008V166.562H137.391V168.148H136.008V172.648C136.008 172.997 136.052 173.216 136.141 173.305C136.229 173.388 136.5 173.43 136.953 173.43C137.021 173.43 137.091 173.43 137.164 173.43C137.242 173.424 137.318 173.419 137.391 173.414V175.078L136.336 175.117C135.284 175.154 134.565 174.971 134.18 174.57C133.93 174.315 133.805 173.922 133.805 173.391V168.148H132.617ZM140.555 172.281C140.602 172.677 140.703 172.958 140.859 173.125C141.135 173.422 141.646 173.57 142.391 173.57C142.828 173.57 143.174 173.505 143.43 173.375C143.69 173.245 143.82 173.049 143.82 172.789C143.82 172.539 143.716 172.349 143.508 172.219C143.299 172.089 142.526 171.865 141.188 171.547C140.224 171.307 139.544 171.008 139.148 170.648C138.753 170.294 138.555 169.784 138.555 169.117C138.555 168.331 138.862 167.656 139.477 167.094C140.096 166.526 140.966 166.242 142.086 166.242C143.148 166.242 144.013 166.456 144.68 166.883C145.352 167.305 145.737 168.036 145.836 169.078H143.609C143.578 168.792 143.497 168.565 143.367 168.398C143.122 168.096 142.706 167.945 142.117 167.945C141.633 167.945 141.286 168.021 141.078 168.172C140.875 168.323 140.773 168.5 140.773 168.703C140.773 168.958 140.883 169.143 141.102 169.258C141.32 169.378 142.094 169.583 143.422 169.875C144.307 170.083 144.971 170.398 145.414 170.82C145.852 171.247 146.07 171.781 146.07 172.422C146.07 173.266 145.755 173.956 145.125 174.492C144.5 175.023 143.531 175.289 142.219 175.289C140.88 175.289 139.891 175.008 139.25 174.445C138.615 173.878 138.297 173.156 138.297 172.281H140.555Z" fill="white"/>
<path d="M103.912 185.03H105.416V190.933H108.98V192.227H103.912V185.03ZM112.301 191.246C112.708 191.246 113.02 191.101 113.238 190.811C113.456 190.522 113.565 190.11 113.565 189.576C113.565 189.042 113.456 188.632 113.238 188.345C113.02 188.056 112.708 187.911 112.301 187.911C111.894 187.911 111.58 188.056 111.358 188.345C111.14 188.632 111.031 189.042 111.031 189.576C111.031 190.11 111.14 190.522 111.358 190.811C111.58 191.101 111.894 191.246 112.301 191.246ZM115.025 189.576C115.025 190.357 114.801 191.026 114.352 191.583C113.902 192.136 113.22 192.413 112.306 192.413C111.391 192.413 110.709 192.136 110.26 191.583C109.811 191.026 109.586 190.357 109.586 189.576C109.586 188.808 109.811 188.142 110.26 187.579C110.709 187.016 111.391 186.734 112.306 186.734C113.22 186.734 113.902 187.016 114.352 187.579C114.801 188.142 115.025 188.808 115.025 189.576ZM119.205 188.814C119.179 188.616 119.112 188.437 119.005 188.277C118.849 188.062 118.606 187.955 118.277 187.955C117.809 187.955 117.488 188.188 117.315 188.653C117.224 188.9 117.179 189.229 117.179 189.639C117.179 190.03 117.224 190.344 117.315 190.582C117.481 191.024 117.794 191.246 118.253 191.246C118.578 191.246 118.81 191.158 118.946 190.982C119.083 190.806 119.166 190.579 119.195 190.299H120.616C120.584 190.722 120.431 191.122 120.157 191.5C119.721 192.108 119.075 192.413 118.219 192.413C117.363 192.413 116.733 192.159 116.329 191.651C115.925 191.143 115.724 190.484 115.724 189.674C115.724 188.759 115.947 188.048 116.393 187.54C116.839 187.032 117.454 186.778 118.238 186.778C118.906 186.778 119.451 186.928 119.874 187.227C120.3 187.527 120.553 188.056 120.631 188.814H119.205ZM124.527 189.639C124.439 189.695 124.35 189.74 124.259 189.776C124.171 189.809 124.049 189.84 123.893 189.869L123.58 189.927C123.287 189.98 123.077 190.043 122.95 190.118C122.735 190.245 122.628 190.442 122.628 190.709C122.628 190.946 122.693 191.119 122.823 191.226C122.957 191.33 123.118 191.383 123.307 191.383C123.606 191.383 123.881 191.295 124.132 191.119C124.386 190.943 124.518 190.622 124.527 190.157V189.639ZM123.683 188.99C123.94 188.957 124.124 188.917 124.234 188.868C124.433 188.783 124.532 188.651 124.532 188.472C124.532 188.254 124.456 188.105 124.303 188.023C124.153 187.939 123.932 187.896 123.639 187.896C123.31 187.896 123.077 187.978 122.94 188.14C122.843 188.261 122.778 188.424 122.745 188.629H121.402C121.432 188.163 121.562 187.781 121.793 187.481C122.161 187.012 122.792 186.778 123.688 186.778C124.27 186.778 124.788 186.894 125.24 187.125C125.693 187.356 125.919 187.792 125.919 188.433V190.875C125.919 191.044 125.922 191.249 125.929 191.49C125.938 191.672 125.966 191.796 126.012 191.861C126.057 191.926 126.126 191.98 126.217 192.022V192.227H124.703C124.661 192.12 124.632 192.019 124.615 191.925C124.599 191.83 124.586 191.723 124.576 191.602C124.384 191.811 124.163 191.988 123.912 192.134C123.613 192.307 123.274 192.393 122.896 192.393C122.415 192.393 122.016 192.257 121.7 191.983C121.388 191.706 121.231 191.316 121.231 190.811C121.231 190.157 121.484 189.683 121.988 189.39C122.265 189.231 122.672 189.117 123.209 189.049L123.683 188.99ZM126.612 187.945V186.954H127.354V185.469H128.731V186.954H129.596V187.945H128.731V190.758C128.731 190.976 128.759 191.112 128.814 191.168C128.87 191.22 129.039 191.246 129.322 191.246C129.365 191.246 129.409 191.246 129.454 191.246C129.503 191.243 129.55 191.239 129.596 191.236V192.276L128.937 192.301C128.279 192.323 127.83 192.209 127.589 191.959C127.433 191.799 127.354 191.553 127.354 191.221V187.945H126.612ZM131.92 186.27H130.509V184.986H131.92V186.27ZM130.509 186.905H131.92V192.227H130.509V186.905ZM135.66 191.246C136.067 191.246 136.38 191.101 136.598 190.811C136.816 190.522 136.925 190.11 136.925 189.576C136.925 189.042 136.816 188.632 136.598 188.345C136.38 188.056 136.067 187.911 135.66 187.911C135.253 187.911 134.939 188.056 134.718 188.345C134.5 188.632 134.391 189.042 134.391 189.576C134.391 190.11 134.5 190.522 134.718 190.811C134.939 191.101 135.253 191.246 135.66 191.246ZM138.385 189.576C138.385 190.357 138.16 191.026 137.711 191.583C137.262 192.136 136.58 192.413 135.665 192.413C134.75 192.413 134.068 192.136 133.619 191.583C133.17 191.026 132.945 190.357 132.945 189.576C132.945 188.808 133.17 188.142 133.619 187.579C134.068 187.016 134.75 186.734 135.665 186.734C136.58 186.734 137.262 187.016 137.711 187.579C138.16 188.142 138.385 188.808 138.385 189.576ZM142.335 186.778C142.885 186.778 143.334 186.923 143.683 187.213C144.034 187.499 144.21 187.976 144.21 188.643V192.227H142.784V188.99C142.784 188.71 142.747 188.495 142.672 188.345C142.535 188.072 142.275 187.935 141.891 187.935C141.419 187.935 141.095 188.135 140.919 188.536C140.828 188.747 140.782 189.018 140.782 189.346V192.227H139.396V186.915H140.738V187.691C140.917 187.418 141.087 187.221 141.246 187.1C141.533 186.885 141.896 186.778 142.335 186.778ZM95.3125 197.555C95.3125 196.949 95.487 196.458 95.8359 196.083C96.1875 195.705 96.6432 195.516 97.2031 195.516C98.0651 195.516 98.6562 195.898 98.9766 196.661C99.1589 197.093 99.25 197.662 99.25 198.368C99.25 199.053 99.1628 199.624 98.9883 200.083C98.6549 200.955 98.043 201.391 97.1523 201.391C96.7279 201.391 96.3464 201.266 96.0078 201.016C95.6693 200.764 95.4753 200.397 95.4258 199.915H96.5352C96.5612 200.081 96.6315 200.217 96.7461 200.321C96.8607 200.425 97.013 200.477 97.2031 200.477C97.5703 200.477 97.8281 200.274 97.9766 199.868C98.0573 199.644 98.1081 199.317 98.1289 198.887C98.0273 199.015 97.9193 199.113 97.8047 199.18C97.5964 199.305 97.3398 199.368 97.0352 199.368C96.5846 199.368 96.1849 199.213 95.8359 198.903C95.487 198.591 95.3125 198.141 95.3125 197.555ZM97.2773 198.462C97.431 198.462 97.5755 198.417 97.7109 198.329C97.9635 198.167 98.0898 197.887 98.0898 197.489C98.0898 197.169 98.0143 196.915 97.8633 196.727C97.7148 196.54 97.5104 196.446 97.25 196.446C97.0599 196.446 96.8971 196.499 96.7617 196.606C96.5482 196.773 96.4414 197.055 96.4414 197.454C96.4414 197.79 96.5091 198.042 96.6445 198.212C96.7826 198.378 96.9935 198.462 97.2773 198.462ZM100.434 197.137H101.617V198.301H100.434V197.137ZM100.434 200.063H101.617V201.227H100.434V200.063ZM103.578 198.45C103.578 199.101 103.632 199.6 103.738 199.946C103.845 200.29 104.064 200.462 104.395 200.462C104.725 200.462 104.941 200.29 105.043 199.946C105.147 199.6 105.199 199.101 105.199 198.45C105.199 197.768 105.147 197.262 105.043 196.934C104.941 196.606 104.725 196.442 104.395 196.442C104.064 196.442 103.845 196.606 103.738 196.934C103.632 197.262 103.578 197.768 103.578 198.45ZM104.395 195.524C105.116 195.524 105.621 195.778 105.91 196.286C106.202 196.794 106.348 197.515 106.348 198.45C106.348 199.385 106.202 200.105 105.91 200.61C105.621 201.115 105.116 201.368 104.395 201.368C103.673 201.368 103.167 201.115 102.875 200.61C102.586 200.105 102.441 199.385 102.441 198.45C102.441 197.515 102.586 196.794 102.875 196.286C103.167 195.778 103.673 195.524 104.395 195.524ZM108.031 198.45C108.031 199.101 108.085 199.6 108.191 199.946C108.298 200.29 108.517 200.462 108.848 200.462C109.178 200.462 109.395 200.29 109.496 199.946C109.6 199.6 109.652 199.101 109.652 198.45C109.652 197.768 109.6 197.262 109.496 196.934C109.395 196.606 109.178 196.442 108.848 196.442C108.517 196.442 108.298 196.606 108.191 196.934C108.085 197.262 108.031 197.768 108.031 198.45ZM108.848 195.524C109.569 195.524 110.074 195.778 110.363 196.286C110.655 196.794 110.801 197.515 110.801 198.45C110.801 199.385 110.655 200.105 110.363 200.61C110.074 201.115 109.569 201.368 108.848 201.368C108.126 201.368 107.62 201.115 107.328 200.61C107.039 200.105 106.895 199.385 106.895 198.45C106.895 197.515 107.039 196.794 107.328 196.286C107.62 195.778 108.126 195.524 108.848 195.524ZM113.508 198.469H115.75V199.524H113.508V198.469ZM118.77 197.321V196.563C119.121 196.548 119.367 196.524 119.508 196.493C119.732 196.443 119.914 196.344 120.055 196.196C120.151 196.094 120.224 195.959 120.273 195.79C120.302 195.688 120.316 195.613 120.316 195.563H121.242V201.227H120.102V197.321H118.77ZM124.055 198.45C124.055 199.101 124.108 199.6 124.215 199.946C124.322 200.29 124.54 200.462 124.871 200.462C125.202 200.462 125.418 200.29 125.52 199.946C125.624 199.6 125.676 199.101 125.676 198.45C125.676 197.768 125.624 197.262 125.52 196.934C125.418 196.606 125.202 196.442 124.871 196.442C124.54 196.442 124.322 196.606 124.215 196.934C124.108 197.262 124.055 197.768 124.055 198.45ZM124.871 195.524C125.592 195.524 126.098 195.778 126.387 196.286C126.678 196.794 126.824 197.515 126.824 198.45C126.824 199.385 126.678 200.105 126.387 200.61C126.098 201.115 125.592 201.368 124.871 201.368C124.15 201.368 123.643 201.115 123.352 200.61C123.062 200.105 122.918 199.385 122.918 198.45C122.918 197.515 123.062 196.794 123.352 196.286C123.643 195.778 124.15 195.524 124.871 195.524ZM128.027 197.137H129.211V198.301H128.027V197.137ZM128.027 200.063H129.211V201.227H128.027V200.063ZM131.172 198.45C131.172 199.101 131.225 199.6 131.332 199.946C131.439 200.29 131.658 200.462 131.988 200.462C132.319 200.462 132.535 200.29 132.637 199.946C132.741 199.6 132.793 199.101 132.793 198.45C132.793 197.768 132.741 197.262 132.637 196.934C132.535 196.606 132.319 196.442 131.988 196.442C131.658 196.442 131.439 196.606 131.332 196.934C131.225 197.262 131.172 197.768 131.172 198.45ZM131.988 195.524C132.71 195.524 133.215 195.778 133.504 196.286C133.796 196.794 133.941 197.515 133.941 198.45C133.941 199.385 133.796 200.105 133.504 200.61C133.215 201.115 132.71 201.368 131.988 201.368C131.267 201.368 130.76 201.115 130.469 200.61C130.18 200.105 130.035 199.385 130.035 198.45C130.035 197.515 130.18 196.794 130.469 196.286C130.76 195.778 131.267 195.524 131.988 195.524ZM135.625 198.45C135.625 199.101 135.678 199.6 135.785 199.946C135.892 200.29 136.111 200.462 136.441 200.462C136.772 200.462 136.988 200.29 137.09 199.946C137.194 199.6 137.246 199.101 137.246 198.45C137.246 197.768 137.194 197.262 137.09 196.934C136.988 196.606 136.772 196.442 136.441 196.442C136.111 196.442 135.892 196.606 135.785 196.934C135.678 197.262 135.625 197.768 135.625 198.45ZM136.441 195.524C137.163 195.524 137.668 195.778 137.957 196.286C138.249 196.794 138.395 197.515 138.395 198.45C138.395 199.385 138.249 200.105 137.957 200.61C137.668 201.115 137.163 201.368 136.441 201.368C135.72 201.368 135.214 201.115 134.922 200.61C134.633 200.105 134.488 199.385 134.488 198.45C134.488 197.515 134.633 196.794 134.922 196.286C135.214 195.778 135.72 195.524 136.441 195.524ZM144.371 199.098C144.371 198.77 144.296 198.48 144.145 198.227C143.996 197.975 143.754 197.848 143.418 197.848C143.014 197.848 142.737 198.04 142.586 198.423C142.508 198.626 142.469 198.884 142.469 199.196C142.469 199.691 142.6 200.038 142.863 200.239C143.02 200.356 143.204 200.415 143.418 200.415C143.728 200.415 143.964 200.295 144.125 200.055C144.289 199.816 144.371 199.497 144.371 199.098ZM143.738 196.876C144.236 196.876 144.656 197.059 145 197.426C145.346 197.794 145.52 198.333 145.52 199.044C145.52 199.794 145.35 200.365 145.012 200.759C144.676 201.152 144.242 201.348 143.711 201.348C143.372 201.348 143.091 201.264 142.867 201.094C142.745 201.001 142.625 200.864 142.508 200.684V202.903H141.406V196.969H142.473V197.598C142.592 197.413 142.72 197.268 142.855 197.161C143.103 196.971 143.397 196.876 143.738 196.876ZM151.086 196.876C151.273 196.876 151.458 196.912 151.641 196.985C151.823 197.058 151.988 197.186 152.137 197.368C152.257 197.516 152.337 197.699 152.379 197.915C152.405 198.058 152.418 198.268 152.418 198.544L152.41 201.227H151.27V198.516C151.27 198.355 151.243 198.222 151.191 198.118C151.092 197.92 150.91 197.821 150.645 197.821C150.337 197.821 150.125 197.949 150.008 198.204C149.948 198.339 149.918 198.502 149.918 198.692V201.227H148.797V198.692C148.797 198.44 148.771 198.256 148.719 198.141C148.625 197.936 148.441 197.833 148.168 197.833C147.85 197.833 147.637 197.936 147.527 198.141C147.467 198.259 147.438 198.433 147.438 198.665V201.227H146.309V196.977H147.391V197.598C147.529 197.377 147.659 197.219 147.781 197.126C147.997 196.959 148.277 196.876 148.621 196.876C148.947 196.876 149.21 196.947 149.41 197.091C149.572 197.223 149.694 197.394 149.777 197.602C149.923 197.352 150.104 197.169 150.32 197.051C150.549 196.934 150.805 196.876 151.086 196.876Z" fill="#999999"/>
<path d="M121.78 81.6C144.302 81.6 162.559 63.3332 162.559 40.8C162.559 18.2668 144.302 0 121.78 0C99.2576 0 81 18.2668 81 40.8C81 63.3332 99.2576 81.6 121.78 81.6Z" fill="#9E2064"/>
<path d="M122.504 43.0676C118.259 41.8472 115.165 40.3519 113.223 38.5815C111.298 36.794 110.335 34.5939 110.335 31.9814C110.335 29.0251 111.513 26.5844 113.868 24.6593C116.239 22.7171 119.316 21.746 123.097 21.746C125.676 21.746 127.97 22.2444 129.981 23.2413C132.009 24.2382 133.573 25.6133 134.673 27.3664C135.791 29.1196 136.349 31.0361 136.349 33.1158H131.373C131.373 30.847 130.652 29.068 129.208 27.7789C127.764 26.4727 125.727 25.8195 123.097 25.8195C120.657 25.8195 118.749 26.3609 117.374 27.4438C116.016 28.5094 115.337 29.9962 115.337 31.904C115.337 33.4338 115.982 34.7314 117.271 35.7971C118.577 36.8456 120.786 37.8081 123.897 38.6847C127.025 39.5612 129.466 40.5324 131.219 41.598C132.989 42.6465 134.295 43.8754 135.138 45.2848C135.997 46.6942 136.427 48.3529 136.427 50.2607C136.427 53.303 135.241 55.7436 132.869 57.5827C130.497 59.4047 127.326 60.3156 123.355 60.3156C120.777 60.3156 118.371 59.8258 116.136 58.8461C113.902 57.8492 112.175 56.4913 110.954 54.7725C109.751 53.0537 109.149 51.1029 109.149 48.9201H114.125C114.125 51.1889 114.959 52.985 116.626 54.3085C118.311 55.6147 120.554 56.2679 123.355 56.2679C125.968 56.2679 127.97 55.7351 129.362 54.6694C130.755 53.6038 131.451 52.1514 131.451 50.3123C131.451 48.4732 130.806 47.0552 129.517 46.0583C128.228 45.0442 125.89 44.0473 122.504 43.0676Z" fill="white"/>
<path d="M108.51 90.1396C108.51 91.279 108.603 92.1517 108.79 92.7578C108.977 93.3594 109.36 93.6602 109.938 93.6602C110.517 93.6602 110.896 93.3594 111.073 92.7578C111.256 92.1517 111.347 91.279 111.347 90.1396C111.347 88.9456 111.256 88.0615 111.073 87.4873C110.896 86.9131 110.517 86.626 109.938 86.626C109.36 86.626 108.977 86.9131 108.79 87.4873C108.603 88.0615 108.51 88.9456 108.51 90.1396ZM109.938 85.0195C111.201 85.0195 112.085 85.4639 112.591 86.3525C113.101 87.2412 113.356 88.5036 113.356 90.1396C113.356 91.7757 113.101 93.0358 112.591 93.9199C112.085 94.804 111.201 95.2461 109.938 95.2461C108.676 95.2461 107.79 94.804 107.279 93.9199C106.773 93.0358 106.521 91.7757 106.521 90.1396C106.521 88.5036 106.773 87.2412 107.279 86.3525C107.79 85.4639 108.676 85.0195 109.938 85.0195ZM114.313 95C114.332 94.2891 114.484 93.6396 114.771 93.0518C115.049 92.391 115.706 91.6914 116.74 90.9531C117.638 90.3105 118.219 89.8503 118.483 89.5723C118.889 89.1393 119.092 88.6654 119.092 88.1504C119.092 87.7311 118.976 87.3825 118.743 87.1045C118.511 86.8265 118.178 86.6875 117.745 86.6875C117.153 86.6875 116.749 86.9085 116.535 87.3506C116.412 87.6058 116.339 88.0114 116.316 88.5674H114.423C114.455 87.7243 114.607 87.043 114.881 86.5234C115.4 85.5345 116.323 85.04 117.649 85.04C118.698 85.04 119.532 85.3317 120.151 85.915C120.771 86.4938 121.081 87.2617 121.081 88.2188C121.081 88.9525 120.862 89.6042 120.425 90.1738C120.138 90.5521 119.666 90.9736 119.01 91.4385L118.23 91.9922C117.743 92.3385 117.408 92.5892 117.226 92.7441C117.048 92.8991 116.897 93.0791 116.774 93.2842H121.102V95H114.313ZM121.99 90.1738H125.914V92.0195H121.99V90.1738ZM128.758 90.1396C128.758 91.279 128.851 92.1517 129.038 92.7578C129.225 93.3594 129.608 93.6602 130.187 93.6602C130.765 93.6602 131.144 93.3594 131.321 92.7578C131.504 92.1517 131.595 91.279 131.595 90.1396C131.595 88.9456 131.504 88.0615 131.321 87.4873C131.144 86.9131 130.765 86.626 130.187 86.626C129.608 86.626 129.225 86.9131 129.038 87.4873C128.851 88.0615 128.758 88.9456 128.758 90.1396ZM130.187 85.0195C131.449 85.0195 132.333 85.4639 132.839 86.3525C133.349 87.2412 133.604 88.5036 133.604 90.1396C133.604 91.7757 133.349 93.0358 132.839 93.9199C132.333 94.804 131.449 95.2461 130.187 95.2461C128.924 95.2461 128.038 94.804 127.527 93.9199C127.021 93.0358 126.769 91.7757 126.769 90.1396C126.769 88.5036 127.021 87.2412 127.527 86.3525C128.038 85.4639 128.924 85.0195 130.187 85.0195ZM134.562 95C134.58 94.2891 134.732 93.6396 135.02 93.0518C135.298 92.391 135.954 91.6914 136.988 90.9531C137.886 90.3105 138.467 89.8503 138.731 89.5723C139.137 89.1393 139.34 88.6654 139.34 88.1504C139.34 87.7311 139.224 87.3825 138.991 87.1045C138.759 86.8265 138.426 86.6875 137.993 86.6875C137.401 86.6875 136.997 86.9085 136.783 87.3506C136.66 87.6058 136.587 88.0114 136.564 88.5674H134.671C134.703 87.7243 134.855 87.043 135.129 86.5234C135.648 85.5345 136.571 85.04 137.897 85.04C138.946 85.04 139.78 85.3317 140.399 85.915C141.019 86.4938 141.329 87.2617 141.329 88.2188C141.329 88.9525 141.11 89.6042 140.673 90.1738C140.386 90.5521 139.914 90.9736 139.258 91.4385L138.479 91.9922C137.991 92.3385 137.656 92.5892 137.474 92.7441C137.296 92.8991 137.146 93.0791 137.022 93.2842H141.35V95H134.562Z" fill="white"/>
</svg>
