<?xml version="1.0" encoding="utf-8"?>
<!-- Generator: Adobe Illustrator 22.1.0, SVG Export Plug-In . SVG Version: 6.00 Build 0)  -->
<svg version="1.1" id="Layer_1" xmlns="http://www.w3.org/2000/svg" xmlns:xlink="http://www.w3.org/1999/xlink" x="0px" y="0px"
	 viewBox="0 0 230 631" style="enable-background:new 0 0 230 631;" xml:space="preserve">
<style type="text/css">
	.st0{fill:#F6921E;}
	.st1{fill:#F15A24;}
	.st2{fill:#ED1C24;}
	.st3{fill:#FFFFFF;stroke:#231F20;stroke-miterlimit:10;}
</style>
<g>
	<line class="st0" x1="56.1" y1="72.1" x2="56.1" y2="11"/>
	<g>
		<path class="st0" d="M59.8,72.1c0-20.4,0-40.7,0-61.1c0-4.8-7.5-4.8-7.5,0c0,20.4,0,40.7,0,61.1C52.3,77,59.8,77,59.8,72.1
			L59.8,72.1z"/>
	</g>
</g>
<g>
	<line class="st0" x1="207.9" y1="160.4" x2="55.4" y2="72.4"/>
	<g>
		<path class="st0" d="M209.8,157.2c-17.2-9.9-34.4-19.9-51.6-29.8c-27.3-15.8-54.6-31.5-81.8-47.3c-6.3-3.7-12.7-7.3-19-11
			c-4.2-2.4-8,4.1-3.8,6.5c17.2,9.9,34.4,19.9,51.6,29.8c27.3,15.8,54.6,31.5,81.8,47.3c6.3,3.7,12.7,7.3,19,11
			C210.2,166.1,213.9,159.6,209.8,157.2L209.8,157.2z"/>
	</g>
</g>
<g>
	<line class="st1" x1="40.9" y1="276.3" x2="41.5" y2="11"/>
	<g>
		<path class="st1" d="M44.7,276.3c0.1-30,0.1-59.9,0.2-89.9c0.1-47.5,0.2-95.1,0.3-142.6c0-10.9,0.1-21.9,0.1-32.8
			c0-4.8-7.5-4.8-7.5,0c-0.1,30-0.1,59.9-0.2,89.9c-0.1,47.5-0.2,95.1-0.3,142.6c0,10.9-0.1,21.9-0.1,32.8
			C37.1,281.2,44.6,281.2,44.7,276.3L44.7,276.3z"/>
	</g>
</g>
<g>
	<line class="st1" x1="208.1" y1="371.4" x2="41.5" y2="274.9"/>
	<g>
		<path class="st1" d="M210,368.2c-18.8-10.9-37.7-21.8-56.5-32.7c-29.8-17.3-59.7-34.6-89.5-51.9c-6.9-4-13.7-8-20.6-11.9
			c-4.2-2.4-8,4.1-3.8,6.5c18.8,10.9,37.7,21.8,56.5,32.7c29.8,17.3,59.7,34.6,89.5,51.9c6.9,4,13.7,8,20.6,11.9
			C210.4,377.1,214.2,370.6,210,368.2L210,368.2z"/>
	</g>
</g>
<g>
	<line class="st2" x1="26.9" y1="508.7" x2="26.9" y2="11"/>
	<g>
		<path class="st2" d="M30.6,508.7c0-16.5,0-33.1,0-49.6c0-39.7,0-79.4,0-119.1c0-47.8,0-95.7,0-143.5c0-41.4,0-82.7,0-124.1
			c0-13.7,0-27.4,0-41.1c0-6.5,0.4-13.1,0-19.5c0-0.3,0-0.6,0-0.9c0-4.8-7.5-4.8-7.5,0c0,16.5,0,33.1,0,49.6c0,39.7,0,79.4,0,119.1
			c0,47.8,0,95.7,0,143.5c0,41.4,0,82.7,0,124.1c0,13.7,0,27.4,0,41.1c0,6.5-0.4,13.1,0,19.5c0,0.3,0,0.6,0,0.9
			C23.1,513.5,30.6,513.6,30.6,508.7L30.6,508.7z"/>
	</g>
</g>
<g>
	<line class="st2" x1="210" y1="623" x2="26.9" y2="509"/>
	<g>
		<path class="st2" d="M211.9,619.8c-20.6-12.9-41.3-25.7-61.9-38.6c-32.9-20.5-65.8-40.9-98.6-61.4c-7.5-4.7-15-9.3-22.5-14
			c-4.1-2.6-7.9,3.9-3.8,6.5c20.6,12.9,41.3,25.7,61.9,38.6c32.9,20.5,65.8,40.9,98.6,61.4c7.5,4.7,15,9.3,22.5,14
			C212.2,628.8,216,622.3,211.9,619.8L211.9,619.8z"/>
	</g>
</g>
<circle class="st3" cx="26.5" cy="7.8" r="6.8"/>
<circle class="st3" cx="41.5" cy="7.8" r="6.8"/>
<circle class="st3" cx="56.5" cy="7.8" r="6.8"/>
<circle class="st3" cx="55.5" cy="72.8" r="6.8"/>
<circle class="st3" cx="209.5" cy="161.8" r="6.8"/>
<circle class="st3" cx="41.5" cy="276.8" r="6.8"/>
<circle class="st3" cx="27.5" cy="508.8" r="6.8"/>
<circle class="st3" cx="209.5" cy="622.8" r="6.8"/>
<circle class="st3" cx="209.5" cy="372.8" r="6.8"/>
</svg>
