<svg width="296" height="945" viewBox="0 0 296 945" fill="none" xmlns="http://www.w3.org/2000/svg">
<path d="M29.9531 124.922C29.7031 125.168 29.3555 125.607 28.9102 126.24C28.4648 126.869 28.0918 127.52 27.791 128.191C27.5527 128.719 27.3379 129.363 27.1465 130.125C26.9551 130.887 26.8594 131.512 26.8594 132H25.125C25.1758 130.477 25.6758 128.893 26.625 127.248C27.2383 126.229 27.752 125.518 28.166 125.115H23.9297L23.9531 123.615H29.9531V124.922ZM31.6641 125.865H33.4395V127.611H31.6641V125.865ZM31.6641 130.254H33.4395V132H31.6641V130.254ZM36.3809 127.834C36.3809 128.811 36.4609 129.559 36.6211 130.078C36.7812 130.594 37.1094 130.852 37.6055 130.852C38.1016 130.852 38.4258 130.594 38.5781 130.078C38.7344 129.559 38.8125 128.811 38.8125 127.834C38.8125 126.811 38.7344 126.053 38.5781 125.561C38.4258 125.068 38.1016 124.822 37.6055 124.822C37.1094 124.822 36.7812 125.068 36.6211 125.561C36.4609 126.053 36.3809 126.811 36.3809 127.834ZM37.6055 123.445C38.6875 123.445 39.4453 123.826 39.8789 124.588C40.3164 125.35 40.5352 126.432 40.5352 127.834C40.5352 129.236 40.3164 130.316 39.8789 131.074C39.4453 131.832 38.6875 132.211 37.6055 132.211C36.5234 132.211 35.7637 131.832 35.3262 131.074C34.8926 130.316 34.6758 129.236 34.6758 127.834C34.6758 126.432 34.8926 125.35 35.3262 124.588C35.7637 123.826 36.5234 123.445 37.6055 123.445ZM43.0605 127.834C43.0605 128.811 43.1406 129.559 43.3008 130.078C43.4609 130.594 43.7891 130.852 44.2852 130.852C44.7812 130.852 45.1055 130.594 45.2578 130.078C45.4141 129.559 45.4922 128.811 45.4922 127.834C45.4922 126.811 45.4141 126.053 45.2578 125.561C45.1055 125.068 44.7812 124.822 44.2852 124.822C43.7891 124.822 43.4609 125.068 43.3008 125.561C43.1406 126.053 43.0605 126.811 43.0605 127.834ZM44.2852 123.445C45.3672 123.445 46.125 123.826 46.5586 124.588C46.9961 125.35 47.2148 126.432 47.2148 127.834C47.2148 129.236 46.9961 130.316 46.5586 131.074C46.125 131.832 45.3672 132.211 44.2852 132.211C43.2031 132.211 42.4434 131.832 42.0059 131.074C41.5723 130.316 41.3555 129.236 41.3555 127.834C41.3555 126.432 41.5723 125.35 42.0059 124.588C42.4434 123.826 43.2031 123.445 44.2852 123.445ZM56.7773 126.111C56.7773 125.662 56.6582 125.342 56.4199 125.15C56.1855 124.959 55.8555 124.863 55.4297 124.863H53.748V127.406H55.4297C55.8555 127.406 56.1855 127.303 56.4199 127.096C56.6582 126.889 56.7773 126.561 56.7773 126.111ZM58.5645 126.1C58.5645 127.119 58.3066 127.84 57.791 128.262C57.2754 128.684 56.5391 128.895 55.582 128.895H53.748V132H51.9551V123.363H55.7168C56.584 123.363 57.2754 123.586 57.791 124.031C58.3066 124.477 58.5645 125.166 58.5645 126.1ZM65.6426 123.363H68.2383V132H66.5566V126.158C66.5566 125.99 66.5586 125.756 66.5625 125.455C66.5664 125.15 66.5684 124.916 66.5684 124.752L64.9336 132H63.1816L61.5586 124.752C61.5586 124.916 61.5605 125.15 61.5645 125.455C61.5684 125.756 61.5703 125.99 61.5703 126.158V132H59.8887V123.363H62.5137L64.084 130.154L65.6426 123.363Z" fill="white"/>
<path d="M171.78 81.6C194.302 81.6 212.559 63.3332 212.559 40.8C212.559 18.2668 194.302 0 171.78 0C149.258 0 131 18.2668 131 40.8C131 63.3332 149.258 81.6 171.78 81.6Z" fill="#65308F"/>
<path d="M173.704 43.0676C169.459 41.8472 166.365 40.3519 164.422 38.5815C162.497 36.794 161.535 34.5939 161.535 31.9814C161.535 29.0251 162.712 26.5844 165.067 24.6593C167.439 22.7171 170.516 21.746 174.297 21.746C176.875 21.746 179.17 22.2444 181.181 23.2413C183.209 24.2382 184.773 25.6133 185.873 27.3664C186.99 29.1196 187.549 31.0361 187.549 33.1158H182.573C182.573 30.847 181.851 29.068 180.407 27.7789C178.963 26.4727 176.927 25.8195 174.297 25.8195C171.856 25.8195 169.948 26.3609 168.573 27.4438C167.215 28.5094 166.537 29.9962 166.537 31.904C166.537 33.4338 167.181 34.7314 168.47 35.7971C169.776 36.8456 171.985 37.8081 175.096 38.6847C178.224 39.5612 180.665 40.5324 182.418 41.598C184.189 42.6465 185.495 43.8754 186.337 45.2848C187.196 46.6942 187.626 48.3529 187.626 50.2607C187.626 53.303 186.44 55.7436 184.068 57.5827C181.696 59.4047 178.525 60.3156 174.555 60.3156C171.977 60.3156 169.57 59.8258 167.336 58.8461C165.101 57.8492 163.374 56.4913 162.154 54.7725C160.951 53.0537 160.349 51.1029 160.349 48.9201H165.325C165.325 51.1889 166.158 52.985 167.826 54.3085C169.51 55.6147 171.753 56.2679 174.555 56.2679C177.167 56.2679 179.17 55.7351 180.562 54.6694C181.954 53.6038 182.65 52.1514 182.65 50.3123C182.65 48.4732 182.006 47.0552 180.717 46.0583C179.427 45.0442 177.09 44.0473 173.704 43.0676Z" fill="white"/>
<path d="M84.2693 110.75C83.5792 108.945 81.556 108.041 79.7504 108.731C77.9448 109.421 77.0405 111.444 77.7307 113.25L84.2693 110.75ZM172 132.5C173.933 132.5 175.5 130.933 175.5 129C175.5 127.067 173.933 125.5 172 125.5V132.5ZM85.7341 122.009L82.7117 123.774C82.7504 123.84 82.7912 123.905 82.8341 123.968L85.7341 122.009ZM83.1342 117.49L79.9778 119.003L83.1342 117.49ZM87.569 124.724L84.669 126.684L87.569 124.724ZM95.6187 132.5H172V125.5H95.6187V132.5ZM82.8341 123.968L84.669 126.684L90.469 122.765L88.6341 120.049L82.8341 123.968ZM77.7307 113.25L79.2499 117.224L85.7885 114.725L84.2693 110.75L77.7307 113.25ZM80.9077 120.684L82.7117 123.774L88.7565 120.244L86.9525 117.154L80.9077 120.684ZM79.2499 117.224C79.523 117.939 79.7253 118.476 79.9778 119.003L86.2906 115.978C86.1898 115.768 86.0999 115.54 85.7885 114.725L79.2499 117.224ZM86.9525 117.154C86.5127 116.401 86.3914 116.188 86.2906 115.978L79.9778 119.003C80.2304 119.53 80.522 120.024 80.9077 120.684L86.9525 117.154ZM84.669 126.684C85.1504 127.396 85.7002 128.06 86.3106 128.666L91.2411 123.697C90.954 123.412 90.6954 123.1 90.469 122.765L84.669 126.684ZM95.6187 125.5C93.9787 125.5 92.4052 124.852 91.2411 123.697L86.3106 128.666C88.7859 131.122 92.1316 132.5 95.6187 132.5V125.5Z" fill="#65308F"/>
<path d="M81 81L81 941" stroke="#65308F" stroke-width="7" stroke-linecap="round" stroke-linejoin="round"/>
<path d="M171.8 134.6C175.556 134.6 178.6 131.556 178.6 127.8C178.6 124.044 175.556 121 171.8 121C168.044 121 165 124.044 165 127.8C165 131.556 168.044 134.6 171.8 134.6Z" fill="white" stroke="#231F20" stroke-miterlimit="10"/>
<path d="M135.75 134.375H139.672V136H137.859V147.445H139.672V149.078H135.75V134.375ZM140.242 139.148V137.562H141.43V135.188H143.633V137.562H145.016V139.148H143.633V143.648C143.633 143.997 143.677 144.216 143.766 144.305C143.854 144.388 144.125 144.43 144.578 144.43C144.646 144.43 144.716 144.43 144.789 144.43C144.867 144.424 144.943 144.419 145.016 144.414V146.078L143.961 146.117C142.909 146.154 142.19 145.971 141.805 145.57C141.555 145.315 141.43 144.922 141.43 144.391V139.148H140.242ZM149.805 139.094C149.289 139.094 148.888 139.255 148.602 139.578C148.32 139.901 148.143 140.339 148.07 140.891H151.531C151.495 140.302 151.315 139.857 150.992 139.555C150.674 139.247 150.279 139.094 149.805 139.094ZM149.805 137.258C150.513 137.258 151.151 137.391 151.719 137.656C152.286 137.922 152.755 138.341 153.125 138.914C153.458 139.419 153.674 140.005 153.773 140.672C153.831 141.062 153.854 141.625 153.844 142.359H148.016C148.047 143.214 148.315 143.812 148.82 144.156C149.128 144.37 149.497 144.477 149.93 144.477C150.388 144.477 150.76 144.346 151.047 144.086C151.203 143.945 151.341 143.75 151.461 143.5H153.734C153.677 144.005 153.414 144.518 152.945 145.039C152.216 145.867 151.195 146.281 149.883 146.281C148.799 146.281 147.844 145.932 147.016 145.234C146.188 144.536 145.773 143.401 145.773 141.828C145.773 140.354 146.146 139.224 146.891 138.438C147.641 137.651 148.612 137.258 149.805 137.258ZM160.07 137.281C160.951 137.281 161.669 137.513 162.227 137.977C162.789 138.435 163.07 139.198 163.07 140.266V146H160.789V140.82C160.789 140.372 160.729 140.029 160.609 139.789C160.391 139.352 159.974 139.133 159.359 139.133C158.604 139.133 158.086 139.453 157.805 140.094C157.659 140.432 157.586 140.865 157.586 141.391V146H155.367V137.5H157.516V138.742C157.802 138.305 158.073 137.99 158.328 137.797C158.786 137.453 159.367 137.281 160.07 137.281ZM164.258 139.148V137.562H165.445V135.188H167.648V137.562H169.031V139.148H167.648V143.648C167.648 143.997 167.693 144.216 167.781 144.305C167.87 144.388 168.141 144.43 168.594 144.43C168.661 144.43 168.732 144.43 168.805 144.43C168.883 144.424 168.958 144.419 169.031 144.414V146.078L167.977 146.117C166.924 146.154 166.206 145.971 165.82 145.57C165.57 145.315 165.445 144.922 165.445 144.391V139.148H164.258ZM175.156 141.859C175.016 141.948 174.872 142.021 174.727 142.078C174.586 142.13 174.391 142.18 174.141 142.227L173.641 142.32C173.172 142.404 172.836 142.505 172.633 142.625C172.289 142.828 172.117 143.143 172.117 143.57C172.117 143.951 172.221 144.227 172.43 144.398C172.643 144.565 172.901 144.648 173.203 144.648C173.682 144.648 174.122 144.508 174.523 144.227C174.93 143.945 175.141 143.432 175.156 142.688V141.859ZM173.805 140.82C174.216 140.768 174.51 140.703 174.688 140.625C175.005 140.49 175.164 140.279 175.164 139.992C175.164 139.643 175.042 139.404 174.797 139.273C174.557 139.138 174.203 139.07 173.734 139.07C173.208 139.07 172.836 139.201 172.617 139.461C172.461 139.654 172.357 139.914 172.305 140.242H170.156C170.203 139.497 170.411 138.885 170.781 138.406C171.37 137.656 172.38 137.281 173.812 137.281C174.745 137.281 175.573 137.466 176.297 137.836C177.021 138.206 177.383 138.904 177.383 139.93V143.836C177.383 144.107 177.388 144.435 177.398 144.82C177.414 145.112 177.458 145.31 177.531 145.414C177.604 145.518 177.714 145.604 177.859 145.672V146H175.438C175.37 145.828 175.323 145.667 175.297 145.516C175.271 145.365 175.25 145.193 175.234 145C174.927 145.333 174.573 145.617 174.172 145.852C173.693 146.128 173.151 146.266 172.547 146.266C171.776 146.266 171.138 146.047 170.633 145.609C170.133 145.167 169.883 144.542 169.883 143.734C169.883 142.688 170.286 141.93 171.094 141.461C171.536 141.206 172.188 141.023 173.047 140.914L173.805 140.82ZM178.492 139.148V137.562H179.68V135.188H181.883V137.562H183.266V139.148H181.883V143.648C181.883 143.997 181.927 144.216 182.016 144.305C182.104 144.388 182.375 144.43 182.828 144.43C182.896 144.43 182.966 144.43 183.039 144.43C183.117 144.424 183.193 144.419 183.266 144.414V146.078L182.211 146.117C181.159 146.154 180.44 145.971 180.055 145.57C179.805 145.315 179.68 144.922 179.68 144.391V139.148H178.492ZM186.984 136.469H184.727V134.414H186.984V136.469ZM184.727 137.484H186.984V146H184.727V137.484ZM194.398 137.484H196.789L193.719 146H191.367L188.312 137.484H190.812L192.586 143.766L194.398 137.484ZM201.414 139.094C200.898 139.094 200.497 139.255 200.211 139.578C199.93 139.901 199.753 140.339 199.68 140.891H203.141C203.104 140.302 202.924 139.857 202.602 139.555C202.284 139.247 201.888 139.094 201.414 139.094ZM201.414 137.258C202.122 137.258 202.76 137.391 203.328 137.656C203.896 137.922 204.365 138.341 204.734 138.914C205.068 139.419 205.284 140.005 205.383 140.672C205.44 141.062 205.464 141.625 205.453 142.359H199.625C199.656 143.214 199.924 143.812 200.43 144.156C200.737 144.37 201.107 144.477 201.539 144.477C201.997 144.477 202.37 144.346 202.656 144.086C202.812 143.945 202.951 143.75 203.07 143.5H205.344C205.286 144.005 205.023 144.518 204.555 145.039C203.826 145.867 202.805 146.281 201.492 146.281C200.409 146.281 199.453 145.932 198.625 145.234C197.797 144.536 197.383 143.401 197.383 141.828C197.383 140.354 197.755 139.224 198.5 138.438C199.25 137.651 200.221 137.258 201.414 137.258ZM206.289 147.445H208.102V135.969H206.289V134.375H210.211V149.078H206.289V147.445ZM140.219 154.148C140.219 153.549 140.06 153.122 139.742 152.867C139.43 152.612 138.99 152.484 138.422 152.484H136.18V155.875H138.422C138.99 155.875 139.43 155.737 139.742 155.461C140.06 155.185 140.219 154.747 140.219 154.148ZM142.602 154.133C142.602 155.492 142.258 156.453 141.57 157.016C140.883 157.578 139.901 157.859 138.625 157.859H136.18V162H133.789V150.484H138.805C139.961 150.484 140.883 150.781 141.57 151.375C142.258 151.969 142.602 152.888 142.602 154.133ZM149.5 160.281C150.453 160.281 151.208 159.93 151.766 159.227C152.328 158.523 152.609 157.523 152.609 156.227C152.609 154.935 152.328 153.938 151.766 153.234C151.208 152.526 150.453 152.172 149.5 152.172C148.547 152.172 147.786 152.523 147.219 153.227C146.651 153.93 146.367 154.93 146.367 156.227C146.367 157.523 146.651 158.523 147.219 159.227C147.786 159.93 148.547 160.281 149.5 160.281ZM155.016 156.227C155.016 158.294 154.435 159.878 153.273 160.977C152.404 161.872 151.146 162.32 149.5 162.32C147.854 162.32 146.596 161.872 145.727 160.977C144.56 159.878 143.977 158.294 143.977 156.227C143.977 154.117 144.56 152.534 145.727 151.477C146.596 150.581 147.854 150.133 149.5 150.133C151.146 150.133 152.404 150.581 153.273 151.477C154.435 152.534 155.016 154.117 155.016 156.227ZM156.359 156.336C156.359 154.326 156.898 152.776 157.977 151.688C158.914 150.74 160.107 150.266 161.555 150.266C163.492 150.266 164.909 150.901 165.805 152.172C166.299 152.885 166.565 153.602 166.602 154.32H164.195C164.039 153.768 163.839 153.352 163.594 153.07C163.156 152.57 162.508 152.32 161.648 152.32C160.773 152.32 160.083 152.674 159.578 153.383C159.073 154.086 158.82 155.083 158.82 156.375C158.82 157.667 159.086 158.635 159.617 159.281C160.154 159.922 160.833 160.242 161.656 160.242C162.5 160.242 163.143 159.966 163.586 159.414C163.831 159.117 164.034 158.672 164.195 158.078H166.578C166.37 159.333 165.836 160.354 164.977 161.141C164.122 161.927 163.026 162.32 161.688 162.32C160.031 162.32 158.729 161.789 157.781 160.727C156.833 159.659 156.359 158.195 156.359 156.336ZM180.508 150.484H183.969V162H181.727V154.211C181.727 153.987 181.729 153.674 181.734 153.273C181.74 152.867 181.742 152.555 181.742 152.336L179.562 162H177.227L175.062 152.336C175.062 152.555 175.065 152.867 175.07 153.273C175.076 153.674 175.078 153.987 175.078 154.211V162H172.836V150.484H176.336L178.43 159.539L180.508 150.484ZM188.312 152.469H186.055V150.414H188.312V152.469ZM186.055 153.484H188.312V162H186.055V153.484ZM189.641 162L192.547 157.688L189.766 153.5H192.492L193.914 155.969L195.305 153.5H197.953L195.156 157.648L198.062 162H195.289L193.82 159.445L192.344 162H189.641ZM202.742 155.094C202.227 155.094 201.826 155.255 201.539 155.578C201.258 155.901 201.081 156.339 201.008 156.891H204.469C204.432 156.302 204.253 155.857 203.93 155.555C203.612 155.247 203.216 155.094 202.742 155.094ZM202.742 153.258C203.451 153.258 204.089 153.391 204.656 153.656C205.224 153.922 205.693 154.341 206.062 154.914C206.396 155.419 206.612 156.005 206.711 156.672C206.768 157.062 206.792 157.625 206.781 158.359H200.953C200.984 159.214 201.253 159.812 201.758 160.156C202.065 160.37 202.435 160.477 202.867 160.477C203.326 160.477 203.698 160.346 203.984 160.086C204.141 159.945 204.279 159.75 204.398 159.5H206.672C206.615 160.005 206.352 160.518 205.883 161.039C205.154 161.867 204.133 162.281 202.82 162.281C201.737 162.281 200.781 161.932 199.953 161.234C199.125 160.536 198.711 159.401 198.711 157.828C198.711 156.354 199.083 155.224 199.828 154.438C200.578 153.651 201.549 153.258 202.742 153.258ZM212.914 153.281C212.956 153.281 212.99 153.284 213.016 153.289C213.047 153.289 213.112 153.292 213.211 153.297V155.578C213.07 155.562 212.945 155.552 212.836 155.547C212.727 155.542 212.638 155.539 212.57 155.539C211.674 155.539 211.073 155.831 210.766 156.414C210.594 156.742 210.508 157.247 210.508 157.93V162H208.266V153.484H210.391V154.969C210.734 154.401 211.034 154.013 211.289 153.805C211.706 153.456 212.247 153.281 212.914 153.281Z" fill="white"/>
<path d="M152.912 178.803H154.416V184.706H157.98V186H152.912V178.803ZM161.301 185.019C161.708 185.019 162.02 184.874 162.238 184.584C162.456 184.294 162.565 183.882 162.565 183.349C162.565 182.815 162.456 182.405 162.238 182.118C162.02 181.828 161.708 181.684 161.301 181.684C160.894 181.684 160.58 181.828 160.358 182.118C160.14 182.405 160.031 182.815 160.031 183.349C160.031 183.882 160.14 184.294 160.358 184.584C160.58 184.874 160.894 185.019 161.301 185.019ZM164.025 183.349C164.025 184.13 163.801 184.799 163.352 185.355C162.902 185.909 162.22 186.186 161.306 186.186C160.391 186.186 159.709 185.909 159.26 185.355C158.811 184.799 158.586 184.13 158.586 183.349C158.586 182.58 158.811 181.915 159.26 181.352C159.709 180.788 160.391 180.507 161.306 180.507C162.22 180.507 162.902 180.788 163.352 181.352C163.801 181.915 164.025 182.58 164.025 183.349ZM168.205 182.587C168.179 182.388 168.112 182.209 168.005 182.05C167.849 181.835 167.606 181.728 167.277 181.728C166.809 181.728 166.488 181.96 166.315 182.426C166.224 182.673 166.179 183.002 166.179 183.412C166.179 183.803 166.224 184.117 166.315 184.354C166.481 184.797 166.794 185.019 167.253 185.019C167.578 185.019 167.81 184.931 167.946 184.755C168.083 184.579 168.166 184.351 168.195 184.071H169.616C169.584 184.494 169.431 184.895 169.157 185.272C168.721 185.881 168.075 186.186 167.219 186.186C166.363 186.186 165.733 185.932 165.329 185.424C164.925 184.916 164.724 184.257 164.724 183.446C164.724 182.532 164.947 181.82 165.393 181.312C165.839 180.805 166.454 180.551 167.238 180.551C167.906 180.551 168.451 180.701 168.874 181C169.3 181.299 169.553 181.828 169.631 182.587H168.205ZM173.527 183.412C173.439 183.467 173.35 183.513 173.259 183.549C173.171 183.581 173.049 183.612 172.893 183.642L172.58 183.7C172.287 183.752 172.077 183.816 171.95 183.891C171.735 184.018 171.628 184.215 171.628 184.481C171.628 184.719 171.693 184.892 171.823 184.999C171.957 185.103 172.118 185.155 172.307 185.155C172.606 185.155 172.881 185.067 173.132 184.892C173.386 184.716 173.518 184.395 173.527 183.93V183.412ZM172.683 182.763C172.94 182.73 173.124 182.689 173.234 182.641C173.433 182.556 173.532 182.424 173.532 182.245C173.532 182.027 173.456 181.877 173.303 181.796C173.153 181.711 172.932 181.669 172.639 181.669C172.31 181.669 172.077 181.75 171.94 181.913C171.843 182.034 171.778 182.196 171.745 182.401H170.402C170.432 181.936 170.562 181.553 170.793 181.254C171.161 180.785 171.792 180.551 172.688 180.551C173.27 180.551 173.788 180.666 174.24 180.897C174.693 181.129 174.919 181.565 174.919 182.206V184.647C174.919 184.817 174.922 185.022 174.929 185.263C174.938 185.445 174.966 185.569 175.012 185.634C175.057 185.699 175.126 185.753 175.217 185.795V186H173.703C173.661 185.893 173.632 185.792 173.615 185.697C173.599 185.603 173.586 185.495 173.576 185.375C173.384 185.583 173.163 185.761 172.912 185.907C172.613 186.08 172.274 186.166 171.896 186.166C171.415 186.166 171.016 186.029 170.7 185.756C170.388 185.479 170.231 185.089 170.231 184.584C170.231 183.93 170.484 183.456 170.988 183.163C171.265 183.004 171.672 182.89 172.209 182.821L172.683 182.763ZM175.612 181.718V180.727H176.354V179.242H177.731V180.727H178.596V181.718H177.731V184.53C177.731 184.748 177.759 184.885 177.814 184.94C177.87 184.993 178.039 185.019 178.322 185.019C178.365 185.019 178.409 185.019 178.454 185.019C178.503 185.015 178.55 185.012 178.596 185.009V186.049L177.937 186.073C177.279 186.096 176.83 185.982 176.589 185.731C176.433 185.572 176.354 185.326 176.354 184.994V181.718H175.612ZM180.92 180.043H179.509V178.759H180.92V180.043ZM179.509 180.678H180.92V186H179.509V180.678ZM184.66 185.019C185.067 185.019 185.38 184.874 185.598 184.584C185.816 184.294 185.925 183.882 185.925 183.349C185.925 182.815 185.816 182.405 185.598 182.118C185.38 181.828 185.067 181.684 184.66 181.684C184.253 181.684 183.939 181.828 183.718 182.118C183.5 182.405 183.391 182.815 183.391 183.349C183.391 183.882 183.5 184.294 183.718 184.584C183.939 184.874 184.253 185.019 184.66 185.019ZM187.385 183.349C187.385 184.13 187.16 184.799 186.711 185.355C186.262 185.909 185.58 186.186 184.665 186.186C183.75 186.186 183.068 185.909 182.619 185.355C182.17 184.799 181.945 184.13 181.945 183.349C181.945 182.58 182.17 181.915 182.619 181.352C183.068 180.788 183.75 180.507 184.665 180.507C185.58 180.507 186.262 180.788 186.711 181.352C187.16 181.915 187.385 182.58 187.385 183.349ZM191.335 180.551C191.885 180.551 192.334 180.696 192.683 180.985C193.034 181.272 193.21 181.749 193.21 182.416V186H191.784V182.763C191.784 182.483 191.747 182.268 191.672 182.118C191.535 181.845 191.275 181.708 190.891 181.708C190.419 181.708 190.095 181.908 189.919 182.309C189.828 182.52 189.782 182.79 189.782 183.119V186H188.396V180.688H189.738V181.464C189.917 181.19 190.087 180.993 190.246 180.873C190.533 180.658 190.896 180.551 191.335 180.551ZM148.293 189.281C148.126 189.445 147.895 189.738 147.598 190.16C147.301 190.579 147.052 191.013 146.852 191.461C146.693 191.812 146.549 192.242 146.422 192.75C146.294 193.258 146.23 193.674 146.23 194H145.074C145.108 192.984 145.441 191.928 146.074 190.832C146.483 190.152 146.826 189.678 147.102 189.41H144.277L144.293 188.41H148.293V189.281ZM149.434 189.91H150.617V191.074H149.434V189.91ZM149.434 192.836H150.617V194H149.434V192.836ZM152.578 191.223C152.578 191.874 152.632 192.372 152.738 192.719C152.845 193.062 153.064 193.234 153.395 193.234C153.725 193.234 153.941 193.062 154.043 192.719C154.147 192.372 154.199 191.874 154.199 191.223C154.199 190.54 154.147 190.035 154.043 189.707C153.941 189.379 153.725 189.215 153.395 189.215C153.064 189.215 152.845 189.379 152.738 189.707C152.632 190.035 152.578 190.54 152.578 191.223ZM153.395 188.297C154.116 188.297 154.621 188.551 154.91 189.059C155.202 189.566 155.348 190.288 155.348 191.223C155.348 192.158 155.202 192.878 154.91 193.383C154.621 193.888 154.116 194.141 153.395 194.141C152.673 194.141 152.167 193.888 151.875 193.383C151.586 192.878 151.441 192.158 151.441 191.223C151.441 190.288 151.586 189.566 151.875 189.059C152.167 188.551 152.673 188.297 153.395 188.297ZM157.031 191.223C157.031 191.874 157.085 192.372 157.191 192.719C157.298 193.062 157.517 193.234 157.848 193.234C158.178 193.234 158.395 193.062 158.496 192.719C158.6 192.372 158.652 191.874 158.652 191.223C158.652 190.54 158.6 190.035 158.496 189.707C158.395 189.379 158.178 189.215 157.848 189.215C157.517 189.215 157.298 189.379 157.191 189.707C157.085 190.035 157.031 190.54 157.031 191.223ZM157.848 188.297C158.569 188.297 159.074 188.551 159.363 189.059C159.655 189.566 159.801 190.288 159.801 191.223C159.801 192.158 159.655 192.878 159.363 193.383C159.074 193.888 158.569 194.141 157.848 194.141C157.126 194.141 156.62 193.888 156.328 193.383C156.039 192.878 155.895 192.158 155.895 191.223C155.895 190.288 156.039 189.566 156.328 189.059C156.62 188.551 157.126 188.297 157.848 188.297ZM162.508 191.242H164.75V192.297H162.508V191.242ZM167.77 190.094V189.336C168.121 189.32 168.367 189.297 168.508 189.266C168.732 189.216 168.914 189.117 169.055 188.969C169.151 188.867 169.224 188.732 169.273 188.562C169.302 188.461 169.316 188.385 169.316 188.336H170.242V194H169.102V190.094H167.77ZM173.055 191.223C173.055 191.874 173.108 192.372 173.215 192.719C173.322 193.062 173.54 193.234 173.871 193.234C174.202 193.234 174.418 193.062 174.52 192.719C174.624 192.372 174.676 191.874 174.676 191.223C174.676 190.54 174.624 190.035 174.52 189.707C174.418 189.379 174.202 189.215 173.871 189.215C173.54 189.215 173.322 189.379 173.215 189.707C173.108 190.035 173.055 190.54 173.055 191.223ZM173.871 188.297C174.592 188.297 175.098 188.551 175.387 189.059C175.678 189.566 175.824 190.288 175.824 191.223C175.824 192.158 175.678 192.878 175.387 193.383C175.098 193.888 174.592 194.141 173.871 194.141C173.15 194.141 172.643 193.888 172.352 193.383C172.062 192.878 171.918 192.158 171.918 191.223C171.918 190.288 172.062 189.566 172.352 189.059C172.643 188.551 173.15 188.297 173.871 188.297ZM177.027 189.91H178.211V191.074H177.027V189.91ZM177.027 192.836H178.211V194H177.027V192.836ZM180.172 191.223C180.172 191.874 180.225 192.372 180.332 192.719C180.439 193.062 180.658 193.234 180.988 193.234C181.319 193.234 181.535 193.062 181.637 192.719C181.741 192.372 181.793 191.874 181.793 191.223C181.793 190.54 181.741 190.035 181.637 189.707C181.535 189.379 181.319 189.215 180.988 189.215C180.658 189.215 180.439 189.379 180.332 189.707C180.225 190.035 180.172 190.54 180.172 191.223ZM180.988 188.297C181.71 188.297 182.215 188.551 182.504 189.059C182.796 189.566 182.941 190.288 182.941 191.223C182.941 192.158 182.796 192.878 182.504 193.383C182.215 193.888 181.71 194.141 180.988 194.141C180.267 194.141 179.76 193.888 179.469 193.383C179.18 192.878 179.035 192.158 179.035 191.223C179.035 190.288 179.18 189.566 179.469 189.059C179.76 188.551 180.267 188.297 180.988 188.297ZM184.625 191.223C184.625 191.874 184.678 192.372 184.785 192.719C184.892 193.062 185.111 193.234 185.441 193.234C185.772 193.234 185.988 193.062 186.09 192.719C186.194 192.372 186.246 191.874 186.246 191.223C186.246 190.54 186.194 190.035 186.09 189.707C185.988 189.379 185.772 189.215 185.441 189.215C185.111 189.215 184.892 189.379 184.785 189.707C184.678 190.035 184.625 190.54 184.625 191.223ZM185.441 188.297C186.163 188.297 186.668 188.551 186.957 189.059C187.249 189.566 187.395 190.288 187.395 191.223C187.395 192.158 187.249 192.878 186.957 193.383C186.668 193.888 186.163 194.141 185.441 194.141C184.72 194.141 184.214 193.888 183.922 193.383C183.633 192.878 183.488 192.158 183.488 191.223C183.488 190.288 183.633 189.566 183.922 189.059C184.214 188.551 184.72 188.297 185.441 188.297ZM193.371 191.871C193.371 191.543 193.296 191.253 193.145 191C192.996 190.747 192.754 190.621 192.418 190.621C192.014 190.621 191.737 190.812 191.586 191.195C191.508 191.398 191.469 191.656 191.469 191.969C191.469 192.464 191.6 192.811 191.863 193.012C192.02 193.129 192.204 193.188 192.418 193.188C192.728 193.188 192.964 193.068 193.125 192.828C193.289 192.589 193.371 192.27 193.371 191.871ZM192.738 189.648C193.236 189.648 193.656 189.832 194 190.199C194.346 190.566 194.52 191.105 194.52 191.816C194.52 192.566 194.35 193.138 194.012 193.531C193.676 193.924 193.242 194.121 192.711 194.121C192.372 194.121 192.091 194.036 191.867 193.867C191.745 193.773 191.625 193.637 191.508 193.457V195.676H190.406V189.742H191.473V190.371C191.592 190.186 191.72 190.04 191.855 189.934C192.103 189.743 192.397 189.648 192.738 189.648ZM200.086 189.648C200.273 189.648 200.458 189.685 200.641 189.758C200.823 189.831 200.988 189.958 201.137 190.141C201.257 190.289 201.337 190.471 201.379 190.688C201.405 190.831 201.418 191.04 201.418 191.316L201.41 194H200.27V191.289C200.27 191.128 200.243 190.995 200.191 190.891C200.092 190.693 199.91 190.594 199.645 190.594C199.337 190.594 199.125 190.721 199.008 190.977C198.948 191.112 198.918 191.275 198.918 191.465V194H197.797V191.465C197.797 191.212 197.771 191.029 197.719 190.914C197.625 190.708 197.441 190.605 197.168 190.605C196.85 190.605 196.637 190.708 196.527 190.914C196.467 191.031 196.438 191.206 196.438 191.438V194H195.309V189.75H196.391V190.371C196.529 190.15 196.659 189.992 196.781 189.898C196.997 189.732 197.277 189.648 197.621 189.648C197.947 189.648 198.21 189.72 198.41 189.863C198.572 189.996 198.694 190.167 198.777 190.375C198.923 190.125 199.104 189.941 199.32 189.824C199.549 189.707 199.805 189.648 200.086 189.648Z" fill="#999999"/>
<path d="M144.51 89.1396C144.51 90.279 144.603 91.1517 144.79 91.7578C144.977 92.3594 145.36 92.6602 145.938 92.6602C146.517 92.6602 146.896 92.3594 147.073 91.7578C147.256 91.1517 147.347 90.279 147.347 89.1396C147.347 87.9456 147.256 87.0615 147.073 86.4873C146.896 85.9131 146.517 85.626 145.938 85.626C145.36 85.626 144.977 85.9131 144.79 86.4873C144.603 87.0615 144.51 87.9456 144.51 89.1396ZM145.938 84.0195C147.201 84.0195 148.085 84.4639 148.591 85.3525C149.101 86.2412 149.356 87.5036 149.356 89.1396C149.356 90.7757 149.101 92.0358 148.591 92.9199C148.085 93.804 147.201 94.2461 145.938 94.2461C144.676 94.2461 143.79 93.804 143.279 92.9199C142.773 92.0358 142.521 90.7757 142.521 89.1396C142.521 87.5036 142.773 86.2412 143.279 85.3525C143.79 84.4639 144.676 84.0195 145.938 84.0195ZM150.313 94C150.332 93.2891 150.484 92.6396 150.771 92.0518C151.049 91.391 151.706 90.6914 152.74 89.9531C153.638 89.3105 154.219 88.8503 154.483 88.5723C154.889 88.1393 155.092 87.6654 155.092 87.1504C155.092 86.7311 154.976 86.3825 154.743 86.1045C154.511 85.8265 154.178 85.6875 153.745 85.6875C153.153 85.6875 152.749 85.9085 152.535 86.3506C152.412 86.6058 152.339 87.0114 152.316 87.5674H150.423C150.455 86.7243 150.607 86.043 150.881 85.5234C151.4 84.5345 152.323 84.04 153.649 84.04C154.698 84.04 155.532 84.3317 156.151 84.915C156.771 85.4938 157.081 86.2617 157.081 87.2188C157.081 87.9525 156.862 88.6042 156.425 89.1738C156.138 89.5521 155.666 89.9736 155.01 90.4385L154.23 90.9922C153.743 91.3385 153.408 91.5892 153.226 91.7441C153.048 91.8991 152.897 92.0791 152.774 92.2842H157.102V94H150.313ZM157.99 89.1738H161.914V91.0195H157.99V89.1738ZM164.758 89.1396C164.758 90.279 164.851 91.1517 165.038 91.7578C165.225 92.3594 165.608 92.6602 166.187 92.6602C166.765 92.6602 167.144 92.3594 167.321 91.7578C167.504 91.1517 167.595 90.279 167.595 89.1396C167.595 87.9456 167.504 87.0615 167.321 86.4873C167.144 85.9131 166.765 85.626 166.187 85.626C165.608 85.626 165.225 85.9131 165.038 86.4873C164.851 87.0615 164.758 87.9456 164.758 89.1396ZM166.187 84.0195C167.449 84.0195 168.333 84.4639 168.839 85.3525C169.349 86.2412 169.604 87.5036 169.604 89.1396C169.604 90.7757 169.349 92.0358 168.839 92.9199C168.333 93.804 167.449 94.2461 166.187 94.2461C164.924 94.2461 164.038 93.804 163.527 92.9199C163.021 92.0358 162.769 90.7757 162.769 89.1396C162.769 87.5036 163.021 86.2412 163.527 85.3525C164.038 84.4639 164.924 84.0195 166.187 84.0195ZM172.407 90.958C172.407 91.3545 172.471 91.6826 172.599 91.9424C172.836 92.4209 173.266 92.6602 173.891 92.6602C174.273 92.6602 174.606 92.5303 174.889 92.2705C175.176 92.0062 175.319 91.6279 175.319 91.1357C175.319 90.484 175.055 90.0488 174.526 89.8301C174.226 89.707 173.752 89.6455 173.104 89.6455V88.251C173.738 88.2419 174.18 88.1803 174.431 88.0664C174.864 87.875 175.08 87.4876 175.08 86.9043C175.08 86.526 174.968 86.2184 174.745 85.9814C174.526 85.7445 174.216 85.626 173.815 85.626C173.355 85.626 173.016 85.7718 172.797 86.0635C172.583 86.3551 172.48 86.7448 172.489 87.2324H170.671C170.689 86.7402 170.773 86.2731 170.924 85.8311C171.083 85.4437 171.334 85.0859 171.676 84.7578C171.931 84.5254 172.234 84.3477 172.585 84.2246C172.936 84.1016 173.367 84.04 173.877 84.04C174.825 84.04 175.588 84.2861 176.167 84.7783C176.75 85.266 177.042 85.9222 177.042 86.7471C177.042 87.3304 176.869 87.8226 176.522 88.2236C176.304 88.4743 176.076 88.6452 175.839 88.7363C176.017 88.7363 176.272 88.889 176.604 89.1943C177.101 89.6546 177.35 90.2835 177.35 91.0811C177.35 91.9196 177.058 92.6579 176.475 93.2959C175.896 93.9294 175.037 94.2461 173.897 94.2461C172.494 94.2461 171.519 93.7881 170.972 92.8721C170.685 92.3844 170.525 91.7464 170.493 90.958H172.407Z" fill="white"/>
</svg>
