<svg width="226" height="948" viewBox="0 0 226 948" fill="none" xmlns="http://www.w3.org/2000/svg">
<path d="M108.78 81.6C131.302 81.6 149.559 63.3332 149.559 40.8C149.559 18.2668 131.302 0 108.78 0C86.2577 0 68 18.2668 68 40.8C68 63.3332 86.2577 81.6 108.78 81.6Z" fill="#65308F"/>
<path d="M110.704 43.0676C106.459 41.8472 103.365 40.3519 101.422 38.5815C99.4974 36.794 98.5349 34.5939 98.5349 31.9814C98.5349 29.0251 99.7123 26.5844 102.067 24.6593C104.439 22.7171 107.516 21.746 111.297 21.746C113.875 21.746 116.17 22.2444 118.181 23.2413C120.209 24.2382 121.773 25.6133 122.873 27.3664C123.99 29.1196 124.549 31.0361 124.549 33.1158H119.573C119.573 30.847 118.851 29.068 117.407 27.7789C115.963 26.4727 113.927 25.8195 111.297 25.8195C108.856 25.8195 106.948 26.3609 105.573 27.4438C104.215 28.5094 103.537 29.9962 103.537 31.904C103.537 33.4338 104.181 34.7314 105.47 35.7971C106.776 36.8456 108.985 37.8081 112.096 38.6847C115.224 39.5612 117.665 40.5324 119.418 41.598C121.189 42.6465 122.495 43.8754 123.337 45.2848C124.196 46.6942 124.626 48.3529 124.626 50.2607C124.626 53.303 123.44 55.7436 121.068 57.5827C118.696 59.4047 115.525 60.3156 111.555 60.3156C108.977 60.3156 106.57 59.8258 104.336 58.8461C102.101 57.8492 100.374 56.4913 99.1537 54.7725C97.9505 53.0537 97.3489 51.1029 97.3489 48.9201H102.325C102.325 51.1889 103.158 52.985 104.826 54.3085C106.51 55.6147 108.753 56.2679 111.555 56.2679C114.167 56.2679 116.17 55.7351 117.562 54.6694C118.954 53.6038 119.65 52.1514 119.65 50.3123C119.65 48.4732 119.006 47.0552 117.717 46.0583C116.427 45.0442 114.09 44.0473 110.704 43.0676Z" fill="white"/>
<path d="M36.2693 113.75C35.5792 111.945 33.556 111.041 31.7504 111.731C29.9448 112.421 29.0405 114.444 29.7307 116.25L36.2693 113.75ZM124 135.5C125.933 135.5 127.5 133.933 127.5 132C127.5 130.067 125.933 128.5 124 128.5V135.5ZM37.7341 125.009L34.7117 126.774C34.7504 126.84 34.7912 126.905 34.8341 126.968L37.7341 125.009ZM35.1342 120.49L31.9778 122.003L35.1342 120.49ZM39.569 127.724L36.669 129.684L39.569 127.724ZM47.6187 135.5H124V128.5H47.6187V135.5ZM34.8341 126.968L36.669 129.684L42.469 125.765L40.6341 123.049L34.8341 126.968ZM29.7307 116.25L31.2499 120.224L37.7885 117.725L36.2693 113.75L29.7307 116.25ZM32.9077 123.684L34.7117 126.774L40.7565 123.244L38.9525 120.154L32.9077 123.684ZM31.2499 120.224C31.523 120.939 31.7253 121.476 31.9778 122.003L38.2906 118.978C38.1898 118.768 38.0999 118.54 37.7885 117.725L31.2499 120.224ZM38.9525 120.154C38.5127 119.401 38.3914 119.188 38.2906 118.978L31.9778 122.003C32.2304 122.53 32.522 123.024 32.9077 123.684L38.9525 120.154ZM36.669 129.684C37.1504 130.396 37.7002 131.06 38.3106 131.666L43.2411 126.697C42.954 126.412 42.6954 126.1 42.469 125.765L36.669 129.684ZM47.6187 128.5C45.9787 128.5 44.4052 127.852 43.2411 126.697L38.3106 131.666C40.7859 134.122 44.1316 135.5 47.6187 135.5V128.5Z" fill="#65308F"/>
<path d="M33 84L33 944" stroke="#65308F" stroke-width="7" stroke-linecap="round" stroke-linejoin="round"/>
<path d="M123.8 137.6C127.556 137.6 130.6 134.556 130.6 130.8C130.6 127.044 127.556 124 123.8 124C120.044 124 117 127.044 117 130.8C117 134.556 120.044 137.6 123.8 137.6Z" fill="white" stroke="#231F20" stroke-miterlimit="10"/>
<path d="M92.2188 149.148C92.2188 148.549 92.0599 148.122 91.7422 147.867C91.4297 147.612 90.9896 147.484 90.4219 147.484H88.1797V150.875H90.4219C90.9896 150.875 91.4297 150.737 91.7422 150.461C92.0599 150.185 92.2188 149.747 92.2188 149.148ZM94.6016 149.133C94.6016 150.492 94.2578 151.453 93.5703 152.016C92.8828 152.578 91.901 152.859 90.625 152.859H88.1797V157H85.7891V145.484H90.8047C91.9609 145.484 92.8828 145.781 93.5703 146.375C94.2578 146.969 94.6016 147.888 94.6016 149.133ZM101.5 155.281C102.453 155.281 103.208 154.93 103.766 154.227C104.328 153.523 104.609 152.523 104.609 151.227C104.609 149.935 104.328 148.938 103.766 148.234C103.208 147.526 102.453 147.172 101.5 147.172C100.547 147.172 99.7865 147.523 99.2188 148.227C98.651 148.93 98.3672 149.93 98.3672 151.227C98.3672 152.523 98.651 153.523 99.2188 154.227C99.7865 154.93 100.547 155.281 101.5 155.281ZM107.016 151.227C107.016 153.294 106.435 154.878 105.273 155.977C104.404 156.872 103.146 157.32 101.5 157.32C99.8542 157.32 98.5964 156.872 97.7266 155.977C96.5599 154.878 95.9766 153.294 95.9766 151.227C95.9766 149.117 96.5599 147.534 97.7266 146.477C98.5964 145.581 99.8542 145.133 101.5 145.133C103.146 145.133 104.404 145.581 105.273 146.477C106.435 147.534 107.016 149.117 107.016 151.227ZM108.359 151.336C108.359 149.326 108.898 147.776 109.977 146.688C110.914 145.74 112.107 145.266 113.555 145.266C115.492 145.266 116.909 145.901 117.805 147.172C118.299 147.885 118.565 148.602 118.602 149.32H116.195C116.039 148.768 115.839 148.352 115.594 148.07C115.156 147.57 114.508 147.32 113.648 147.32C112.773 147.32 112.083 147.674 111.578 148.383C111.073 149.086 110.82 150.083 110.82 151.375C110.82 152.667 111.086 153.635 111.617 154.281C112.154 154.922 112.833 155.242 113.656 155.242C114.5 155.242 115.143 154.966 115.586 154.414C115.831 154.117 116.034 153.672 116.195 153.078H118.578C118.37 154.333 117.836 155.354 116.977 156.141C116.122 156.927 115.026 157.32 113.688 157.32C112.031 157.32 110.729 156.789 109.781 155.727C108.833 154.659 108.359 153.195 108.359 151.336ZM132.508 145.484H135.969V157H133.727V149.211C133.727 148.987 133.729 148.674 133.734 148.273C133.74 147.867 133.742 147.555 133.742 147.336L131.562 157H129.227L127.062 147.336C127.062 147.555 127.065 147.867 127.07 148.273C127.076 148.674 127.078 148.987 127.078 149.211V157H124.836V145.484H128.336L130.43 154.539L132.508 145.484ZM140.312 147.469H138.055V145.414H140.312V147.469ZM138.055 148.484H140.312V157H138.055V148.484ZM141.641 157L144.547 152.688L141.766 148.5H144.492L145.914 150.969L147.305 148.5H149.953L147.156 152.648L150.062 157H147.289L145.82 154.445L144.344 157H141.641ZM154.742 150.094C154.227 150.094 153.826 150.255 153.539 150.578C153.258 150.901 153.081 151.339 153.008 151.891H156.469C156.432 151.302 156.253 150.857 155.93 150.555C155.612 150.247 155.216 150.094 154.742 150.094ZM154.742 148.258C155.451 148.258 156.089 148.391 156.656 148.656C157.224 148.922 157.693 149.341 158.062 149.914C158.396 150.419 158.612 151.005 158.711 151.672C158.768 152.062 158.792 152.625 158.781 153.359H152.953C152.984 154.214 153.253 154.812 153.758 155.156C154.065 155.37 154.435 155.477 154.867 155.477C155.326 155.477 155.698 155.346 155.984 155.086C156.141 154.945 156.279 154.75 156.398 154.5H158.672C158.615 155.005 158.352 155.518 157.883 156.039C157.154 156.867 156.133 157.281 154.82 157.281C153.737 157.281 152.781 156.932 151.953 156.234C151.125 155.536 150.711 154.401 150.711 152.828C150.711 151.354 151.083 150.224 151.828 149.438C152.578 148.651 153.549 148.258 154.742 148.258ZM164.914 148.281C164.956 148.281 164.99 148.284 165.016 148.289C165.047 148.289 165.112 148.292 165.211 148.297V150.578C165.07 150.562 164.945 150.552 164.836 150.547C164.727 150.542 164.638 150.539 164.57 150.539C163.674 150.539 163.073 150.831 162.766 151.414C162.594 151.742 162.508 152.247 162.508 152.93V157H160.266V148.484H162.391V149.969C162.734 149.401 163.034 149.013 163.289 148.805C163.706 148.456 164.247 148.281 164.914 148.281Z" fill="white"/>
<path d="M104.912 181.803H106.416V187.706H109.98V189H104.912V181.803ZM113.301 188.019C113.708 188.019 114.02 187.874 114.238 187.584C114.456 187.294 114.565 186.882 114.565 186.349C114.565 185.815 114.456 185.405 114.238 185.118C114.02 184.828 113.708 184.684 113.301 184.684C112.894 184.684 112.58 184.828 112.358 185.118C112.14 185.405 112.031 185.815 112.031 186.349C112.031 186.882 112.14 187.294 112.358 187.584C112.58 187.874 112.894 188.019 113.301 188.019ZM116.025 186.349C116.025 187.13 115.801 187.799 115.352 188.355C114.902 188.909 114.22 189.186 113.306 189.186C112.391 189.186 111.709 188.909 111.26 188.355C110.811 187.799 110.586 187.13 110.586 186.349C110.586 185.58 110.811 184.915 111.26 184.352C111.709 183.788 112.391 183.507 113.306 183.507C114.22 183.507 114.902 183.788 115.352 184.352C115.801 184.915 116.025 185.58 116.025 186.349ZM120.205 185.587C120.179 185.388 120.112 185.209 120.005 185.05C119.849 184.835 119.606 184.728 119.277 184.728C118.809 184.728 118.488 184.96 118.315 185.426C118.224 185.673 118.179 186.002 118.179 186.412C118.179 186.803 118.224 187.117 118.315 187.354C118.481 187.797 118.794 188.019 119.253 188.019C119.578 188.019 119.81 187.931 119.946 187.755C120.083 187.579 120.166 187.351 120.195 187.071H121.616C121.584 187.494 121.431 187.895 121.157 188.272C120.721 188.881 120.075 189.186 119.219 189.186C118.363 189.186 117.733 188.932 117.329 188.424C116.925 187.916 116.724 187.257 116.724 186.446C116.724 185.532 116.947 184.82 117.393 184.312C117.839 183.805 118.454 183.551 119.238 183.551C119.906 183.551 120.451 183.701 120.874 184C121.3 184.299 121.553 184.828 121.631 185.587H120.205ZM125.527 186.412C125.439 186.467 125.35 186.513 125.259 186.549C125.171 186.581 125.049 186.612 124.893 186.642L124.58 186.7C124.287 186.752 124.077 186.816 123.95 186.891C123.735 187.018 123.628 187.215 123.628 187.481C123.628 187.719 123.693 187.892 123.823 187.999C123.957 188.103 124.118 188.155 124.307 188.155C124.606 188.155 124.881 188.067 125.132 187.892C125.386 187.716 125.518 187.395 125.527 186.93V186.412ZM124.683 185.763C124.94 185.73 125.124 185.689 125.234 185.641C125.433 185.556 125.532 185.424 125.532 185.245C125.532 185.027 125.456 184.877 125.303 184.796C125.153 184.711 124.932 184.669 124.639 184.669C124.31 184.669 124.077 184.75 123.94 184.913C123.843 185.034 123.778 185.196 123.745 185.401H122.402C122.432 184.936 122.562 184.553 122.793 184.254C123.161 183.785 123.792 183.551 124.688 183.551C125.27 183.551 125.788 183.666 126.24 183.897C126.693 184.129 126.919 184.565 126.919 185.206V187.647C126.919 187.817 126.922 188.022 126.929 188.263C126.938 188.445 126.966 188.569 127.012 188.634C127.057 188.699 127.126 188.753 127.217 188.795V189H125.703C125.661 188.893 125.632 188.792 125.615 188.697C125.599 188.603 125.586 188.495 125.576 188.375C125.384 188.583 125.163 188.761 124.912 188.907C124.613 189.08 124.274 189.166 123.896 189.166C123.415 189.166 123.016 189.029 122.7 188.756C122.388 188.479 122.231 188.089 122.231 187.584C122.231 186.93 122.484 186.456 122.988 186.163C123.265 186.004 123.672 185.89 124.209 185.821L124.683 185.763ZM127.612 184.718V183.727H128.354V182.242H129.731V183.727H130.596V184.718H129.731V187.53C129.731 187.748 129.759 187.885 129.814 187.94C129.87 187.993 130.039 188.019 130.322 188.019C130.365 188.019 130.409 188.019 130.454 188.019C130.503 188.015 130.55 188.012 130.596 188.009V189.049L129.937 189.073C129.279 189.096 128.83 188.982 128.589 188.731C128.433 188.572 128.354 188.326 128.354 187.994V184.718H127.612ZM132.92 183.043H131.509V181.759H132.92V183.043ZM131.509 183.678H132.92V189H131.509V183.678ZM136.66 188.019C137.067 188.019 137.38 187.874 137.598 187.584C137.816 187.294 137.925 186.882 137.925 186.349C137.925 185.815 137.816 185.405 137.598 185.118C137.38 184.828 137.067 184.684 136.66 184.684C136.253 184.684 135.939 184.828 135.718 185.118C135.5 185.405 135.391 185.815 135.391 186.349C135.391 186.882 135.5 187.294 135.718 187.584C135.939 187.874 136.253 188.019 136.66 188.019ZM139.385 186.349C139.385 187.13 139.16 187.799 138.711 188.355C138.262 188.909 137.58 189.186 136.665 189.186C135.75 189.186 135.068 188.909 134.619 188.355C134.17 187.799 133.945 187.13 133.945 186.349C133.945 185.58 134.17 184.915 134.619 184.352C135.068 183.788 135.75 183.507 136.665 183.507C137.58 183.507 138.262 183.788 138.711 184.352C139.16 184.915 139.385 185.58 139.385 186.349ZM143.335 183.551C143.885 183.551 144.334 183.696 144.683 183.985C145.034 184.272 145.21 184.749 145.21 185.416V189H143.784V185.763C143.784 185.483 143.747 185.268 143.672 185.118C143.535 184.845 143.275 184.708 142.891 184.708C142.419 184.708 142.095 184.908 141.919 185.309C141.828 185.52 141.782 185.79 141.782 186.119V189H140.396V183.688H141.738V184.464C141.917 184.19 142.087 183.993 142.246 183.873C142.533 183.658 142.896 183.551 143.335 183.551ZM100.293 192.281C100.126 192.445 99.8945 192.738 99.5977 193.16C99.3008 193.579 99.0521 194.013 98.8516 194.461C98.6927 194.812 98.5495 195.242 98.4219 195.75C98.2943 196.258 98.2305 196.674 98.2305 197H97.0742C97.1081 195.984 97.4414 194.928 98.0742 193.832C98.4831 193.152 98.8255 192.678 99.1016 192.41H96.2773L96.293 191.41H100.293V192.281ZM101.434 192.91H102.617V194.074H101.434V192.91ZM101.434 195.836H102.617V197H101.434V195.836ZM104.578 194.223C104.578 194.874 104.632 195.372 104.738 195.719C104.845 196.062 105.064 196.234 105.395 196.234C105.725 196.234 105.941 196.062 106.043 195.719C106.147 195.372 106.199 194.874 106.199 194.223C106.199 193.54 106.147 193.035 106.043 192.707C105.941 192.379 105.725 192.215 105.395 192.215C105.064 192.215 104.845 192.379 104.738 192.707C104.632 193.035 104.578 193.54 104.578 194.223ZM105.395 191.297C106.116 191.297 106.621 191.551 106.91 192.059C107.202 192.566 107.348 193.288 107.348 194.223C107.348 195.158 107.202 195.878 106.91 196.383C106.621 196.888 106.116 197.141 105.395 197.141C104.673 197.141 104.167 196.888 103.875 196.383C103.586 195.878 103.441 195.158 103.441 194.223C103.441 193.288 103.586 192.566 103.875 192.059C104.167 191.551 104.673 191.297 105.395 191.297ZM109.031 194.223C109.031 194.874 109.085 195.372 109.191 195.719C109.298 196.062 109.517 196.234 109.848 196.234C110.178 196.234 110.395 196.062 110.496 195.719C110.6 195.372 110.652 194.874 110.652 194.223C110.652 193.54 110.6 193.035 110.496 192.707C110.395 192.379 110.178 192.215 109.848 192.215C109.517 192.215 109.298 192.379 109.191 192.707C109.085 193.035 109.031 193.54 109.031 194.223ZM109.848 191.297C110.569 191.297 111.074 191.551 111.363 192.059C111.655 192.566 111.801 193.288 111.801 194.223C111.801 195.158 111.655 195.878 111.363 196.383C111.074 196.888 110.569 197.141 109.848 197.141C109.126 197.141 108.62 196.888 108.328 196.383C108.039 195.878 107.895 195.158 107.895 194.223C107.895 193.288 108.039 192.566 108.328 192.059C108.62 191.551 109.126 191.297 109.848 191.297ZM114.508 194.242H116.75V195.297H114.508V194.242ZM119.77 193.094V192.336C120.121 192.32 120.367 192.297 120.508 192.266C120.732 192.216 120.914 192.117 121.055 191.969C121.151 191.867 121.224 191.732 121.273 191.562C121.302 191.461 121.316 191.385 121.316 191.336H122.242V197H121.102V193.094H119.77ZM125.055 194.223C125.055 194.874 125.108 195.372 125.215 195.719C125.322 196.062 125.54 196.234 125.871 196.234C126.202 196.234 126.418 196.062 126.52 195.719C126.624 195.372 126.676 194.874 126.676 194.223C126.676 193.54 126.624 193.035 126.52 192.707C126.418 192.379 126.202 192.215 125.871 192.215C125.54 192.215 125.322 192.379 125.215 192.707C125.108 193.035 125.055 193.54 125.055 194.223ZM125.871 191.297C126.592 191.297 127.098 191.551 127.387 192.059C127.678 192.566 127.824 193.288 127.824 194.223C127.824 195.158 127.678 195.878 127.387 196.383C127.098 196.888 126.592 197.141 125.871 197.141C125.15 197.141 124.643 196.888 124.352 196.383C124.062 195.878 123.918 195.158 123.918 194.223C123.918 193.288 124.062 192.566 124.352 192.059C124.643 191.551 125.15 191.297 125.871 191.297ZM129.027 192.91H130.211V194.074H129.027V192.91ZM129.027 195.836H130.211V197H129.027V195.836ZM132.172 194.223C132.172 194.874 132.225 195.372 132.332 195.719C132.439 196.062 132.658 196.234 132.988 196.234C133.319 196.234 133.535 196.062 133.637 195.719C133.741 195.372 133.793 194.874 133.793 194.223C133.793 193.54 133.741 193.035 133.637 192.707C133.535 192.379 133.319 192.215 132.988 192.215C132.658 192.215 132.439 192.379 132.332 192.707C132.225 193.035 132.172 193.54 132.172 194.223ZM132.988 191.297C133.71 191.297 134.215 191.551 134.504 192.059C134.796 192.566 134.941 193.288 134.941 194.223C134.941 195.158 134.796 195.878 134.504 196.383C134.215 196.888 133.71 197.141 132.988 197.141C132.267 197.141 131.76 196.888 131.469 196.383C131.18 195.878 131.035 195.158 131.035 194.223C131.035 193.288 131.18 192.566 131.469 192.059C131.76 191.551 132.267 191.297 132.988 191.297ZM136.625 194.223C136.625 194.874 136.678 195.372 136.785 195.719C136.892 196.062 137.111 196.234 137.441 196.234C137.772 196.234 137.988 196.062 138.09 195.719C138.194 195.372 138.246 194.874 138.246 194.223C138.246 193.54 138.194 193.035 138.09 192.707C137.988 192.379 137.772 192.215 137.441 192.215C137.111 192.215 136.892 192.379 136.785 192.707C136.678 193.035 136.625 193.54 136.625 194.223ZM137.441 191.297C138.163 191.297 138.668 191.551 138.957 192.059C139.249 192.566 139.395 193.288 139.395 194.223C139.395 195.158 139.249 195.878 138.957 196.383C138.668 196.888 138.163 197.141 137.441 197.141C136.72 197.141 136.214 196.888 135.922 196.383C135.633 195.878 135.488 195.158 135.488 194.223C135.488 193.288 135.633 192.566 135.922 192.059C136.214 191.551 136.72 191.297 137.441 191.297ZM145.371 194.871C145.371 194.543 145.296 194.253 145.145 194C144.996 193.747 144.754 193.621 144.418 193.621C144.014 193.621 143.737 193.812 143.586 194.195C143.508 194.398 143.469 194.656 143.469 194.969C143.469 195.464 143.6 195.811 143.863 196.012C144.02 196.129 144.204 196.188 144.418 196.188C144.728 196.188 144.964 196.068 145.125 195.828C145.289 195.589 145.371 195.27 145.371 194.871ZM144.738 192.648C145.236 192.648 145.656 192.832 146 193.199C146.346 193.566 146.52 194.105 146.52 194.816C146.52 195.566 146.35 196.138 146.012 196.531C145.676 196.924 145.242 197.121 144.711 197.121C144.372 197.121 144.091 197.036 143.867 196.867C143.745 196.773 143.625 196.637 143.508 196.457V198.676H142.406V192.742H143.473V193.371C143.592 193.186 143.72 193.04 143.855 192.934C144.103 192.743 144.397 192.648 144.738 192.648ZM152.086 192.648C152.273 192.648 152.458 192.685 152.641 192.758C152.823 192.831 152.988 192.958 153.137 193.141C153.257 193.289 153.337 193.471 153.379 193.688C153.405 193.831 153.418 194.04 153.418 194.316L153.41 197H152.27V194.289C152.27 194.128 152.243 193.995 152.191 193.891C152.092 193.693 151.91 193.594 151.645 193.594C151.337 193.594 151.125 193.721 151.008 193.977C150.948 194.112 150.918 194.275 150.918 194.465V197H149.797V194.465C149.797 194.212 149.771 194.029 149.719 193.914C149.625 193.708 149.441 193.605 149.168 193.605C148.85 193.605 148.637 193.708 148.527 193.914C148.467 194.031 148.438 194.206 148.438 194.438V197H147.309V192.75H148.391V193.371C148.529 193.15 148.659 192.992 148.781 192.898C148.997 192.732 149.277 192.648 149.621 192.648C149.947 192.648 150.21 192.72 150.41 192.863C150.572 192.996 150.694 193.167 150.777 193.375C150.923 193.125 151.104 192.941 151.32 192.824C151.549 192.707 151.805 192.648 152.086 192.648Z" fill="#999999"/>
<path d="M96.5098 92.1396C96.5098 93.279 96.6032 94.1517 96.79 94.7578C96.9769 95.3594 97.3597 95.6602 97.9385 95.6602C98.5173 95.6602 98.8955 95.3594 99.0732 94.7578C99.2555 94.1517 99.3467 93.279 99.3467 92.1396C99.3467 90.9456 99.2555 90.0615 99.0732 89.4873C98.8955 88.9131 98.5173 88.626 97.9385 88.626C97.3597 88.626 96.9769 88.9131 96.79 89.4873C96.6032 90.0615 96.5098 90.9456 96.5098 92.1396ZM97.9385 87.0195C99.2008 87.0195 100.085 87.4639 100.591 88.3525C101.101 89.2412 101.356 90.5036 101.356 92.1396C101.356 93.7757 101.101 95.0358 100.591 95.9199C100.085 96.804 99.2008 97.2461 97.9385 97.2461C96.6761 97.2461 95.7897 96.804 95.2793 95.9199C94.7734 95.0358 94.5205 93.7757 94.5205 92.1396C94.5205 90.5036 94.7734 89.2412 95.2793 88.3525C95.7897 87.4639 96.6761 87.0195 97.9385 87.0195ZM102.313 97C102.332 96.2891 102.484 95.6396 102.771 95.0518C103.049 94.391 103.706 93.6914 104.74 92.9531C105.638 92.3105 106.219 91.8503 106.483 91.5723C106.889 91.1393 107.092 90.6654 107.092 90.1504C107.092 89.7311 106.976 89.3825 106.743 89.1045C106.511 88.8265 106.178 88.6875 105.745 88.6875C105.153 88.6875 104.749 88.9085 104.535 89.3506C104.412 89.6058 104.339 90.0114 104.316 90.5674H102.423C102.455 89.7243 102.607 89.043 102.881 88.5234C103.4 87.5345 104.323 87.04 105.649 87.04C106.698 87.04 107.532 87.3317 108.151 87.915C108.771 88.4938 109.081 89.2617 109.081 90.2188C109.081 90.9525 108.862 91.6042 108.425 92.1738C108.138 92.5521 107.666 92.9736 107.01 93.4385L106.23 93.9922C105.743 94.3385 105.408 94.5892 105.226 94.7441C105.048 94.8991 104.897 95.0791 104.774 95.2842H109.102V97H102.313ZM109.99 92.1738H113.914V94.0195H109.99V92.1738ZM116.758 92.1396C116.758 93.279 116.851 94.1517 117.038 94.7578C117.225 95.3594 117.608 95.6602 118.187 95.6602C118.765 95.6602 119.144 95.3594 119.321 94.7578C119.504 94.1517 119.595 93.279 119.595 92.1396C119.595 90.9456 119.504 90.0615 119.321 89.4873C119.144 88.9131 118.765 88.626 118.187 88.626C117.608 88.626 117.225 88.9131 117.038 89.4873C116.851 90.0615 116.758 90.9456 116.758 92.1396ZM118.187 87.0195C119.449 87.0195 120.333 87.4639 120.839 88.3525C121.349 89.2412 121.604 90.5036 121.604 92.1396C121.604 93.7757 121.349 95.0358 120.839 95.9199C120.333 96.804 119.449 97.2461 118.187 97.2461C116.924 97.2461 116.038 96.804 115.527 95.9199C115.021 95.0358 114.769 93.7757 114.769 92.1396C114.769 90.5036 115.021 89.2412 115.527 88.3525C116.038 87.4639 116.924 87.0195 118.187 87.0195ZM124.407 93.958C124.407 94.3545 124.471 94.6826 124.599 94.9424C124.836 95.4209 125.266 95.6602 125.891 95.6602C126.273 95.6602 126.606 95.5303 126.889 95.2705C127.176 95.0062 127.319 94.6279 127.319 94.1357C127.319 93.484 127.055 93.0488 126.526 92.8301C126.226 92.707 125.752 92.6455 125.104 92.6455V91.251C125.738 91.2419 126.18 91.1803 126.431 91.0664C126.864 90.875 127.08 90.4876 127.08 89.9043C127.08 89.526 126.968 89.2184 126.745 88.9814C126.526 88.7445 126.216 88.626 125.815 88.626C125.355 88.626 125.016 88.7718 124.797 89.0635C124.583 89.3551 124.48 89.7448 124.489 90.2324H122.671C122.689 89.7402 122.773 89.2731 122.924 88.8311C123.083 88.4437 123.334 88.0859 123.676 87.7578C123.931 87.5254 124.234 87.3477 124.585 87.2246C124.936 87.1016 125.367 87.04 125.877 87.04C126.825 87.04 127.588 87.2861 128.167 87.7783C128.75 88.266 129.042 88.9222 129.042 89.7471C129.042 90.3304 128.869 90.8226 128.522 91.2236C128.304 91.4743 128.076 91.6452 127.839 91.7363C128.017 91.7363 128.272 91.889 128.604 92.1943C129.101 92.6546 129.35 93.2835 129.35 94.0811C129.35 94.9196 129.058 95.6579 128.475 96.2959C127.896 96.9294 127.037 97.2461 125.897 97.2461C124.494 97.2461 123.519 96.7881 122.972 95.8721C122.685 95.3844 122.525 94.7464 122.493 93.958H124.407Z" fill="white"/>
</svg>
