<?xml version="1.0" encoding="utf-8"?>
<!-- Generator: Adobe Illustrator 22.1.0, SVG Export Plug-In . SVG Version: 6.00 Build 0)  -->
<svg version="1.1" id="Layer_1" xmlns="http://www.w3.org/2000/svg" xmlns:xlink="http://www.w3.org/1999/xlink" x="0px" y="0px"
	 viewBox="0 0 200.1 40" style="enable-background:new 0 0 200.1 40;" xml:space="preserve">
<style type="text/css">
	.st0{fill:#00A79C;}
	.st1{fill:#1D76BB;}
	.st2{enable-background:new    ;}
	.st3{fill:#FFFFFF;}
	.st4{fill:#EF4137;}
	.st5{fill:#F69320;}
	.st6{fill:#F15B2A;}
	.st7{fill:#9E2064;}
	.st8{fill:#65308F;}
</style>
<circle class="st0" cx="13.6" cy="20" r="13.6"/>
<circle class="st1" cx="42.3" cy="20" r="13.6"/>
<g class="st2">
	<path class="st3" d="M47.6,15.6h-6.7v2.7H47v2.2h-6.2v3.3h7V26h-9.6V13.3h9.3V15.6z"/>
</g>
<circle class="st4" cx="71.5" cy="20" r="13.6"/>
<g class="st2">
	<path class="st3" d="M73.9,14.5h2.8l-4.3,12.7h-2.5l-4.3-12.7h2.8l2.8,9.6L73.9,14.5z"/>
</g>
<circle class="st5" cx="100.8" cy="20" r="13.6"/>
<g class="st2">
	<path class="st3" d="M96.7,13.4h9v2.2h-6.4v2.9h5.6v2.2h-5.6V26h-2.6V13.4z"/>
</g>
<circle class="st6" cx="129.5" cy="20" r="13.6"/>
<g class="st2">
	<path class="st3" d="M134.8,15.6h-6.7v2.7h6.2v2.2h-6.2v3.3h7V26h-9.6V13.3h9.3V15.6z"/>
</g>
<circle class="st7" cx="157.9" cy="20" r="13.6"/>
<g class="st2">
	<path class="st3" d="M155.8,22.1c0.1,0.6,0.2,1,0.5,1.3c0.4,0.5,1.2,0.8,2.3,0.8c0.6,0,1.2-0.1,1.6-0.2c0.8-0.3,1.1-0.8,1.1-1.5
		c0-0.4-0.2-0.7-0.6-1c-0.4-0.2-1-0.4-1.8-0.6l-1.4-0.3c-1.3-0.3-2.3-0.6-2.8-1c-0.9-0.6-1.3-1.5-1.3-2.7c0-1.1,0.4-2.1,1.3-2.8
		c0.8-0.8,2.1-1.1,3.7-1.1c1.4,0,2.5,0.4,3.5,1.1s1.5,1.7,1.5,3.1h-2.5c0-0.8-0.4-1.3-1-1.6c-0.4-0.2-0.9-0.3-1.6-0.3
		c-0.7,0-1.3,0.1-1.7,0.4c-0.4,0.3-0.6,0.7-0.6,1.2c0,0.5,0.2,0.8,0.6,1c0.3,0.1,0.8,0.3,1.7,0.5l2.2,0.5c1,0.2,1.7,0.5,2.2,0.9
		c0.8,0.6,1.1,1.5,1.1,2.6c0,1.2-0.4,2.1-1.3,2.9c-0.9,0.8-2.2,1.1-3.8,1.1c-1.7,0-3-0.4-3.9-1.1c-1-0.8-1.4-1.8-1.4-3.1H155.8z"/>
</g>
<circle class="st8" cx="186.5" cy="20" r="13.6"/>
<g class="st2">
	<path class="st3" d="M191.7,13.3v2.2h-3.8V26h-2.7V15.6h-3.8v-2.2H191.7z"/>
</g>
<g class="st2">
	<path class="st3" d="M16.5,13.6c0.9,0.3,1.6,0.8,2.2,1.6c0.4,0.6,0.7,1.3,0.9,2s0.2,1.4,0.2,2.1c0,1.7-0.3,3.1-1,4.3
		c-0.9,1.6-2.3,2.4-4.2,2.4H9.1V13.3h5.5C15.3,13.3,16,13.4,16.5,13.6z M11.7,15.5v8.3h2.4c1.3,0,2.1-0.6,2.6-1.8
		c0.3-0.7,0.4-1.5,0.4-2.4c0-1.3-0.2-2.3-0.6-3c-0.4-0.7-1.2-1-2.4-1H11.7z"/>
</g>
</svg>
