<?xml version="1.0" encoding="utf-8"?>
<!-- Generator: Adobe Illustrator 22.1.0, SVG Export Plug-In . SVG Version: 6.00 Build 0)  -->
<svg version="1.1" id="Layer_1" xmlns="http://www.w3.org/2000/svg" xmlns:xlink="http://www.w3.org/1999/xlink" x="0px" y="0px"
	 viewBox="0 0 434 16" style="enable-background:new 0 0 434 16;" xml:space="preserve">
<style type="text/css">
	.st0{fill:#9E005D;}
	.st1{fill:#FFFFFF;stroke:#231F20;stroke-miterlimit:10;}
</style>
<g>
	<line class="st0" x1="419" y1="8" x2="12.5" y2="9.1"/>
	<g>
		<path class="st0" d="M419,3c-13.5,0-26.9,0.1-40.4,0.1c-32.3,0.1-64.7,0.2-97,0.3c-39.1,0.1-78.2,0.2-117.4,0.3
			C130.4,3.8,96.6,3.9,62.7,4C46.3,4,29.7,3.4,13.2,4.1c-0.2,0-0.5,0-0.7,0c-6.4,0-6.4,10,0,10c13.5,0,26.9-0.1,40.4-0.1
			c32.3-0.1,64.7-0.2,97-0.3c39.1-0.1,78.2-0.2,117.4-0.3c33.8-0.1,67.7-0.2,101.5-0.3c16.4,0,33.1,0.6,49.5-0.1c0.2,0,0.5,0,0.7,0
			C425.4,13,425.4,3,419,3L419,3z"/>
	</g>
</g>
<circle class="st1" cx="7.4" cy="8.6" r="6.5"/>
<circle class="st1" cx="425.1" cy="8.6" r="6.5"/>
<circle class="st1" cx="219.4" cy="8.6" r="6.5"/>
</svg>
