<?xml version="1.0" encoding="utf-8"?>
<!-- Generator: Adobe Illustrator 22.1.0, SVG Export Plug-In . SVG Version: 6.00 Build 0)  -->
<svg version="1.1" id="Layer_1" xmlns="http://www.w3.org/2000/svg" xmlns:xlink="http://www.w3.org/1999/xlink" x="0px" y="0px"
	 viewBox="0 0 275 14.7" style="enable-background:new 0 0 275 14.7;" xml:space="preserve">
<style type="text/css">
	.st0{fill:#00A99D;}
	.st1{fill:#39B54A;}
	.st2{fill:#FFFFFF;stroke:#231F20;stroke-miterlimit:10;}
</style>
<g>
	<line class="st0" x1="264.5" y1="7.5" x2="12.5" y2="8.1"/>
	<g>
		<path class="st1" d="M264.5,2.5c-28.4,0.1-56.8,0.1-85.3,0.2C134,2.8,88.7,2.9,43.5,3.1c-10.3,0-20.6,0.1-31,0.1
			c-6.4,0-6.4,10,0,10c28.4-0.1,56.8-0.1,85.3-0.2c45.3-0.1,90.5-0.2,135.8-0.3c10.3,0,20.6-0.1,31-0.1
			C270.9,12.5,270.9,2.5,264.5,2.5L264.5,2.5z"/>
	</g>
</g>
<circle class="st2" cx="7.4" cy="7.6" r="6.5"/>
<circle class="st2" cx="267.2" cy="7.6" r="6.5"/>
<circle class="st2" cx="37.4" cy="7.6" r="6.5"/>
</svg>
