<?xml version="1.0" encoding="utf-8"?>
<!-- Generator: Adobe Illustrator 22.1.0, SVG Export Plug-In . SVG Version: 6.00 Build 0)  -->
<svg version="1.1" id="Layer_1" xmlns="http://www.w3.org/2000/svg" xmlns:xlink="http://www.w3.org/1999/xlink" x="0px" y="0px"
	 viewBox="0 0 146.5 94.3" style="enable-background:new 0 0 146.5 94.3;" xml:space="preserve">
<style type="text/css">
	.st0{fill:#F69320;}
	.st1{fill:#00A79C;}
	.st2{fill:#EF4137;}
	.st3{fill:#9E2064;}
	.st4{fill:#FFFFFF;stroke:#231F20;stroke-miterlimit:10;}
	.st5{fill:#28A8E0;}
</style>
<g>
	<line class="st0" x1="88" y1="90.9" x2="88" y2="5"/>
	<g>
		<path class="st0" d="M89.3,90.9c0-25.1,0-50.1,0-75.2c0-3.6,0-7.2,0-10.7c0-1.6-2.5-1.6-2.5,0c0,25.1,0,50.1,0,75.2
			c0,3.6,0,7.2,0,10.7C86.8,92.5,89.3,92.5,89.3,90.9L89.3,90.9z"/>
	</g>
</g>
<g>
	<line class="st1" x1="84.3" y1="91" x2="84.3" y2="5"/>
	<g>
		<path class="st1" d="M85.6,91c0-25,0-50.1,0-75.1c0-3.6,0-7.3,0-10.9c0-1.6-2.5-1.6-2.5,0c0,25,0,50.1,0,75.1c0,3.6,0,7.3,0,10.9
			C83.1,92.6,85.6,92.6,85.6,91L85.6,91z"/>
	</g>
</g>
<g>
	<line class="st2" x1="135.3" y1="48.7" x2="87.4" y2="48.6"/>
	<g>
		<path class="st2" d="M135.3,47.5c-15.9,0-31.9-0.1-47.8-0.1c-1.6,0-1.6,2.5,0,2.5c15.9,0,31.9,0.1,47.8,0.1
			C136.9,50,136.9,47.5,135.3,47.5L135.3,47.5z"/>
	</g>
</g>
<g>
	<line class="st3" x1="142.5" y1="8.6" x2="84.3" y2="8.6"/>
	<g>
		<path class="st3" d="M142.5,7.3c-19.4,0-38.8,0-58.2,0c-1.6,0-1.6,2.5,0,2.5c19.4,0,38.8,0,58.2,0C144.1,9.8,144.1,7.3,142.5,7.3
			L142.5,7.3z"/>
	</g>
</g>
<circle class="st4" cx="134.6" cy="48.7" r="2.1"/>
<circle class="st4" cx="88.1" cy="48.7" r="2.1"/>
<circle class="st4" cx="97.1" cy="48.7" r="2.1"/>
<circle class="st4" cx="84.3" cy="8.6" r="2.1"/>
<circle class="st4" cx="142.5" cy="8.6" r="2.1"/>
<circle class="st4" cx="108.4" cy="8.6" r="2.1"/>
<circle class="st4" cx="125.8" cy="48.7" r="2.1"/>
<circle class="st4" cx="84.3" cy="29" r="2.1"/>
<circle class="st4" cx="88" cy="90.9" r="2.1"/>
<circle class="st4" cx="84.3" cy="72.8" r="2.1"/>
<g>
	<line class="st0" x1="8.5" y1="86" x2="46.3" y2="86"/>
	<g>
		<path class="st2" d="M8.5,87.2c12.6,0,25.2,0,37.8,0c1.6,0,1.6-2.5,0-2.5c-12.6,0-25.2,0-37.8,0C6.9,84.7,6.9,87.2,8.5,87.2
			L8.5,87.2z"/>
	</g>
</g>
<g>
	<line class="st1" x1="4.2" y1="88.1" x2="4.2" y2="7.1"/>
	<g>
		<path class="st1" d="M5.5,88.1c0-27,0-54,0-81c0-1.6-2.5-1.6-2.5,0c0,27,0,54,0,81C3,89.7,5.5,89.7,5.5,88.1L5.5,88.1z"/>
	</g>
</g>
<g>
	<line class="st5" x1="8.5" y1="87.1" x2="8.5" y2="6.1"/>
	<g>
		<path class="st5" d="M9.8,87.1c0-27,0-54,0-81c0-1.6-2.5-1.6-2.5,0c0,27,0,54,0,81C7.3,88.7,9.8,88.7,9.8,87.1L9.8,87.1z"/>
	</g>
</g>
<g>
	<line class="st0" x1="4.2" y1="7.1" x2="45.4" y2="7.1"/>
	<g>
		<path class="st0" d="M4.2,8.3c13.7,0,27.5,0,41.2,0c1.6,0,1.6-2.5,0-2.5c-13.7,0-27.5,0-41.2,0C2.6,5.8,2.6,8.3,4.2,8.3L4.2,8.3z"
			/>
	</g>
</g>
<g>
	<line class="st0" x1="69.4" y1="33.2" x2="45.4" y2="7.1"/>
	<g>
		<path class="st0" d="M70.3,32.3c-8-8.7-16-17.4-24-26.1C45.2,5,43.5,6.8,44.6,8c8,8.7,16,17.4,24,26.1
			C69.6,35.3,71.4,33.5,70.3,32.3L70.3,32.3z"/>
	</g>
</g>
<g>
	<line class="st0" x1="69.2" y1="68.5" x2="69.2" y2="33.1"/>
	<g>
		<path class="st0" d="M70.4,68.5c0-11.8,0-23.6,0-35.4c0-1.6-2.5-1.6-2.5,0c0,11.8,0,23.6,0,35.4C67.9,70.1,70.4,70.1,70.4,68.5
			L70.4,68.5z"/>
	</g>
</g>
<g>
	<line class="st0" x1="48.6" y1="89.2" x2="69.2" y2="68.6"/>
	<g>
		<path class="st0" d="M49.5,90.1c6.9-6.9,13.7-13.7,20.6-20.6c1.1-1.1-0.6-2.9-1.8-1.8c-6.9,6.9-13.7,13.7-20.6,20.6
			C46.6,89.5,48.3,91.2,49.5,90.1L49.5,90.1z"/>
	</g>
</g>
<g>
	<line class="st0" x1="3.6" y1="89.1" x2="48.4" y2="89.1"/>
	<g>
		<path class="st0" d="M3.6,90.4c14.9,0,29.9,0,44.8,0c1.6,0,1.6-2.5,0-2.5c-14.9,0-29.9,0-44.8,0C2,87.9,2,90.4,3.6,90.4L3.6,90.4z
			"/>
	</g>
</g>
<g>
	<line class="st2" x1="65.4" y1="68.1" x2="65.4" y2="33.4"/>
	<g>
		<path class="st2" d="M66.6,68.1c0-11.5,0-23.1,0-34.6c0-1.6-2.5-1.6-2.5,0c0,11.5,0,23.1,0,34.6C64.1,69.7,66.6,69.7,66.6,68.1
			L66.6,68.1z"/>
	</g>
</g>
<circle class="st4" cx="3.6" cy="88.8" r="2.1"/>
<circle class="st4" cx="4.2" cy="7.1" r="2.1"/>
<circle class="st4" cx="4.2" cy="24.2" r="2.1"/>
<circle class="st4" cx="4.2" cy="58.6" r="2.1"/>
<circle class="st4" cx="4.2" cy="78.9" r="2.1"/>
<circle class="st4" cx="8.5" cy="7.1" r="2.1"/>
<circle class="st4" cx="8.5" cy="15.6" r="2.1"/>
<circle class="st4" cx="8.5" cy="44.7" r="2.1"/>
<circle class="st4" cx="8.5" cy="89.1" r="2.1"/>
<g>
	<line class="st2" x1="65.4" y1="33.4" x2="43.3" y2="9.8"/>
	<g>
		<path class="st2" d="M66.2,32.5c-7.4-7.9-14.7-15.7-22.1-23.6c-1.1-1.2-2.9,0.6-1.8,1.8c7.4,7.9,14.7,15.7,22.1,23.6
			C65.6,35.5,67.3,33.7,66.2,32.5L66.2,32.5z"/>
	</g>
</g>
<g>
	<line class="st2" x1="46.8" y1="86.1" x2="65.1" y2="67.9"/>
	<g>
		<path class="st2" d="M47.7,87c6.1-6.1,12.2-12.2,18.3-18.3c1.1-1.1-0.6-2.9-1.8-1.8C58.1,73.1,52,79.2,45.9,85.3
			C44.8,86.4,46.6,88.2,47.7,87L47.7,87z"/>
	</g>
</g>
<circle class="st4" cx="43.2" cy="9.7" r="2.1"/>
<circle class="st4" cx="60.2" cy="27.9" r="2.1"/>
<circle class="st4" cx="69.3" cy="33.1" r="2.1"/>
<circle class="st4" cx="65.4" cy="67.6" r="2.1"/>
<circle class="st4" cx="70" cy="67.6" r="2.1"/>
<g>
	<line class="st3" x1="47.1" y1="3.7" x2="9.3" y2="3.5"/>
	<g>
		<path class="st3" d="M47.1,2.5C34.5,2.4,21.9,2.3,9.3,2.2c-1.6,0-1.6,2.5,0,2.5C21.9,4.8,34.5,4.9,47.1,5
			C48.7,5,48.7,2.5,47.1,2.5L47.1,2.5z"/>
	</g>
</g>
<g>
	<line class="st3" x1="69.7" y1="28" x2="47.6" y2="4.4"/>
	<g>
		<path class="st3" d="M70.6,27.1c-7.4-7.9-14.7-15.7-22.1-23.6c-1.1-1.2-2.9,0.6-1.8,1.8c7.4,7.9,14.7,15.7,22.1,23.6
			C69.9,30.1,71.7,28.3,70.6,27.1L70.6,27.1z"/>
	</g>
</g>
<circle class="st4" cx="70" cy="28.3" r="2.1"/>
<circle class="st4" cx="8.9" cy="2.9" r="2.1"/>
<circle class="st4" cx="46.2" cy="2.9" r="2.1"/>
<circle class="st4" cx="46.3" cy="86" r="2.1"/>
<g>
	<line class="st5" x1="142.5" y1="5" x2="84.3" y2="5"/>
	<g>
		<path class="st5" d="M142.5,3.7c-19.4,0-38.8,0-58.2,0c-1.6,0-1.6,2.5,0,2.5c19.4,0,38.8,0,58.2,0C144.1,6.2,144.1,3.7,142.5,3.7
			L142.5,3.7z"/>
	</g>
</g>
<circle class="st4" cx="142.5" cy="5" r="2.1"/>
<circle class="st4" cx="88.1" cy="5" r="2.1"/>
<circle class="st4" cx="88.1" cy="37.2" r="2.1"/>
<circle class="st4" cx="88" cy="65.8" r="2.1"/>
</svg>
