<?xml version="1.0" encoding="utf-8"?>
<!-- Generator: Adobe Illustrator 22.1.0, SVG Export Plug-In . SVG Version: 6.00 Build 0)  -->
<svg version="1.1" id="Layer_1" xmlns="http://www.w3.org/2000/svg" xmlns:xlink="http://www.w3.org/1999/xlink" x="0px" y="0px"
	 viewBox="0 0 238 16" style="enable-background:new 0 0 238 16;" xml:space="preserve">
<style type="text/css">
	.st0{fill:#D9E021;}
	.st1{fill:#FFFFFF;stroke:#231F20;stroke-miterlimit:10;}
</style>
<g>
	<line class="st0" x1="216.5" y1="8.5" x2="12.5" y2="8.1"/>
	<g>
		<path class="st0" d="M216.5,3.5c-23,0-46.1-0.1-69.1-0.1C110.8,3.3,74.3,3.3,37.7,3.2c-8.4,0-16.8,0-25.3,0c-6.4,0-6.4,10,0,10
			c23,0,46.1,0.1,69.1,0.1c36.5,0.1,73.1,0.1,109.6,0.2c8.4,0,16.8,0,25.3,0C222.9,13.5,222.9,3.5,216.5,3.5L216.5,3.5z"/>
	</g>
</g>
<circle class="st1" cx="7.5" cy="7.6" r="6.5"/>
<circle class="st1" cx="221.3" cy="8.6" r="6.5"/>
<circle class="st1" cx="96.3" cy="7.6" r="6.5"/>
</svg>
