<?xml version="1.0" encoding="utf-8"?>
<!-- Generator: Adobe Illustrator 22.1.0, SVG Export Plug-In . SVG Version: 6.00 Build 0)  -->
<svg version="1.1" id="Layer_1" xmlns="http://www.w3.org/2000/svg" xmlns:xlink="http://www.w3.org/1999/xlink" x="0px" y="0px"
	 viewBox="0 0 1044 159" style="enable-background:new 0 0 1044 159;" xml:space="preserve">
<style type="text/css">
	.st0{fill:#F7931E;}
	.st1{fill:#231F20;}
	.st2{font-family:'Helvetica-Bold';}
	.st3{font-size:77.5804px;}
</style>
<circle class="st0" cx="73" cy="79.1" r="60"/>
<circle class="st0" cx="199.2" cy="79.1" r="60"/>
<text transform="matrix(1 0 0 1 169.3945 105.5449)" class="st1 st2 st3">C</text>
<circle class="st0" cx="328.1" cy="79.1" r="60"/>
<text transform="matrix(1 0 0 1 299.9551 105.5449)" class="st1 st2 st3">H</text>
<circle class="st0" cx="456.8" cy="78.8" r="60"/>
<text transform="matrix(1 0 0 1 433.2812 105.8584)" class="st1 st2 st3">E</text>
<circle class="st0" cx="586.7" cy="78.8" r="60"/>
<text transform="matrix(1 0 0 1 561.8896 105.8584)" class="st1 st2 st3">D</text>
<circle class="st0" cx="716" cy="79.4" r="60"/>
<text transform="matrix(1 0 0 1 689.1943 105.8584)" class="st1 st2 st3">U</text>
<circle class="st0" cx="842.2" cy="79.4" r="60"/>
<text transform="matrix(1 0 0 1 818.3398 105.8584)" class="st1 st2 st3">L</text>
<text transform="matrix(1 0 0 1 45.0566 105.5449)" class="st1 st2 st3">S</text>
<circle class="st0" cx="973.2" cy="79.3" r="60"/>
<text transform="matrix(1 0 0 1 949.3773 105.7562)" class="st1 st2 st3">E</text>
</svg>
