<?xml version="1.0" encoding="utf-8"?>
<!-- Generator: Adobe Illustrator 22.1.0, SVG Export Plug-In . SVG Version: 6.00 Build 0)  -->
<svg version="1.1" id="Layer_1" xmlns="http://www.w3.org/2000/svg" xmlns:xlink="http://www.w3.org/1999/xlink" x="0px" y="0px"
	 viewBox="0 0 200.1 40" style="enable-background:new 0 0 200.1 40;" xml:space="preserve">
<style type="text/css">
	.st0{fill:#F15A24;}
	.st1{fill:#FFFFFF;}
	.st2{font-family:'Helvetica-Bold';}
	.st3{font-size:14.7867px;}
	.st4{font-size:14.7868px;}
</style>
<ellipse class="st0" cx="11.9" cy="19.4" rx="11.9" ry="11.4"/>
<ellipse class="st0" cx="36.9" cy="19.4" rx="11.9" ry="11.4"/>
<text transform="matrix(1.0405 0 0 1 32.2065 24.4141)" class="st1 st2 st3">C</text>
<ellipse class="st0" cx="62.5" cy="19.4" rx="11.9" ry="11.4"/>
<text transform="matrix(1.0405 0 0 1 56.9092 24.4092)" class="st1 st2 st3">H</text>
<ellipse class="st0" cx="88.1" cy="19.4" rx="11.9" ry="11.4"/>
<text transform="matrix(1.0405 0 0 1 82.8691 24.4141)" class="st1 st2 st3">E</text>
<ellipse class="st0" cx="113.2" cy="19.4" rx="11.9" ry="11.4"/>
<text transform="matrix(1.0405 0 0 1 107.9795 24.4141)" class="st1 st2 st3">D</text>
<ellipse class="st0" cx="138.1" cy="19.4" rx="11.9" ry="11.4"/>
<text transform="matrix(1.0405 0 0 1 132.3369 24.4141)" class="st1 st2 st3">U</text>
<ellipse class="st0" cx="163.1" cy="19.4" rx="11.9" ry="11.4"/>
<text transform="matrix(1.0405 7.860394e-03 -8.178907e-03 1 159.3026 24.3791)" class="st1 st2 st4">L</text>
<text transform="matrix(1.0405 0 0 1 6.7769 24.4141)" class="st1 st2 st3">S</text>
<ellipse class="st0" cx="188.2" cy="19.4" rx="11.9" ry="11.4"/>
<text transform="matrix(1.0405 7.860394e-03 -8.178907e-03 1 183.4518 24.3789)" class="st1 st2 st4">E</text>
</svg>
