<?xml version="1.0" encoding="utf-8"?>
<!-- Generator: Adobe Illustrator 22.1.0, SVG Export Plug-In . SVG Version: 6.00 Build 0)  -->
<svg version="1.1" id="Layer_1" xmlns="http://www.w3.org/2000/svg" xmlns:xlink="http://www.w3.org/1999/xlink" x="0px" y="0px"
	 viewBox="0 0 205 633" style="enable-background:new 0 0 205 633;" xml:space="preserve">
<style type="text/css">
	.st0{fill:#0071BC;}
	.st1{fill:#29ABE2;}
	.st2{fill:#00A99D;}
	.st3{fill:#FFFFFF;stroke:#231F20;stroke-miterlimit:10;}
</style>
<g>
	<line class="st0" x1="38.1" y1="74.1" x2="38.1" y2="13"/>
	<g>
		<path class="st0" d="M41.8,74.1c0-20.4,0-40.7,0-61.1c0-4.8-7.5-4.8-7.5,0c0,20.4,0,40.7,0,61.1C34.3,79,41.8,79,41.8,74.1
			L41.8,74.1z"/>
	</g>
</g>
<g>
	<line class="st0" x1="189.9" y1="162.4" x2="37.4" y2="74.4"/>
	<g>
		<path class="st0" d="M191.8,159.2c-17.2-9.9-34.4-19.9-51.6-29.8c-27.3-15.8-54.6-31.5-81.8-47.3c-6.3-3.7-12.7-7.3-19-11
			c-4.2-2.4-8,4.1-3.8,6.5c17.2,9.9,34.4,19.9,51.6,29.8c27.3,15.8,54.6,31.5,81.8,47.3c6.3,3.7,12.7,7.3,19,11
			C192.2,168.1,195.9,161.6,191.8,159.2L191.8,159.2z"/>
	</g>
</g>
<g>
	<line class="st1" x1="22.9" y1="278.3" x2="23.5" y2="13"/>
	<g>
		<path class="st1" d="M26.7,278.3c0.1-30,0.1-59.9,0.2-89.9c0.1-47.5,0.2-95.1,0.3-142.6c0-10.9,0.1-21.9,0.1-32.8
			c0-4.8-7.5-4.8-7.5,0c-0.1,30-0.1,59.9-0.2,89.9c-0.1,47.5-0.2,95.1-0.3,142.6c0,10.9-0.1,21.9-0.1,32.8
			C19.1,283.2,26.6,283.2,26.7,278.3L26.7,278.3z"/>
	</g>
</g>
<g>
	<line class="st1" x1="190.1" y1="373.4" x2="23.5" y2="276.9"/>
	<g>
		<path class="st1" d="M192,370.2c-18.8-10.9-37.7-21.8-56.5-32.7c-29.8-17.3-59.7-34.6-89.5-51.9c-6.9-4-13.7-8-20.6-11.9
			c-4.2-2.4-8,4.1-3.8,6.5c18.8,10.9,37.7,21.8,56.5,32.7c29.8,17.3,59.7,34.6,89.5,51.9c6.9,4,13.7,8,20.6,11.9
			C192.4,379.1,196.2,372.6,192,370.2L192,370.2z"/>
	</g>
</g>
<g>
	<line class="st2" x1="8.9" y1="510.7" x2="8.9" y2="13"/>
	<g>
		<path class="st2" d="M12.6,510.7c0-16.5,0-33.1,0-49.6c0-39.7,0-79.4,0-119.1c0-47.8,0-95.7,0-143.5c0-41.4,0-82.7,0-124.1
			c0-13.7,0-27.4,0-41.1c0-6.5,0.4-13.1,0-19.5c0-0.3,0-0.6,0-0.9c0-4.8-7.5-4.8-7.5,0c0,16.5,0,33.1,0,49.6c0,39.7,0,79.4,0,119.1
			c0,47.8,0,95.7,0,143.5c0,41.4,0,82.7,0,124.1c0,13.7,0,27.4,0,41.1c0,6.5-0.4,13.1,0,19.5c0,0.3,0,0.6,0,0.9
			C5.1,515.5,12.6,515.6,12.6,510.7L12.6,510.7z"/>
	</g>
</g>
<g>
	<line class="st2" x1="192" y1="625" x2="8.9" y2="511"/>
	<g>
		<path class="st2" d="M193.9,621.8c-20.6-12.9-41.3-25.7-61.9-38.6c-32.9-20.5-65.8-40.9-98.6-61.4c-7.5-4.7-15-9.3-22.5-14
			c-4.1-2.6-7.9,3.9-3.8,6.5c20.6,12.9,41.3,25.7,61.9,38.6c32.9,20.5,65.8,40.9,98.6,61.4c7.5,4.7,15,9.3,22.5,14
			C194.2,630.8,198,624.3,193.9,621.8L193.9,621.8z"/>
	</g>
</g>
<circle class="st3" cx="8.5" cy="9.8" r="6.8"/>
<circle class="st3" cx="23.5" cy="9.8" r="6.8"/>
<circle class="st3" cx="38.5" cy="9.8" r="6.8"/>
<circle class="st3" cx="37.5" cy="74.8" r="6.8"/>
<circle class="st3" cx="191.5" cy="163.8" r="6.8"/>
<circle class="st3" cx="23.5" cy="278.8" r="6.8"/>
<circle class="st3" cx="9.5" cy="510.8" r="6.8"/>
<circle class="st3" cx="191.5" cy="624.8" r="6.8"/>
<circle class="st3" cx="191.5" cy="374.8" r="6.8"/>
</svg>
