<?xml version="1.0" encoding="utf-8"?>
<!-- Generator: Adobe Illustrator 22.1.0, SVG Export Plug-In . SVG Version: 6.00 Build 0)  -->
<svg version="1.1" id="Layer_1" xmlns="http://www.w3.org/2000/svg" xmlns:xlink="http://www.w3.org/1999/xlink" x="0px" y="0px"
	 viewBox="0 0 932 167.1" style="enable-background:new 0 0 932 167.1;" xml:space="preserve">
<style type="text/css">
	.st0{fill:#FFFFFF;}
	.st1{fill:#00A79C;}
	.st2{font-family:'Helvetica-Bold';}
	.st3{font-size:67.8367px;}
</style>
<circle class="st0" cx="78.3" cy="85.9" r="52.4"/>
<circle class="st0" cx="188.7" cy="85.9" r="52.4"/>
<text transform="matrix(1 0 0 1 163.194 111.9893)" class="st1 st2 st3">C</text>
<circle class="st0" cx="301.4" cy="85.9" r="52.4"/>
<text transform="matrix(1 0 0 1 275.1473 111.9673)" class="st1 st2 st3">H</text>
<text transform="matrix(1 0 0 1 56.3383 111.9895)" class="st1 st2 st3">S</text>
<circle class="st0" cx="414.1" cy="85.9" r="52.4"/>
<circle class="st0" cx="525.6" cy="85.9" r="52.4"/>
<text transform="matrix(1 0 0 1 503.6926 111.989)" class="st1 st2 st3">D</text>
<circle class="st0" cx="637.2" cy="85.9" r="52.4"/>
<text transform="matrix(1 0 0 1 613.313 111.9678)" class="st1 st2 st3">U</text>
<text transform="matrix(1 0 0 1 391.5897 111.989)" class="st1 st2 st3">E</text>
<circle class="st0" cx="748.7" cy="85.9" r="52.4"/>
<circle class="st0" cx="860.3" cy="85.9" r="52.4"/>
<text transform="matrix(1 0 0 1 838.3426 111.989)" class="st1 st2 st3">E</text>
<text transform="matrix(1 0 0 1 729.7883 111.989)" class="st1 st2 st3">L</text>
</svg>
