<?xml version="1.0" encoding="utf-8"?>
<!-- Generator: Adobe Illustrator 22.1.0, SVG Export Plug-In . SVG Version: 6.00 Build 0)  -->
<svg version="1.1" id="Layer_1" xmlns="http://www.w3.org/2000/svg" xmlns:xlink="http://www.w3.org/1999/xlink" x="0px" y="0px"
	 viewBox="0 0 287 15" style="enable-background:new 0 0 287 15;" xml:space="preserve">
<style type="text/css">
	.st0{fill:#00A99D;}
	.st1{fill:#FFFFFF;stroke:#231F20;stroke-miterlimit:10;}
</style>
<g>
	<line class="st0" x1="281" y1="8" x2="12.5" y2="8.1"/>
	<g>
		<path class="st0" d="M281,3c-30.3,0-60.7,0-91,0c-48.1,0-96.2,0.1-144.4,0.1c-11.1,0-22.1,0-33.2,0c-6.4,0-6.4,10,0,10
			c30.3,0,60.7,0,91,0c48.1,0,96.2-0.1,144.4-0.1c11.1,0,22.1,0,33.2,0C287.4,13,287.4,3,281,3L281,3z"/>
	</g>
</g>
<circle class="st1" cx="7.4" cy="7.6" r="6.5"/>
<circle class="st1" cx="279.2" cy="7.6" r="6.5"/>
<circle class="st1" cx="169.5" cy="7.7" r="6.5"/>
</svg>
