<?xml version="1.0" encoding="utf-8"?>
<!-- Generator: Adobe Illustrator 22.1.0, SVG Export Plug-In . SVG Version: 6.00 Build 0)  -->
<svg version="1.1" id="Layer_1" xmlns="http://www.w3.org/2000/svg" xmlns:xlink="http://www.w3.org/1999/xlink" x="0px" y="0px"
	 viewBox="0 0 200.1 40" style="enable-background:new 0 0 200.1 40;" xml:space="preserve">
<style type="text/css">
	.st0{fill:#00A79C;}
	.st1{fill:#1D76BB;}
	.st2{fill:#FFFFFF;}
	.st3{font-family:'Helvetica-Bold';}
	.st4{font-size:17.6004px;}
	.st5{fill:#EF4137;}
	.st6{fill:#F69320;}
	.st7{fill:#F15B2A;}
	.st8{fill:#9E2064;}
	.st9{fill:#65308F;}
</style>
<circle class="st0" cx="13.6" cy="20" r="13.6"/>
<circle class="st1" cx="42.3" cy="20" r="13.6"/>
<text transform="matrix(1 0 0 1 36.8422 26.0032)" class="st2 st3 st4">E</text>
<circle class="st5" cx="71.5" cy="20" r="13.6"/>
<text transform="matrix(1 0 0 1 65.1009 27.1253)" class="st2 st3 st4">V</text>
<circle class="st6" cx="100.8" cy="20" r="13.6"/>
<text transform="matrix(1 0 0 1 95.3607 26.0032)" class="st2 st3 st4">F</text>
<circle class="st7" cx="129.5" cy="20" r="13.6"/>
<text transform="matrix(1 0 0 1 124.0843 26.0032)" class="st2 st3 st4">E</text>
<circle class="st8" cx="157.9" cy="20" r="13.6"/>
<text transform="matrix(1 0 0 1 152.5121 26.0032)" class="st2 st3 st4">S</text>
<circle class="st9" cx="186.5" cy="20" r="13.6"/>
<text transform="matrix(1 0 0 1 181.1302 26.0032)" class="st2 st3 st4">T</text>
<text transform="matrix(1 0 0 1 7.7528 26.0032)" class="st2 st3 st4">D</text>
</svg>
